%TF.GenerationSoftware,KiCad,Pcbnew,(5.1.9)-1*%
%TF.CreationDate,2021-06-11T11:12:06+10:00*%
%TF.ProjectId,AVRDevBoard,41565244-6576-4426-9f61-72642e6b6963,rev?*%
%TF.SameCoordinates,Original*%
%TF.FileFunction,Legend,Top*%
%TF.FilePolarity,Positive*%
%FSLAX46Y46*%
G04 Gerber Fmt 4.6, Leading zero omitted, Abs format (unit mm)*
G04 Created by KiCad (PCBNEW (5.1.9)-1) date 2021-06-11 11:12:06*
%MOMM*%
%LPD*%
G01*
G04 APERTURE LIST*
%ADD10C,0.150000*%
%ADD11C,0.120000*%
G04 APERTURE END LIST*
D10*
X81339747Y-81130952D02*
X81652247Y-78630952D01*
X82482604Y-81130952D02*
X81804032Y-79702380D01*
X82795104Y-78630952D02*
X81473675Y-80059523D01*
X84223675Y-78630952D02*
X84000461Y-80416666D01*
X83860580Y-80773809D01*
X83640342Y-81011904D01*
X83339747Y-81130952D01*
X83149270Y-81130952D01*
X84893318Y-80892857D02*
X84973675Y-81011904D01*
X84863556Y-81130952D01*
X84783199Y-81011904D01*
X84893318Y-80892857D01*
X84863556Y-81130952D01*
X85842723Y-78630952D02*
X86985580Y-78630952D01*
X86101651Y-81130952D02*
X86414151Y-78630952D01*
X87366532Y-78630952D02*
X87720699Y-81130952D01*
X88699866Y-78630952D01*
X90571889Y-80416666D02*
X91524270Y-80416666D01*
X90292127Y-81130952D02*
X91271294Y-78630952D01*
X91625461Y-81130952D01*
X92318913Y-78630952D02*
X92673080Y-81130952D01*
X93652247Y-78630952D01*
X95149270Y-81130952D02*
X94631413Y-79940476D01*
X94006413Y-81130952D02*
X94318913Y-78630952D01*
X95080818Y-78630952D01*
X95256413Y-78750000D01*
X95336770Y-78869047D01*
X95402247Y-79107142D01*
X95357604Y-79464285D01*
X95232604Y-79702380D01*
X95122485Y-79821428D01*
X94917127Y-79940476D01*
X94155223Y-79940476D01*
X98360580Y-79821428D02*
X98631413Y-79940476D01*
X98711770Y-80059523D01*
X98777247Y-80297619D01*
X98732604Y-80654761D01*
X98607604Y-80892857D01*
X98497485Y-81011904D01*
X98292127Y-81130952D01*
X97530223Y-81130952D01*
X97842723Y-78630952D01*
X98509389Y-78630952D01*
X98684985Y-78750000D01*
X98765342Y-78869047D01*
X98830818Y-79107142D01*
X98801056Y-79345238D01*
X98676056Y-79583333D01*
X98565937Y-79702380D01*
X98360580Y-79821428D01*
X97693913Y-79821428D01*
X100223675Y-78630952D02*
X100604627Y-78630952D01*
X100780223Y-78750000D01*
X100940937Y-78988095D01*
X100976651Y-79464285D01*
X100872485Y-80297619D01*
X100717723Y-80773809D01*
X100497485Y-81011904D01*
X100292127Y-81130952D01*
X99911175Y-81130952D01*
X99735580Y-81011904D01*
X99574866Y-80773809D01*
X99539151Y-80297619D01*
X99643318Y-79464285D01*
X99798080Y-78988095D01*
X100018318Y-78750000D01*
X100223675Y-78630952D01*
X101619508Y-80416666D02*
X102571889Y-80416666D01*
X101339747Y-81130952D02*
X102318913Y-78630952D01*
X102673080Y-81130952D01*
X104482604Y-81130952D02*
X103964747Y-79940476D01*
X103339747Y-81130952D02*
X103652247Y-78630952D01*
X104414151Y-78630952D01*
X104589747Y-78750000D01*
X104670104Y-78869047D01*
X104735580Y-79107142D01*
X104690937Y-79464285D01*
X104565937Y-79702380D01*
X104455818Y-79821428D01*
X104250461Y-79940476D01*
X103488556Y-79940476D01*
X105339747Y-81130952D02*
X105652247Y-78630952D01*
X106128437Y-78630952D01*
X106399270Y-78750000D01*
X106559985Y-78988095D01*
X106625461Y-79226190D01*
X106661175Y-79702380D01*
X106616532Y-80059523D01*
X106461770Y-80535714D01*
X106336770Y-80773809D01*
X106116532Y-81011904D01*
X105815937Y-81130952D01*
X105339747Y-81130952D01*
X110006413Y-81130952D02*
X109488556Y-79940476D01*
X108863556Y-81130952D02*
X109176056Y-78630952D01*
X109937961Y-78630952D01*
X110113556Y-78750000D01*
X110193913Y-78869047D01*
X110259389Y-79107142D01*
X110214747Y-79464285D01*
X110089747Y-79702380D01*
X109979627Y-79821428D01*
X109774270Y-79940476D01*
X109012366Y-79940476D01*
X111027247Y-79821428D02*
X111693913Y-79821428D01*
X111815937Y-81130952D02*
X110863556Y-81130952D01*
X111176056Y-78630952D01*
X112128437Y-78630952D01*
X112699866Y-78630952D02*
X113054032Y-81130952D01*
X114033199Y-78630952D01*
X115434985Y-81130952D02*
X114292127Y-81130952D01*
X114863556Y-81130952D02*
X115176056Y-78630952D01*
X114940937Y-78988095D01*
X114720699Y-79226190D01*
X114515342Y-79345238D01*
X116321889Y-80892857D02*
X116402247Y-81011904D01*
X116292127Y-81130952D01*
X116211770Y-81011904D01*
X116321889Y-80892857D01*
X116292127Y-81130952D01*
X117937961Y-78630952D02*
X118128437Y-78630952D01*
X118304032Y-78750000D01*
X118384389Y-78869047D01*
X118449866Y-79107142D01*
X118485580Y-79583333D01*
X118411175Y-80178571D01*
X118256413Y-80654761D01*
X118131413Y-80892857D01*
X118021294Y-81011904D01*
X117815937Y-81130952D01*
X117625461Y-81130952D01*
X117449866Y-81011904D01*
X117369508Y-80892857D01*
X117304032Y-80654761D01*
X117268318Y-80178571D01*
X117342723Y-79583333D01*
X117497485Y-79107142D01*
X117622485Y-78869047D01*
X117732604Y-78750000D01*
X117937961Y-78630952D01*
X31952380Y-95452380D02*
X31952380Y-94452380D01*
X32190476Y-94452380D01*
X32333333Y-94500000D01*
X32428571Y-94595238D01*
X32476190Y-94690476D01*
X32523809Y-94880952D01*
X32523809Y-95023809D01*
X32476190Y-95214285D01*
X32428571Y-95309523D01*
X32333333Y-95404761D01*
X32190476Y-95452380D01*
X31952380Y-95452380D01*
X33523809Y-95357142D02*
X33476190Y-95404761D01*
X33333333Y-95452380D01*
X33238095Y-95452380D01*
X33095238Y-95404761D01*
X33000000Y-95309523D01*
X32952380Y-95214285D01*
X32904761Y-95023809D01*
X32904761Y-94880952D01*
X32952380Y-94690476D01*
X33000000Y-94595238D01*
X33095238Y-94500000D01*
X33238095Y-94452380D01*
X33333333Y-94452380D01*
X33476190Y-94500000D01*
X33523809Y-94547619D01*
X34761904Y-95452380D02*
X34952380Y-95452380D01*
X35047619Y-95404761D01*
X35095238Y-95357142D01*
X35190476Y-95214285D01*
X35238095Y-95023809D01*
X35238095Y-94642857D01*
X35190476Y-94547619D01*
X35142857Y-94500000D01*
X35047619Y-94452380D01*
X34857142Y-94452380D01*
X34761904Y-94500000D01*
X34714285Y-94547619D01*
X34666666Y-94642857D01*
X34666666Y-94880952D01*
X34714285Y-94976190D01*
X34761904Y-95023809D01*
X34857142Y-95071428D01*
X35047619Y-95071428D01*
X35142857Y-95023809D01*
X35190476Y-94976190D01*
X35238095Y-94880952D01*
X35523809Y-94452380D02*
X35857142Y-95452380D01*
X36190476Y-94452380D01*
X30738095Y-116452380D02*
X30738095Y-117261904D01*
X30785714Y-117357142D01*
X30833333Y-117404761D01*
X30928571Y-117452380D01*
X31119047Y-117452380D01*
X31214285Y-117404761D01*
X31261904Y-117357142D01*
X31309523Y-117261904D01*
X31309523Y-116452380D01*
X31738095Y-117404761D02*
X31880952Y-117452380D01*
X32119047Y-117452380D01*
X32214285Y-117404761D01*
X32261904Y-117357142D01*
X32309523Y-117261904D01*
X32309523Y-117166666D01*
X32261904Y-117071428D01*
X32214285Y-117023809D01*
X32119047Y-116976190D01*
X31928571Y-116928571D01*
X31833333Y-116880952D01*
X31785714Y-116833333D01*
X31738095Y-116738095D01*
X31738095Y-116642857D01*
X31785714Y-116547619D01*
X31833333Y-116500000D01*
X31928571Y-116452380D01*
X32166666Y-116452380D01*
X32309523Y-116500000D01*
X33071428Y-116928571D02*
X33214285Y-116976190D01*
X33261904Y-117023809D01*
X33309523Y-117119047D01*
X33309523Y-117261904D01*
X33261904Y-117357142D01*
X33214285Y-117404761D01*
X33119047Y-117452380D01*
X32738095Y-117452380D01*
X32738095Y-116452380D01*
X33071428Y-116452380D01*
X33166666Y-116500000D01*
X33214285Y-116547619D01*
X33261904Y-116642857D01*
X33261904Y-116738095D01*
X33214285Y-116833333D01*
X33166666Y-116880952D01*
X33071428Y-116928571D01*
X32738095Y-116928571D01*
X31238095Y-107452380D02*
X31238095Y-106452380D01*
X31476190Y-106452380D01*
X31619047Y-106500000D01*
X31714285Y-106595238D01*
X31761904Y-106690476D01*
X31809523Y-106880952D01*
X31809523Y-107023809D01*
X31761904Y-107214285D01*
X31714285Y-107309523D01*
X31619047Y-107404761D01*
X31476190Y-107452380D01*
X31238095Y-107452380D01*
X32809523Y-107357142D02*
X32761904Y-107404761D01*
X32619047Y-107452380D01*
X32523809Y-107452380D01*
X32380952Y-107404761D01*
X32285714Y-107309523D01*
X32238095Y-107214285D01*
X32190476Y-107023809D01*
X32190476Y-106880952D01*
X32238095Y-106690476D01*
X32285714Y-106595238D01*
X32380952Y-106500000D01*
X32523809Y-106452380D01*
X32619047Y-106452380D01*
X32761904Y-106500000D01*
X32809523Y-106547619D01*
X69238095Y-121500000D02*
X69142857Y-121452380D01*
X69000000Y-121452380D01*
X68857142Y-121500000D01*
X68761904Y-121595238D01*
X68714285Y-121690476D01*
X68666666Y-121880952D01*
X68666666Y-122023809D01*
X68714285Y-122214285D01*
X68761904Y-122309523D01*
X68857142Y-122404761D01*
X69000000Y-122452380D01*
X69095238Y-122452380D01*
X69238095Y-122404761D01*
X69285714Y-122357142D01*
X69285714Y-122023809D01*
X69095238Y-122023809D01*
X69714285Y-122452380D02*
X69714285Y-121452380D01*
X70285714Y-122452380D01*
X70285714Y-121452380D01*
X70761904Y-122452380D02*
X70761904Y-121452380D01*
X71000000Y-121452380D01*
X71142857Y-121500000D01*
X71238095Y-121595238D01*
X71285714Y-121690476D01*
X71333333Y-121880952D01*
X71333333Y-122023809D01*
X71285714Y-122214285D01*
X71238095Y-122309523D01*
X71142857Y-122404761D01*
X71000000Y-122452380D01*
X70761904Y-122452380D01*
X69809523Y-123452380D02*
X69333333Y-123452380D01*
X69285714Y-123928571D01*
X69333333Y-123880952D01*
X69428571Y-123833333D01*
X69666666Y-123833333D01*
X69761904Y-123880952D01*
X69809523Y-123928571D01*
X69857142Y-124023809D01*
X69857142Y-124261904D01*
X69809523Y-124357142D01*
X69761904Y-124404761D01*
X69666666Y-124452380D01*
X69428571Y-124452380D01*
X69333333Y-124404761D01*
X69285714Y-124357142D01*
X70142857Y-123452380D02*
X70476190Y-124452380D01*
X70809523Y-123452380D01*
X111238095Y-88500000D02*
X111142857Y-88452380D01*
X111000000Y-88452380D01*
X110857142Y-88500000D01*
X110761904Y-88595238D01*
X110714285Y-88690476D01*
X110666666Y-88880952D01*
X110666666Y-89023809D01*
X110714285Y-89214285D01*
X110761904Y-89309523D01*
X110857142Y-89404761D01*
X111000000Y-89452380D01*
X111095238Y-89452380D01*
X111238095Y-89404761D01*
X111285714Y-89357142D01*
X111285714Y-89023809D01*
X111095238Y-89023809D01*
X111714285Y-89452380D02*
X111714285Y-88452380D01*
X112285714Y-89452380D01*
X112285714Y-88452380D01*
X112761904Y-89452380D02*
X112761904Y-88452380D01*
X113000000Y-88452380D01*
X113142857Y-88500000D01*
X113238095Y-88595238D01*
X113285714Y-88690476D01*
X113333333Y-88880952D01*
X113333333Y-89023809D01*
X113285714Y-89214285D01*
X113238095Y-89309523D01*
X113142857Y-89404761D01*
X113000000Y-89452380D01*
X112761904Y-89452380D01*
X111809523Y-86452380D02*
X111333333Y-86452380D01*
X111285714Y-86928571D01*
X111333333Y-86880952D01*
X111428571Y-86833333D01*
X111666666Y-86833333D01*
X111761904Y-86880952D01*
X111809523Y-86928571D01*
X111857142Y-87023809D01*
X111857142Y-87261904D01*
X111809523Y-87357142D01*
X111761904Y-87404761D01*
X111666666Y-87452380D01*
X111428571Y-87452380D01*
X111333333Y-87404761D01*
X111285714Y-87357142D01*
X112142857Y-86452380D02*
X112476190Y-87452380D01*
X112809523Y-86452380D01*
X77666666Y-127452380D02*
X77666666Y-126452380D01*
X78047619Y-126452380D01*
X78142857Y-126500000D01*
X78190476Y-126547619D01*
X78238095Y-126642857D01*
X78238095Y-126785714D01*
X78190476Y-126880952D01*
X78142857Y-126928571D01*
X78047619Y-126976190D01*
X77666666Y-126976190D01*
X78666666Y-127452380D02*
X78666666Y-126452380D01*
X78904761Y-126452380D01*
X79047619Y-126500000D01*
X79142857Y-126595238D01*
X79190476Y-126690476D01*
X79238095Y-126880952D01*
X79238095Y-127023809D01*
X79190476Y-127214285D01*
X79142857Y-127309523D01*
X79047619Y-127404761D01*
X78904761Y-127452380D01*
X78666666Y-127452380D01*
X79857142Y-126452380D02*
X79952380Y-126452380D01*
X80047619Y-126500000D01*
X80095238Y-126547619D01*
X80142857Y-126642857D01*
X80190476Y-126833333D01*
X80190476Y-127071428D01*
X80142857Y-127261904D01*
X80095238Y-127357142D01*
X80047619Y-127404761D01*
X79952380Y-127452380D01*
X79857142Y-127452380D01*
X79761904Y-127404761D01*
X79714285Y-127357142D01*
X79666666Y-127261904D01*
X79619047Y-127071428D01*
X79619047Y-126833333D01*
X79666666Y-126642857D01*
X79714285Y-126547619D01*
X79761904Y-126500000D01*
X79857142Y-126452380D01*
X80619047Y-127071428D02*
X81380952Y-127071428D01*
X81857142Y-127452380D02*
X81857142Y-126452380D01*
X82238095Y-126452380D01*
X82333333Y-126500000D01*
X82380952Y-126547619D01*
X82428571Y-126642857D01*
X82428571Y-126785714D01*
X82380952Y-126880952D01*
X82333333Y-126928571D01*
X82238095Y-126976190D01*
X81857142Y-126976190D01*
X82857142Y-127452380D02*
X82857142Y-126452380D01*
X83095238Y-126452380D01*
X83238095Y-126500000D01*
X83333333Y-126595238D01*
X83380952Y-126690476D01*
X83428571Y-126880952D01*
X83428571Y-127023809D01*
X83380952Y-127214285D01*
X83333333Y-127309523D01*
X83238095Y-127404761D01*
X83095238Y-127452380D01*
X82857142Y-127452380D01*
X83761904Y-126452380D02*
X84428571Y-126452380D01*
X84000000Y-127452380D01*
X91380952Y-84166666D02*
X91857142Y-84166666D01*
X91285714Y-84452380D02*
X91619047Y-83452380D01*
X91952380Y-84452380D01*
X92857142Y-84452380D02*
X92523809Y-83976190D01*
X92285714Y-84452380D02*
X92285714Y-83452380D01*
X92666666Y-83452380D01*
X92761904Y-83500000D01*
X92809523Y-83547619D01*
X92857142Y-83642857D01*
X92857142Y-83785714D01*
X92809523Y-83880952D01*
X92761904Y-83928571D01*
X92666666Y-83976190D01*
X92285714Y-83976190D01*
X93285714Y-83928571D02*
X93619047Y-83928571D01*
X93761904Y-84452380D02*
X93285714Y-84452380D01*
X93285714Y-83452380D01*
X93761904Y-83452380D01*
X94523809Y-83928571D02*
X94190476Y-83928571D01*
X94190476Y-84452380D02*
X94190476Y-83452380D01*
X94666666Y-83452380D01*
X99666666Y-84452380D02*
X99666666Y-83452380D01*
X100047619Y-83452380D01*
X100142857Y-83500000D01*
X100190476Y-83547619D01*
X100238095Y-83642857D01*
X100238095Y-83785714D01*
X100190476Y-83880952D01*
X100142857Y-83928571D01*
X100047619Y-83976190D01*
X99666666Y-83976190D01*
X101000000Y-83928571D02*
X101142857Y-83976190D01*
X101190476Y-84023809D01*
X101238095Y-84119047D01*
X101238095Y-84261904D01*
X101190476Y-84357142D01*
X101142857Y-84404761D01*
X101047619Y-84452380D01*
X100666666Y-84452380D01*
X100666666Y-83452380D01*
X101000000Y-83452380D01*
X101095238Y-83500000D01*
X101142857Y-83547619D01*
X101190476Y-83642857D01*
X101190476Y-83738095D01*
X101142857Y-83833333D01*
X101095238Y-83880952D01*
X101000000Y-83928571D01*
X100666666Y-83928571D01*
X102142857Y-83452380D02*
X101666666Y-83452380D01*
X101619047Y-83928571D01*
X101666666Y-83880952D01*
X101761904Y-83833333D01*
X102000000Y-83833333D01*
X102095238Y-83880952D01*
X102142857Y-83928571D01*
X102190476Y-84023809D01*
X102190476Y-84261904D01*
X102142857Y-84357142D01*
X102095238Y-84404761D01*
X102000000Y-84452380D01*
X101761904Y-84452380D01*
X101666666Y-84404761D01*
X101619047Y-84357142D01*
X102619047Y-84071428D02*
X103380952Y-84071428D01*
X103857142Y-84452380D02*
X103857142Y-83452380D01*
X104238095Y-83452380D01*
X104333333Y-83500000D01*
X104380952Y-83547619D01*
X104428571Y-83642857D01*
X104428571Y-83785714D01*
X104380952Y-83880952D01*
X104333333Y-83928571D01*
X104238095Y-83976190D01*
X103857142Y-83976190D01*
X105190476Y-83928571D02*
X105333333Y-83976190D01*
X105380952Y-84023809D01*
X105428571Y-84119047D01*
X105428571Y-84261904D01*
X105380952Y-84357142D01*
X105333333Y-84404761D01*
X105238095Y-84452380D01*
X104857142Y-84452380D01*
X104857142Y-83452380D01*
X105190476Y-83452380D01*
X105285714Y-83500000D01*
X105333333Y-83547619D01*
X105380952Y-83642857D01*
X105380952Y-83738095D01*
X105333333Y-83833333D01*
X105285714Y-83880952D01*
X105190476Y-83928571D01*
X104857142Y-83928571D01*
X106047619Y-83452380D02*
X106142857Y-83452380D01*
X106238095Y-83500000D01*
X106285714Y-83547619D01*
X106333333Y-83642857D01*
X106380952Y-83833333D01*
X106380952Y-84071428D01*
X106333333Y-84261904D01*
X106285714Y-84357142D01*
X106238095Y-84404761D01*
X106142857Y-84452380D01*
X106047619Y-84452380D01*
X105952380Y-84404761D01*
X105904761Y-84357142D01*
X105857142Y-84261904D01*
X105809523Y-84071428D01*
X105809523Y-83833333D01*
X105857142Y-83642857D01*
X105904761Y-83547619D01*
X105952380Y-83500000D01*
X106047619Y-83452380D01*
X79666666Y-84452380D02*
X79666666Y-83452380D01*
X80047619Y-83452380D01*
X80142857Y-83500000D01*
X80190476Y-83547619D01*
X80238095Y-83642857D01*
X80238095Y-83785714D01*
X80190476Y-83880952D01*
X80142857Y-83928571D01*
X80047619Y-83976190D01*
X79666666Y-83976190D01*
X81238095Y-84357142D02*
X81190476Y-84404761D01*
X81047619Y-84452380D01*
X80952380Y-84452380D01*
X80809523Y-84404761D01*
X80714285Y-84309523D01*
X80666666Y-84214285D01*
X80619047Y-84023809D01*
X80619047Y-83880952D01*
X80666666Y-83690476D01*
X80714285Y-83595238D01*
X80809523Y-83500000D01*
X80952380Y-83452380D01*
X81047619Y-83452380D01*
X81190476Y-83500000D01*
X81238095Y-83547619D01*
X82142857Y-83452380D02*
X81666666Y-83452380D01*
X81619047Y-83928571D01*
X81666666Y-83880952D01*
X81761904Y-83833333D01*
X82000000Y-83833333D01*
X82095238Y-83880952D01*
X82142857Y-83928571D01*
X82190476Y-84023809D01*
X82190476Y-84261904D01*
X82142857Y-84357142D01*
X82095238Y-84404761D01*
X82000000Y-84452380D01*
X81761904Y-84452380D01*
X81666666Y-84404761D01*
X81619047Y-84357142D01*
X82619047Y-84071428D02*
X83380952Y-84071428D01*
X83857142Y-84452380D02*
X83857142Y-83452380D01*
X84238095Y-83452380D01*
X84333333Y-83500000D01*
X84380952Y-83547619D01*
X84428571Y-83642857D01*
X84428571Y-83785714D01*
X84380952Y-83880952D01*
X84333333Y-83928571D01*
X84238095Y-83976190D01*
X83857142Y-83976190D01*
X85428571Y-84357142D02*
X85380952Y-84404761D01*
X85238095Y-84452380D01*
X85142857Y-84452380D01*
X85000000Y-84404761D01*
X84904761Y-84309523D01*
X84857142Y-84214285D01*
X84809523Y-84023809D01*
X84809523Y-83880952D01*
X84857142Y-83690476D01*
X84904761Y-83595238D01*
X85000000Y-83500000D01*
X85142857Y-83452380D01*
X85238095Y-83452380D01*
X85380952Y-83500000D01*
X85428571Y-83547619D01*
X86047619Y-83452380D02*
X86142857Y-83452380D01*
X86238095Y-83500000D01*
X86285714Y-83547619D01*
X86333333Y-83642857D01*
X86380952Y-83833333D01*
X86380952Y-84071428D01*
X86333333Y-84261904D01*
X86285714Y-84357142D01*
X86238095Y-84404761D01*
X86142857Y-84452380D01*
X86047619Y-84452380D01*
X85952380Y-84404761D01*
X85904761Y-84357142D01*
X85857142Y-84261904D01*
X85809523Y-84071428D01*
X85809523Y-83833333D01*
X85857142Y-83642857D01*
X85904761Y-83547619D01*
X85952380Y-83500000D01*
X86047619Y-83452380D01*
X72452380Y-84452380D02*
X72119047Y-83976190D01*
X71880952Y-84452380D02*
X71880952Y-83452380D01*
X72261904Y-83452380D01*
X72357142Y-83500000D01*
X72404761Y-83547619D01*
X72452380Y-83642857D01*
X72452380Y-83785714D01*
X72404761Y-83880952D01*
X72357142Y-83928571D01*
X72261904Y-83976190D01*
X71880952Y-83976190D01*
X72833333Y-84404761D02*
X72976190Y-84452380D01*
X73214285Y-84452380D01*
X73309523Y-84404761D01*
X73357142Y-84357142D01*
X73404761Y-84261904D01*
X73404761Y-84166666D01*
X73357142Y-84071428D01*
X73309523Y-84023809D01*
X73214285Y-83976190D01*
X73023809Y-83928571D01*
X72928571Y-83880952D01*
X72880952Y-83833333D01*
X72833333Y-83738095D01*
X72833333Y-83642857D01*
X72880952Y-83547619D01*
X72928571Y-83500000D01*
X73023809Y-83452380D01*
X73261904Y-83452380D01*
X73404761Y-83500000D01*
X73690476Y-83452380D02*
X74261904Y-83452380D01*
X73976190Y-84452380D02*
X73976190Y-83452380D01*
X56452380Y-84452380D02*
X56119047Y-83976190D01*
X55880952Y-84452380D02*
X55880952Y-83452380D01*
X56261904Y-83452380D01*
X56357142Y-83500000D01*
X56404761Y-83547619D01*
X56452380Y-83642857D01*
X56452380Y-83785714D01*
X56404761Y-83880952D01*
X56357142Y-83928571D01*
X56261904Y-83976190D01*
X55880952Y-83976190D01*
X56833333Y-84404761D02*
X56976190Y-84452380D01*
X57214285Y-84452380D01*
X57309523Y-84404761D01*
X57357142Y-84357142D01*
X57404761Y-84261904D01*
X57404761Y-84166666D01*
X57357142Y-84071428D01*
X57309523Y-84023809D01*
X57214285Y-83976190D01*
X57023809Y-83928571D01*
X56928571Y-83880952D01*
X56880952Y-83833333D01*
X56833333Y-83738095D01*
X56833333Y-83642857D01*
X56880952Y-83547619D01*
X56928571Y-83500000D01*
X57023809Y-83452380D01*
X57261904Y-83452380D01*
X57404761Y-83500000D01*
X57690476Y-83452380D02*
X58261904Y-83452380D01*
X57976190Y-84452380D02*
X57976190Y-83452380D01*
X59666666Y-84452380D02*
X59666666Y-83452380D01*
X60047619Y-83452380D01*
X60142857Y-83500000D01*
X60190476Y-83547619D01*
X60238095Y-83642857D01*
X60238095Y-83785714D01*
X60190476Y-83880952D01*
X60142857Y-83928571D01*
X60047619Y-83976190D01*
X59666666Y-83976190D01*
X61000000Y-83928571D02*
X61142857Y-83976190D01*
X61190476Y-84023809D01*
X61238095Y-84119047D01*
X61238095Y-84261904D01*
X61190476Y-84357142D01*
X61142857Y-84404761D01*
X61047619Y-84452380D01*
X60666666Y-84452380D01*
X60666666Y-83452380D01*
X61000000Y-83452380D01*
X61095238Y-83500000D01*
X61142857Y-83547619D01*
X61190476Y-83642857D01*
X61190476Y-83738095D01*
X61142857Y-83833333D01*
X61095238Y-83880952D01*
X61000000Y-83928571D01*
X60666666Y-83928571D01*
X61619047Y-83547619D02*
X61666666Y-83500000D01*
X61761904Y-83452380D01*
X62000000Y-83452380D01*
X62095238Y-83500000D01*
X62142857Y-83547619D01*
X62190476Y-83642857D01*
X62190476Y-83738095D01*
X62142857Y-83880952D01*
X61571428Y-84452380D01*
X62190476Y-84452380D01*
X62619047Y-84071428D02*
X63380952Y-84071428D01*
X63857142Y-84452380D02*
X63857142Y-83452380D01*
X64238095Y-83452380D01*
X64333333Y-83500000D01*
X64380952Y-83547619D01*
X64428571Y-83642857D01*
X64428571Y-83785714D01*
X64380952Y-83880952D01*
X64333333Y-83928571D01*
X64238095Y-83976190D01*
X63857142Y-83976190D01*
X65190476Y-83928571D02*
X65333333Y-83976190D01*
X65380952Y-84023809D01*
X65428571Y-84119047D01*
X65428571Y-84261904D01*
X65380952Y-84357142D01*
X65333333Y-84404761D01*
X65238095Y-84452380D01*
X64857142Y-84452380D01*
X64857142Y-83452380D01*
X65190476Y-83452380D01*
X65285714Y-83500000D01*
X65333333Y-83547619D01*
X65380952Y-83642857D01*
X65380952Y-83738095D01*
X65333333Y-83833333D01*
X65285714Y-83880952D01*
X65190476Y-83928571D01*
X64857142Y-83928571D01*
X66047619Y-83452380D02*
X66142857Y-83452380D01*
X66238095Y-83500000D01*
X66285714Y-83547619D01*
X66333333Y-83642857D01*
X66380952Y-83833333D01*
X66380952Y-84071428D01*
X66333333Y-84261904D01*
X66285714Y-84357142D01*
X66238095Y-84404761D01*
X66142857Y-84452380D01*
X66047619Y-84452380D01*
X65952380Y-84404761D01*
X65904761Y-84357142D01*
X65857142Y-84261904D01*
X65809523Y-84071428D01*
X65809523Y-83833333D01*
X65857142Y-83642857D01*
X65904761Y-83547619D01*
X65952380Y-83500000D01*
X66047619Y-83452380D01*
X70761904Y-78452380D02*
X70761904Y-77452380D01*
X71142857Y-77452380D01*
X71238095Y-77500000D01*
X71285714Y-77547619D01*
X71333333Y-77642857D01*
X71333333Y-77785714D01*
X71285714Y-77880952D01*
X71238095Y-77928571D01*
X71142857Y-77976190D01*
X70761904Y-77976190D01*
X72095238Y-77928571D02*
X72238095Y-77976190D01*
X72285714Y-78023809D01*
X72333333Y-78119047D01*
X72333333Y-78261904D01*
X72285714Y-78357142D01*
X72238095Y-78404761D01*
X72142857Y-78452380D01*
X71761904Y-78452380D01*
X71761904Y-77452380D01*
X72095238Y-77452380D01*
X72190476Y-77500000D01*
X72238095Y-77547619D01*
X72285714Y-77642857D01*
X72285714Y-77738095D01*
X72238095Y-77833333D01*
X72190476Y-77880952D01*
X72095238Y-77928571D01*
X71761904Y-77928571D01*
X73190476Y-77785714D02*
X73190476Y-78452380D01*
X72952380Y-77404761D02*
X72714285Y-78119047D01*
X73333333Y-78119047D01*
X74428571Y-77404761D02*
X73571428Y-78690476D01*
X74761904Y-78452380D02*
X74761904Y-77452380D01*
X75142857Y-77452380D01*
X75238095Y-77500000D01*
X75285714Y-77547619D01*
X75333333Y-77642857D01*
X75333333Y-77785714D01*
X75285714Y-77880952D01*
X75238095Y-77928571D01*
X75142857Y-77976190D01*
X74761904Y-77976190D01*
X76095238Y-77928571D02*
X76238095Y-77976190D01*
X76285714Y-78023809D01*
X76333333Y-78119047D01*
X76333333Y-78261904D01*
X76285714Y-78357142D01*
X76238095Y-78404761D01*
X76142857Y-78452380D01*
X75761904Y-78452380D01*
X75761904Y-77452380D01*
X76095238Y-77452380D01*
X76190476Y-77500000D01*
X76238095Y-77547619D01*
X76285714Y-77642857D01*
X76285714Y-77738095D01*
X76238095Y-77833333D01*
X76190476Y-77880952D01*
X76095238Y-77928571D01*
X75761904Y-77928571D01*
X77285714Y-78452380D02*
X76714285Y-78452380D01*
X77000000Y-78452380D02*
X77000000Y-77452380D01*
X76904761Y-77595238D01*
X76809523Y-77690476D01*
X76714285Y-77738095D01*
X60761904Y-78452380D02*
X60761904Y-77452380D01*
X61142857Y-77452380D01*
X61238095Y-77500000D01*
X61285714Y-77547619D01*
X61333333Y-77642857D01*
X61333333Y-77785714D01*
X61285714Y-77880952D01*
X61238095Y-77928571D01*
X61142857Y-77976190D01*
X60761904Y-77976190D01*
X62095238Y-77928571D02*
X62238095Y-77976190D01*
X62285714Y-78023809D01*
X62333333Y-78119047D01*
X62333333Y-78261904D01*
X62285714Y-78357142D01*
X62238095Y-78404761D01*
X62142857Y-78452380D01*
X61761904Y-78452380D01*
X61761904Y-77452380D01*
X62095238Y-77452380D01*
X62190476Y-77500000D01*
X62238095Y-77547619D01*
X62285714Y-77642857D01*
X62285714Y-77738095D01*
X62238095Y-77833333D01*
X62190476Y-77880952D01*
X62095238Y-77928571D01*
X61761904Y-77928571D01*
X63238095Y-77452380D02*
X62761904Y-77452380D01*
X62714285Y-77928571D01*
X62761904Y-77880952D01*
X62857142Y-77833333D01*
X63095238Y-77833333D01*
X63190476Y-77880952D01*
X63238095Y-77928571D01*
X63285714Y-78023809D01*
X63285714Y-78261904D01*
X63238095Y-78357142D01*
X63190476Y-78404761D01*
X63095238Y-78452380D01*
X62857142Y-78452380D01*
X62761904Y-78404761D01*
X62714285Y-78357142D01*
X64428571Y-77404761D02*
X63571428Y-78690476D01*
X64761904Y-78452380D02*
X64761904Y-77452380D01*
X65142857Y-77452380D01*
X65238095Y-77500000D01*
X65285714Y-77547619D01*
X65333333Y-77642857D01*
X65333333Y-77785714D01*
X65285714Y-77880952D01*
X65238095Y-77928571D01*
X65142857Y-77976190D01*
X64761904Y-77976190D01*
X66095238Y-77928571D02*
X66238095Y-77976190D01*
X66285714Y-78023809D01*
X66333333Y-78119047D01*
X66333333Y-78261904D01*
X66285714Y-78357142D01*
X66238095Y-78404761D01*
X66142857Y-78452380D01*
X65761904Y-78452380D01*
X65761904Y-77452380D01*
X66095238Y-77452380D01*
X66190476Y-77500000D01*
X66238095Y-77547619D01*
X66285714Y-77642857D01*
X66285714Y-77738095D01*
X66238095Y-77833333D01*
X66190476Y-77880952D01*
X66095238Y-77928571D01*
X65761904Y-77928571D01*
X66714285Y-77547619D02*
X66761904Y-77500000D01*
X66857142Y-77452380D01*
X67095238Y-77452380D01*
X67190476Y-77500000D01*
X67238095Y-77547619D01*
X67285714Y-77642857D01*
X67285714Y-77738095D01*
X67238095Y-77880952D01*
X66666666Y-78452380D01*
X67285714Y-78452380D01*
D11*
%TO.C,C1*%
X38738748Y-113735000D02*
X39261252Y-113735000D01*
X38738748Y-112265000D02*
X39261252Y-112265000D01*
%TO.C,C2*%
X46701248Y-98735000D02*
X47223752Y-98735000D01*
X46701248Y-97265000D02*
X47223752Y-97265000D01*
%TO.C,C3*%
X46738748Y-100265000D02*
X47261252Y-100265000D01*
X46738748Y-101735000D02*
X47261252Y-101735000D01*
%TO.C,C4*%
X99735000Y-122776248D02*
X99735000Y-123298752D01*
X98265000Y-122776248D02*
X98265000Y-123298752D01*
%TO.C,C5*%
X103265000Y-122738748D02*
X103265000Y-123261252D01*
X104735000Y-122738748D02*
X104735000Y-123261252D01*
%TO.C,C6*%
X94738748Y-97265000D02*
X95261252Y-97265000D01*
X94738748Y-98735000D02*
X95261252Y-98735000D01*
%TO.C,C7*%
X90223752Y-98735000D02*
X89701248Y-98735000D01*
X90223752Y-97265000D02*
X89701248Y-97265000D01*
%TO.C,C8*%
X55261252Y-97265000D02*
X54738748Y-97265000D01*
X55261252Y-98735000D02*
X54738748Y-98735000D01*
%TO.C,D1*%
X44000000Y-84250000D02*
X46000000Y-84250000D01*
X46000000Y-84250000D02*
X46000000Y-80350000D01*
X44000000Y-84250000D02*
X44000000Y-80350000D01*
%TO.C,D2*%
X63025000Y-80960000D02*
X65885000Y-80960000D01*
X65885000Y-80960000D02*
X65885000Y-79040000D01*
X65885000Y-79040000D02*
X63025000Y-79040000D01*
%TO.C,D3*%
X75860000Y-79040000D02*
X73000000Y-79040000D01*
X75860000Y-80960000D02*
X75860000Y-79040000D01*
X73000000Y-80960000D02*
X75860000Y-80960000D01*
%TO.C,D4*%
X40975000Y-125040000D02*
X38115000Y-125040000D01*
X38115000Y-125040000D02*
X38115000Y-126960000D01*
X38115000Y-126960000D02*
X40975000Y-126960000D01*
%TO.C,F1*%
X46710000Y-87388748D02*
X46710000Y-90161252D01*
X43290000Y-87388748D02*
X43290000Y-90161252D01*
%TO.C,J1*%
X63810000Y-92670000D02*
X63810000Y-95330000D01*
X63810000Y-92670000D02*
X56130000Y-92670000D01*
X56130000Y-92670000D02*
X56130000Y-95330000D01*
X63810000Y-95330000D02*
X56130000Y-95330000D01*
X66410000Y-95330000D02*
X65080000Y-95330000D01*
X66410000Y-94000000D02*
X66410000Y-95330000D01*
%TO.C,J2*%
X66330000Y-85130000D02*
X66330000Y-87730000D01*
X66330000Y-85130000D02*
X56050000Y-85130000D01*
X56050000Y-85130000D02*
X56050000Y-90330000D01*
X63730000Y-90330000D02*
X56050000Y-90330000D01*
X63730000Y-87730000D02*
X63730000Y-90330000D01*
X66330000Y-87730000D02*
X63730000Y-87730000D01*
X66330000Y-90330000D02*
X65000000Y-90330000D01*
X66330000Y-89000000D02*
X66330000Y-90330000D01*
%TO.C,J3*%
X106730000Y-92670000D02*
X106730000Y-95330000D01*
X106730000Y-92670000D02*
X91430000Y-92670000D01*
X91430000Y-92670000D02*
X91430000Y-95330000D01*
X106730000Y-95330000D02*
X91430000Y-95330000D01*
X109330000Y-95330000D02*
X108000000Y-95330000D01*
X109330000Y-94000000D02*
X109330000Y-95330000D01*
%TO.C,J4*%
X89570000Y-94000000D02*
X89570000Y-95330000D01*
X89570000Y-95330000D02*
X88240000Y-95330000D01*
X86970000Y-95330000D02*
X71670000Y-95330000D01*
X71670000Y-92670000D02*
X71670000Y-95330000D01*
X86970000Y-92670000D02*
X71670000Y-92670000D01*
X86970000Y-92670000D02*
X86970000Y-95330000D01*
%TO.C,J5*%
X74270000Y-118330000D02*
X74270000Y-115670000D01*
X74270000Y-118330000D02*
X92110000Y-118330000D01*
X92110000Y-118330000D02*
X92110000Y-115670000D01*
X74270000Y-115670000D02*
X92110000Y-115670000D01*
X71670000Y-115670000D02*
X73000000Y-115670000D01*
X71670000Y-117000000D02*
X71670000Y-115670000D01*
%TO.C,J6*%
X72050000Y-125330000D02*
X72050000Y-122730000D01*
X72050000Y-125330000D02*
X89950000Y-125330000D01*
X89950000Y-125330000D02*
X89950000Y-120130000D01*
X74650000Y-120130000D02*
X89950000Y-120130000D01*
X74650000Y-122730000D02*
X74650000Y-120130000D01*
X72050000Y-122730000D02*
X74650000Y-122730000D01*
X72050000Y-120130000D02*
X73380000Y-120130000D01*
X72050000Y-121460000D02*
X72050000Y-120130000D01*
%TO.C,J7*%
X89330000Y-89000000D02*
X89330000Y-90330000D01*
X89330000Y-90330000D02*
X88000000Y-90330000D01*
X89330000Y-87730000D02*
X86730000Y-87730000D01*
X86730000Y-87730000D02*
X86730000Y-90330000D01*
X86730000Y-90330000D02*
X71430000Y-90330000D01*
X71430000Y-85130000D02*
X71430000Y-90330000D01*
X89330000Y-85130000D02*
X71430000Y-85130000D01*
X89330000Y-85130000D02*
X89330000Y-87730000D01*
%TO.C,J8*%
X109490000Y-85130000D02*
X109490000Y-87730000D01*
X109490000Y-85130000D02*
X91590000Y-85130000D01*
X91590000Y-85130000D02*
X91590000Y-90330000D01*
X106890000Y-90330000D02*
X91590000Y-90330000D01*
X106890000Y-87730000D02*
X106890000Y-90330000D01*
X109490000Y-87730000D02*
X106890000Y-87730000D01*
X109490000Y-90330000D02*
X108160000Y-90330000D01*
X109490000Y-89000000D02*
X109490000Y-90330000D01*
%TO.C,J9*%
X30200000Y-89000000D02*
X35000000Y-89000000D01*
X30200000Y-83000000D02*
X35000000Y-83000000D01*
X30200000Y-90560000D02*
X30200000Y-81440000D01*
X26890000Y-90560000D02*
X26890000Y-81440000D01*
X26890000Y-90560000D02*
X30500000Y-90560000D01*
X33500000Y-90560000D02*
X36500000Y-90560000D01*
X39500000Y-90560000D02*
X41810000Y-90560000D01*
X39500000Y-81440000D02*
X41810000Y-81440000D01*
X33500000Y-81440000D02*
X36500000Y-81440000D01*
X41810000Y-90560000D02*
X41810000Y-81440000D01*
X26890000Y-81440000D02*
X30500000Y-81440000D01*
X32080000Y-78740000D02*
X30740000Y-78740000D01*
X30740000Y-78740000D02*
X30740000Y-80640000D01*
X35000000Y-83000000D02*
G75*
G02*
X35000000Y-89000000I0J-3000000D01*
G01*
%TO.C,J10*%
X34762500Y-119100000D02*
X34762500Y-119550000D01*
X32912500Y-119100000D02*
X34762500Y-119100000D01*
X30362500Y-126900000D02*
X30612500Y-126900000D01*
X30362500Y-119100000D02*
X30612500Y-119100000D01*
X32912500Y-126900000D02*
X34762500Y-126900000D01*
X34762500Y-126900000D02*
X34762500Y-126450000D01*
X35312500Y-121300000D02*
X35312500Y-121750000D01*
X35312500Y-121300000D02*
X34862500Y-121300000D01*
%TO.C,ICSP*%
X112130000Y-101130000D02*
X113460000Y-101130000D01*
X112130000Y-102460000D02*
X112130000Y-101130000D01*
X114730000Y-101130000D02*
X117330000Y-101130000D01*
X114730000Y-103730000D02*
X114730000Y-101130000D01*
X112130000Y-103730000D02*
X114730000Y-103730000D01*
X117330000Y-101130000D02*
X117330000Y-108870000D01*
X112130000Y-103730000D02*
X112130000Y-108870000D01*
X112130000Y-108870000D02*
X117330000Y-108870000D01*
%TO.C,R1*%
X48227064Y-120265000D02*
X47772936Y-120265000D01*
X48227064Y-121735000D02*
X47772936Y-121735000D01*
%TO.C,R2*%
X59227064Y-80735000D02*
X58772936Y-80735000D01*
X59227064Y-79265000D02*
X58772936Y-79265000D01*
%TO.C,R3*%
X69227064Y-79265000D02*
X68772936Y-79265000D01*
X69227064Y-80735000D02*
X68772936Y-80735000D01*
%TO.C,R4*%
X40227064Y-121735000D02*
X39772936Y-121735000D01*
X40227064Y-120265000D02*
X39772936Y-120265000D01*
%TO.C,SW1*%
X33120000Y-113400000D02*
X33120000Y-113600000D01*
X28980000Y-110600000D02*
X28770000Y-110800000D01*
X28980000Y-111900000D02*
X28770000Y-111700000D01*
X30270000Y-110600000D02*
X28980000Y-110600000D01*
X28770000Y-110800000D02*
X28770000Y-111700000D01*
X28980000Y-111900000D02*
X30270000Y-111900000D01*
X30270000Y-109150000D02*
X30270000Y-114850000D01*
X33120000Y-110400000D02*
X33120000Y-112100000D01*
X32070000Y-108550000D02*
X31280000Y-108550000D01*
X31280000Y-115450000D02*
X32070000Y-115450000D01*
%TO.C,RESET*%
X62205000Y-118020000D02*
X62205000Y-118050000D01*
X62205000Y-124480000D02*
X62205000Y-124450000D01*
X55745000Y-124480000D02*
X55745000Y-124450000D01*
X55745000Y-118050000D02*
X55745000Y-118020000D01*
X62205000Y-119950000D02*
X62205000Y-122550000D01*
X55745000Y-118020000D02*
X62205000Y-118020000D01*
X55745000Y-119950000D02*
X55745000Y-122550000D01*
X55745000Y-124480000D02*
X62205000Y-124480000D01*
%TO.C,U1*%
X37090000Y-97590000D02*
X37090000Y-98850000D01*
X37090000Y-104410000D02*
X37090000Y-103150000D01*
X40850000Y-97590000D02*
X37090000Y-97590000D01*
X43100000Y-104410000D02*
X37090000Y-104410000D01*
%TO.C,U2*%
X55670000Y-106190000D02*
X55670000Y-107840000D01*
X55670000Y-107840000D02*
X65950000Y-107840000D01*
X65950000Y-107840000D02*
X65950000Y-102540000D01*
X65950000Y-102540000D02*
X55670000Y-102540000D01*
X55670000Y-102540000D02*
X55670000Y-104190000D01*
X55670000Y-104190000D02*
G75*
G02*
X55670000Y-106190000I0J-1000000D01*
G01*
%TO.C,U3*%
X72670000Y-106190000D02*
X72670000Y-107840000D01*
X72670000Y-107840000D02*
X108350000Y-107840000D01*
X108350000Y-107840000D02*
X108350000Y-102540000D01*
X108350000Y-102540000D02*
X72670000Y-102540000D01*
X72670000Y-102540000D02*
X72670000Y-104190000D01*
X72670000Y-104190000D02*
G75*
G02*
X72670000Y-106190000I0J-1000000D01*
G01*
%TO.C,Y1*%
X98325000Y-115475000D02*
X104575000Y-115475000D01*
X98325000Y-120525000D02*
X104575000Y-120525000D01*
X98325000Y-120525000D02*
G75*
G02*
X98325000Y-115475000I0J2525000D01*
G01*
X104575000Y-120525000D02*
G75*
G03*
X104575000Y-115475000I0J2525000D01*
G01*
%TO.C,C1*%
D10*
X38833333Y-111677142D02*
X38785714Y-111724761D01*
X38642857Y-111772380D01*
X38547619Y-111772380D01*
X38404761Y-111724761D01*
X38309523Y-111629523D01*
X38261904Y-111534285D01*
X38214285Y-111343809D01*
X38214285Y-111200952D01*
X38261904Y-111010476D01*
X38309523Y-110915238D01*
X38404761Y-110820000D01*
X38547619Y-110772380D01*
X38642857Y-110772380D01*
X38785714Y-110820000D01*
X38833333Y-110867619D01*
X39785714Y-111772380D02*
X39214285Y-111772380D01*
X39500000Y-111772380D02*
X39500000Y-110772380D01*
X39404761Y-110915238D01*
X39309523Y-111010476D01*
X39214285Y-111058095D01*
%TO.C,C2*%
X46795833Y-96677142D02*
X46748214Y-96724761D01*
X46605357Y-96772380D01*
X46510119Y-96772380D01*
X46367261Y-96724761D01*
X46272023Y-96629523D01*
X46224404Y-96534285D01*
X46176785Y-96343809D01*
X46176785Y-96200952D01*
X46224404Y-96010476D01*
X46272023Y-95915238D01*
X46367261Y-95820000D01*
X46510119Y-95772380D01*
X46605357Y-95772380D01*
X46748214Y-95820000D01*
X46795833Y-95867619D01*
X47176785Y-95867619D02*
X47224404Y-95820000D01*
X47319642Y-95772380D01*
X47557738Y-95772380D01*
X47652976Y-95820000D01*
X47700595Y-95867619D01*
X47748214Y-95962857D01*
X47748214Y-96058095D01*
X47700595Y-96200952D01*
X47129166Y-96772380D01*
X47748214Y-96772380D01*
%TO.C,C3*%
X46833333Y-99677142D02*
X46785714Y-99724761D01*
X46642857Y-99772380D01*
X46547619Y-99772380D01*
X46404761Y-99724761D01*
X46309523Y-99629523D01*
X46261904Y-99534285D01*
X46214285Y-99343809D01*
X46214285Y-99200952D01*
X46261904Y-99010476D01*
X46309523Y-98915238D01*
X46404761Y-98820000D01*
X46547619Y-98772380D01*
X46642857Y-98772380D01*
X46785714Y-98820000D01*
X46833333Y-98867619D01*
X47166666Y-98772380D02*
X47785714Y-98772380D01*
X47452380Y-99153333D01*
X47595238Y-99153333D01*
X47690476Y-99200952D01*
X47738095Y-99248571D01*
X47785714Y-99343809D01*
X47785714Y-99581904D01*
X47738095Y-99677142D01*
X47690476Y-99724761D01*
X47595238Y-99772380D01*
X47309523Y-99772380D01*
X47214285Y-99724761D01*
X47166666Y-99677142D01*
%TO.C,C4*%
X101037142Y-123204166D02*
X101084761Y-123251785D01*
X101132380Y-123394642D01*
X101132380Y-123489880D01*
X101084761Y-123632738D01*
X100989523Y-123727976D01*
X100894285Y-123775595D01*
X100703809Y-123823214D01*
X100560952Y-123823214D01*
X100370476Y-123775595D01*
X100275238Y-123727976D01*
X100180000Y-123632738D01*
X100132380Y-123489880D01*
X100132380Y-123394642D01*
X100180000Y-123251785D01*
X100227619Y-123204166D01*
X100465714Y-122347023D02*
X101132380Y-122347023D01*
X100084761Y-122585119D02*
X100799047Y-122823214D01*
X100799047Y-122204166D01*
%TO.C,C5*%
X106037142Y-123166666D02*
X106084761Y-123214285D01*
X106132380Y-123357142D01*
X106132380Y-123452380D01*
X106084761Y-123595238D01*
X105989523Y-123690476D01*
X105894285Y-123738095D01*
X105703809Y-123785714D01*
X105560952Y-123785714D01*
X105370476Y-123738095D01*
X105275238Y-123690476D01*
X105180000Y-123595238D01*
X105132380Y-123452380D01*
X105132380Y-123357142D01*
X105180000Y-123214285D01*
X105227619Y-123166666D01*
X105132380Y-122261904D02*
X105132380Y-122738095D01*
X105608571Y-122785714D01*
X105560952Y-122738095D01*
X105513333Y-122642857D01*
X105513333Y-122404761D01*
X105560952Y-122309523D01*
X105608571Y-122261904D01*
X105703809Y-122214285D01*
X105941904Y-122214285D01*
X106037142Y-122261904D01*
X106084761Y-122309523D01*
X106132380Y-122404761D01*
X106132380Y-122642857D01*
X106084761Y-122738095D01*
X106037142Y-122785714D01*
%TO.C,C6*%
X94833333Y-96677142D02*
X94785714Y-96724761D01*
X94642857Y-96772380D01*
X94547619Y-96772380D01*
X94404761Y-96724761D01*
X94309523Y-96629523D01*
X94261904Y-96534285D01*
X94214285Y-96343809D01*
X94214285Y-96200952D01*
X94261904Y-96010476D01*
X94309523Y-95915238D01*
X94404761Y-95820000D01*
X94547619Y-95772380D01*
X94642857Y-95772380D01*
X94785714Y-95820000D01*
X94833333Y-95867619D01*
X95690476Y-95772380D02*
X95500000Y-95772380D01*
X95404761Y-95820000D01*
X95357142Y-95867619D01*
X95261904Y-96010476D01*
X95214285Y-96200952D01*
X95214285Y-96581904D01*
X95261904Y-96677142D01*
X95309523Y-96724761D01*
X95404761Y-96772380D01*
X95595238Y-96772380D01*
X95690476Y-96724761D01*
X95738095Y-96677142D01*
X95785714Y-96581904D01*
X95785714Y-96343809D01*
X95738095Y-96248571D01*
X95690476Y-96200952D01*
X95595238Y-96153333D01*
X95404761Y-96153333D01*
X95309523Y-96200952D01*
X95261904Y-96248571D01*
X95214285Y-96343809D01*
%TO.C,C7*%
X89795833Y-100037142D02*
X89748214Y-100084761D01*
X89605357Y-100132380D01*
X89510119Y-100132380D01*
X89367261Y-100084761D01*
X89272023Y-99989523D01*
X89224404Y-99894285D01*
X89176785Y-99703809D01*
X89176785Y-99560952D01*
X89224404Y-99370476D01*
X89272023Y-99275238D01*
X89367261Y-99180000D01*
X89510119Y-99132380D01*
X89605357Y-99132380D01*
X89748214Y-99180000D01*
X89795833Y-99227619D01*
X90129166Y-99132380D02*
X90795833Y-99132380D01*
X90367261Y-100132380D01*
%TO.C,C8*%
X54833333Y-100037142D02*
X54785714Y-100084761D01*
X54642857Y-100132380D01*
X54547619Y-100132380D01*
X54404761Y-100084761D01*
X54309523Y-99989523D01*
X54261904Y-99894285D01*
X54214285Y-99703809D01*
X54214285Y-99560952D01*
X54261904Y-99370476D01*
X54309523Y-99275238D01*
X54404761Y-99180000D01*
X54547619Y-99132380D01*
X54642857Y-99132380D01*
X54785714Y-99180000D01*
X54833333Y-99227619D01*
X55404761Y-99560952D02*
X55309523Y-99513333D01*
X55261904Y-99465714D01*
X55214285Y-99370476D01*
X55214285Y-99322857D01*
X55261904Y-99227619D01*
X55309523Y-99180000D01*
X55404761Y-99132380D01*
X55595238Y-99132380D01*
X55690476Y-99180000D01*
X55738095Y-99227619D01*
X55785714Y-99322857D01*
X55785714Y-99370476D01*
X55738095Y-99465714D01*
X55690476Y-99513333D01*
X55595238Y-99560952D01*
X55404761Y-99560952D01*
X55309523Y-99608571D01*
X55261904Y-99656190D01*
X55214285Y-99751428D01*
X55214285Y-99941904D01*
X55261904Y-100037142D01*
X55309523Y-100084761D01*
X55404761Y-100132380D01*
X55595238Y-100132380D01*
X55690476Y-100084761D01*
X55738095Y-100037142D01*
X55785714Y-99941904D01*
X55785714Y-99751428D01*
X55738095Y-99656190D01*
X55690476Y-99608571D01*
X55595238Y-99560952D01*
%TO.C,D1*%
X43452380Y-82738095D02*
X42452380Y-82738095D01*
X42452380Y-82500000D01*
X42500000Y-82357142D01*
X42595238Y-82261904D01*
X42690476Y-82214285D01*
X42880952Y-82166666D01*
X43023809Y-82166666D01*
X43214285Y-82214285D01*
X43309523Y-82261904D01*
X43404761Y-82357142D01*
X43452380Y-82500000D01*
X43452380Y-82738095D01*
X43452380Y-81214285D02*
X43452380Y-81785714D01*
X43452380Y-81500000D02*
X42452380Y-81500000D01*
X42595238Y-81595238D01*
X42690476Y-81690476D01*
X42738095Y-81785714D01*
%TO.C,D2*%
X63286904Y-82102380D02*
X63286904Y-81102380D01*
X63525000Y-81102380D01*
X63667857Y-81150000D01*
X63763095Y-81245238D01*
X63810714Y-81340476D01*
X63858333Y-81530952D01*
X63858333Y-81673809D01*
X63810714Y-81864285D01*
X63763095Y-81959523D01*
X63667857Y-82054761D01*
X63525000Y-82102380D01*
X63286904Y-82102380D01*
X64239285Y-81197619D02*
X64286904Y-81150000D01*
X64382142Y-81102380D01*
X64620238Y-81102380D01*
X64715476Y-81150000D01*
X64763095Y-81197619D01*
X64810714Y-81292857D01*
X64810714Y-81388095D01*
X64763095Y-81530952D01*
X64191666Y-82102380D01*
X64810714Y-82102380D01*
%TO.C,D3*%
X73261904Y-82102380D02*
X73261904Y-81102380D01*
X73500000Y-81102380D01*
X73642857Y-81150000D01*
X73738095Y-81245238D01*
X73785714Y-81340476D01*
X73833333Y-81530952D01*
X73833333Y-81673809D01*
X73785714Y-81864285D01*
X73738095Y-81959523D01*
X73642857Y-82054761D01*
X73500000Y-82102380D01*
X73261904Y-82102380D01*
X74166666Y-81102380D02*
X74785714Y-81102380D01*
X74452380Y-81483333D01*
X74595238Y-81483333D01*
X74690476Y-81530952D01*
X74738095Y-81578571D01*
X74785714Y-81673809D01*
X74785714Y-81911904D01*
X74738095Y-82007142D01*
X74690476Y-82054761D01*
X74595238Y-82102380D01*
X74309523Y-82102380D01*
X74214285Y-82054761D01*
X74166666Y-82007142D01*
%TO.C,D4*%
X39236904Y-124802380D02*
X39236904Y-123802380D01*
X39475000Y-123802380D01*
X39617857Y-123850000D01*
X39713095Y-123945238D01*
X39760714Y-124040476D01*
X39808333Y-124230952D01*
X39808333Y-124373809D01*
X39760714Y-124564285D01*
X39713095Y-124659523D01*
X39617857Y-124754761D01*
X39475000Y-124802380D01*
X39236904Y-124802380D01*
X40665476Y-124135714D02*
X40665476Y-124802380D01*
X40427380Y-123754761D02*
X40189285Y-124469047D01*
X40808333Y-124469047D01*
%TO.C,F1*%
X47578571Y-89108333D02*
X47578571Y-89441666D01*
X48102380Y-89441666D02*
X47102380Y-89441666D01*
X47102380Y-88965476D01*
X48102380Y-88060714D02*
X48102380Y-88632142D01*
X48102380Y-88346428D02*
X47102380Y-88346428D01*
X47245238Y-88441666D01*
X47340476Y-88536904D01*
X47388095Y-88632142D01*
%TO.C,J9*%
X28166666Y-91952380D02*
X28166666Y-92666666D01*
X28119047Y-92809523D01*
X28023809Y-92904761D01*
X27880952Y-92952380D01*
X27785714Y-92952380D01*
X28690476Y-92952380D02*
X28880952Y-92952380D01*
X28976190Y-92904761D01*
X29023809Y-92857142D01*
X29119047Y-92714285D01*
X29166666Y-92523809D01*
X29166666Y-92142857D01*
X29119047Y-92047619D01*
X29071428Y-92000000D01*
X28976190Y-91952380D01*
X28785714Y-91952380D01*
X28690476Y-92000000D01*
X28642857Y-92047619D01*
X28595238Y-92142857D01*
X28595238Y-92380952D01*
X28642857Y-92476190D01*
X28690476Y-92523809D01*
X28785714Y-92571428D01*
X28976190Y-92571428D01*
X29071428Y-92523809D01*
X29119047Y-92476190D01*
X29166666Y-92380952D01*
%TO.C,ICSP*%
X113253809Y-100582380D02*
X113253809Y-99582380D01*
X114301428Y-100487142D02*
X114253809Y-100534761D01*
X114110952Y-100582380D01*
X114015714Y-100582380D01*
X113872857Y-100534761D01*
X113777619Y-100439523D01*
X113730000Y-100344285D01*
X113682380Y-100153809D01*
X113682380Y-100010952D01*
X113730000Y-99820476D01*
X113777619Y-99725238D01*
X113872857Y-99630000D01*
X114015714Y-99582380D01*
X114110952Y-99582380D01*
X114253809Y-99630000D01*
X114301428Y-99677619D01*
X114682380Y-100534761D02*
X114825238Y-100582380D01*
X115063333Y-100582380D01*
X115158571Y-100534761D01*
X115206190Y-100487142D01*
X115253809Y-100391904D01*
X115253809Y-100296666D01*
X115206190Y-100201428D01*
X115158571Y-100153809D01*
X115063333Y-100106190D01*
X114872857Y-100058571D01*
X114777619Y-100010952D01*
X114730000Y-99963333D01*
X114682380Y-99868095D01*
X114682380Y-99772857D01*
X114730000Y-99677619D01*
X114777619Y-99630000D01*
X114872857Y-99582380D01*
X115110952Y-99582380D01*
X115253809Y-99630000D01*
X115682380Y-100582380D02*
X115682380Y-99582380D01*
X116063333Y-99582380D01*
X116158571Y-99630000D01*
X116206190Y-99677619D01*
X116253809Y-99772857D01*
X116253809Y-99915714D01*
X116206190Y-100010952D01*
X116158571Y-100058571D01*
X116063333Y-100106190D01*
X115682380Y-100106190D01*
%TO.C,R1*%
X47833333Y-123102380D02*
X47500000Y-122626190D01*
X47261904Y-123102380D02*
X47261904Y-122102380D01*
X47642857Y-122102380D01*
X47738095Y-122150000D01*
X47785714Y-122197619D01*
X47833333Y-122292857D01*
X47833333Y-122435714D01*
X47785714Y-122530952D01*
X47738095Y-122578571D01*
X47642857Y-122626190D01*
X47261904Y-122626190D01*
X48785714Y-123102380D02*
X48214285Y-123102380D01*
X48500000Y-123102380D02*
X48500000Y-122102380D01*
X48404761Y-122245238D01*
X48309523Y-122340476D01*
X48214285Y-122388095D01*
%TO.C,R2*%
X58833333Y-82102380D02*
X58500000Y-81626190D01*
X58261904Y-82102380D02*
X58261904Y-81102380D01*
X58642857Y-81102380D01*
X58738095Y-81150000D01*
X58785714Y-81197619D01*
X58833333Y-81292857D01*
X58833333Y-81435714D01*
X58785714Y-81530952D01*
X58738095Y-81578571D01*
X58642857Y-81626190D01*
X58261904Y-81626190D01*
X59214285Y-81197619D02*
X59261904Y-81150000D01*
X59357142Y-81102380D01*
X59595238Y-81102380D01*
X59690476Y-81150000D01*
X59738095Y-81197619D01*
X59785714Y-81292857D01*
X59785714Y-81388095D01*
X59738095Y-81530952D01*
X59166666Y-82102380D01*
X59785714Y-82102380D01*
%TO.C,R3*%
X68833333Y-82102380D02*
X68500000Y-81626190D01*
X68261904Y-82102380D02*
X68261904Y-81102380D01*
X68642857Y-81102380D01*
X68738095Y-81150000D01*
X68785714Y-81197619D01*
X68833333Y-81292857D01*
X68833333Y-81435714D01*
X68785714Y-81530952D01*
X68738095Y-81578571D01*
X68642857Y-81626190D01*
X68261904Y-81626190D01*
X69166666Y-81102380D02*
X69785714Y-81102380D01*
X69452380Y-81483333D01*
X69595238Y-81483333D01*
X69690476Y-81530952D01*
X69738095Y-81578571D01*
X69785714Y-81673809D01*
X69785714Y-81911904D01*
X69738095Y-82007142D01*
X69690476Y-82054761D01*
X69595238Y-82102380D01*
X69309523Y-82102380D01*
X69214285Y-82054761D01*
X69166666Y-82007142D01*
%TO.C,R4*%
X39833333Y-123102380D02*
X39500000Y-122626190D01*
X39261904Y-123102380D02*
X39261904Y-122102380D01*
X39642857Y-122102380D01*
X39738095Y-122150000D01*
X39785714Y-122197619D01*
X39833333Y-122292857D01*
X39833333Y-122435714D01*
X39785714Y-122530952D01*
X39738095Y-122578571D01*
X39642857Y-122626190D01*
X39261904Y-122626190D01*
X40690476Y-122435714D02*
X40690476Y-123102380D01*
X40452380Y-122054761D02*
X40214285Y-122769047D01*
X40833333Y-122769047D01*
%TO.C,RESET*%
X57522619Y-117652380D02*
X57189285Y-117176190D01*
X56951190Y-117652380D02*
X56951190Y-116652380D01*
X57332142Y-116652380D01*
X57427380Y-116700000D01*
X57475000Y-116747619D01*
X57522619Y-116842857D01*
X57522619Y-116985714D01*
X57475000Y-117080952D01*
X57427380Y-117128571D01*
X57332142Y-117176190D01*
X56951190Y-117176190D01*
X57951190Y-117128571D02*
X58284523Y-117128571D01*
X58427380Y-117652380D02*
X57951190Y-117652380D01*
X57951190Y-116652380D01*
X58427380Y-116652380D01*
X58808333Y-117604761D02*
X58951190Y-117652380D01*
X59189285Y-117652380D01*
X59284523Y-117604761D01*
X59332142Y-117557142D01*
X59379761Y-117461904D01*
X59379761Y-117366666D01*
X59332142Y-117271428D01*
X59284523Y-117223809D01*
X59189285Y-117176190D01*
X58998809Y-117128571D01*
X58903571Y-117080952D01*
X58855952Y-117033333D01*
X58808333Y-116938095D01*
X58808333Y-116842857D01*
X58855952Y-116747619D01*
X58903571Y-116700000D01*
X58998809Y-116652380D01*
X59236904Y-116652380D01*
X59379761Y-116700000D01*
X59808333Y-117128571D02*
X60141666Y-117128571D01*
X60284523Y-117652380D02*
X59808333Y-117652380D01*
X59808333Y-116652380D01*
X60284523Y-116652380D01*
X60570238Y-116652380D02*
X61141666Y-116652380D01*
X60855952Y-117652380D02*
X60855952Y-116652380D01*
%TD*%
M02*
