M48
; DRILL file {KiCad (5.1.9)-1} date 06/11/21 11:11:48
; FORMAT={3:3/ absolute / metric / suppress leading zeros}
; #@! TF.CreationDate,2021-06-11T11:11:48+10:00
; #@! TF.GenerationSoftware,Kicad,Pcbnew,(5.1.9)-1
FMAT,2
METRIC,TZ
T1C0.400
T2C0.600
T3C0.800
T4C0.850
T5C1.000
T6C0.900
T7C1.500
T8C2.000
%
G90
G05
T1
X43000Y-95000
X44000Y-114000
X48000Y-95000
X51000Y-126000
X58000Y-83000
X58000Y-97000
X58000Y-107000
X59000Y-91000
X60000Y-113000
X63000Y-96000
X63000Y-114000
X68000Y-83000
X68000Y-102000
X71000Y-101000
X71013Y-103987
X74000Y-112000
X87000Y-103000
X87000Y-112000
X88877Y-107123
X89000Y-96000
X89000Y-113000
X90000Y-105000
X91000Y-114000
X92000Y-91000
X93000Y-96000
X93000Y-104000
X94000Y-105000
X95000Y-97000
X96000Y-96000
X97000Y-100000
X97000Y-105000
X97000Y-122000
X98000Y-103000
X98000Y-111000
X99000Y-112000
X100000Y-113000
X102000Y-99000
X102000Y-120000
X102023Y-102977
X103000Y-104000
X106000Y-113000
X110000Y-104000
X111000Y-105000
X118000Y-99000
T3
X57000Y-101380
X57000Y-109000
X59540Y-101380
X59540Y-109000
X62080Y-101380
X62080Y-109000
X64620Y-101380
X64620Y-109000
X74000Y-101380
X74000Y-109000
X76540Y-101380
X76540Y-109000
X79080Y-101380
X79080Y-109000
X81620Y-101380
X81620Y-109000
X84160Y-101380
X84160Y-109000
X86700Y-101380
X86700Y-109000
X89240Y-101380
X89240Y-109000
X91780Y-101380
X91780Y-109000
X94320Y-101380
X94320Y-109000
X96860Y-101380
X96860Y-109000
X99000Y-118000
X99400Y-101380
X99400Y-109000
X101940Y-101380
X101940Y-109000
X103900Y-118000
X104480Y-101380
X104480Y-109000
X107020Y-101380
X107020Y-109000
T4
X34463Y-120500
X34463Y-125500
T5
X57380Y-86460
X57380Y-89000
X57460Y-94000
X59920Y-86460
X59920Y-89000
X60000Y-94000
X62460Y-86460
X62460Y-89000
X62540Y-94000
X65000Y-86460
X65000Y-89000
X65080Y-94000
X72760Y-86460
X72760Y-89000
X73000Y-94000
X73000Y-117000
X73380Y-121460
X73380Y-124000
X75300Y-86460
X75300Y-89000
X75540Y-94000
X75540Y-117000
X75920Y-121460
X75920Y-124000
X77840Y-86460
X77840Y-89000
X78080Y-94000
X78080Y-117000
X78460Y-121460
X78460Y-124000
X80380Y-86460
X80380Y-89000
X80620Y-94000
X80620Y-117000
X81000Y-121460
X81000Y-124000
X82920Y-86460
X82920Y-89000
X83160Y-94000
X83160Y-117000
X83540Y-121460
X83540Y-124000
X85460Y-86460
X85460Y-89000
X85700Y-94000
X85700Y-117000
X86080Y-121460
X86080Y-124000
X88000Y-86460
X88000Y-89000
X88240Y-94000
X88240Y-117000
X88620Y-121460
X88620Y-124000
X90780Y-117000
X92760Y-94000
X92920Y-86460
X92920Y-89000
X95300Y-94000
X95460Y-86460
X95460Y-89000
X97840Y-94000
X98000Y-86460
X98000Y-89000
X100380Y-94000
X100540Y-86460
X100540Y-89000
X102920Y-94000
X103080Y-86460
X103080Y-89000
X105460Y-94000
X105620Y-86460
X105620Y-89000
X108000Y-94000
X108160Y-86460
X108160Y-89000
X113460Y-102460
X113460Y-105000
X113460Y-107540
X116000Y-102460
X116000Y-105000
X116000Y-107540
T6
X31670Y-110500
X31670Y-113500
T8
X36500Y-86000
T2
G00X31413Y-119500
M15
G01X32113Y-119500
M16
G05
G00X32113Y-126500
M15
G01X31413Y-126500
M16
G05
T7
G00X32100Y-86250
M15
G01X32100Y-85750
M16
G05
T0
M30
