%TF.GenerationSoftware,KiCad,Pcbnew,(5.1.9)-1*%
%TF.CreationDate,2021-06-11T11:12:06+10:00*%
%TF.ProjectId,AVRDevBoard,41565244-6576-4426-9f61-72642e6b6963,rev?*%
%TF.SameCoordinates,Original*%
%TF.FileFunction,Copper,L2,Bot*%
%TF.FilePolarity,Positive*%
%FSLAX46Y46*%
G04 Gerber Fmt 4.6, Leading zero omitted, Abs format (unit mm)*
G04 Created by KiCad (PCBNEW (5.1.9)-1) date 2021-06-11 11:12:06*
%MOMM*%
%LPD*%
G01*
G04 APERTURE LIST*
%TA.AperFunction,ComponentPad*%
%ADD10R,1.700000X1.700000*%
%TD*%
%TA.AperFunction,ComponentPad*%
%ADD11O,1.700000X1.700000*%
%TD*%
%TA.AperFunction,ComponentPad*%
%ADD12C,1.450000*%
%TD*%
%TA.AperFunction,ComponentPad*%
%ADD13O,1.900000X1.200000*%
%TD*%
%TA.AperFunction,ComponentPad*%
%ADD14R,1.600000X1.600000*%
%TD*%
%TA.AperFunction,ComponentPad*%
%ADD15O,1.600000X1.600000*%
%TD*%
%TA.AperFunction,ComponentPad*%
%ADD16C,1.500000*%
%TD*%
%TA.AperFunction,ViaPad*%
%ADD17C,0.800000*%
%TD*%
%TA.AperFunction,Conductor*%
%ADD18C,0.250000*%
%TD*%
%TA.AperFunction,Conductor*%
%ADD19C,1.000000*%
%TD*%
G04 APERTURE END LIST*
D10*
%TO.P,J1,1*%
%TO.N,PB0_tiny*%
X65080000Y-94000000D03*
D11*
%TO.P,J1,2*%
%TO.N,PB1_tiny*%
X62540000Y-94000000D03*
%TO.P,J1,3*%
%TO.N,PB2_tiny*%
X60000000Y-94000000D03*
%TO.P,J1,4*%
%TO.N,RST*%
X57460000Y-94000000D03*
%TD*%
D10*
%TO.P,J2,1*%
%TO.N,+5V*%
X65000000Y-89000000D03*
D11*
%TO.P,J2,2*%
%TO.N,GND*%
X65000000Y-86460000D03*
%TO.P,J2,3*%
%TO.N,+5V*%
X62460000Y-89000000D03*
%TO.P,J2,4*%
%TO.N,GND*%
X62460000Y-86460000D03*
%TO.P,J2,5*%
%TO.N,+5V*%
X59920000Y-89000000D03*
%TO.P,J2,6*%
%TO.N,GND*%
X59920000Y-86460000D03*
%TO.P,J2,7*%
%TO.N,+5V*%
X57380000Y-89000000D03*
%TO.P,J2,8*%
%TO.N,GND*%
X57380000Y-86460000D03*
%TD*%
D10*
%TO.P,J3,1*%
%TO.N,PB0*%
X108000000Y-94000000D03*
D11*
%TO.P,J3,2*%
%TO.N,PB1*%
X105460000Y-94000000D03*
%TO.P,J3,3*%
%TO.N,PB2*%
X102920000Y-94000000D03*
%TO.P,J3,4*%
%TO.N,PB0_tiny*%
X100380000Y-94000000D03*
%TO.P,J3,5*%
%TO.N,PB1_tiny*%
X97840000Y-94000000D03*
%TO.P,J3,6*%
%TO.N,PB2_tiny*%
X95300000Y-94000000D03*
%TO.P,J3,7*%
%TO.N,AREF*%
X92760000Y-94000000D03*
%TD*%
%TO.P,J4,7*%
%TO.N,RST*%
X73000000Y-94000000D03*
%TO.P,J4,6*%
%TO.N,PC5*%
X75540000Y-94000000D03*
%TO.P,J4,5*%
%TO.N,PC4*%
X78080000Y-94000000D03*
%TO.P,J4,4*%
%TO.N,PC3*%
X80620000Y-94000000D03*
%TO.P,J4,3*%
%TO.N,PC2*%
X83160000Y-94000000D03*
%TO.P,J4,2*%
%TO.N,PC1*%
X85700000Y-94000000D03*
D10*
%TO.P,J4,1*%
%TO.N,PC0*%
X88240000Y-94000000D03*
%TD*%
%TO.P,J5,1*%
%TO.N,PD0*%
X73000000Y-117000000D03*
D11*
%TO.P,J5,2*%
%TO.N,PD1*%
X75540000Y-117000000D03*
%TO.P,J5,3*%
%TO.N,PD2*%
X78080000Y-117000000D03*
%TO.P,J5,4*%
%TO.N,PD3*%
X80620000Y-117000000D03*
%TO.P,J5,5*%
%TO.N,PD4*%
X83160000Y-117000000D03*
%TO.P,J5,6*%
%TO.N,PD5*%
X85700000Y-117000000D03*
%TO.P,J5,7*%
%TO.N,PD6*%
X88240000Y-117000000D03*
%TO.P,J5,8*%
%TO.N,PD7*%
X90780000Y-117000000D03*
%TD*%
D10*
%TO.P,J6,1*%
%TO.N,+5V*%
X73380000Y-121460000D03*
D11*
%TO.P,J6,2*%
%TO.N,GND*%
X73380000Y-124000000D03*
%TO.P,J6,3*%
%TO.N,+5V*%
X75920000Y-121460000D03*
%TO.P,J6,4*%
%TO.N,GND*%
X75920000Y-124000000D03*
%TO.P,J6,5*%
%TO.N,+5V*%
X78460000Y-121460000D03*
%TO.P,J6,6*%
%TO.N,GND*%
X78460000Y-124000000D03*
%TO.P,J6,7*%
%TO.N,+5V*%
X81000000Y-121460000D03*
%TO.P,J6,8*%
%TO.N,GND*%
X81000000Y-124000000D03*
%TO.P,J6,9*%
%TO.N,+5V*%
X83540000Y-121460000D03*
%TO.P,J6,10*%
%TO.N,GND*%
X83540000Y-124000000D03*
%TO.P,J6,11*%
%TO.N,+5V*%
X86080000Y-121460000D03*
%TO.P,J6,12*%
%TO.N,GND*%
X86080000Y-124000000D03*
%TO.P,J6,13*%
%TO.N,+5V*%
X88620000Y-121460000D03*
%TO.P,J6,14*%
%TO.N,GND*%
X88620000Y-124000000D03*
%TD*%
%TO.P,J7,14*%
%TO.N,GND*%
X72760000Y-86460000D03*
%TO.P,J7,13*%
%TO.N,+5V*%
X72760000Y-89000000D03*
%TO.P,J7,12*%
%TO.N,GND*%
X75300000Y-86460000D03*
%TO.P,J7,11*%
%TO.N,+5V*%
X75300000Y-89000000D03*
%TO.P,J7,10*%
%TO.N,GND*%
X77840000Y-86460000D03*
%TO.P,J7,9*%
%TO.N,+5V*%
X77840000Y-89000000D03*
%TO.P,J7,8*%
%TO.N,GND*%
X80380000Y-86460000D03*
%TO.P,J7,7*%
%TO.N,+5V*%
X80380000Y-89000000D03*
%TO.P,J7,6*%
%TO.N,GND*%
X82920000Y-86460000D03*
%TO.P,J7,5*%
%TO.N,+5V*%
X82920000Y-89000000D03*
%TO.P,J7,4*%
%TO.N,GND*%
X85460000Y-86460000D03*
%TO.P,J7,3*%
%TO.N,+5V*%
X85460000Y-89000000D03*
%TO.P,J7,2*%
%TO.N,GND*%
X88000000Y-86460000D03*
D10*
%TO.P,J7,1*%
%TO.N,+5V*%
X88000000Y-89000000D03*
%TD*%
%TO.P,J8,1*%
%TO.N,+5V*%
X108160000Y-89000000D03*
D11*
%TO.P,J8,2*%
%TO.N,GND*%
X108160000Y-86460000D03*
%TO.P,J8,3*%
%TO.N,+5V*%
X105620000Y-89000000D03*
%TO.P,J8,4*%
%TO.N,GND*%
X105620000Y-86460000D03*
%TO.P,J8,5*%
%TO.N,+5V*%
X103080000Y-89000000D03*
%TO.P,J8,6*%
%TO.N,GND*%
X103080000Y-86460000D03*
%TO.P,J8,7*%
%TO.N,+5V*%
X100540000Y-89000000D03*
%TO.P,J8,8*%
%TO.N,GND*%
X100540000Y-86460000D03*
%TO.P,J8,9*%
%TO.N,+5V*%
X98000000Y-89000000D03*
%TO.P,J8,10*%
%TO.N,GND*%
X98000000Y-86460000D03*
%TO.P,J8,11*%
%TO.N,+5V*%
X95460000Y-89000000D03*
%TO.P,J8,12*%
%TO.N,GND*%
X95460000Y-86460000D03*
%TO.P,J8,13*%
%TO.N,+5V*%
X92920000Y-89000000D03*
%TO.P,J8,14*%
%TO.N,GND*%
X92920000Y-86460000D03*
%TD*%
D12*
%TO.P,J10,6*%
%TO.N,Net-(J10-Pad6)*%
X34462500Y-120500000D03*
X34462500Y-125500000D03*
D13*
X31762500Y-119500000D03*
X31762500Y-126500000D03*
%TD*%
D11*
%TO.P,ICSP,6*%
%TO.N,GND*%
X116000000Y-107540000D03*
%TO.P,ICSP,5*%
%TO.N,RST*%
X113460000Y-107540000D03*
%TO.P,ICSP,4*%
%TO.N,PB0_tiny*%
X116000000Y-105000000D03*
%TO.P,ICSP,3*%
%TO.N,PB2_tiny*%
X113460000Y-105000000D03*
%TO.P,ICSP,2*%
%TO.N,+5V*%
X116000000Y-102460000D03*
D10*
%TO.P,ICSP,1*%
%TO.N,PB1_tiny*%
X113460000Y-102460000D03*
%TD*%
D14*
%TO.P,U2,1*%
%TO.N,RST*%
X57000000Y-109000000D03*
D15*
%TO.P,U2,5*%
%TO.N,PB0_tiny*%
X64620000Y-101380000D03*
%TO.P,U2,2*%
%TO.N,XTAL1*%
X59540000Y-109000000D03*
%TO.P,U2,6*%
%TO.N,PB1_tiny*%
X62080000Y-101380000D03*
%TO.P,U2,3*%
%TO.N,XTAL2*%
X62080000Y-109000000D03*
%TO.P,U2,7*%
%TO.N,PB2_tiny*%
X59540000Y-101380000D03*
%TO.P,U2,4*%
%TO.N,GND*%
X64620000Y-109000000D03*
%TO.P,U2,8*%
%TO.N,+5V*%
X57000000Y-101380000D03*
%TD*%
D14*
%TO.P,U3,1*%
%TO.N,RST*%
X74000000Y-109000000D03*
D15*
%TO.P,U3,15*%
%TO.N,PB1*%
X107020000Y-101380000D03*
%TO.P,U3,2*%
%TO.N,PD0*%
X76540000Y-109000000D03*
%TO.P,U3,16*%
%TO.N,PB2*%
X104480000Y-101380000D03*
%TO.P,U3,3*%
%TO.N,PD1*%
X79080000Y-109000000D03*
%TO.P,U3,17*%
%TO.N,PB0_tiny*%
X101940000Y-101380000D03*
%TO.P,U3,4*%
%TO.N,PD2*%
X81620000Y-109000000D03*
%TO.P,U3,18*%
%TO.N,PB1_tiny*%
X99400000Y-101380000D03*
%TO.P,U3,5*%
%TO.N,PD3*%
X84160000Y-109000000D03*
%TO.P,U3,19*%
%TO.N,PB2_tiny*%
X96860000Y-101380000D03*
%TO.P,U3,6*%
%TO.N,PD4*%
X86700000Y-109000000D03*
%TO.P,U3,20*%
%TO.N,+5V*%
X94320000Y-101380000D03*
%TO.P,U3,7*%
X89240000Y-109000000D03*
%TO.P,U3,21*%
%TO.N,AREF*%
X91780000Y-101380000D03*
%TO.P,U3,8*%
%TO.N,GND*%
X91780000Y-109000000D03*
%TO.P,U3,22*%
X89240000Y-101380000D03*
%TO.P,U3,9*%
%TO.N,XTAL1*%
X94320000Y-109000000D03*
%TO.P,U3,23*%
%TO.N,PC0*%
X86700000Y-101380000D03*
%TO.P,U3,10*%
%TO.N,XTAL2*%
X96860000Y-109000000D03*
%TO.P,U3,24*%
%TO.N,PC1*%
X84160000Y-101380000D03*
%TO.P,U3,11*%
%TO.N,PD5*%
X99400000Y-109000000D03*
%TO.P,U3,25*%
%TO.N,PC2*%
X81620000Y-101380000D03*
%TO.P,U3,12*%
%TO.N,PD6*%
X101940000Y-109000000D03*
%TO.P,U3,26*%
%TO.N,PC3*%
X79080000Y-101380000D03*
%TO.P,U3,13*%
%TO.N,PD7*%
X104480000Y-109000000D03*
%TO.P,U3,27*%
%TO.N,PC4*%
X76540000Y-101380000D03*
%TO.P,U3,14*%
%TO.N,PB0*%
X107020000Y-109000000D03*
%TO.P,U3,28*%
%TO.N,PC5*%
X74000000Y-101380000D03*
%TD*%
D16*
%TO.P,Y1,1*%
%TO.N,XTAL1*%
X99000000Y-118000000D03*
%TO.P,Y1,2*%
%TO.N,XTAL2*%
X103900000Y-118000000D03*
%TD*%
D17*
%TO.N,GND*%
X48000000Y-95000000D03*
X43000000Y-95000000D03*
X44000000Y-114000000D03*
X51000000Y-126000000D03*
X89000000Y-96000000D03*
X95000000Y-97000000D03*
%TO.N,+5V*%
X93000000Y-96000000D03*
X92000000Y-91000000D03*
X93000000Y-104000000D03*
X88877347Y-107122653D03*
%TO.N,XTAL1*%
X60000000Y-113000000D03*
X97000000Y-122000000D03*
%TO.N,XTAL2*%
X63000000Y-114000000D03*
X102000000Y-120000000D03*
%TO.N,PB0_tiny*%
X118000000Y-99000000D03*
X102000000Y-99000000D03*
X68000000Y-102000000D03*
X90000000Y-105000000D03*
X94000000Y-105000000D03*
X102022653Y-102977347D03*
%TO.N,PB1_tiny*%
X110000000Y-104000000D03*
X103000000Y-104000000D03*
X87000000Y-103000000D03*
X98000000Y-103000000D03*
X63000000Y-96000000D03*
X68000000Y-83000000D03*
%TO.N,PB2_tiny*%
X97000000Y-100000000D03*
X96000000Y-96000000D03*
X111000000Y-105000000D03*
X97000000Y-105000000D03*
X59000000Y-91000000D03*
X58000000Y-83000000D03*
%TO.N,RST*%
X58000000Y-97000000D03*
X58000000Y-107000000D03*
X74000000Y-112000000D03*
X106000000Y-113000000D03*
X71000000Y-101000000D03*
X71012653Y-103987347D03*
%TO.N,PD5*%
X98000000Y-111000000D03*
X87000000Y-112000000D03*
%TO.N,PD6*%
X99000000Y-112000000D03*
X89000000Y-113000000D03*
%TO.N,PD7*%
X100000000Y-113000000D03*
X91000000Y-114000000D03*
%TD*%
D18*
%TO.N,GND*%
X51000000Y-121000000D02*
X51000000Y-126000000D01*
X44000000Y-114000000D02*
X51000000Y-121000000D01*
X90000000Y-97000000D02*
X95000000Y-97000000D01*
X89000000Y-96000000D02*
X90000000Y-97000000D01*
D19*
X48000000Y-95000000D02*
X43000000Y-95000000D01*
D18*
%TO.N,+5V*%
X91584999Y-91415001D02*
X92000000Y-91000000D01*
X91584999Y-94584999D02*
X91584999Y-91415001D01*
X93000000Y-96000000D02*
X91584999Y-94584999D01*
X89877347Y-107122653D02*
X88877347Y-107122653D01*
X93000000Y-104000000D02*
X89877347Y-107122653D01*
%TO.N,XTAL1*%
X60000000Y-113000000D02*
X70000000Y-123000000D01*
X70000000Y-123000000D02*
X74000000Y-127000000D01*
X74000000Y-127000000D02*
X92000000Y-127000000D01*
X92000000Y-127000000D02*
X97000000Y-122000000D01*
%TO.N,XTAL2*%
X69000000Y-120000000D02*
X102000000Y-120000000D01*
X63000000Y-114000000D02*
X69000000Y-120000000D01*
%TO.N,PB0_tiny*%
X118000000Y-99000000D02*
X102000000Y-99000000D01*
X71000000Y-105000000D02*
X90000000Y-105000000D01*
X68000000Y-102000000D02*
X71000000Y-105000000D01*
X100725001Y-104274999D02*
X102022653Y-102977347D01*
X94725001Y-104274999D02*
X100725001Y-104274999D01*
X94000000Y-105000000D02*
X94725001Y-104274999D01*
%TO.N,PB1_tiny*%
X110000000Y-104000000D02*
X103000000Y-104000000D01*
X87000000Y-103000000D02*
X98000000Y-103000000D01*
X63000000Y-96000000D02*
X67000000Y-96000000D01*
X68000000Y-95000000D02*
X68000000Y-83000000D01*
X67000000Y-96000000D02*
X68000000Y-95000000D01*
%TO.N,PB2_tiny*%
X96000000Y-99000000D02*
X96000000Y-96000000D01*
X97000000Y-100000000D02*
X96000000Y-99000000D01*
X111000000Y-105000000D02*
X97000000Y-105000000D01*
X58600001Y-83600001D02*
X58000000Y-83000000D01*
X58600001Y-90600001D02*
X58600001Y-83600001D01*
X59000000Y-91000000D02*
X58600001Y-90600001D01*
%TO.N,RST*%
X58399999Y-106600001D02*
X58000000Y-107000000D01*
X58399999Y-97399999D02*
X58399999Y-106600001D01*
X58000000Y-97000000D02*
X58399999Y-97399999D01*
X104274999Y-114725001D02*
X106000000Y-113000000D01*
X76725001Y-114725001D02*
X104274999Y-114725001D01*
X74000000Y-112000000D02*
X76725001Y-114725001D01*
X71000000Y-103974694D02*
X71012653Y-103987347D01*
X71000000Y-101000000D02*
X71000000Y-103974694D01*
%TO.N,PD5*%
X88000000Y-111000000D02*
X87000000Y-112000000D01*
X98000000Y-111000000D02*
X88000000Y-111000000D01*
%TO.N,PD6*%
X90000000Y-112000000D02*
X89000000Y-113000000D01*
X99000000Y-112000000D02*
X90000000Y-112000000D01*
%TO.N,PD7*%
X92000000Y-113000000D02*
X91000000Y-114000000D01*
X100000000Y-113000000D02*
X92000000Y-113000000D01*
%TD*%
M02*
