M48
; DRILL file {KiCad (5.1.9)-1} date 07/06/21 12:18:06
; FORMAT={3:3/ absolute / metric / suppress leading zeros}
; #@! TF.CreationDate,2021-07-06T12:18:06+10:00
; #@! TF.GenerationSoftware,Kicad,Pcbnew,(5.1.9)-1
FMAT,2
METRIC,TZ
T1C0.400
T2C0.800
T3C1.000
T4C3.200
T5C0.900
T6C1.500
T7C2.000
%
G90
G05
T1
X88000Y-113000
X88000Y-116500
X91700Y-87100
X91800Y-93000
X96500Y-135750
X103250Y-109250
X104250Y-106250
X105750Y-120250
X107500Y-135750
X109000Y-120500
X110250Y-106000
X110670Y-120170
X112900Y-86400
X118500Y-86400
X121000Y-91500
X123000Y-111000
X123000Y-115500
X124000Y-125000
X125500Y-132250
X126500Y-119500
X127500Y-100500
X128000Y-108500
X128000Y-119500
X128000Y-125000
X129500Y-122500
X130500Y-132250
X132000Y-106000
X136000Y-108000
X136500Y-124500
X137000Y-91250
X140250Y-120250
X142000Y-108850
X142000Y-115000
X143000Y-110000
X143000Y-112500
X145500Y-96500
X147000Y-119750
X149000Y-106500
T2
X88000Y-110880
X88000Y-118500
X90540Y-110880
X90540Y-118500
X93080Y-110880
X93080Y-118500
X95620Y-110880
X95620Y-118500
X98160Y-110880
X98160Y-118500
X100700Y-110880
X100700Y-118500
X103240Y-110880
X103240Y-118500
X105780Y-110880
X105780Y-118500
X108320Y-110880
X108320Y-118500
X110860Y-110880
X110860Y-118500
X113400Y-110880
X113400Y-118500
X115940Y-110880
X115940Y-118500
X118480Y-110880
X118480Y-118500
X121020Y-110880
X121020Y-118500
X125500Y-125000
X130400Y-125000
X132500Y-110880
X132500Y-118500
X135040Y-110880
X135040Y-118500
X137580Y-110880
X137580Y-118500
X140120Y-110880
X140120Y-118500
T3
X88180Y-103500
X88640Y-126500
X90720Y-103500
X91180Y-126500
X93260Y-103500
X93720Y-126500
X95800Y-103500
X96260Y-126500
X98340Y-103500
X98800Y-126500
X100880Y-103500
X101340Y-126500
X103420Y-103500
X103880Y-126500
X105960Y-103500
X106420Y-126500
X108500Y-103500
X108960Y-126500
X111040Y-103500
X111500Y-126500
X113580Y-103500
X114040Y-126500
X116120Y-103500
X116580Y-126500
X118660Y-103500
X121200Y-103500
X125500Y-112500
X125500Y-115040
X125500Y-117580
X127500Y-94500
X127500Y-98000
X128040Y-112500
X128040Y-115040
X128040Y-117580
X133380Y-102000
X133380Y-104540
X135920Y-102000
X135920Y-104540
X138460Y-102000
X138460Y-104540
X139150Y-88550
X139150Y-91090
X141000Y-102000
X141000Y-104540
X143540Y-102000
X143540Y-104540
X144500Y-112500
X144500Y-115040
X144500Y-117580
X146080Y-102000
X146080Y-104540
X147040Y-112500
X147040Y-115040
X147040Y-117580
X148620Y-102000
X148620Y-104540
T4
X87000Y-89000
X87000Y-134000
X147000Y-89000
X147000Y-134000
T5
X124000Y-86740
X127000Y-86740
T7
X100000Y-91500
T6
G00X99750Y-87100
M15
G01X100250Y-87100
M16
G05
T0
M30
