%TF.GenerationSoftware,KiCad,Pcbnew,(5.1.7)-1*%
%TF.CreationDate,2021-07-08T13:40:54+10:00*%
%TF.ProjectId,AVRDevBoardRev1.1,41565244-6576-4426-9f61-726452657631,rev?*%
%TF.SameCoordinates,Original*%
%TF.FileFunction,Legend,Top*%
%TF.FilePolarity,Positive*%
%FSLAX46Y46*%
G04 Gerber Fmt 4.6, Leading zero omitted, Abs format (unit mm)*
G04 Created by KiCad (PCBNEW (5.1.7)-1) date 2021-07-08 13:40:54*
%MOMM*%
%LPD*%
G01*
G04 APERTURE LIST*
%ADD10C,0.150000*%
%ADD11C,0.120000*%
%ADD12C,0.010000*%
G04 APERTURE END LIST*
D10*
X131947142Y-121096666D02*
X132423333Y-121096666D01*
X131851904Y-121382380D02*
X132185238Y-120382380D01*
X132518571Y-121382380D01*
X132709047Y-120382380D02*
X133280476Y-120382380D01*
X132994761Y-121382380D02*
X132994761Y-120382380D01*
X133470952Y-120382380D02*
X134042380Y-120382380D01*
X133756666Y-121382380D02*
X133756666Y-120382380D01*
X134375714Y-121382380D02*
X134375714Y-120382380D01*
X134851904Y-121382380D02*
X134851904Y-120382380D01*
X135423333Y-121382380D01*
X135423333Y-120382380D01*
X136090000Y-120906190D02*
X136090000Y-121382380D01*
X135756666Y-120382380D02*
X136090000Y-120906190D01*
X136423333Y-120382380D01*
X136899523Y-120810952D02*
X136804285Y-120763333D01*
X136756666Y-120715714D01*
X136709047Y-120620476D01*
X136709047Y-120572857D01*
X136756666Y-120477619D01*
X136804285Y-120430000D01*
X136899523Y-120382380D01*
X137090000Y-120382380D01*
X137185238Y-120430000D01*
X137232857Y-120477619D01*
X137280476Y-120572857D01*
X137280476Y-120620476D01*
X137232857Y-120715714D01*
X137185238Y-120763333D01*
X137090000Y-120810952D01*
X136899523Y-120810952D01*
X136804285Y-120858571D01*
X136756666Y-120906190D01*
X136709047Y-121001428D01*
X136709047Y-121191904D01*
X136756666Y-121287142D01*
X136804285Y-121334761D01*
X136899523Y-121382380D01*
X137090000Y-121382380D01*
X137185238Y-121334761D01*
X137232857Y-121287142D01*
X137280476Y-121191904D01*
X137280476Y-121001428D01*
X137232857Y-120906190D01*
X137185238Y-120858571D01*
X137090000Y-120810952D01*
X138185238Y-120382380D02*
X137709047Y-120382380D01*
X137661428Y-120858571D01*
X137709047Y-120810952D01*
X137804285Y-120763333D01*
X138042380Y-120763333D01*
X138137619Y-120810952D01*
X138185238Y-120858571D01*
X138232857Y-120953809D01*
X138232857Y-121191904D01*
X138185238Y-121287142D01*
X138137619Y-121334761D01*
X138042380Y-121382380D01*
X137804285Y-121382380D01*
X137709047Y-121334761D01*
X137661428Y-121287142D01*
X85318095Y-108516666D02*
X85794285Y-108516666D01*
X85222857Y-108802380D02*
X85556190Y-107802380D01*
X85889523Y-108802380D01*
X86080000Y-107802380D02*
X86651428Y-107802380D01*
X86365714Y-108802380D02*
X86365714Y-107802380D01*
X86984761Y-108802380D02*
X86984761Y-107802380D01*
X87318095Y-108516666D01*
X87651428Y-107802380D01*
X87651428Y-108802380D01*
X88127619Y-108278571D02*
X88460952Y-108278571D01*
X88603809Y-108802380D02*
X88127619Y-108802380D01*
X88127619Y-107802380D01*
X88603809Y-107802380D01*
X89556190Y-107850000D02*
X89460952Y-107802380D01*
X89318095Y-107802380D01*
X89175238Y-107850000D01*
X89080000Y-107945238D01*
X89032380Y-108040476D01*
X88984761Y-108230952D01*
X88984761Y-108373809D01*
X89032380Y-108564285D01*
X89080000Y-108659523D01*
X89175238Y-108754761D01*
X89318095Y-108802380D01*
X89413333Y-108802380D01*
X89556190Y-108754761D01*
X89603809Y-108707142D01*
X89603809Y-108373809D01*
X89413333Y-108373809D01*
X89984761Y-108516666D02*
X90460952Y-108516666D01*
X89889523Y-108802380D02*
X90222857Y-107802380D01*
X90556190Y-108802380D01*
X91032380Y-108230952D02*
X90937142Y-108183333D01*
X90889523Y-108135714D01*
X90841904Y-108040476D01*
X90841904Y-107992857D01*
X90889523Y-107897619D01*
X90937142Y-107850000D01*
X91032380Y-107802380D01*
X91222857Y-107802380D01*
X91318095Y-107850000D01*
X91365714Y-107897619D01*
X91413333Y-107992857D01*
X91413333Y-108040476D01*
X91365714Y-108135714D01*
X91318095Y-108183333D01*
X91222857Y-108230952D01*
X91032380Y-108230952D01*
X90937142Y-108278571D01*
X90889523Y-108326190D01*
X90841904Y-108421428D01*
X90841904Y-108611904D01*
X90889523Y-108707142D01*
X90937142Y-108754761D01*
X91032380Y-108802380D01*
X91222857Y-108802380D01*
X91318095Y-108754761D01*
X91365714Y-108707142D01*
X91413333Y-108611904D01*
X91413333Y-108421428D01*
X91365714Y-108326190D01*
X91318095Y-108278571D01*
X91222857Y-108230952D01*
X92556190Y-107754761D02*
X91699047Y-109040476D01*
X92841904Y-108516666D02*
X93318095Y-108516666D01*
X92746666Y-108802380D02*
X93080000Y-107802380D01*
X93413333Y-108802380D01*
X93603809Y-107802380D02*
X94175238Y-107802380D01*
X93889523Y-108802380D02*
X93889523Y-107802380D01*
X94508571Y-108802380D02*
X94508571Y-107802380D01*
X94841904Y-108516666D01*
X95175238Y-107802380D01*
X95175238Y-108802380D01*
X95651428Y-108278571D02*
X95984761Y-108278571D01*
X96127619Y-108802380D02*
X95651428Y-108802380D01*
X95651428Y-107802380D01*
X96127619Y-107802380D01*
X97080000Y-107850000D02*
X96984761Y-107802380D01*
X96841904Y-107802380D01*
X96699047Y-107850000D01*
X96603809Y-107945238D01*
X96556190Y-108040476D01*
X96508571Y-108230952D01*
X96508571Y-108373809D01*
X96556190Y-108564285D01*
X96603809Y-108659523D01*
X96699047Y-108754761D01*
X96841904Y-108802380D01*
X96937142Y-108802380D01*
X97080000Y-108754761D01*
X97127619Y-108707142D01*
X97127619Y-108373809D01*
X96937142Y-108373809D01*
X97508571Y-108516666D02*
X97984761Y-108516666D01*
X97413333Y-108802380D02*
X97746666Y-107802380D01*
X98080000Y-108802380D01*
X98318095Y-107802380D02*
X98937142Y-107802380D01*
X98603809Y-108183333D01*
X98746666Y-108183333D01*
X98841904Y-108230952D01*
X98889523Y-108278571D01*
X98937142Y-108373809D01*
X98937142Y-108611904D01*
X98889523Y-108707142D01*
X98841904Y-108754761D01*
X98746666Y-108802380D01*
X98460952Y-108802380D01*
X98365714Y-108754761D01*
X98318095Y-108707142D01*
X99318095Y-107897619D02*
X99365714Y-107850000D01*
X99460952Y-107802380D01*
X99699047Y-107802380D01*
X99794285Y-107850000D01*
X99841904Y-107897619D01*
X99889523Y-107992857D01*
X99889523Y-108088095D01*
X99841904Y-108230952D01*
X99270476Y-108802380D01*
X99889523Y-108802380D01*
X100460952Y-108230952D02*
X100365714Y-108183333D01*
X100318095Y-108135714D01*
X100270476Y-108040476D01*
X100270476Y-107992857D01*
X100318095Y-107897619D01*
X100365714Y-107850000D01*
X100460952Y-107802380D01*
X100651428Y-107802380D01*
X100746666Y-107850000D01*
X100794285Y-107897619D01*
X100841904Y-107992857D01*
X100841904Y-108040476D01*
X100794285Y-108135714D01*
X100746666Y-108183333D01*
X100651428Y-108230952D01*
X100460952Y-108230952D01*
X100365714Y-108278571D01*
X100318095Y-108326190D01*
X100270476Y-108421428D01*
X100270476Y-108611904D01*
X100318095Y-108707142D01*
X100365714Y-108754761D01*
X100460952Y-108802380D01*
X100651428Y-108802380D01*
X100746666Y-108754761D01*
X100794285Y-108707142D01*
X100841904Y-108611904D01*
X100841904Y-108421428D01*
X100794285Y-108326190D01*
X100746666Y-108278571D01*
X100651428Y-108230952D01*
X118857142Y-87952380D02*
X118285714Y-87952380D01*
X118571428Y-87952380D02*
X118571428Y-86952380D01*
X118476190Y-87095238D01*
X118380952Y-87190476D01*
X118285714Y-87238095D01*
X119476190Y-86952380D02*
X119571428Y-86952380D01*
X119666666Y-87000000D01*
X119714285Y-87047619D01*
X119761904Y-87142857D01*
X119809523Y-87333333D01*
X119809523Y-87571428D01*
X119761904Y-87761904D01*
X119714285Y-87857142D01*
X119666666Y-87904761D01*
X119571428Y-87952380D01*
X119476190Y-87952380D01*
X119380952Y-87904761D01*
X119333333Y-87857142D01*
X119285714Y-87761904D01*
X119238095Y-87571428D01*
X119238095Y-87333333D01*
X119285714Y-87142857D01*
X119333333Y-87047619D01*
X119380952Y-87000000D01*
X119476190Y-86952380D01*
X120666666Y-87285714D02*
X120666666Y-87952380D01*
X120238095Y-87285714D02*
X120238095Y-87809523D01*
X120285714Y-87904761D01*
X120380952Y-87952380D01*
X120523809Y-87952380D01*
X120619047Y-87904761D01*
X120666666Y-87857142D01*
X111357142Y-87952380D02*
X110785714Y-87952380D01*
X111071428Y-87952380D02*
X111071428Y-86952380D01*
X110976190Y-87095238D01*
X110880952Y-87190476D01*
X110785714Y-87238095D01*
X111976190Y-86952380D02*
X112071428Y-86952380D01*
X112166666Y-87000000D01*
X112214285Y-87047619D01*
X112261904Y-87142857D01*
X112309523Y-87333333D01*
X112309523Y-87571428D01*
X112261904Y-87761904D01*
X112214285Y-87857142D01*
X112166666Y-87904761D01*
X112071428Y-87952380D01*
X111976190Y-87952380D01*
X111880952Y-87904761D01*
X111833333Y-87857142D01*
X111785714Y-87761904D01*
X111738095Y-87571428D01*
X111738095Y-87333333D01*
X111785714Y-87142857D01*
X111833333Y-87047619D01*
X111880952Y-87000000D01*
X111976190Y-86952380D01*
X113166666Y-87285714D02*
X113166666Y-87952380D01*
X112738095Y-87285714D02*
X112738095Y-87809523D01*
X112785714Y-87904761D01*
X112880952Y-87952380D01*
X113023809Y-87952380D01*
X113119047Y-87904761D01*
X113166666Y-87857142D01*
X136880952Y-106952380D02*
X136309523Y-106952380D01*
X136595238Y-106952380D02*
X136595238Y-105952380D01*
X136500000Y-106095238D01*
X136404761Y-106190476D01*
X136309523Y-106238095D01*
X137500000Y-105952380D02*
X137595238Y-105952380D01*
X137690476Y-106000000D01*
X137738095Y-106047619D01*
X137785714Y-106142857D01*
X137833333Y-106333333D01*
X137833333Y-106571428D01*
X137785714Y-106761904D01*
X137738095Y-106857142D01*
X137690476Y-106904761D01*
X137595238Y-106952380D01*
X137500000Y-106952380D01*
X137404761Y-106904761D01*
X137357142Y-106857142D01*
X137309523Y-106761904D01*
X137261904Y-106571428D01*
X137261904Y-106333333D01*
X137309523Y-106142857D01*
X137357142Y-106047619D01*
X137404761Y-106000000D01*
X137500000Y-105952380D01*
X138452380Y-105952380D02*
X138547619Y-105952380D01*
X138642857Y-106000000D01*
X138690476Y-106047619D01*
X138738095Y-106142857D01*
X138785714Y-106333333D01*
X138785714Y-106571428D01*
X138738095Y-106761904D01*
X138690476Y-106857142D01*
X138642857Y-106904761D01*
X138547619Y-106952380D01*
X138452380Y-106952380D01*
X138357142Y-106904761D01*
X138309523Y-106857142D01*
X138261904Y-106761904D01*
X138214285Y-106571428D01*
X138214285Y-106333333D01*
X138261904Y-106142857D01*
X138309523Y-106047619D01*
X138357142Y-106000000D01*
X138452380Y-105952380D01*
X139214285Y-106285714D02*
X139214285Y-106952380D01*
X139214285Y-106380952D02*
X139261904Y-106333333D01*
X139357142Y-106285714D01*
X139500000Y-106285714D01*
X139595238Y-106333333D01*
X139642857Y-106428571D01*
X139642857Y-106952380D01*
X133285714Y-94238095D02*
X133952380Y-94238095D01*
X132904761Y-94476190D02*
X133619047Y-94714285D01*
X133619047Y-94095238D01*
X132952380Y-93809523D02*
X132952380Y-93142857D01*
X133952380Y-93571428D01*
X133285714Y-92333333D02*
X133952380Y-92333333D01*
X133285714Y-92761904D02*
X133809523Y-92761904D01*
X133904761Y-92714285D01*
X133952380Y-92619047D01*
X133952380Y-92476190D01*
X133904761Y-92380952D01*
X133857142Y-92333333D01*
X103452380Y-108119047D02*
X103452380Y-108690476D01*
X103452380Y-108404761D02*
X102452380Y-108404761D01*
X102595238Y-108500000D01*
X102690476Y-108595238D01*
X102738095Y-108690476D01*
X102452380Y-107500000D02*
X102452380Y-107404761D01*
X102500000Y-107309523D01*
X102547619Y-107261904D01*
X102642857Y-107214285D01*
X102833333Y-107166666D01*
X103071428Y-107166666D01*
X103261904Y-107214285D01*
X103357142Y-107261904D01*
X103404761Y-107309523D01*
X103452380Y-107404761D01*
X103452380Y-107500000D01*
X103404761Y-107595238D01*
X103357142Y-107642857D01*
X103261904Y-107690476D01*
X103071428Y-107738095D01*
X102833333Y-107738095D01*
X102642857Y-107690476D01*
X102547619Y-107642857D01*
X102500000Y-107595238D01*
X102452380Y-107500000D01*
X102452380Y-106547619D02*
X102452380Y-106452380D01*
X102500000Y-106357142D01*
X102547619Y-106309523D01*
X102642857Y-106261904D01*
X102833333Y-106214285D01*
X103071428Y-106214285D01*
X103261904Y-106261904D01*
X103357142Y-106309523D01*
X103404761Y-106357142D01*
X103452380Y-106452380D01*
X103452380Y-106547619D01*
X103404761Y-106642857D01*
X103357142Y-106690476D01*
X103261904Y-106738095D01*
X103071428Y-106785714D01*
X102833333Y-106785714D01*
X102642857Y-106738095D01*
X102547619Y-106690476D01*
X102500000Y-106642857D01*
X102452380Y-106547619D01*
X102785714Y-105785714D02*
X103452380Y-105785714D01*
X102880952Y-105785714D02*
X102833333Y-105738095D01*
X102785714Y-105642857D01*
X102785714Y-105500000D01*
X102833333Y-105404761D01*
X102928571Y-105357142D01*
X103452380Y-105357142D01*
X112452380Y-108619047D02*
X112452380Y-109190476D01*
X112452380Y-108904761D02*
X111452380Y-108904761D01*
X111595238Y-109000000D01*
X111690476Y-109095238D01*
X111738095Y-109190476D01*
X111452380Y-108000000D02*
X111452380Y-107904761D01*
X111500000Y-107809523D01*
X111547619Y-107761904D01*
X111642857Y-107714285D01*
X111833333Y-107666666D01*
X112071428Y-107666666D01*
X112261904Y-107714285D01*
X112357142Y-107761904D01*
X112404761Y-107809523D01*
X112452380Y-107904761D01*
X112452380Y-108000000D01*
X112404761Y-108095238D01*
X112357142Y-108142857D01*
X112261904Y-108190476D01*
X112071428Y-108238095D01*
X111833333Y-108238095D01*
X111642857Y-108190476D01*
X111547619Y-108142857D01*
X111500000Y-108095238D01*
X111452380Y-108000000D01*
X111452380Y-107047619D02*
X111452380Y-106952380D01*
X111500000Y-106857142D01*
X111547619Y-106809523D01*
X111642857Y-106761904D01*
X111833333Y-106714285D01*
X112071428Y-106714285D01*
X112261904Y-106761904D01*
X112357142Y-106809523D01*
X112404761Y-106857142D01*
X112452380Y-106952380D01*
X112452380Y-107047619D01*
X112404761Y-107142857D01*
X112357142Y-107190476D01*
X112261904Y-107238095D01*
X112071428Y-107285714D01*
X111833333Y-107285714D01*
X111642857Y-107238095D01*
X111547619Y-107190476D01*
X111500000Y-107142857D01*
X111452380Y-107047619D01*
X111785714Y-106285714D02*
X112452380Y-106285714D01*
X111880952Y-106285714D02*
X111833333Y-106238095D01*
X111785714Y-106142857D01*
X111785714Y-106000000D01*
X111833333Y-105904761D01*
X111928571Y-105857142D01*
X112452380Y-105857142D01*
X123047619Y-131500000D02*
X123000000Y-131452380D01*
X122952380Y-131357142D01*
X122952380Y-131119047D01*
X123000000Y-131023809D01*
X123047619Y-130976190D01*
X123142857Y-130928571D01*
X123238095Y-130928571D01*
X123380952Y-130976190D01*
X123952380Y-131547619D01*
X123952380Y-130928571D01*
X123047619Y-130547619D02*
X123000000Y-130500000D01*
X122952380Y-130404761D01*
X122952380Y-130166666D01*
X123000000Y-130071428D01*
X123047619Y-130023809D01*
X123142857Y-129976190D01*
X123238095Y-129976190D01*
X123380952Y-130023809D01*
X123952380Y-130595238D01*
X123952380Y-129976190D01*
X123285714Y-129547619D02*
X124285714Y-129547619D01*
X123333333Y-129547619D02*
X123285714Y-129452380D01*
X123285714Y-129261904D01*
X123333333Y-129166666D01*
X123380952Y-129119047D01*
X123476190Y-129071428D01*
X123761904Y-129071428D01*
X123857142Y-129119047D01*
X123904761Y-129166666D01*
X123952380Y-129261904D01*
X123952380Y-129452380D01*
X123904761Y-129547619D01*
X123285714Y-128785714D02*
X123285714Y-128404761D01*
X123952380Y-128642857D02*
X123095238Y-128642857D01*
X123000000Y-128595238D01*
X122952380Y-128500000D01*
X122952380Y-128404761D01*
X133547619Y-131500000D02*
X133500000Y-131452380D01*
X133452380Y-131357142D01*
X133452380Y-131119047D01*
X133500000Y-131023809D01*
X133547619Y-130976190D01*
X133642857Y-130928571D01*
X133738095Y-130928571D01*
X133880952Y-130976190D01*
X134452380Y-131547619D01*
X134452380Y-130928571D01*
X133547619Y-130547619D02*
X133500000Y-130500000D01*
X133452380Y-130404761D01*
X133452380Y-130166666D01*
X133500000Y-130071428D01*
X133547619Y-130023809D01*
X133642857Y-129976190D01*
X133738095Y-129976190D01*
X133880952Y-130023809D01*
X134452380Y-130595238D01*
X134452380Y-129976190D01*
X133785714Y-129547619D02*
X134785714Y-129547619D01*
X133833333Y-129547619D02*
X133785714Y-129452380D01*
X133785714Y-129261904D01*
X133833333Y-129166666D01*
X133880952Y-129119047D01*
X133976190Y-129071428D01*
X134261904Y-129071428D01*
X134357142Y-129119047D01*
X134404761Y-129166666D01*
X134452380Y-129261904D01*
X134452380Y-129452380D01*
X134404761Y-129547619D01*
X133785714Y-128785714D02*
X133785714Y-128404761D01*
X134452380Y-128642857D02*
X133595238Y-128642857D01*
X133500000Y-128595238D01*
X133452380Y-128500000D01*
X133452380Y-128404761D01*
X100547619Y-129952380D02*
X100214285Y-129476190D01*
X99976190Y-129952380D02*
X99976190Y-128952380D01*
X100357142Y-128952380D01*
X100452380Y-129000000D01*
X100500000Y-129047619D01*
X100547619Y-129142857D01*
X100547619Y-129285714D01*
X100500000Y-129380952D01*
X100452380Y-129428571D01*
X100357142Y-129476190D01*
X99976190Y-129476190D01*
X100976190Y-129428571D02*
X101309523Y-129428571D01*
X101452380Y-129952380D02*
X100976190Y-129952380D01*
X100976190Y-128952380D01*
X101452380Y-128952380D01*
X101833333Y-129904761D02*
X101976190Y-129952380D01*
X102214285Y-129952380D01*
X102309523Y-129904761D01*
X102357142Y-129857142D01*
X102404761Y-129761904D01*
X102404761Y-129666666D01*
X102357142Y-129571428D01*
X102309523Y-129523809D01*
X102214285Y-129476190D01*
X102023809Y-129428571D01*
X101928571Y-129380952D01*
X101880952Y-129333333D01*
X101833333Y-129238095D01*
X101833333Y-129142857D01*
X101880952Y-129047619D01*
X101928571Y-129000000D01*
X102023809Y-128952380D01*
X102261904Y-128952380D01*
X102404761Y-129000000D01*
X102833333Y-129428571D02*
X103166666Y-129428571D01*
X103309523Y-129952380D02*
X102833333Y-129952380D01*
X102833333Y-128952380D01*
X103309523Y-128952380D01*
X103595238Y-128952380D02*
X104166666Y-128952380D01*
X103880952Y-129952380D02*
X103880952Y-128952380D01*
X140690476Y-94952380D02*
X140690476Y-93952380D01*
X141071428Y-93952380D01*
X141166666Y-94000000D01*
X141214285Y-94047619D01*
X141261904Y-94142857D01*
X141261904Y-94285714D01*
X141214285Y-94380952D01*
X141166666Y-94428571D01*
X141071428Y-94476190D01*
X140690476Y-94476190D01*
X141880952Y-93952380D02*
X142071428Y-93952380D01*
X142166666Y-94000000D01*
X142261904Y-94095238D01*
X142309523Y-94285714D01*
X142309523Y-94619047D01*
X142261904Y-94809523D01*
X142166666Y-94904761D01*
X142071428Y-94952380D01*
X141880952Y-94952380D01*
X141785714Y-94904761D01*
X141690476Y-94809523D01*
X141642857Y-94619047D01*
X141642857Y-94285714D01*
X141690476Y-94095238D01*
X141785714Y-94000000D01*
X141880952Y-93952380D01*
X142642857Y-93952380D02*
X142880952Y-94952380D01*
X143071428Y-94238095D01*
X143261904Y-94952380D01*
X143500000Y-93952380D01*
X143880952Y-94428571D02*
X144214285Y-94428571D01*
X144357142Y-94952380D02*
X143880952Y-94952380D01*
X143880952Y-93952380D01*
X144357142Y-93952380D01*
X145357142Y-94952380D02*
X145023809Y-94476190D01*
X144785714Y-94952380D02*
X144785714Y-93952380D01*
X145166666Y-93952380D01*
X145261904Y-94000000D01*
X145309523Y-94047619D01*
X145357142Y-94142857D01*
X145357142Y-94285714D01*
X145309523Y-94380952D01*
X145261904Y-94428571D01*
X145166666Y-94476190D01*
X144785714Y-94476190D01*
X137095238Y-126952380D02*
X137095238Y-125952380D01*
X137476190Y-125952380D01*
X137571428Y-126000000D01*
X137619047Y-126047619D01*
X137666666Y-126142857D01*
X137666666Y-126285714D01*
X137619047Y-126380952D01*
X137571428Y-126428571D01*
X137476190Y-126476190D01*
X137095238Y-126476190D01*
X138428571Y-126428571D02*
X138571428Y-126476190D01*
X138619047Y-126523809D01*
X138666666Y-126619047D01*
X138666666Y-126761904D01*
X138619047Y-126857142D01*
X138571428Y-126904761D01*
X138476190Y-126952380D01*
X138095238Y-126952380D01*
X138095238Y-125952380D01*
X138428571Y-125952380D01*
X138523809Y-126000000D01*
X138571428Y-126047619D01*
X138619047Y-126142857D01*
X138619047Y-126238095D01*
X138571428Y-126333333D01*
X138523809Y-126380952D01*
X138428571Y-126428571D01*
X138095238Y-126428571D01*
X139619047Y-126952380D02*
X139047619Y-126952380D01*
X139333333Y-126952380D02*
X139333333Y-125952380D01*
X139238095Y-126095238D01*
X139142857Y-126190476D01*
X139047619Y-126238095D01*
X139809523Y-127047619D02*
X140571428Y-127047619D01*
X140666666Y-126285714D02*
X141047619Y-126285714D01*
X140809523Y-125952380D02*
X140809523Y-126809523D01*
X140857142Y-126904761D01*
X140952380Y-126952380D01*
X141047619Y-126952380D01*
X126761904Y-106952380D02*
X126761904Y-105952380D01*
X127142857Y-105952380D01*
X127238095Y-106000000D01*
X127285714Y-106047619D01*
X127333333Y-106142857D01*
X127333333Y-106285714D01*
X127285714Y-106380952D01*
X127238095Y-106428571D01*
X127142857Y-106476190D01*
X126761904Y-106476190D01*
X128095238Y-106428571D02*
X128238095Y-106476190D01*
X128285714Y-106523809D01*
X128333333Y-106619047D01*
X128333333Y-106761904D01*
X128285714Y-106857142D01*
X128238095Y-106904761D01*
X128142857Y-106952380D01*
X127761904Y-106952380D01*
X127761904Y-105952380D01*
X128095238Y-105952380D01*
X128190476Y-106000000D01*
X128238095Y-106047619D01*
X128285714Y-106142857D01*
X128285714Y-106238095D01*
X128238095Y-106333333D01*
X128190476Y-106380952D01*
X128095238Y-106428571D01*
X127761904Y-106428571D01*
X129238095Y-105952380D02*
X128761904Y-105952380D01*
X128714285Y-106428571D01*
X128761904Y-106380952D01*
X128857142Y-106333333D01*
X129095238Y-106333333D01*
X129190476Y-106380952D01*
X129238095Y-106428571D01*
X129285714Y-106523809D01*
X129285714Y-106761904D01*
X129238095Y-106857142D01*
X129190476Y-106904761D01*
X129095238Y-106952380D01*
X128857142Y-106952380D01*
X128761904Y-106904761D01*
X128714285Y-106857142D01*
X88666666Y-94127380D02*
X88476190Y-94127380D01*
X88380952Y-94175000D01*
X88333333Y-94222619D01*
X88238095Y-94365476D01*
X88190476Y-94555952D01*
X88190476Y-94936904D01*
X88238095Y-95032142D01*
X88285714Y-95079761D01*
X88380952Y-95127380D01*
X88571428Y-95127380D01*
X88666666Y-95079761D01*
X88714285Y-95032142D01*
X88761904Y-94936904D01*
X88761904Y-94698809D01*
X88714285Y-94603571D01*
X88666666Y-94555952D01*
X88571428Y-94508333D01*
X88380952Y-94508333D01*
X88285714Y-94555952D01*
X88238095Y-94603571D01*
X88190476Y-94698809D01*
X89190476Y-94746428D02*
X89952380Y-94746428D01*
X90476190Y-95127380D02*
X90666666Y-95127380D01*
X90761904Y-95079761D01*
X90809523Y-95032142D01*
X90904761Y-94889285D01*
X90952380Y-94698809D01*
X90952380Y-94317857D01*
X90904761Y-94222619D01*
X90857142Y-94175000D01*
X90761904Y-94127380D01*
X90571428Y-94127380D01*
X90476190Y-94175000D01*
X90428571Y-94222619D01*
X90380952Y-94317857D01*
X90380952Y-94555952D01*
X90428571Y-94651190D01*
X90476190Y-94698809D01*
X90571428Y-94746428D01*
X90761904Y-94746428D01*
X90857142Y-94698809D01*
X90904761Y-94651190D01*
X90952380Y-94555952D01*
X91238095Y-94127380D02*
X91571428Y-95127380D01*
X91904761Y-94127380D01*
X88095238Y-96777380D02*
X88095238Y-95777380D01*
X88333333Y-95777380D01*
X88476190Y-95825000D01*
X88571428Y-95920238D01*
X88619047Y-96015476D01*
X88666666Y-96205952D01*
X88666666Y-96348809D01*
X88619047Y-96539285D01*
X88571428Y-96634523D01*
X88476190Y-96729761D01*
X88333333Y-96777380D01*
X88095238Y-96777380D01*
X89666666Y-96682142D02*
X89619047Y-96729761D01*
X89476190Y-96777380D01*
X89380952Y-96777380D01*
X89238095Y-96729761D01*
X89142857Y-96634523D01*
X89095238Y-96539285D01*
X89047619Y-96348809D01*
X89047619Y-96205952D01*
X89095238Y-96015476D01*
X89142857Y-95920238D01*
X89238095Y-95825000D01*
X89380952Y-95777380D01*
X89476190Y-95777380D01*
X89619047Y-95825000D01*
X89666666Y-95872619D01*
X90857142Y-96777380D02*
X90857142Y-95777380D01*
X91333333Y-96777380D02*
X91333333Y-95777380D01*
X91904761Y-96777380D01*
X91904761Y-95777380D01*
X137404761Y-94952380D02*
X136833333Y-94952380D01*
X137119047Y-94952380D02*
X137119047Y-93952380D01*
X137023809Y-94095238D01*
X136928571Y-94190476D01*
X136833333Y-94238095D01*
X137833333Y-94952380D02*
X137833333Y-93952380D01*
X137928571Y-94571428D02*
X138214285Y-94952380D01*
X138214285Y-94285714D02*
X137833333Y-94666666D01*
X138785714Y-94380952D02*
X138690476Y-94333333D01*
X138642857Y-94285714D01*
X138595238Y-94190476D01*
X138595238Y-94142857D01*
X138642857Y-94047619D01*
X138690476Y-94000000D01*
X138785714Y-93952380D01*
X138976190Y-93952380D01*
X139071428Y-94000000D01*
X139119047Y-94047619D01*
X139166666Y-94142857D01*
X139166666Y-94190476D01*
X139119047Y-94285714D01*
X139071428Y-94333333D01*
X138976190Y-94380952D01*
X138785714Y-94380952D01*
X138690476Y-94428571D01*
X138642857Y-94476190D01*
X138595238Y-94571428D01*
X138595238Y-94761904D01*
X138642857Y-94857142D01*
X138690476Y-94904761D01*
X138785714Y-94952380D01*
X138976190Y-94952380D01*
X139071428Y-94904761D01*
X139119047Y-94857142D01*
X139166666Y-94761904D01*
X139166666Y-94571428D01*
X139119047Y-94476190D01*
X139071428Y-94428571D01*
X138976190Y-94380952D01*
X93404761Y-133952380D02*
X92833333Y-133952380D01*
X93119047Y-133952380D02*
X93119047Y-132952380D01*
X93023809Y-133095238D01*
X92928571Y-133190476D01*
X92833333Y-133238095D01*
X94023809Y-132952380D02*
X94119047Y-132952380D01*
X94214285Y-133000000D01*
X94261904Y-133047619D01*
X94309523Y-133142857D01*
X94357142Y-133333333D01*
X94357142Y-133571428D01*
X94309523Y-133761904D01*
X94261904Y-133857142D01*
X94214285Y-133904761D01*
X94119047Y-133952380D01*
X94023809Y-133952380D01*
X93928571Y-133904761D01*
X93880952Y-133857142D01*
X93833333Y-133761904D01*
X93785714Y-133571428D01*
X93785714Y-133333333D01*
X93833333Y-133142857D01*
X93880952Y-133047619D01*
X93928571Y-133000000D01*
X94023809Y-132952380D01*
X94785714Y-133952380D02*
X94785714Y-132952380D01*
X94880952Y-133571428D02*
X95166666Y-133952380D01*
X95166666Y-133285714D02*
X94785714Y-133666666D01*
X127952380Y-104119047D02*
X127952380Y-104690476D01*
X127952380Y-104404761D02*
X126952380Y-104404761D01*
X127095238Y-104500000D01*
X127190476Y-104595238D01*
X127238095Y-104690476D01*
X127952380Y-103690476D02*
X126952380Y-103690476D01*
X127571428Y-103595238D02*
X127952380Y-103309523D01*
X127285714Y-103309523D02*
X127666666Y-103690476D01*
X143404761Y-126952380D02*
X142833333Y-126952380D01*
X143119047Y-126952380D02*
X143119047Y-125952380D01*
X143023809Y-126095238D01*
X142928571Y-126190476D01*
X142833333Y-126238095D01*
X143833333Y-126952380D02*
X143833333Y-125952380D01*
X143928571Y-126571428D02*
X144214285Y-126952380D01*
X144214285Y-126285714D02*
X143833333Y-126666666D01*
X144785714Y-126380952D02*
X144690476Y-126333333D01*
X144642857Y-126285714D01*
X144595238Y-126190476D01*
X144595238Y-126142857D01*
X144642857Y-126047619D01*
X144690476Y-126000000D01*
X144785714Y-125952380D01*
X144976190Y-125952380D01*
X145071428Y-126000000D01*
X145119047Y-126047619D01*
X145166666Y-126142857D01*
X145166666Y-126190476D01*
X145119047Y-126285714D01*
X145071428Y-126333333D01*
X144976190Y-126380952D01*
X144785714Y-126380952D01*
X144690476Y-126428571D01*
X144642857Y-126476190D01*
X144595238Y-126571428D01*
X144595238Y-126761904D01*
X144642857Y-126857142D01*
X144690476Y-126904761D01*
X144785714Y-126952380D01*
X144976190Y-126952380D01*
X145071428Y-126904761D01*
X145119047Y-126857142D01*
X145166666Y-126761904D01*
X145166666Y-126571428D01*
X145119047Y-126476190D01*
X145071428Y-126428571D01*
X144976190Y-126380952D01*
D11*
X149000000Y-117500000D02*
X149500000Y-117500000D01*
X149000000Y-112500000D02*
X149500000Y-112500000D01*
X130000000Y-117500000D02*
X130500000Y-117500000D01*
X130000000Y-112500000D02*
X130500000Y-112500000D01*
D10*
X129288095Y-104250000D02*
X129192857Y-104202380D01*
X129050000Y-104202380D01*
X128907142Y-104250000D01*
X128811904Y-104345238D01*
X128764285Y-104440476D01*
X128716666Y-104630952D01*
X128716666Y-104773809D01*
X128764285Y-104964285D01*
X128811904Y-105059523D01*
X128907142Y-105154761D01*
X129050000Y-105202380D01*
X129145238Y-105202380D01*
X129288095Y-105154761D01*
X129335714Y-105107142D01*
X129335714Y-104773809D01*
X129145238Y-104773809D01*
X129764285Y-105202380D02*
X129764285Y-104202380D01*
X130335714Y-105202380D01*
X130335714Y-104202380D01*
X130811904Y-105202380D02*
X130811904Y-104202380D01*
X131050000Y-104202380D01*
X131192857Y-104250000D01*
X131288095Y-104345238D01*
X131335714Y-104440476D01*
X131383333Y-104630952D01*
X131383333Y-104773809D01*
X131335714Y-104964285D01*
X131288095Y-105059523D01*
X131192857Y-105154761D01*
X131050000Y-105202380D01*
X130811904Y-105202380D01*
X130309523Y-101702380D02*
X129833333Y-101702380D01*
X129785714Y-102178571D01*
X129833333Y-102130952D01*
X129928571Y-102083333D01*
X130166666Y-102083333D01*
X130261904Y-102130952D01*
X130309523Y-102178571D01*
X130357142Y-102273809D01*
X130357142Y-102511904D01*
X130309523Y-102607142D01*
X130261904Y-102654761D01*
X130166666Y-102702380D01*
X129928571Y-102702380D01*
X129833333Y-102654761D01*
X129785714Y-102607142D01*
X130642857Y-101702380D02*
X130976190Y-102702380D01*
X131309523Y-101702380D01*
X141688095Y-90900000D02*
X141592857Y-90852380D01*
X141450000Y-90852380D01*
X141307142Y-90900000D01*
X141211904Y-90995238D01*
X141164285Y-91090476D01*
X141116666Y-91280952D01*
X141116666Y-91423809D01*
X141164285Y-91614285D01*
X141211904Y-91709523D01*
X141307142Y-91804761D01*
X141450000Y-91852380D01*
X141545238Y-91852380D01*
X141688095Y-91804761D01*
X141735714Y-91757142D01*
X141735714Y-91423809D01*
X141545238Y-91423809D01*
X142164285Y-91852380D02*
X142164285Y-90852380D01*
X142735714Y-91852380D01*
X142735714Y-90852380D01*
X143211904Y-91852380D02*
X143211904Y-90852380D01*
X143450000Y-90852380D01*
X143592857Y-90900000D01*
X143688095Y-90995238D01*
X143735714Y-91090476D01*
X143783333Y-91280952D01*
X143783333Y-91423809D01*
X143735714Y-91614285D01*
X143688095Y-91709523D01*
X143592857Y-91804761D01*
X143450000Y-91852380D01*
X143211904Y-91852380D01*
X141759523Y-87902380D02*
X141283333Y-87902380D01*
X141235714Y-88378571D01*
X141283333Y-88330952D01*
X141378571Y-88283333D01*
X141616666Y-88283333D01*
X141711904Y-88330952D01*
X141759523Y-88378571D01*
X141807142Y-88473809D01*
X141807142Y-88711904D01*
X141759523Y-88807142D01*
X141711904Y-88854761D01*
X141616666Y-88902380D01*
X141378571Y-88902380D01*
X141283333Y-88854761D01*
X141235714Y-88807142D01*
X142092857Y-87902380D02*
X142426190Y-88902380D01*
X142759523Y-87902380D01*
X123440476Y-134477380D02*
X123440476Y-133477380D01*
X124011904Y-134477380D02*
X123583333Y-133905952D01*
X124011904Y-133477380D02*
X123440476Y-134048809D01*
X124726190Y-133477380D02*
X124726190Y-134191666D01*
X124678571Y-134334523D01*
X124583333Y-134429761D01*
X124440476Y-134477380D01*
X124345238Y-134477380D01*
X125916666Y-133429761D02*
X125059523Y-134715476D01*
X126107142Y-133477380D02*
X126678571Y-133477380D01*
X126392857Y-134477380D02*
X126392857Y-133477380D01*
X126869047Y-133477380D02*
X127202380Y-134477380D01*
X127535714Y-133477380D01*
X128583333Y-134191666D02*
X129059523Y-134191666D01*
X128488095Y-134477380D02*
X128821428Y-133477380D01*
X129154761Y-134477380D01*
X129345238Y-133477380D02*
X129678571Y-134477380D01*
X130011904Y-133477380D01*
X130916666Y-134477380D02*
X130583333Y-134001190D01*
X130345238Y-134477380D02*
X130345238Y-133477380D01*
X130726190Y-133477380D01*
X130821428Y-133525000D01*
X130869047Y-133572619D01*
X130916666Y-133667857D01*
X130916666Y-133810714D01*
X130869047Y-133905952D01*
X130821428Y-133953571D01*
X130726190Y-134001190D01*
X130345238Y-134001190D01*
X132107142Y-134477380D02*
X132107142Y-133477380D01*
X132345238Y-133477380D01*
X132488095Y-133525000D01*
X132583333Y-133620238D01*
X132630952Y-133715476D01*
X132678571Y-133905952D01*
X132678571Y-134048809D01*
X132630952Y-134239285D01*
X132583333Y-134334523D01*
X132488095Y-134429761D01*
X132345238Y-134477380D01*
X132107142Y-134477380D01*
X133107142Y-133953571D02*
X133440476Y-133953571D01*
X133583333Y-134477380D02*
X133107142Y-134477380D01*
X133107142Y-133477380D01*
X133583333Y-133477380D01*
X133869047Y-133477380D02*
X134202380Y-134477380D01*
X134535714Y-133477380D01*
X135964285Y-133953571D02*
X136107142Y-134001190D01*
X136154761Y-134048809D01*
X136202380Y-134144047D01*
X136202380Y-134286904D01*
X136154761Y-134382142D01*
X136107142Y-134429761D01*
X136011904Y-134477380D01*
X135630952Y-134477380D01*
X135630952Y-133477380D01*
X135964285Y-133477380D01*
X136059523Y-133525000D01*
X136107142Y-133572619D01*
X136154761Y-133667857D01*
X136154761Y-133763095D01*
X136107142Y-133858333D01*
X136059523Y-133905952D01*
X135964285Y-133953571D01*
X135630952Y-133953571D01*
X136821428Y-133477380D02*
X137011904Y-133477380D01*
X137107142Y-133525000D01*
X137202380Y-133620238D01*
X137250000Y-133810714D01*
X137250000Y-134144047D01*
X137202380Y-134334523D01*
X137107142Y-134429761D01*
X137011904Y-134477380D01*
X136821428Y-134477380D01*
X136726190Y-134429761D01*
X136630952Y-134334523D01*
X136583333Y-134144047D01*
X136583333Y-133810714D01*
X136630952Y-133620238D01*
X136726190Y-133525000D01*
X136821428Y-133477380D01*
X137630952Y-134191666D02*
X138107142Y-134191666D01*
X137535714Y-134477380D02*
X137869047Y-133477380D01*
X138202380Y-134477380D01*
X139107142Y-134477380D02*
X138773809Y-134001190D01*
X138535714Y-134477380D02*
X138535714Y-133477380D01*
X138916666Y-133477380D01*
X139011904Y-133525000D01*
X139059523Y-133572619D01*
X139107142Y-133667857D01*
X139107142Y-133810714D01*
X139059523Y-133905952D01*
X139011904Y-133953571D01*
X138916666Y-134001190D01*
X138535714Y-134001190D01*
X139535714Y-134477380D02*
X139535714Y-133477380D01*
X139773809Y-133477380D01*
X139916666Y-133525000D01*
X140011904Y-133620238D01*
X140059523Y-133715476D01*
X140107142Y-133905952D01*
X140107142Y-134048809D01*
X140059523Y-134239285D01*
X140011904Y-134334523D01*
X139916666Y-134429761D01*
X139773809Y-134477380D01*
X139535714Y-134477380D01*
X129988095Y-136127380D02*
X129654761Y-135651190D01*
X129416666Y-136127380D02*
X129416666Y-135127380D01*
X129797619Y-135127380D01*
X129892857Y-135175000D01*
X129940476Y-135222619D01*
X129988095Y-135317857D01*
X129988095Y-135460714D01*
X129940476Y-135555952D01*
X129892857Y-135603571D01*
X129797619Y-135651190D01*
X129416666Y-135651190D01*
X130416666Y-135603571D02*
X130750000Y-135603571D01*
X130892857Y-136127380D02*
X130416666Y-136127380D01*
X130416666Y-135127380D01*
X130892857Y-135127380D01*
X131178571Y-135127380D02*
X131511904Y-136127380D01*
X131845238Y-135127380D01*
X132702380Y-136127380D02*
X132130952Y-136127380D01*
X132416666Y-136127380D02*
X132416666Y-135127380D01*
X132321428Y-135270238D01*
X132226190Y-135365476D01*
X132130952Y-135413095D01*
X133130952Y-136032142D02*
X133178571Y-136079761D01*
X133130952Y-136127380D01*
X133083333Y-136079761D01*
X133130952Y-136032142D01*
X133130952Y-136127380D01*
X134130952Y-136127380D02*
X133559523Y-136127380D01*
X133845238Y-136127380D02*
X133845238Y-135127380D01*
X133750000Y-135270238D01*
X133654761Y-135365476D01*
X133559523Y-135413095D01*
X121852380Y-101488095D02*
X120852380Y-101488095D01*
X120852380Y-101107142D01*
X120900000Y-101011904D01*
X120947619Y-100964285D01*
X121042857Y-100916666D01*
X121185714Y-100916666D01*
X121280952Y-100964285D01*
X121328571Y-101011904D01*
X121376190Y-101107142D01*
X121376190Y-101488095D01*
X121328571Y-100154761D02*
X121376190Y-100011904D01*
X121423809Y-99964285D01*
X121519047Y-99916666D01*
X121661904Y-99916666D01*
X121757142Y-99964285D01*
X121804761Y-100011904D01*
X121852380Y-100107142D01*
X121852380Y-100488095D01*
X120852380Y-100488095D01*
X120852380Y-100154761D01*
X120900000Y-100059523D01*
X120947619Y-100011904D01*
X121042857Y-99964285D01*
X121138095Y-99964285D01*
X121233333Y-100011904D01*
X121280952Y-100059523D01*
X121328571Y-100154761D01*
X121328571Y-100488095D01*
X120852380Y-99297619D02*
X120852380Y-99202380D01*
X120900000Y-99107142D01*
X120947619Y-99059523D01*
X121042857Y-99011904D01*
X121233333Y-98964285D01*
X121471428Y-98964285D01*
X121661904Y-99011904D01*
X121757142Y-99059523D01*
X121804761Y-99107142D01*
X121852380Y-99202380D01*
X121852380Y-99297619D01*
X121804761Y-99392857D01*
X121757142Y-99440476D01*
X121661904Y-99488095D01*
X121471428Y-99535714D01*
X121233333Y-99535714D01*
X121042857Y-99488095D01*
X120947619Y-99440476D01*
X120900000Y-99392857D01*
X120852380Y-99297619D01*
X119302380Y-101438095D02*
X118302380Y-101438095D01*
X118302380Y-101057142D01*
X118350000Y-100961904D01*
X118397619Y-100914285D01*
X118492857Y-100866666D01*
X118635714Y-100866666D01*
X118730952Y-100914285D01*
X118778571Y-100961904D01*
X118826190Y-101057142D01*
X118826190Y-101438095D01*
X118778571Y-100104761D02*
X118826190Y-99961904D01*
X118873809Y-99914285D01*
X118969047Y-99866666D01*
X119111904Y-99866666D01*
X119207142Y-99914285D01*
X119254761Y-99961904D01*
X119302380Y-100057142D01*
X119302380Y-100438095D01*
X118302380Y-100438095D01*
X118302380Y-100104761D01*
X118350000Y-100009523D01*
X118397619Y-99961904D01*
X118492857Y-99914285D01*
X118588095Y-99914285D01*
X118683333Y-99961904D01*
X118730952Y-100009523D01*
X118778571Y-100104761D01*
X118778571Y-100438095D01*
X119302380Y-98914285D02*
X119302380Y-99485714D01*
X119302380Y-99200000D02*
X118302380Y-99200000D01*
X118445238Y-99295238D01*
X118540476Y-99390476D01*
X118588095Y-99485714D01*
X116752380Y-101388095D02*
X115752380Y-101388095D01*
X115752380Y-101007142D01*
X115800000Y-100911904D01*
X115847619Y-100864285D01*
X115942857Y-100816666D01*
X116085714Y-100816666D01*
X116180952Y-100864285D01*
X116228571Y-100911904D01*
X116276190Y-101007142D01*
X116276190Y-101388095D01*
X116228571Y-100054761D02*
X116276190Y-99911904D01*
X116323809Y-99864285D01*
X116419047Y-99816666D01*
X116561904Y-99816666D01*
X116657142Y-99864285D01*
X116704761Y-99911904D01*
X116752380Y-100007142D01*
X116752380Y-100388095D01*
X115752380Y-100388095D01*
X115752380Y-100054761D01*
X115800000Y-99959523D01*
X115847619Y-99911904D01*
X115942857Y-99864285D01*
X116038095Y-99864285D01*
X116133333Y-99911904D01*
X116180952Y-99959523D01*
X116228571Y-100054761D01*
X116228571Y-100388095D01*
X115847619Y-99435714D02*
X115800000Y-99388095D01*
X115752380Y-99292857D01*
X115752380Y-99054761D01*
X115800000Y-98959523D01*
X115847619Y-98911904D01*
X115942857Y-98864285D01*
X116038095Y-98864285D01*
X116180952Y-98911904D01*
X116752380Y-99483333D01*
X116752380Y-98864285D01*
X114102380Y-101388095D02*
X113102380Y-101388095D01*
X113102380Y-101007142D01*
X113150000Y-100911904D01*
X113197619Y-100864285D01*
X113292857Y-100816666D01*
X113435714Y-100816666D01*
X113530952Y-100864285D01*
X113578571Y-100911904D01*
X113626190Y-101007142D01*
X113626190Y-101388095D01*
X113578571Y-100054761D02*
X113626190Y-99911904D01*
X113673809Y-99864285D01*
X113769047Y-99816666D01*
X113911904Y-99816666D01*
X114007142Y-99864285D01*
X114054761Y-99911904D01*
X114102380Y-100007142D01*
X114102380Y-100388095D01*
X113102380Y-100388095D01*
X113102380Y-100054761D01*
X113150000Y-99959523D01*
X113197619Y-99911904D01*
X113292857Y-99864285D01*
X113388095Y-99864285D01*
X113483333Y-99911904D01*
X113530952Y-99959523D01*
X113578571Y-100054761D01*
X113578571Y-100388095D01*
X113102380Y-99483333D02*
X113102380Y-98864285D01*
X113483333Y-99197619D01*
X113483333Y-99054761D01*
X113530952Y-98959523D01*
X113578571Y-98911904D01*
X113673809Y-98864285D01*
X113911904Y-98864285D01*
X114007142Y-98911904D01*
X114054761Y-98959523D01*
X114102380Y-99054761D01*
X114102380Y-99340476D01*
X114054761Y-99435714D01*
X114007142Y-99483333D01*
X111552380Y-101338095D02*
X110552380Y-101338095D01*
X110552380Y-100957142D01*
X110600000Y-100861904D01*
X110647619Y-100814285D01*
X110742857Y-100766666D01*
X110885714Y-100766666D01*
X110980952Y-100814285D01*
X111028571Y-100861904D01*
X111076190Y-100957142D01*
X111076190Y-101338095D01*
X111028571Y-100004761D02*
X111076190Y-99861904D01*
X111123809Y-99814285D01*
X111219047Y-99766666D01*
X111361904Y-99766666D01*
X111457142Y-99814285D01*
X111504761Y-99861904D01*
X111552380Y-99957142D01*
X111552380Y-100338095D01*
X110552380Y-100338095D01*
X110552380Y-100004761D01*
X110600000Y-99909523D01*
X110647619Y-99861904D01*
X110742857Y-99814285D01*
X110838095Y-99814285D01*
X110933333Y-99861904D01*
X110980952Y-99909523D01*
X111028571Y-100004761D01*
X111028571Y-100338095D01*
X110885714Y-98909523D02*
X111552380Y-98909523D01*
X110504761Y-99147619D02*
X111219047Y-99385714D01*
X111219047Y-98766666D01*
X109002380Y-101238095D02*
X108002380Y-101238095D01*
X108002380Y-100857142D01*
X108050000Y-100761904D01*
X108097619Y-100714285D01*
X108192857Y-100666666D01*
X108335714Y-100666666D01*
X108430952Y-100714285D01*
X108478571Y-100761904D01*
X108526190Y-100857142D01*
X108526190Y-101238095D01*
X108478571Y-99904761D02*
X108526190Y-99761904D01*
X108573809Y-99714285D01*
X108669047Y-99666666D01*
X108811904Y-99666666D01*
X108907142Y-99714285D01*
X108954761Y-99761904D01*
X109002380Y-99857142D01*
X109002380Y-100238095D01*
X108002380Y-100238095D01*
X108002380Y-99904761D01*
X108050000Y-99809523D01*
X108097619Y-99761904D01*
X108192857Y-99714285D01*
X108288095Y-99714285D01*
X108383333Y-99761904D01*
X108430952Y-99809523D01*
X108478571Y-99904761D01*
X108478571Y-100238095D01*
X108002380Y-98761904D02*
X108002380Y-99238095D01*
X108478571Y-99285714D01*
X108430952Y-99238095D01*
X108383333Y-99142857D01*
X108383333Y-98904761D01*
X108430952Y-98809523D01*
X108478571Y-98761904D01*
X108573809Y-98714285D01*
X108811904Y-98714285D01*
X108907142Y-98761904D01*
X108954761Y-98809523D01*
X109002380Y-98904761D01*
X109002380Y-99142857D01*
X108954761Y-99238095D01*
X108907142Y-99285714D01*
X106166666Y-101619047D02*
X106166666Y-101142857D01*
X106452380Y-101714285D02*
X105452380Y-101380952D01*
X106452380Y-101047619D01*
X106452380Y-100142857D02*
X105976190Y-100476190D01*
X106452380Y-100714285D02*
X105452380Y-100714285D01*
X105452380Y-100333333D01*
X105500000Y-100238095D01*
X105547619Y-100190476D01*
X105642857Y-100142857D01*
X105785714Y-100142857D01*
X105880952Y-100190476D01*
X105928571Y-100238095D01*
X105976190Y-100333333D01*
X105976190Y-100714285D01*
X105928571Y-99714285D02*
X105928571Y-99380952D01*
X106452380Y-99238095D02*
X106452380Y-99714285D01*
X105452380Y-99714285D01*
X105452380Y-99238095D01*
X105928571Y-98476190D02*
X105928571Y-98809523D01*
X106452380Y-98809523D02*
X105452380Y-98809523D01*
X105452380Y-98333333D01*
X103852380Y-101238095D02*
X102852380Y-101238095D01*
X102852380Y-100857142D01*
X102900000Y-100761904D01*
X102947619Y-100714285D01*
X103042857Y-100666666D01*
X103185714Y-100666666D01*
X103280952Y-100714285D01*
X103328571Y-100761904D01*
X103376190Y-100857142D01*
X103376190Y-101238095D01*
X103757142Y-99666666D02*
X103804761Y-99714285D01*
X103852380Y-99857142D01*
X103852380Y-99952380D01*
X103804761Y-100095238D01*
X103709523Y-100190476D01*
X103614285Y-100238095D01*
X103423809Y-100285714D01*
X103280952Y-100285714D01*
X103090476Y-100238095D01*
X102995238Y-100190476D01*
X102900000Y-100095238D01*
X102852380Y-99952380D01*
X102852380Y-99857142D01*
X102900000Y-99714285D01*
X102947619Y-99666666D01*
X102852380Y-99047619D02*
X102852380Y-98952380D01*
X102900000Y-98857142D01*
X102947619Y-98809523D01*
X103042857Y-98761904D01*
X103233333Y-98714285D01*
X103471428Y-98714285D01*
X103661904Y-98761904D01*
X103757142Y-98809523D01*
X103804761Y-98857142D01*
X103852380Y-98952380D01*
X103852380Y-99047619D01*
X103804761Y-99142857D01*
X103757142Y-99190476D01*
X103661904Y-99238095D01*
X103471428Y-99285714D01*
X103233333Y-99285714D01*
X103042857Y-99238095D01*
X102947619Y-99190476D01*
X102900000Y-99142857D01*
X102852380Y-99047619D01*
X101402380Y-101188095D02*
X100402380Y-101188095D01*
X100402380Y-100807142D01*
X100450000Y-100711904D01*
X100497619Y-100664285D01*
X100592857Y-100616666D01*
X100735714Y-100616666D01*
X100830952Y-100664285D01*
X100878571Y-100711904D01*
X100926190Y-100807142D01*
X100926190Y-101188095D01*
X101307142Y-99616666D02*
X101354761Y-99664285D01*
X101402380Y-99807142D01*
X101402380Y-99902380D01*
X101354761Y-100045238D01*
X101259523Y-100140476D01*
X101164285Y-100188095D01*
X100973809Y-100235714D01*
X100830952Y-100235714D01*
X100640476Y-100188095D01*
X100545238Y-100140476D01*
X100450000Y-100045238D01*
X100402380Y-99902380D01*
X100402380Y-99807142D01*
X100450000Y-99664285D01*
X100497619Y-99616666D01*
X101402380Y-98664285D02*
X101402380Y-99235714D01*
X101402380Y-98950000D02*
X100402380Y-98950000D01*
X100545238Y-99045238D01*
X100640476Y-99140476D01*
X100688095Y-99235714D01*
X98802380Y-101238095D02*
X97802380Y-101238095D01*
X97802380Y-100857142D01*
X97850000Y-100761904D01*
X97897619Y-100714285D01*
X97992857Y-100666666D01*
X98135714Y-100666666D01*
X98230952Y-100714285D01*
X98278571Y-100761904D01*
X98326190Y-100857142D01*
X98326190Y-101238095D01*
X98707142Y-99666666D02*
X98754761Y-99714285D01*
X98802380Y-99857142D01*
X98802380Y-99952380D01*
X98754761Y-100095238D01*
X98659523Y-100190476D01*
X98564285Y-100238095D01*
X98373809Y-100285714D01*
X98230952Y-100285714D01*
X98040476Y-100238095D01*
X97945238Y-100190476D01*
X97850000Y-100095238D01*
X97802380Y-99952380D01*
X97802380Y-99857142D01*
X97850000Y-99714285D01*
X97897619Y-99666666D01*
X97897619Y-99285714D02*
X97850000Y-99238095D01*
X97802380Y-99142857D01*
X97802380Y-98904761D01*
X97850000Y-98809523D01*
X97897619Y-98761904D01*
X97992857Y-98714285D01*
X98088095Y-98714285D01*
X98230952Y-98761904D01*
X98802380Y-99333333D01*
X98802380Y-98714285D01*
X96202380Y-101238095D02*
X95202380Y-101238095D01*
X95202380Y-100857142D01*
X95250000Y-100761904D01*
X95297619Y-100714285D01*
X95392857Y-100666666D01*
X95535714Y-100666666D01*
X95630952Y-100714285D01*
X95678571Y-100761904D01*
X95726190Y-100857142D01*
X95726190Y-101238095D01*
X96107142Y-99666666D02*
X96154761Y-99714285D01*
X96202380Y-99857142D01*
X96202380Y-99952380D01*
X96154761Y-100095238D01*
X96059523Y-100190476D01*
X95964285Y-100238095D01*
X95773809Y-100285714D01*
X95630952Y-100285714D01*
X95440476Y-100238095D01*
X95345238Y-100190476D01*
X95250000Y-100095238D01*
X95202380Y-99952380D01*
X95202380Y-99857142D01*
X95250000Y-99714285D01*
X95297619Y-99666666D01*
X95202380Y-99333333D02*
X95202380Y-98714285D01*
X95583333Y-99047619D01*
X95583333Y-98904761D01*
X95630952Y-98809523D01*
X95678571Y-98761904D01*
X95773809Y-98714285D01*
X96011904Y-98714285D01*
X96107142Y-98761904D01*
X96154761Y-98809523D01*
X96202380Y-98904761D01*
X96202380Y-99190476D01*
X96154761Y-99285714D01*
X96107142Y-99333333D01*
X93752380Y-101238095D02*
X92752380Y-101238095D01*
X92752380Y-100857142D01*
X92800000Y-100761904D01*
X92847619Y-100714285D01*
X92942857Y-100666666D01*
X93085714Y-100666666D01*
X93180952Y-100714285D01*
X93228571Y-100761904D01*
X93276190Y-100857142D01*
X93276190Y-101238095D01*
X93657142Y-99666666D02*
X93704761Y-99714285D01*
X93752380Y-99857142D01*
X93752380Y-99952380D01*
X93704761Y-100095238D01*
X93609523Y-100190476D01*
X93514285Y-100238095D01*
X93323809Y-100285714D01*
X93180952Y-100285714D01*
X92990476Y-100238095D01*
X92895238Y-100190476D01*
X92800000Y-100095238D01*
X92752380Y-99952380D01*
X92752380Y-99857142D01*
X92800000Y-99714285D01*
X92847619Y-99666666D01*
X93085714Y-98809523D02*
X93752380Y-98809523D01*
X92704761Y-99047619D02*
X93419047Y-99285714D01*
X93419047Y-98666666D01*
X91152380Y-101238095D02*
X90152380Y-101238095D01*
X90152380Y-100857142D01*
X90200000Y-100761904D01*
X90247619Y-100714285D01*
X90342857Y-100666666D01*
X90485714Y-100666666D01*
X90580952Y-100714285D01*
X90628571Y-100761904D01*
X90676190Y-100857142D01*
X90676190Y-101238095D01*
X91057142Y-99666666D02*
X91104761Y-99714285D01*
X91152380Y-99857142D01*
X91152380Y-99952380D01*
X91104761Y-100095238D01*
X91009523Y-100190476D01*
X90914285Y-100238095D01*
X90723809Y-100285714D01*
X90580952Y-100285714D01*
X90390476Y-100238095D01*
X90295238Y-100190476D01*
X90200000Y-100095238D01*
X90152380Y-99952380D01*
X90152380Y-99857142D01*
X90200000Y-99714285D01*
X90247619Y-99666666D01*
X90152380Y-98761904D02*
X90152380Y-99238095D01*
X90628571Y-99285714D01*
X90580952Y-99238095D01*
X90533333Y-99142857D01*
X90533333Y-98904761D01*
X90580952Y-98809523D01*
X90628571Y-98761904D01*
X90723809Y-98714285D01*
X90961904Y-98714285D01*
X91057142Y-98761904D01*
X91104761Y-98809523D01*
X91152380Y-98904761D01*
X91152380Y-99142857D01*
X91104761Y-99238095D01*
X91057142Y-99285714D01*
X88652380Y-100547619D02*
X88176190Y-100880952D01*
X88652380Y-101119047D02*
X87652380Y-101119047D01*
X87652380Y-100738095D01*
X87700000Y-100642857D01*
X87747619Y-100595238D01*
X87842857Y-100547619D01*
X87985714Y-100547619D01*
X88080952Y-100595238D01*
X88128571Y-100642857D01*
X88176190Y-100738095D01*
X88176190Y-101119047D01*
X88604761Y-100166666D02*
X88652380Y-100023809D01*
X88652380Y-99785714D01*
X88604761Y-99690476D01*
X88557142Y-99642857D01*
X88461904Y-99595238D01*
X88366666Y-99595238D01*
X88271428Y-99642857D01*
X88223809Y-99690476D01*
X88176190Y-99785714D01*
X88128571Y-99976190D01*
X88080952Y-100071428D01*
X88033333Y-100119047D01*
X87938095Y-100166666D01*
X87842857Y-100166666D01*
X87747619Y-100119047D01*
X87700000Y-100071428D01*
X87652380Y-99976190D01*
X87652380Y-99738095D01*
X87700000Y-99595238D01*
X87652380Y-99309523D02*
X87652380Y-98738095D01*
X88652380Y-99023809D02*
X87652380Y-99023809D01*
X117102380Y-123747619D02*
X116626190Y-124080952D01*
X117102380Y-124319047D02*
X116102380Y-124319047D01*
X116102380Y-123938095D01*
X116150000Y-123842857D01*
X116197619Y-123795238D01*
X116292857Y-123747619D01*
X116435714Y-123747619D01*
X116530952Y-123795238D01*
X116578571Y-123842857D01*
X116626190Y-123938095D01*
X116626190Y-124319047D01*
X117054761Y-123366666D02*
X117102380Y-123223809D01*
X117102380Y-122985714D01*
X117054761Y-122890476D01*
X117007142Y-122842857D01*
X116911904Y-122795238D01*
X116816666Y-122795238D01*
X116721428Y-122842857D01*
X116673809Y-122890476D01*
X116626190Y-122985714D01*
X116578571Y-123176190D01*
X116530952Y-123271428D01*
X116483333Y-123319047D01*
X116388095Y-123366666D01*
X116292857Y-123366666D01*
X116197619Y-123319047D01*
X116150000Y-123271428D01*
X116102380Y-123176190D01*
X116102380Y-122938095D01*
X116150000Y-122795238D01*
X116102380Y-122509523D02*
X116102380Y-121938095D01*
X117102380Y-122223809D02*
X116102380Y-122223809D01*
X114652380Y-124404761D02*
X113652380Y-124404761D01*
X113652380Y-124023809D01*
X113700000Y-123928571D01*
X113747619Y-123880952D01*
X113842857Y-123833333D01*
X113985714Y-123833333D01*
X114080952Y-123880952D01*
X114128571Y-123928571D01*
X114176190Y-124023809D01*
X114176190Y-124404761D01*
X114128571Y-123071428D02*
X114176190Y-122928571D01*
X114223809Y-122880952D01*
X114319047Y-122833333D01*
X114461904Y-122833333D01*
X114557142Y-122880952D01*
X114604761Y-122928571D01*
X114652380Y-123023809D01*
X114652380Y-123404761D01*
X113652380Y-123404761D01*
X113652380Y-123071428D01*
X113700000Y-122976190D01*
X113747619Y-122928571D01*
X113842857Y-122880952D01*
X113938095Y-122880952D01*
X114033333Y-122928571D01*
X114080952Y-122976190D01*
X114128571Y-123071428D01*
X114128571Y-123404761D01*
X113747619Y-122452380D02*
X113700000Y-122404761D01*
X113652380Y-122309523D01*
X113652380Y-122071428D01*
X113700000Y-121976190D01*
X113747619Y-121928571D01*
X113842857Y-121880952D01*
X113938095Y-121880952D01*
X114080952Y-121928571D01*
X114652380Y-122500000D01*
X114652380Y-121880952D01*
X114747619Y-121690476D02*
X114747619Y-120928571D01*
X113985714Y-120833333D02*
X113985714Y-120452380D01*
X113652380Y-120690476D02*
X114509523Y-120690476D01*
X114604761Y-120642857D01*
X114652380Y-120547619D01*
X114652380Y-120452380D01*
X112102380Y-124404761D02*
X111102380Y-124404761D01*
X111102380Y-124023809D01*
X111150000Y-123928571D01*
X111197619Y-123880952D01*
X111292857Y-123833333D01*
X111435714Y-123833333D01*
X111530952Y-123880952D01*
X111578571Y-123928571D01*
X111626190Y-124023809D01*
X111626190Y-124404761D01*
X111578571Y-123071428D02*
X111626190Y-122928571D01*
X111673809Y-122880952D01*
X111769047Y-122833333D01*
X111911904Y-122833333D01*
X112007142Y-122880952D01*
X112054761Y-122928571D01*
X112102380Y-123023809D01*
X112102380Y-123404761D01*
X111102380Y-123404761D01*
X111102380Y-123071428D01*
X111150000Y-122976190D01*
X111197619Y-122928571D01*
X111292857Y-122880952D01*
X111388095Y-122880952D01*
X111483333Y-122928571D01*
X111530952Y-122976190D01*
X111578571Y-123071428D01*
X111578571Y-123404761D01*
X112102380Y-121880952D02*
X112102380Y-122452380D01*
X112102380Y-122166666D02*
X111102380Y-122166666D01*
X111245238Y-122261904D01*
X111340476Y-122357142D01*
X111388095Y-122452380D01*
X112197619Y-121690476D02*
X112197619Y-120928571D01*
X111435714Y-120833333D02*
X111435714Y-120452380D01*
X111102380Y-120690476D02*
X111959523Y-120690476D01*
X112054761Y-120642857D01*
X112102380Y-120547619D01*
X112102380Y-120452380D01*
X109602380Y-124404761D02*
X108602380Y-124404761D01*
X108602380Y-124023809D01*
X108650000Y-123928571D01*
X108697619Y-123880952D01*
X108792857Y-123833333D01*
X108935714Y-123833333D01*
X109030952Y-123880952D01*
X109078571Y-123928571D01*
X109126190Y-124023809D01*
X109126190Y-124404761D01*
X109078571Y-123071428D02*
X109126190Y-122928571D01*
X109173809Y-122880952D01*
X109269047Y-122833333D01*
X109411904Y-122833333D01*
X109507142Y-122880952D01*
X109554761Y-122928571D01*
X109602380Y-123023809D01*
X109602380Y-123404761D01*
X108602380Y-123404761D01*
X108602380Y-123071428D01*
X108650000Y-122976190D01*
X108697619Y-122928571D01*
X108792857Y-122880952D01*
X108888095Y-122880952D01*
X108983333Y-122928571D01*
X109030952Y-122976190D01*
X109078571Y-123071428D01*
X109078571Y-123404761D01*
X108602380Y-122214285D02*
X108602380Y-122119047D01*
X108650000Y-122023809D01*
X108697619Y-121976190D01*
X108792857Y-121928571D01*
X108983333Y-121880952D01*
X109221428Y-121880952D01*
X109411904Y-121928571D01*
X109507142Y-121976190D01*
X109554761Y-122023809D01*
X109602380Y-122119047D01*
X109602380Y-122214285D01*
X109554761Y-122309523D01*
X109507142Y-122357142D01*
X109411904Y-122404761D01*
X109221428Y-122452380D01*
X108983333Y-122452380D01*
X108792857Y-122404761D01*
X108697619Y-122357142D01*
X108650000Y-122309523D01*
X108602380Y-122214285D01*
X109697619Y-121690476D02*
X109697619Y-120928571D01*
X108935714Y-120833333D02*
X108935714Y-120452380D01*
X108602380Y-120690476D02*
X109459523Y-120690476D01*
X109554761Y-120642857D01*
X109602380Y-120547619D01*
X109602380Y-120452380D01*
X106952380Y-124238095D02*
X105952380Y-124238095D01*
X105952380Y-123857142D01*
X106000000Y-123761904D01*
X106047619Y-123714285D01*
X106142857Y-123666666D01*
X106285714Y-123666666D01*
X106380952Y-123714285D01*
X106428571Y-123761904D01*
X106476190Y-123857142D01*
X106476190Y-124238095D01*
X106952380Y-123238095D02*
X105952380Y-123238095D01*
X105952380Y-123000000D01*
X106000000Y-122857142D01*
X106095238Y-122761904D01*
X106190476Y-122714285D01*
X106380952Y-122666666D01*
X106523809Y-122666666D01*
X106714285Y-122714285D01*
X106809523Y-122761904D01*
X106904761Y-122857142D01*
X106952380Y-123000000D01*
X106952380Y-123238095D01*
X105952380Y-122333333D02*
X105952380Y-121666666D01*
X106952380Y-122095238D01*
X104452380Y-124238095D02*
X103452380Y-124238095D01*
X103452380Y-123857142D01*
X103500000Y-123761904D01*
X103547619Y-123714285D01*
X103642857Y-123666666D01*
X103785714Y-123666666D01*
X103880952Y-123714285D01*
X103928571Y-123761904D01*
X103976190Y-123857142D01*
X103976190Y-124238095D01*
X104452380Y-123238095D02*
X103452380Y-123238095D01*
X103452380Y-123000000D01*
X103500000Y-122857142D01*
X103595238Y-122761904D01*
X103690476Y-122714285D01*
X103880952Y-122666666D01*
X104023809Y-122666666D01*
X104214285Y-122714285D01*
X104309523Y-122761904D01*
X104404761Y-122857142D01*
X104452380Y-123000000D01*
X104452380Y-123238095D01*
X103452380Y-121809523D02*
X103452380Y-122000000D01*
X103500000Y-122095238D01*
X103547619Y-122142857D01*
X103690476Y-122238095D01*
X103880952Y-122285714D01*
X104261904Y-122285714D01*
X104357142Y-122238095D01*
X104404761Y-122190476D01*
X104452380Y-122095238D01*
X104452380Y-121904761D01*
X104404761Y-121809523D01*
X104357142Y-121761904D01*
X104261904Y-121714285D01*
X104023809Y-121714285D01*
X103928571Y-121761904D01*
X103880952Y-121809523D01*
X103833333Y-121904761D01*
X103833333Y-122095238D01*
X103880952Y-122190476D01*
X103928571Y-122238095D01*
X104023809Y-122285714D01*
X101952380Y-124238095D02*
X100952380Y-124238095D01*
X100952380Y-123857142D01*
X101000000Y-123761904D01*
X101047619Y-123714285D01*
X101142857Y-123666666D01*
X101285714Y-123666666D01*
X101380952Y-123714285D01*
X101428571Y-123761904D01*
X101476190Y-123857142D01*
X101476190Y-124238095D01*
X101952380Y-123238095D02*
X100952380Y-123238095D01*
X100952380Y-123000000D01*
X101000000Y-122857142D01*
X101095238Y-122761904D01*
X101190476Y-122714285D01*
X101380952Y-122666666D01*
X101523809Y-122666666D01*
X101714285Y-122714285D01*
X101809523Y-122761904D01*
X101904761Y-122857142D01*
X101952380Y-123000000D01*
X101952380Y-123238095D01*
X100952380Y-121761904D02*
X100952380Y-122238095D01*
X101428571Y-122285714D01*
X101380952Y-122238095D01*
X101333333Y-122142857D01*
X101333333Y-121904761D01*
X101380952Y-121809523D01*
X101428571Y-121761904D01*
X101523809Y-121714285D01*
X101761904Y-121714285D01*
X101857142Y-121761904D01*
X101904761Y-121809523D01*
X101952380Y-121904761D01*
X101952380Y-122142857D01*
X101904761Y-122238095D01*
X101857142Y-122285714D01*
X99402380Y-124238095D02*
X98402380Y-124238095D01*
X98402380Y-123857142D01*
X98450000Y-123761904D01*
X98497619Y-123714285D01*
X98592857Y-123666666D01*
X98735714Y-123666666D01*
X98830952Y-123714285D01*
X98878571Y-123761904D01*
X98926190Y-123857142D01*
X98926190Y-124238095D01*
X99402380Y-123238095D02*
X98402380Y-123238095D01*
X98402380Y-123000000D01*
X98450000Y-122857142D01*
X98545238Y-122761904D01*
X98640476Y-122714285D01*
X98830952Y-122666666D01*
X98973809Y-122666666D01*
X99164285Y-122714285D01*
X99259523Y-122761904D01*
X99354761Y-122857142D01*
X99402380Y-123000000D01*
X99402380Y-123238095D01*
X98735714Y-121809523D02*
X99402380Y-121809523D01*
X98354761Y-122047619D02*
X99069047Y-122285714D01*
X99069047Y-121666666D01*
X96802380Y-124238095D02*
X95802380Y-124238095D01*
X95802380Y-123857142D01*
X95850000Y-123761904D01*
X95897619Y-123714285D01*
X95992857Y-123666666D01*
X96135714Y-123666666D01*
X96230952Y-123714285D01*
X96278571Y-123761904D01*
X96326190Y-123857142D01*
X96326190Y-124238095D01*
X96802380Y-123238095D02*
X95802380Y-123238095D01*
X95802380Y-123000000D01*
X95850000Y-122857142D01*
X95945238Y-122761904D01*
X96040476Y-122714285D01*
X96230952Y-122666666D01*
X96373809Y-122666666D01*
X96564285Y-122714285D01*
X96659523Y-122761904D01*
X96754761Y-122857142D01*
X96802380Y-123000000D01*
X96802380Y-123238095D01*
X95802380Y-122333333D02*
X95802380Y-121714285D01*
X96183333Y-122047619D01*
X96183333Y-121904761D01*
X96230952Y-121809523D01*
X96278571Y-121761904D01*
X96373809Y-121714285D01*
X96611904Y-121714285D01*
X96707142Y-121761904D01*
X96754761Y-121809523D01*
X96802380Y-121904761D01*
X96802380Y-122190476D01*
X96754761Y-122285714D01*
X96707142Y-122333333D01*
X94302380Y-124238095D02*
X93302380Y-124238095D01*
X93302380Y-123857142D01*
X93350000Y-123761904D01*
X93397619Y-123714285D01*
X93492857Y-123666666D01*
X93635714Y-123666666D01*
X93730952Y-123714285D01*
X93778571Y-123761904D01*
X93826190Y-123857142D01*
X93826190Y-124238095D01*
X94302380Y-123238095D02*
X93302380Y-123238095D01*
X93302380Y-123000000D01*
X93350000Y-122857142D01*
X93445238Y-122761904D01*
X93540476Y-122714285D01*
X93730952Y-122666666D01*
X93873809Y-122666666D01*
X94064285Y-122714285D01*
X94159523Y-122761904D01*
X94254761Y-122857142D01*
X94302380Y-123000000D01*
X94302380Y-123238095D01*
X93397619Y-122285714D02*
X93350000Y-122238095D01*
X93302380Y-122142857D01*
X93302380Y-121904761D01*
X93350000Y-121809523D01*
X93397619Y-121761904D01*
X93492857Y-121714285D01*
X93588095Y-121714285D01*
X93730952Y-121761904D01*
X94302380Y-122333333D01*
X94302380Y-121714285D01*
X91802380Y-124238095D02*
X90802380Y-124238095D01*
X90802380Y-123857142D01*
X90850000Y-123761904D01*
X90897619Y-123714285D01*
X90992857Y-123666666D01*
X91135714Y-123666666D01*
X91230952Y-123714285D01*
X91278571Y-123761904D01*
X91326190Y-123857142D01*
X91326190Y-124238095D01*
X91802380Y-123238095D02*
X90802380Y-123238095D01*
X90802380Y-123000000D01*
X90850000Y-122857142D01*
X90945238Y-122761904D01*
X91040476Y-122714285D01*
X91230952Y-122666666D01*
X91373809Y-122666666D01*
X91564285Y-122714285D01*
X91659523Y-122761904D01*
X91754761Y-122857142D01*
X91802380Y-123000000D01*
X91802380Y-123238095D01*
X91802380Y-121714285D02*
X91802380Y-122285714D01*
X91802380Y-122000000D02*
X90802380Y-122000000D01*
X90945238Y-122095238D01*
X91040476Y-122190476D01*
X91088095Y-122285714D01*
X89202380Y-124238095D02*
X88202380Y-124238095D01*
X88202380Y-123857142D01*
X88250000Y-123761904D01*
X88297619Y-123714285D01*
X88392857Y-123666666D01*
X88535714Y-123666666D01*
X88630952Y-123714285D01*
X88678571Y-123761904D01*
X88726190Y-123857142D01*
X88726190Y-124238095D01*
X89202380Y-123238095D02*
X88202380Y-123238095D01*
X88202380Y-123000000D01*
X88250000Y-122857142D01*
X88345238Y-122761904D01*
X88440476Y-122714285D01*
X88630952Y-122666666D01*
X88773809Y-122666666D01*
X88964285Y-122714285D01*
X89059523Y-122761904D01*
X89154761Y-122857142D01*
X89202380Y-123000000D01*
X89202380Y-123238095D01*
X88202380Y-122047619D02*
X88202380Y-121952380D01*
X88250000Y-121857142D01*
X88297619Y-121809523D01*
X88392857Y-121761904D01*
X88583333Y-121714285D01*
X88821428Y-121714285D01*
X89011904Y-121761904D01*
X89107142Y-121809523D01*
X89154761Y-121857142D01*
X89202380Y-121952380D01*
X89202380Y-122047619D01*
X89154761Y-122142857D01*
X89107142Y-122190476D01*
X89011904Y-122238095D01*
X88821428Y-122285714D01*
X88583333Y-122285714D01*
X88392857Y-122238095D01*
X88297619Y-122190476D01*
X88250000Y-122142857D01*
X88202380Y-122047619D01*
D12*
%TO.C,G\u002A\u002A\u002A*%
G36*
X115646684Y-130425982D02*
G01*
X115725893Y-130437867D01*
X115874542Y-130477871D01*
X115981668Y-130511729D01*
X116060757Y-130545933D01*
X116125296Y-130586979D01*
X116188772Y-130641359D01*
X116228874Y-130680050D01*
X116303611Y-130765842D01*
X116378003Y-130871747D01*
X116445202Y-130985082D01*
X116498361Y-131093164D01*
X116530630Y-131183307D01*
X116535162Y-131242830D01*
X116534234Y-131245600D01*
X116499738Y-131273880D01*
X116432436Y-131297528D01*
X116417907Y-131300581D01*
X116350942Y-131318214D01*
X116327494Y-131344070D01*
X116331772Y-131379750D01*
X116346832Y-131447074D01*
X116362745Y-131535896D01*
X116365343Y-131552556D01*
X116389192Y-131652381D01*
X116427182Y-131759948D01*
X116438173Y-131784918D01*
X116460995Y-131833151D01*
X116483268Y-131868365D01*
X116514494Y-131895212D01*
X116564173Y-131918349D01*
X116641808Y-131942428D01*
X116756899Y-131972104D01*
X116884445Y-132003525D01*
X117035048Y-132043024D01*
X117145700Y-132079302D01*
X117232051Y-132118877D01*
X117309749Y-132168264D01*
X117346947Y-132196114D01*
X117415923Y-132243225D01*
X117469970Y-132258431D01*
X117517797Y-132236981D01*
X117568109Y-132174123D01*
X117629613Y-132065106D01*
X117646425Y-132032676D01*
X117701006Y-131917188D01*
X117732999Y-131818100D01*
X117749502Y-131708193D01*
X117755441Y-131614654D01*
X117751449Y-131400703D01*
X117715787Y-131227773D01*
X117645225Y-131088125D01*
X117536528Y-130974022D01*
X117467023Y-130924230D01*
X117401106Y-130878573D01*
X117380142Y-130852483D01*
X117399133Y-130839248D01*
X117403038Y-130838373D01*
X117493310Y-130841027D01*
X117607714Y-130873975D01*
X117728484Y-130929692D01*
X117837854Y-131000651D01*
X117886418Y-131043155D01*
X117960762Y-131128413D01*
X118010203Y-131218266D01*
X118048151Y-131337623D01*
X118051032Y-131348951D01*
X118073520Y-131447339D01*
X118083609Y-131527433D01*
X118081561Y-131610283D01*
X118067639Y-131716941D01*
X118056452Y-131784914D01*
X118026714Y-131952885D01*
X118000353Y-132079438D01*
X117973232Y-132179097D01*
X117941216Y-132266387D01*
X117900169Y-132355831D01*
X117885549Y-132385112D01*
X117829213Y-132486456D01*
X117768350Y-132580137D01*
X117711481Y-132654635D01*
X117667127Y-132698434D01*
X117648928Y-132704954D01*
X117642427Y-132729409D01*
X117637120Y-132799455D01*
X117633561Y-132904240D01*
X117632305Y-133029509D01*
X117630848Y-133179469D01*
X117625318Y-133285865D01*
X117614024Y-133361528D01*
X117595275Y-133419288D01*
X117575889Y-133457556D01*
X117550428Y-133510877D01*
X117533795Y-133572907D01*
X117524261Y-133656623D01*
X117520095Y-133775005D01*
X117519445Y-133880889D01*
X117517870Y-134031433D01*
X117511005Y-134145952D01*
X117495642Y-134244826D01*
X117468574Y-134348435D01*
X117426591Y-134477160D01*
X117424717Y-134482648D01*
X117329989Y-134759852D01*
X117389595Y-134823300D01*
X117425886Y-134879847D01*
X117453494Y-134968221D01*
X117475854Y-135099938D01*
X117478687Y-135121900D01*
X117500902Y-135268390D01*
X117530274Y-135384019D01*
X117575010Y-135494357D01*
X117635737Y-135611266D01*
X117664299Y-135694978D01*
X117655680Y-135791739D01*
X117654990Y-135794710D01*
X117631829Y-135865033D01*
X117594852Y-135897093D01*
X117538670Y-135907700D01*
X117440212Y-135890683D01*
X117355488Y-135821326D01*
X117287021Y-135702608D01*
X117241599Y-135556951D01*
X117210222Y-135431227D01*
X117184615Y-135360967D01*
X117162456Y-135345775D01*
X117141427Y-135385254D01*
X117119207Y-135479005D01*
X117109002Y-135534242D01*
X117076915Y-135711781D01*
X117051298Y-135841764D01*
X117030175Y-135932441D01*
X117011571Y-135992064D01*
X116993511Y-136028886D01*
X116989101Y-136035164D01*
X116938441Y-136067500D01*
X116855955Y-136091018D01*
X116766102Y-136101189D01*
X116693336Y-136093484D01*
X116686889Y-136091133D01*
X116622979Y-136040014D01*
X116602388Y-135965329D01*
X116625158Y-135879753D01*
X116685916Y-135800909D01*
X116735042Y-135743993D01*
X116773567Y-135670221D01*
X116804568Y-135569657D01*
X116831123Y-135432365D01*
X116855846Y-135252211D01*
X116883002Y-135028976D01*
X116700125Y-134820123D01*
X116595053Y-134696757D01*
X116521145Y-134599378D01*
X116469828Y-134513888D01*
X116432528Y-134426190D01*
X116403498Y-134332445D01*
X116368191Y-134205445D01*
X116316518Y-134403000D01*
X116289687Y-134523665D01*
X116270771Y-134643163D01*
X116264196Y-134727556D01*
X116258338Y-134819101D01*
X116243534Y-134940614D01*
X116222891Y-135066920D01*
X116221218Y-135075761D01*
X116199974Y-135208984D01*
X116184781Y-135346631D01*
X116178890Y-135459161D01*
X116178889Y-135460268D01*
X116171050Y-135576872D01*
X116151065Y-135692492D01*
X116136556Y-135743556D01*
X116110129Y-135832548D01*
X116095352Y-135909664D01*
X116094223Y-135927529D01*
X116076702Y-135984991D01*
X116049581Y-136008648D01*
X115961295Y-136024571D01*
X115859688Y-136019488D01*
X115781923Y-135996563D01*
X115741107Y-135946369D01*
X115725777Y-135867709D01*
X115736034Y-135782533D01*
X115771982Y-135712791D01*
X115780555Y-135704140D01*
X115819507Y-135639430D01*
X115850882Y-135528397D01*
X115873398Y-135380808D01*
X115885767Y-135206434D01*
X115886706Y-135015044D01*
X115883010Y-134925112D01*
X115875985Y-134789204D01*
X115868418Y-134625902D01*
X115860838Y-134448638D01*
X115853774Y-134270841D01*
X115848534Y-134127302D01*
X116948672Y-134127302D01*
X116952944Y-134200730D01*
X116965286Y-134285997D01*
X116978769Y-134347686D01*
X116984669Y-134363008D01*
X117009990Y-134389176D01*
X117019965Y-134363531D01*
X117013843Y-134288782D01*
X117010748Y-134268945D01*
X116991444Y-134176596D01*
X116971914Y-134118961D01*
X116956281Y-134100907D01*
X116948672Y-134127302D01*
X115848534Y-134127302D01*
X115847754Y-134105941D01*
X115843308Y-133967368D01*
X115840963Y-133868553D01*
X115840773Y-133852400D01*
X115819863Y-133784391D01*
X115785593Y-133747461D01*
X115754168Y-133732863D01*
X115733439Y-133744635D01*
X115716507Y-133792923D01*
X115699062Y-133874728D01*
X115670754Y-133997543D01*
X115631553Y-134141148D01*
X115586705Y-134288699D01*
X115541455Y-134423352D01*
X115501048Y-134528263D01*
X115484321Y-134564263D01*
X115453741Y-134664485D01*
X115441013Y-134802458D01*
X115446722Y-134962193D01*
X115464874Y-135094445D01*
X115492101Y-135207592D01*
X115530207Y-135323497D01*
X115572983Y-135426731D01*
X115614220Y-135501863D01*
X115640331Y-135530446D01*
X115665900Y-135575934D01*
X115668379Y-135653210D01*
X115649467Y-135743349D01*
X115614197Y-135822084D01*
X115572651Y-135875633D01*
X115530367Y-135892475D01*
X115481324Y-135869385D01*
X115419500Y-135803139D01*
X115338874Y-135690514D01*
X115322444Y-135665890D01*
X115262578Y-135570841D01*
X115221054Y-135488478D01*
X115191237Y-135400351D01*
X115166490Y-135288008D01*
X115147893Y-135180599D01*
X115121723Y-134999575D01*
X115104873Y-134824944D01*
X115097365Y-134645795D01*
X115099220Y-134451214D01*
X115110459Y-134230288D01*
X115131106Y-133972105D01*
X115150699Y-133768000D01*
X115154793Y-133595366D01*
X115126860Y-133437938D01*
X115124421Y-133429334D01*
X115099032Y-133301637D01*
X115082099Y-133133626D01*
X115073396Y-132938942D01*
X115072698Y-132731230D01*
X115079778Y-132524131D01*
X115094412Y-132331288D01*
X115116374Y-132166344D01*
X115145438Y-132042943D01*
X115147456Y-132037003D01*
X115175470Y-131937746D01*
X115177408Y-131863128D01*
X115164818Y-131814070D01*
X115145183Y-131728212D01*
X115135045Y-131626183D01*
X115134667Y-131605877D01*
X115131632Y-131529525D01*
X115112421Y-131489346D01*
X115061875Y-131466063D01*
X115014723Y-131453346D01*
X114891412Y-131420152D01*
X114811463Y-131393491D01*
X114763084Y-131367908D01*
X114734480Y-131337945D01*
X114723373Y-131318558D01*
X114696519Y-131277459D01*
X114668414Y-131284352D01*
X114648470Y-131302959D01*
X114601239Y-131330762D01*
X114572931Y-131328452D01*
X114541603Y-131286265D01*
X114554498Y-131235462D01*
X114602109Y-131184715D01*
X114674929Y-131142700D01*
X114763450Y-131118092D01*
X114806862Y-131115006D01*
X114923000Y-131114901D01*
X114834965Y-131061219D01*
X114745129Y-130975779D01*
X114696317Y-130861439D01*
X114691932Y-130731377D01*
X114722423Y-130625488D01*
X114754583Y-130549109D01*
X114777641Y-130488198D01*
X114777982Y-130487167D01*
X114817658Y-130447139D01*
X114892939Y-130441145D01*
X114994581Y-130468950D01*
X115049784Y-130494112D01*
X115119596Y-130527234D01*
X115157163Y-130533887D01*
X115179480Y-130515193D01*
X115186671Y-130503160D01*
X115229245Y-130474458D01*
X115312364Y-130450471D01*
X115420197Y-130433119D01*
X115536914Y-130424316D01*
X115646684Y-130425982D01*
G37*
X115646684Y-130425982D02*
X115725893Y-130437867D01*
X115874542Y-130477871D01*
X115981668Y-130511729D01*
X116060757Y-130545933D01*
X116125296Y-130586979D01*
X116188772Y-130641359D01*
X116228874Y-130680050D01*
X116303611Y-130765842D01*
X116378003Y-130871747D01*
X116445202Y-130985082D01*
X116498361Y-131093164D01*
X116530630Y-131183307D01*
X116535162Y-131242830D01*
X116534234Y-131245600D01*
X116499738Y-131273880D01*
X116432436Y-131297528D01*
X116417907Y-131300581D01*
X116350942Y-131318214D01*
X116327494Y-131344070D01*
X116331772Y-131379750D01*
X116346832Y-131447074D01*
X116362745Y-131535896D01*
X116365343Y-131552556D01*
X116389192Y-131652381D01*
X116427182Y-131759948D01*
X116438173Y-131784918D01*
X116460995Y-131833151D01*
X116483268Y-131868365D01*
X116514494Y-131895212D01*
X116564173Y-131918349D01*
X116641808Y-131942428D01*
X116756899Y-131972104D01*
X116884445Y-132003525D01*
X117035048Y-132043024D01*
X117145700Y-132079302D01*
X117232051Y-132118877D01*
X117309749Y-132168264D01*
X117346947Y-132196114D01*
X117415923Y-132243225D01*
X117469970Y-132258431D01*
X117517797Y-132236981D01*
X117568109Y-132174123D01*
X117629613Y-132065106D01*
X117646425Y-132032676D01*
X117701006Y-131917188D01*
X117732999Y-131818100D01*
X117749502Y-131708193D01*
X117755441Y-131614654D01*
X117751449Y-131400703D01*
X117715787Y-131227773D01*
X117645225Y-131088125D01*
X117536528Y-130974022D01*
X117467023Y-130924230D01*
X117401106Y-130878573D01*
X117380142Y-130852483D01*
X117399133Y-130839248D01*
X117403038Y-130838373D01*
X117493310Y-130841027D01*
X117607714Y-130873975D01*
X117728484Y-130929692D01*
X117837854Y-131000651D01*
X117886418Y-131043155D01*
X117960762Y-131128413D01*
X118010203Y-131218266D01*
X118048151Y-131337623D01*
X118051032Y-131348951D01*
X118073520Y-131447339D01*
X118083609Y-131527433D01*
X118081561Y-131610283D01*
X118067639Y-131716941D01*
X118056452Y-131784914D01*
X118026714Y-131952885D01*
X118000353Y-132079438D01*
X117973232Y-132179097D01*
X117941216Y-132266387D01*
X117900169Y-132355831D01*
X117885549Y-132385112D01*
X117829213Y-132486456D01*
X117768350Y-132580137D01*
X117711481Y-132654635D01*
X117667127Y-132698434D01*
X117648928Y-132704954D01*
X117642427Y-132729409D01*
X117637120Y-132799455D01*
X117633561Y-132904240D01*
X117632305Y-133029509D01*
X117630848Y-133179469D01*
X117625318Y-133285865D01*
X117614024Y-133361528D01*
X117595275Y-133419288D01*
X117575889Y-133457556D01*
X117550428Y-133510877D01*
X117533795Y-133572907D01*
X117524261Y-133656623D01*
X117520095Y-133775005D01*
X117519445Y-133880889D01*
X117517870Y-134031433D01*
X117511005Y-134145952D01*
X117495642Y-134244826D01*
X117468574Y-134348435D01*
X117426591Y-134477160D01*
X117424717Y-134482648D01*
X117329989Y-134759852D01*
X117389595Y-134823300D01*
X117425886Y-134879847D01*
X117453494Y-134968221D01*
X117475854Y-135099938D01*
X117478687Y-135121900D01*
X117500902Y-135268390D01*
X117530274Y-135384019D01*
X117575010Y-135494357D01*
X117635737Y-135611266D01*
X117664299Y-135694978D01*
X117655680Y-135791739D01*
X117654990Y-135794710D01*
X117631829Y-135865033D01*
X117594852Y-135897093D01*
X117538670Y-135907700D01*
X117440212Y-135890683D01*
X117355488Y-135821326D01*
X117287021Y-135702608D01*
X117241599Y-135556951D01*
X117210222Y-135431227D01*
X117184615Y-135360967D01*
X117162456Y-135345775D01*
X117141427Y-135385254D01*
X117119207Y-135479005D01*
X117109002Y-135534242D01*
X117076915Y-135711781D01*
X117051298Y-135841764D01*
X117030175Y-135932441D01*
X117011571Y-135992064D01*
X116993511Y-136028886D01*
X116989101Y-136035164D01*
X116938441Y-136067500D01*
X116855955Y-136091018D01*
X116766102Y-136101189D01*
X116693336Y-136093484D01*
X116686889Y-136091133D01*
X116622979Y-136040014D01*
X116602388Y-135965329D01*
X116625158Y-135879753D01*
X116685916Y-135800909D01*
X116735042Y-135743993D01*
X116773567Y-135670221D01*
X116804568Y-135569657D01*
X116831123Y-135432365D01*
X116855846Y-135252211D01*
X116883002Y-135028976D01*
X116700125Y-134820123D01*
X116595053Y-134696757D01*
X116521145Y-134599378D01*
X116469828Y-134513888D01*
X116432528Y-134426190D01*
X116403498Y-134332445D01*
X116368191Y-134205445D01*
X116316518Y-134403000D01*
X116289687Y-134523665D01*
X116270771Y-134643163D01*
X116264196Y-134727556D01*
X116258338Y-134819101D01*
X116243534Y-134940614D01*
X116222891Y-135066920D01*
X116221218Y-135075761D01*
X116199974Y-135208984D01*
X116184781Y-135346631D01*
X116178890Y-135459161D01*
X116178889Y-135460268D01*
X116171050Y-135576872D01*
X116151065Y-135692492D01*
X116136556Y-135743556D01*
X116110129Y-135832548D01*
X116095352Y-135909664D01*
X116094223Y-135927529D01*
X116076702Y-135984991D01*
X116049581Y-136008648D01*
X115961295Y-136024571D01*
X115859688Y-136019488D01*
X115781923Y-135996563D01*
X115741107Y-135946369D01*
X115725777Y-135867709D01*
X115736034Y-135782533D01*
X115771982Y-135712791D01*
X115780555Y-135704140D01*
X115819507Y-135639430D01*
X115850882Y-135528397D01*
X115873398Y-135380808D01*
X115885767Y-135206434D01*
X115886706Y-135015044D01*
X115883010Y-134925112D01*
X115875985Y-134789204D01*
X115868418Y-134625902D01*
X115860838Y-134448638D01*
X115853774Y-134270841D01*
X115848534Y-134127302D01*
X116948672Y-134127302D01*
X116952944Y-134200730D01*
X116965286Y-134285997D01*
X116978769Y-134347686D01*
X116984669Y-134363008D01*
X117009990Y-134389176D01*
X117019965Y-134363531D01*
X117013843Y-134288782D01*
X117010748Y-134268945D01*
X116991444Y-134176596D01*
X116971914Y-134118961D01*
X116956281Y-134100907D01*
X116948672Y-134127302D01*
X115848534Y-134127302D01*
X115847754Y-134105941D01*
X115843308Y-133967368D01*
X115840963Y-133868553D01*
X115840773Y-133852400D01*
X115819863Y-133784391D01*
X115785593Y-133747461D01*
X115754168Y-133732863D01*
X115733439Y-133744635D01*
X115716507Y-133792923D01*
X115699062Y-133874728D01*
X115670754Y-133997543D01*
X115631553Y-134141148D01*
X115586705Y-134288699D01*
X115541455Y-134423352D01*
X115501048Y-134528263D01*
X115484321Y-134564263D01*
X115453741Y-134664485D01*
X115441013Y-134802458D01*
X115446722Y-134962193D01*
X115464874Y-135094445D01*
X115492101Y-135207592D01*
X115530207Y-135323497D01*
X115572983Y-135426731D01*
X115614220Y-135501863D01*
X115640331Y-135530446D01*
X115665900Y-135575934D01*
X115668379Y-135653210D01*
X115649467Y-135743349D01*
X115614197Y-135822084D01*
X115572651Y-135875633D01*
X115530367Y-135892475D01*
X115481324Y-135869385D01*
X115419500Y-135803139D01*
X115338874Y-135690514D01*
X115322444Y-135665890D01*
X115262578Y-135570841D01*
X115221054Y-135488478D01*
X115191237Y-135400351D01*
X115166490Y-135288008D01*
X115147893Y-135180599D01*
X115121723Y-134999575D01*
X115104873Y-134824944D01*
X115097365Y-134645795D01*
X115099220Y-134451214D01*
X115110459Y-134230288D01*
X115131106Y-133972105D01*
X115150699Y-133768000D01*
X115154793Y-133595366D01*
X115126860Y-133437938D01*
X115124421Y-133429334D01*
X115099032Y-133301637D01*
X115082099Y-133133626D01*
X115073396Y-132938942D01*
X115072698Y-132731230D01*
X115079778Y-132524131D01*
X115094412Y-132331288D01*
X115116374Y-132166344D01*
X115145438Y-132042943D01*
X115147456Y-132037003D01*
X115175470Y-131937746D01*
X115177408Y-131863128D01*
X115164818Y-131814070D01*
X115145183Y-131728212D01*
X115135045Y-131626183D01*
X115134667Y-131605877D01*
X115131632Y-131529525D01*
X115112421Y-131489346D01*
X115061875Y-131466063D01*
X115014723Y-131453346D01*
X114891412Y-131420152D01*
X114811463Y-131393491D01*
X114763084Y-131367908D01*
X114734480Y-131337945D01*
X114723373Y-131318558D01*
X114696519Y-131277459D01*
X114668414Y-131284352D01*
X114648470Y-131302959D01*
X114601239Y-131330762D01*
X114572931Y-131328452D01*
X114541603Y-131286265D01*
X114554498Y-131235462D01*
X114602109Y-131184715D01*
X114674929Y-131142700D01*
X114763450Y-131118092D01*
X114806862Y-131115006D01*
X114923000Y-131114901D01*
X114834965Y-131061219D01*
X114745129Y-130975779D01*
X114696317Y-130861439D01*
X114691932Y-130731377D01*
X114722423Y-130625488D01*
X114754583Y-130549109D01*
X114777641Y-130488198D01*
X114777982Y-130487167D01*
X114817658Y-130447139D01*
X114892939Y-130441145D01*
X114994581Y-130468950D01*
X115049784Y-130494112D01*
X115119596Y-130527234D01*
X115157163Y-130533887D01*
X115179480Y-130515193D01*
X115186671Y-130503160D01*
X115229245Y-130474458D01*
X115312364Y-130450471D01*
X115420197Y-130433119D01*
X115536914Y-130424316D01*
X115646684Y-130425982D01*
D11*
%TO.C,C1*%
X130875000Y-91270354D02*
X129875000Y-91270354D01*
X130375000Y-90770354D02*
X130375000Y-91770354D01*
X128099000Y-101331000D02*
X126901000Y-101331000D01*
X128362000Y-101291000D02*
X126638000Y-101291000D01*
X128562000Y-101251000D02*
X126438000Y-101251000D01*
X128730000Y-101211000D02*
X126270000Y-101211000D01*
X128878000Y-101171000D02*
X126122000Y-101171000D01*
X129010000Y-101131000D02*
X125990000Y-101131000D01*
X129130000Y-101091000D02*
X125870000Y-101091000D01*
X129242000Y-101051000D02*
X125758000Y-101051000D01*
X129346000Y-101011000D02*
X125654000Y-101011000D01*
X129444000Y-100971000D02*
X125556000Y-100971000D01*
X129537000Y-100931000D02*
X125463000Y-100931000D01*
X129625000Y-100891000D02*
X125375000Y-100891000D01*
X129709000Y-100851000D02*
X125291000Y-100851000D01*
X129789000Y-100811000D02*
X125211000Y-100811000D01*
X129865000Y-100771000D02*
X125135000Y-100771000D01*
X129939000Y-100731000D02*
X125061000Y-100731000D01*
X130010000Y-100691000D02*
X124990000Y-100691000D01*
X130079000Y-100651000D02*
X124921000Y-100651000D01*
X130145000Y-100611000D02*
X124855000Y-100611000D01*
X130209000Y-100571000D02*
X124791000Y-100571000D01*
X130270000Y-100531000D02*
X124730000Y-100531000D01*
X130330000Y-100491000D02*
X124670000Y-100491000D01*
X130389000Y-100451000D02*
X124611000Y-100451000D01*
X130445000Y-100411000D02*
X124555000Y-100411000D01*
X130500000Y-100371000D02*
X124500000Y-100371000D01*
X130554000Y-100331000D02*
X124446000Y-100331000D01*
X130606000Y-100291000D02*
X124394000Y-100291000D01*
X130656000Y-100251000D02*
X124344000Y-100251000D01*
X130706000Y-100211000D02*
X124294000Y-100211000D01*
X130754000Y-100171000D02*
X124246000Y-100171000D01*
X130801000Y-100131000D02*
X124199000Y-100131000D01*
X130847000Y-100091000D02*
X124153000Y-100091000D01*
X130892000Y-100051000D02*
X124108000Y-100051000D01*
X130936000Y-100011000D02*
X124064000Y-100011000D01*
X130978000Y-99971000D02*
X124022000Y-99971000D01*
X131020000Y-99931000D02*
X123980000Y-99931000D01*
X131061000Y-99891000D02*
X123939000Y-99891000D01*
X131101000Y-99851000D02*
X123899000Y-99851000D01*
X131140000Y-99811000D02*
X123860000Y-99811000D01*
X131179000Y-99771000D02*
X123821000Y-99771000D01*
X131216000Y-99731000D02*
X123784000Y-99731000D01*
X131253000Y-99691000D02*
X123747000Y-99691000D01*
X131289000Y-99651000D02*
X123711000Y-99651000D01*
X131324000Y-99611000D02*
X123676000Y-99611000D01*
X131358000Y-99571000D02*
X123642000Y-99571000D01*
X131392000Y-99531000D02*
X123608000Y-99531000D01*
X131425000Y-99491000D02*
X123575000Y-99491000D01*
X131457000Y-99451000D02*
X123543000Y-99451000D01*
X131489000Y-99411000D02*
X123511000Y-99411000D01*
X131520000Y-99371000D02*
X123480000Y-99371000D01*
X131550000Y-99331000D02*
X123450000Y-99331000D01*
X131580000Y-99291000D02*
X123420000Y-99291000D01*
X131610000Y-99251000D02*
X123390000Y-99251000D01*
X126259000Y-99211000D02*
X123362000Y-99211000D01*
X131638000Y-99211000D02*
X128741000Y-99211000D01*
X126259000Y-99171000D02*
X123334000Y-99171000D01*
X131666000Y-99171000D02*
X128741000Y-99171000D01*
X126259000Y-99131000D02*
X123306000Y-99131000D01*
X131694000Y-99131000D02*
X128741000Y-99131000D01*
X126259000Y-99091000D02*
X123279000Y-99091000D01*
X131721000Y-99091000D02*
X128741000Y-99091000D01*
X126259000Y-99051000D02*
X123253000Y-99051000D01*
X131747000Y-99051000D02*
X128741000Y-99051000D01*
X126259000Y-99011000D02*
X123227000Y-99011000D01*
X131773000Y-99011000D02*
X128741000Y-99011000D01*
X126259000Y-98971000D02*
X123202000Y-98971000D01*
X131798000Y-98971000D02*
X128741000Y-98971000D01*
X126259000Y-98931000D02*
X123177000Y-98931000D01*
X131823000Y-98931000D02*
X128741000Y-98931000D01*
X126259000Y-98891000D02*
X123153000Y-98891000D01*
X131847000Y-98891000D02*
X128741000Y-98891000D01*
X126259000Y-98851000D02*
X123129000Y-98851000D01*
X131871000Y-98851000D02*
X128741000Y-98851000D01*
X126259000Y-98811000D02*
X123105000Y-98811000D01*
X131895000Y-98811000D02*
X128741000Y-98811000D01*
X126259000Y-98771000D02*
X123083000Y-98771000D01*
X131917000Y-98771000D02*
X128741000Y-98771000D01*
X126259000Y-98731000D02*
X123060000Y-98731000D01*
X131940000Y-98731000D02*
X128741000Y-98731000D01*
X126259000Y-98691000D02*
X123038000Y-98691000D01*
X131962000Y-98691000D02*
X128741000Y-98691000D01*
X126259000Y-98651000D02*
X123017000Y-98651000D01*
X131983000Y-98651000D02*
X128741000Y-98651000D01*
X126259000Y-98611000D02*
X122996000Y-98611000D01*
X132004000Y-98611000D02*
X128741000Y-98611000D01*
X126259000Y-98571000D02*
X122975000Y-98571000D01*
X132025000Y-98571000D02*
X128741000Y-98571000D01*
X126259000Y-98531000D02*
X122955000Y-98531000D01*
X132045000Y-98531000D02*
X128741000Y-98531000D01*
X126259000Y-98491000D02*
X122936000Y-98491000D01*
X132064000Y-98491000D02*
X128741000Y-98491000D01*
X126259000Y-98451000D02*
X122916000Y-98451000D01*
X132084000Y-98451000D02*
X128741000Y-98451000D01*
X126259000Y-98411000D02*
X122897000Y-98411000D01*
X132103000Y-98411000D02*
X128741000Y-98411000D01*
X126259000Y-98371000D02*
X122879000Y-98371000D01*
X132121000Y-98371000D02*
X128741000Y-98371000D01*
X126259000Y-98331000D02*
X122861000Y-98331000D01*
X132139000Y-98331000D02*
X128741000Y-98331000D01*
X126259000Y-98291000D02*
X122843000Y-98291000D01*
X132157000Y-98291000D02*
X128741000Y-98291000D01*
X126259000Y-98251000D02*
X122826000Y-98251000D01*
X132174000Y-98251000D02*
X128741000Y-98251000D01*
X126259000Y-98211000D02*
X122810000Y-98211000D01*
X132190000Y-98211000D02*
X128741000Y-98211000D01*
X126259000Y-98171000D02*
X122793000Y-98171000D01*
X132207000Y-98171000D02*
X128741000Y-98171000D01*
X126259000Y-98131000D02*
X122777000Y-98131000D01*
X132223000Y-98131000D02*
X128741000Y-98131000D01*
X126259000Y-98091000D02*
X122762000Y-98091000D01*
X132238000Y-98091000D02*
X128741000Y-98091000D01*
X126259000Y-98051000D02*
X122746000Y-98051000D01*
X132254000Y-98051000D02*
X128741000Y-98051000D01*
X126259000Y-98011000D02*
X122732000Y-98011000D01*
X132268000Y-98011000D02*
X128741000Y-98011000D01*
X126259000Y-97971000D02*
X122717000Y-97971000D01*
X132283000Y-97971000D02*
X128741000Y-97971000D01*
X126259000Y-97931000D02*
X122703000Y-97931000D01*
X132297000Y-97931000D02*
X128741000Y-97931000D01*
X126259000Y-97891000D02*
X122689000Y-97891000D01*
X132311000Y-97891000D02*
X128741000Y-97891000D01*
X126259000Y-97851000D02*
X122676000Y-97851000D01*
X132324000Y-97851000D02*
X128741000Y-97851000D01*
X126259000Y-97811000D02*
X122663000Y-97811000D01*
X132337000Y-97811000D02*
X128741000Y-97811000D01*
X126259000Y-97771000D02*
X122650000Y-97771000D01*
X132350000Y-97771000D02*
X128741000Y-97771000D01*
X126259000Y-97731000D02*
X122638000Y-97731000D01*
X132362000Y-97731000D02*
X128741000Y-97731000D01*
X126259000Y-97691000D02*
X122626000Y-97691000D01*
X132374000Y-97691000D02*
X128741000Y-97691000D01*
X126259000Y-97651000D02*
X122615000Y-97651000D01*
X132385000Y-97651000D02*
X128741000Y-97651000D01*
X126259000Y-97611000D02*
X122603000Y-97611000D01*
X132397000Y-97611000D02*
X128741000Y-97611000D01*
X126259000Y-97571000D02*
X122593000Y-97571000D01*
X132407000Y-97571000D02*
X128741000Y-97571000D01*
X126259000Y-97531000D02*
X122582000Y-97531000D01*
X132418000Y-97531000D02*
X128741000Y-97531000D01*
X126259000Y-97491000D02*
X122572000Y-97491000D01*
X132428000Y-97491000D02*
X128741000Y-97491000D01*
X126259000Y-97451000D02*
X122562000Y-97451000D01*
X132438000Y-97451000D02*
X128741000Y-97451000D01*
X126259000Y-97411000D02*
X122553000Y-97411000D01*
X132447000Y-97411000D02*
X128741000Y-97411000D01*
X126259000Y-97371000D02*
X122544000Y-97371000D01*
X132456000Y-97371000D02*
X128741000Y-97371000D01*
X126259000Y-97331000D02*
X122535000Y-97331000D01*
X132465000Y-97331000D02*
X128741000Y-97331000D01*
X126259000Y-97291000D02*
X122526000Y-97291000D01*
X132474000Y-97291000D02*
X128741000Y-97291000D01*
X126259000Y-97251000D02*
X122518000Y-97251000D01*
X132482000Y-97251000D02*
X128741000Y-97251000D01*
X126259000Y-97211000D02*
X122510000Y-97211000D01*
X132490000Y-97211000D02*
X128741000Y-97211000D01*
X126259000Y-97171000D02*
X122503000Y-97171000D01*
X132497000Y-97171000D02*
X128741000Y-97171000D01*
X126259000Y-97131000D02*
X122496000Y-97131000D01*
X132504000Y-97131000D02*
X128741000Y-97131000D01*
X126259000Y-97091000D02*
X122489000Y-97091000D01*
X132511000Y-97091000D02*
X128741000Y-97091000D01*
X126259000Y-97051000D02*
X122482000Y-97051000D01*
X132518000Y-97051000D02*
X128741000Y-97051000D01*
X126259000Y-97011000D02*
X122476000Y-97011000D01*
X132524000Y-97011000D02*
X128741000Y-97011000D01*
X126259000Y-96971000D02*
X122470000Y-96971000D01*
X132530000Y-96971000D02*
X128741000Y-96971000D01*
X126259000Y-96930000D02*
X122465000Y-96930000D01*
X132535000Y-96930000D02*
X128741000Y-96930000D01*
X126259000Y-96890000D02*
X122460000Y-96890000D01*
X132540000Y-96890000D02*
X128741000Y-96890000D01*
X126259000Y-96850000D02*
X122455000Y-96850000D01*
X132545000Y-96850000D02*
X128741000Y-96850000D01*
X126259000Y-96810000D02*
X122450000Y-96810000D01*
X132550000Y-96810000D02*
X128741000Y-96810000D01*
X126259000Y-96770000D02*
X122446000Y-96770000D01*
X132554000Y-96770000D02*
X128741000Y-96770000D01*
X132558000Y-96730000D02*
X122442000Y-96730000D01*
X132562000Y-96690000D02*
X122438000Y-96690000D01*
X132565000Y-96650000D02*
X122435000Y-96650000D01*
X132568000Y-96610000D02*
X122432000Y-96610000D01*
X132570000Y-96570000D02*
X122430000Y-96570000D01*
X132573000Y-96530000D02*
X122427000Y-96530000D01*
X132575000Y-96490000D02*
X122425000Y-96490000D01*
X132577000Y-96450000D02*
X122423000Y-96450000D01*
X132578000Y-96410000D02*
X122422000Y-96410000D01*
X132579000Y-96370000D02*
X122421000Y-96370000D01*
X132580000Y-96330000D02*
X122420000Y-96330000D01*
X132580000Y-96290000D02*
X122420000Y-96290000D01*
X132580000Y-96250000D02*
X122420000Y-96250000D01*
X132620000Y-96250000D02*
G75*
G03*
X132620000Y-96250000I-5120000J0D01*
G01*
%TO.C,C2*%
X115235000Y-87723752D02*
X115235000Y-87201248D01*
X113765000Y-87723752D02*
X113765000Y-87201248D01*
%TO.C,C3*%
X116265000Y-87723752D02*
X116265000Y-87201248D01*
X117735000Y-87723752D02*
X117735000Y-87201248D01*
%TO.C,C4*%
X124765000Y-129776248D02*
X124765000Y-130298752D01*
X126235000Y-129776248D02*
X126235000Y-130298752D01*
%TO.C,C5*%
X131235000Y-129776248D02*
X131235000Y-130298752D01*
X129765000Y-129776248D02*
X129765000Y-130298752D01*
%TO.C,C6*%
X109235000Y-107723752D02*
X109235000Y-107201248D01*
X107765000Y-107723752D02*
X107765000Y-107201248D01*
%TO.C,C7*%
X106735000Y-107723752D02*
X106735000Y-107201248D01*
X105265000Y-107723752D02*
X105265000Y-107201248D01*
%TO.C,C8*%
X133201248Y-107265000D02*
X133723752Y-107265000D01*
X133201248Y-108735000D02*
X133723752Y-108735000D01*
%TO.C,D1*%
X112600000Y-97000000D02*
X108700000Y-97000000D01*
X112600000Y-95000000D02*
X108700000Y-95000000D01*
X112600000Y-97000000D02*
X112600000Y-95000000D01*
%TO.C,D2*%
X127385000Y-107540000D02*
X124525000Y-107540000D01*
X127385000Y-109460000D02*
X127385000Y-107540000D01*
X124525000Y-109460000D02*
X127385000Y-109460000D01*
%TO.C,D3*%
X139975000Y-123540000D02*
X137115000Y-123540000D01*
X137115000Y-123540000D02*
X137115000Y-125460000D01*
X137115000Y-125460000D02*
X139975000Y-125460000D01*
%TO.C,D4*%
X144835000Y-95540000D02*
X141975000Y-95540000D01*
X144835000Y-97460000D02*
X144835000Y-95540000D01*
X141975000Y-97460000D02*
X144835000Y-97460000D01*
%TO.C,F2*%
X112210000Y-92386252D02*
X112210000Y-89613748D01*
X108790000Y-92386252D02*
X108790000Y-89613748D01*
%TO.C,J1*%
X139150000Y-87220000D02*
X140480000Y-87220000D01*
X140480000Y-87220000D02*
X140480000Y-88550000D01*
X140480000Y-89820000D02*
X140480000Y-92420000D01*
X137820000Y-92420000D02*
X140480000Y-92420000D01*
X137820000Y-89820000D02*
X137820000Y-92420000D01*
X137820000Y-89820000D02*
X140480000Y-89820000D01*
%TO.C,J2*%
X132050000Y-102000000D02*
X132050000Y-100670000D01*
X132050000Y-100670000D02*
X133380000Y-100670000D01*
X132050000Y-103270000D02*
X134650000Y-103270000D01*
X134650000Y-103270000D02*
X134650000Y-100670000D01*
X134650000Y-100670000D02*
X149950000Y-100670000D01*
X149950000Y-105870000D02*
X149950000Y-100670000D01*
X132050000Y-105870000D02*
X149950000Y-105870000D01*
X132050000Y-105870000D02*
X132050000Y-103270000D01*
%TO.C,J3*%
X87310000Y-126500000D02*
X87310000Y-125170000D01*
X87310000Y-125170000D02*
X88640000Y-125170000D01*
X89910000Y-125170000D02*
X117910000Y-125170000D01*
X117910000Y-127830000D02*
X117910000Y-125170000D01*
X89910000Y-127830000D02*
X117910000Y-127830000D01*
X89910000Y-127830000D02*
X89910000Y-125170000D01*
%TO.C,J4*%
X122530000Y-103500000D02*
X122530000Y-104830000D01*
X122530000Y-104830000D02*
X121200000Y-104830000D01*
X119930000Y-104830000D02*
X86850000Y-104830000D01*
X86850000Y-102170000D02*
X86850000Y-104830000D01*
X119930000Y-102170000D02*
X86850000Y-102170000D01*
X119930000Y-102170000D02*
X119930000Y-104830000D01*
%TO.C,J5*%
X107260000Y-85740000D02*
X105360000Y-85740000D01*
X107260000Y-87080000D02*
X107260000Y-85740000D01*
X104560000Y-81890000D02*
X104560000Y-85500000D01*
X95440000Y-96810000D02*
X104560000Y-96810000D01*
X104560000Y-88500000D02*
X104560000Y-91500000D01*
X104560000Y-94500000D02*
X104560000Y-96810000D01*
X95440000Y-94500000D02*
X95440000Y-96810000D01*
X95440000Y-88500000D02*
X95440000Y-91500000D01*
X95440000Y-81890000D02*
X95440000Y-85500000D01*
X95440000Y-81890000D02*
X104560000Y-81890000D01*
X95440000Y-85200000D02*
X104560000Y-85200000D01*
X103000000Y-85200000D02*
X103000000Y-90000000D01*
X97000000Y-85200000D02*
X97000000Y-90000000D01*
X103000000Y-90000000D02*
G75*
G02*
X97000000Y-90000000I-3000000J0D01*
G01*
%TO.C,J6*%
X124170000Y-118910000D02*
X129370000Y-118910000D01*
X124170000Y-113770000D02*
X124170000Y-118910000D01*
X129370000Y-111170000D02*
X129370000Y-118910000D01*
X124170000Y-113770000D02*
X126770000Y-113770000D01*
X126770000Y-113770000D02*
X126770000Y-111170000D01*
X126770000Y-111170000D02*
X129370000Y-111170000D01*
X124170000Y-112500000D02*
X124170000Y-111170000D01*
X124170000Y-111170000D02*
X125500000Y-111170000D01*
%TO.C,J7*%
X143170000Y-111170000D02*
X144500000Y-111170000D01*
X143170000Y-112500000D02*
X143170000Y-111170000D01*
X145770000Y-111170000D02*
X148370000Y-111170000D01*
X145770000Y-113770000D02*
X145770000Y-111170000D01*
X143170000Y-113770000D02*
X145770000Y-113770000D01*
X148370000Y-111170000D02*
X148370000Y-118910000D01*
X143170000Y-113770000D02*
X143170000Y-118910000D01*
X143170000Y-118910000D02*
X148370000Y-118910000D01*
%TO.C,R1*%
X94677064Y-132410000D02*
X93222936Y-132410000D01*
X94677064Y-130590000D02*
X93222936Y-130590000D01*
%TO.C,R2*%
X126410000Y-104777064D02*
X126410000Y-103322936D01*
X124590000Y-104777064D02*
X124590000Y-103322936D01*
%TO.C,R3*%
X143222936Y-123590000D02*
X144677064Y-123590000D01*
X143222936Y-125410000D02*
X144677064Y-125410000D01*
%TO.C,R4*%
X138777064Y-95590000D02*
X137322936Y-95590000D01*
X138777064Y-97410000D02*
X137322936Y-97410000D01*
%TO.C,SW1*%
X122050000Y-86350000D02*
X122050000Y-87140000D01*
X128950000Y-87140000D02*
X128950000Y-86350000D01*
X127100000Y-88190000D02*
X125400000Y-88190000D01*
X128350000Y-85340000D02*
X122650000Y-85340000D01*
X125600000Y-84050000D02*
X125600000Y-85340000D01*
X126700000Y-83840000D02*
X125800000Y-83840000D01*
X126900000Y-85340000D02*
X126900000Y-84050000D01*
X125600000Y-84050000D02*
X125800000Y-83840000D01*
X126900000Y-84050000D02*
X126700000Y-83840000D01*
X124100000Y-88190000D02*
X123900000Y-88190000D01*
%TO.C,SW2*%
X98770000Y-136730000D02*
X105230000Y-136730000D01*
X98770000Y-132200000D02*
X98770000Y-134800000D01*
X98770000Y-130270000D02*
X105230000Y-130270000D01*
X105230000Y-132200000D02*
X105230000Y-134800000D01*
X98770000Y-130300000D02*
X98770000Y-130270000D01*
X98770000Y-136730000D02*
X98770000Y-136700000D01*
X105230000Y-136730000D02*
X105230000Y-136700000D01*
X105230000Y-130270000D02*
X105230000Y-130300000D01*
%TO.C,U1*%
X120410000Y-90250000D02*
X120410000Y-96260000D01*
X113590000Y-92500000D02*
X113590000Y-96260000D01*
X120410000Y-96260000D02*
X119150000Y-96260000D01*
X113590000Y-96260000D02*
X114850000Y-96260000D01*
%TO.C,U2*%
X131170000Y-112040000D02*
X131170000Y-113690000D01*
X141450000Y-112040000D02*
X131170000Y-112040000D01*
X141450000Y-117340000D02*
X141450000Y-112040000D01*
X131170000Y-117340000D02*
X141450000Y-117340000D01*
X131170000Y-115690000D02*
X131170000Y-117340000D01*
X131170000Y-113690000D02*
G75*
G02*
X131170000Y-115690000I0J-1000000D01*
G01*
%TO.C,U3*%
X86670000Y-112040000D02*
X86670000Y-113690000D01*
X122350000Y-112040000D02*
X86670000Y-112040000D01*
X122350000Y-117340000D02*
X122350000Y-112040000D01*
X86670000Y-117340000D02*
X122350000Y-117340000D01*
X86670000Y-115690000D02*
X86670000Y-117340000D01*
X86670000Y-113690000D02*
G75*
G02*
X86670000Y-115690000I0J-1000000D01*
G01*
%TO.C,Y1*%
X124825000Y-127525000D02*
X131075000Y-127525000D01*
X124825000Y-122475000D02*
X131075000Y-122475000D01*
X124825000Y-127525000D02*
G75*
G02*
X124825000Y-122475000I0J2525000D01*
G01*
X131075000Y-127525000D02*
G75*
G03*
X131075000Y-122475000I0J2525000D01*
G01*
%TO.C,F1*%
X132288748Y-90160000D02*
X135061252Y-90160000D01*
X132288748Y-86740000D02*
X135061252Y-86740000D01*
%TO.C,C1*%
D10*
X134107142Y-96416666D02*
X134154761Y-96464285D01*
X134202380Y-96607142D01*
X134202380Y-96702380D01*
X134154761Y-96845238D01*
X134059523Y-96940476D01*
X133964285Y-96988095D01*
X133773809Y-97035714D01*
X133630952Y-97035714D01*
X133440476Y-96988095D01*
X133345238Y-96940476D01*
X133250000Y-96845238D01*
X133202380Y-96702380D01*
X133202380Y-96607142D01*
X133250000Y-96464285D01*
X133297619Y-96416666D01*
X134202380Y-95464285D02*
X134202380Y-96035714D01*
X134202380Y-95750000D02*
X133202380Y-95750000D01*
X133345238Y-95845238D01*
X133440476Y-95940476D01*
X133488095Y-96035714D01*
%TO.C,C2*%
X111383333Y-86607142D02*
X111335714Y-86654761D01*
X111192857Y-86702380D01*
X111097619Y-86702380D01*
X110954761Y-86654761D01*
X110859523Y-86559523D01*
X110811904Y-86464285D01*
X110764285Y-86273809D01*
X110764285Y-86130952D01*
X110811904Y-85940476D01*
X110859523Y-85845238D01*
X110954761Y-85750000D01*
X111097619Y-85702380D01*
X111192857Y-85702380D01*
X111335714Y-85750000D01*
X111383333Y-85797619D01*
X111764285Y-85797619D02*
X111811904Y-85750000D01*
X111907142Y-85702380D01*
X112145238Y-85702380D01*
X112240476Y-85750000D01*
X112288095Y-85797619D01*
X112335714Y-85892857D01*
X112335714Y-85988095D01*
X112288095Y-86130952D01*
X111716666Y-86702380D01*
X112335714Y-86702380D01*
%TO.C,C3*%
X119633333Y-86607142D02*
X119585714Y-86654761D01*
X119442857Y-86702380D01*
X119347619Y-86702380D01*
X119204761Y-86654761D01*
X119109523Y-86559523D01*
X119061904Y-86464285D01*
X119014285Y-86273809D01*
X119014285Y-86130952D01*
X119061904Y-85940476D01*
X119109523Y-85845238D01*
X119204761Y-85750000D01*
X119347619Y-85702380D01*
X119442857Y-85702380D01*
X119585714Y-85750000D01*
X119633333Y-85797619D01*
X119966666Y-85702380D02*
X120585714Y-85702380D01*
X120252380Y-86083333D01*
X120395238Y-86083333D01*
X120490476Y-86130952D01*
X120538095Y-86178571D01*
X120585714Y-86273809D01*
X120585714Y-86511904D01*
X120538095Y-86607142D01*
X120490476Y-86654761D01*
X120395238Y-86702380D01*
X120109523Y-86702380D01*
X120014285Y-86654761D01*
X119966666Y-86607142D01*
%TO.C,C4*%
X127857142Y-130204166D02*
X127904761Y-130251785D01*
X127952380Y-130394642D01*
X127952380Y-130489880D01*
X127904761Y-130632738D01*
X127809523Y-130727976D01*
X127714285Y-130775595D01*
X127523809Y-130823214D01*
X127380952Y-130823214D01*
X127190476Y-130775595D01*
X127095238Y-130727976D01*
X127000000Y-130632738D01*
X126952380Y-130489880D01*
X126952380Y-130394642D01*
X127000000Y-130251785D01*
X127047619Y-130204166D01*
X127285714Y-129347023D02*
X127952380Y-129347023D01*
X126904761Y-129585119D02*
X127619047Y-129823214D01*
X127619047Y-129204166D01*
%TO.C,C5*%
X132857142Y-130204166D02*
X132904761Y-130251785D01*
X132952380Y-130394642D01*
X132952380Y-130489880D01*
X132904761Y-130632738D01*
X132809523Y-130727976D01*
X132714285Y-130775595D01*
X132523809Y-130823214D01*
X132380952Y-130823214D01*
X132190476Y-130775595D01*
X132095238Y-130727976D01*
X132000000Y-130632738D01*
X131952380Y-130489880D01*
X131952380Y-130394642D01*
X132000000Y-130251785D01*
X132047619Y-130204166D01*
X131952380Y-129299404D02*
X131952380Y-129775595D01*
X132428571Y-129823214D01*
X132380952Y-129775595D01*
X132333333Y-129680357D01*
X132333333Y-129442261D01*
X132380952Y-129347023D01*
X132428571Y-129299404D01*
X132523809Y-129251785D01*
X132761904Y-129251785D01*
X132857142Y-129299404D01*
X132904761Y-129347023D01*
X132952380Y-129442261D01*
X132952380Y-129680357D01*
X132904761Y-129775595D01*
X132857142Y-129823214D01*
%TO.C,C6*%
X110857142Y-107629166D02*
X110904761Y-107676785D01*
X110952380Y-107819642D01*
X110952380Y-107914880D01*
X110904761Y-108057738D01*
X110809523Y-108152976D01*
X110714285Y-108200595D01*
X110523809Y-108248214D01*
X110380952Y-108248214D01*
X110190476Y-108200595D01*
X110095238Y-108152976D01*
X110000000Y-108057738D01*
X109952380Y-107914880D01*
X109952380Y-107819642D01*
X110000000Y-107676785D01*
X110047619Y-107629166D01*
X109952380Y-106772023D02*
X109952380Y-106962500D01*
X110000000Y-107057738D01*
X110047619Y-107105357D01*
X110190476Y-107200595D01*
X110380952Y-107248214D01*
X110761904Y-107248214D01*
X110857142Y-107200595D01*
X110904761Y-107152976D01*
X110952380Y-107057738D01*
X110952380Y-106867261D01*
X110904761Y-106772023D01*
X110857142Y-106724404D01*
X110761904Y-106676785D01*
X110523809Y-106676785D01*
X110428571Y-106724404D01*
X110380952Y-106772023D01*
X110333333Y-106867261D01*
X110333333Y-107057738D01*
X110380952Y-107152976D01*
X110428571Y-107200595D01*
X110523809Y-107248214D01*
%TO.C,C7*%
X104677142Y-107629166D02*
X104724761Y-107676785D01*
X104772380Y-107819642D01*
X104772380Y-107914880D01*
X104724761Y-108057738D01*
X104629523Y-108152976D01*
X104534285Y-108200595D01*
X104343809Y-108248214D01*
X104200952Y-108248214D01*
X104010476Y-108200595D01*
X103915238Y-108152976D01*
X103820000Y-108057738D01*
X103772380Y-107914880D01*
X103772380Y-107819642D01*
X103820000Y-107676785D01*
X103867619Y-107629166D01*
X103772380Y-107295833D02*
X103772380Y-106629166D01*
X104772380Y-107057738D01*
%TO.C,C8*%
X137333333Y-108357142D02*
X137285714Y-108404761D01*
X137142857Y-108452380D01*
X137047619Y-108452380D01*
X136904761Y-108404761D01*
X136809523Y-108309523D01*
X136761904Y-108214285D01*
X136714285Y-108023809D01*
X136714285Y-107880952D01*
X136761904Y-107690476D01*
X136809523Y-107595238D01*
X136904761Y-107500000D01*
X137047619Y-107452380D01*
X137142857Y-107452380D01*
X137285714Y-107500000D01*
X137333333Y-107547619D01*
X137904761Y-107880952D02*
X137809523Y-107833333D01*
X137761904Y-107785714D01*
X137714285Y-107690476D01*
X137714285Y-107642857D01*
X137761904Y-107547619D01*
X137809523Y-107500000D01*
X137904761Y-107452380D01*
X138095238Y-107452380D01*
X138190476Y-107500000D01*
X138238095Y-107547619D01*
X138285714Y-107642857D01*
X138285714Y-107690476D01*
X138238095Y-107785714D01*
X138190476Y-107833333D01*
X138095238Y-107880952D01*
X137904761Y-107880952D01*
X137809523Y-107928571D01*
X137761904Y-107976190D01*
X137714285Y-108071428D01*
X137714285Y-108261904D01*
X137761904Y-108357142D01*
X137809523Y-108404761D01*
X137904761Y-108452380D01*
X138095238Y-108452380D01*
X138190476Y-108404761D01*
X138238095Y-108357142D01*
X138285714Y-108261904D01*
X138285714Y-108071428D01*
X138238095Y-107976190D01*
X138190476Y-107928571D01*
X138095238Y-107880952D01*
%TO.C,D1*%
X109611904Y-98352380D02*
X109611904Y-97352380D01*
X109850000Y-97352380D01*
X109992857Y-97400000D01*
X110088095Y-97495238D01*
X110135714Y-97590476D01*
X110183333Y-97780952D01*
X110183333Y-97923809D01*
X110135714Y-98114285D01*
X110088095Y-98209523D01*
X109992857Y-98304761D01*
X109850000Y-98352380D01*
X109611904Y-98352380D01*
X111135714Y-98352380D02*
X110564285Y-98352380D01*
X110850000Y-98352380D02*
X110850000Y-97352380D01*
X110754761Y-97495238D01*
X110659523Y-97590476D01*
X110564285Y-97638095D01*
%TO.C,D2*%
X124786904Y-110602380D02*
X124786904Y-109602380D01*
X125025000Y-109602380D01*
X125167857Y-109650000D01*
X125263095Y-109745238D01*
X125310714Y-109840476D01*
X125358333Y-110030952D01*
X125358333Y-110173809D01*
X125310714Y-110364285D01*
X125263095Y-110459523D01*
X125167857Y-110554761D01*
X125025000Y-110602380D01*
X124786904Y-110602380D01*
X125739285Y-109697619D02*
X125786904Y-109650000D01*
X125882142Y-109602380D01*
X126120238Y-109602380D01*
X126215476Y-109650000D01*
X126263095Y-109697619D01*
X126310714Y-109792857D01*
X126310714Y-109888095D01*
X126263095Y-110030952D01*
X125691666Y-110602380D01*
X126310714Y-110602380D01*
%TO.C,D3*%
X138236904Y-123302380D02*
X138236904Y-122302380D01*
X138475000Y-122302380D01*
X138617857Y-122350000D01*
X138713095Y-122445238D01*
X138760714Y-122540476D01*
X138808333Y-122730952D01*
X138808333Y-122873809D01*
X138760714Y-123064285D01*
X138713095Y-123159523D01*
X138617857Y-123254761D01*
X138475000Y-123302380D01*
X138236904Y-123302380D01*
X139141666Y-122302380D02*
X139760714Y-122302380D01*
X139427380Y-122683333D01*
X139570238Y-122683333D01*
X139665476Y-122730952D01*
X139713095Y-122778571D01*
X139760714Y-122873809D01*
X139760714Y-123111904D01*
X139713095Y-123207142D01*
X139665476Y-123254761D01*
X139570238Y-123302380D01*
X139284523Y-123302380D01*
X139189285Y-123254761D01*
X139141666Y-123207142D01*
%TO.C,D4*%
X142236904Y-98602380D02*
X142236904Y-97602380D01*
X142475000Y-97602380D01*
X142617857Y-97650000D01*
X142713095Y-97745238D01*
X142760714Y-97840476D01*
X142808333Y-98030952D01*
X142808333Y-98173809D01*
X142760714Y-98364285D01*
X142713095Y-98459523D01*
X142617857Y-98554761D01*
X142475000Y-98602380D01*
X142236904Y-98602380D01*
X143665476Y-97935714D02*
X143665476Y-98602380D01*
X143427380Y-97554761D02*
X143189285Y-98269047D01*
X143808333Y-98269047D01*
%TO.C,F2*%
X107166666Y-90928571D02*
X106833333Y-90928571D01*
X106833333Y-91452380D02*
X106833333Y-90452380D01*
X107309523Y-90452380D01*
X107642857Y-90547619D02*
X107690476Y-90500000D01*
X107785714Y-90452380D01*
X108023809Y-90452380D01*
X108119047Y-90500000D01*
X108166666Y-90547619D01*
X108214285Y-90642857D01*
X108214285Y-90738095D01*
X108166666Y-90880952D01*
X107595238Y-91452380D01*
X108214285Y-91452380D01*
%TO.C,R1*%
X93833333Y-129952380D02*
X93500000Y-129476190D01*
X93261904Y-129952380D02*
X93261904Y-128952380D01*
X93642857Y-128952380D01*
X93738095Y-129000000D01*
X93785714Y-129047619D01*
X93833333Y-129142857D01*
X93833333Y-129285714D01*
X93785714Y-129380952D01*
X93738095Y-129428571D01*
X93642857Y-129476190D01*
X93261904Y-129476190D01*
X94785714Y-129952380D02*
X94214285Y-129952380D01*
X94500000Y-129952380D02*
X94500000Y-128952380D01*
X94404761Y-129095238D01*
X94309523Y-129190476D01*
X94214285Y-129238095D01*
%TO.C,R2*%
X124132380Y-104216666D02*
X123656190Y-104550000D01*
X124132380Y-104788095D02*
X123132380Y-104788095D01*
X123132380Y-104407142D01*
X123180000Y-104311904D01*
X123227619Y-104264285D01*
X123322857Y-104216666D01*
X123465714Y-104216666D01*
X123560952Y-104264285D01*
X123608571Y-104311904D01*
X123656190Y-104407142D01*
X123656190Y-104788095D01*
X123227619Y-103835714D02*
X123180000Y-103788095D01*
X123132380Y-103692857D01*
X123132380Y-103454761D01*
X123180000Y-103359523D01*
X123227619Y-103311904D01*
X123322857Y-103264285D01*
X123418095Y-103264285D01*
X123560952Y-103311904D01*
X124132380Y-103883333D01*
X124132380Y-103264285D01*
%TO.C,R3*%
X143783333Y-123132380D02*
X143450000Y-122656190D01*
X143211904Y-123132380D02*
X143211904Y-122132380D01*
X143592857Y-122132380D01*
X143688095Y-122180000D01*
X143735714Y-122227619D01*
X143783333Y-122322857D01*
X143783333Y-122465714D01*
X143735714Y-122560952D01*
X143688095Y-122608571D01*
X143592857Y-122656190D01*
X143211904Y-122656190D01*
X144116666Y-122132380D02*
X144735714Y-122132380D01*
X144402380Y-122513333D01*
X144545238Y-122513333D01*
X144640476Y-122560952D01*
X144688095Y-122608571D01*
X144735714Y-122703809D01*
X144735714Y-122941904D01*
X144688095Y-123037142D01*
X144640476Y-123084761D01*
X144545238Y-123132380D01*
X144259523Y-123132380D01*
X144164285Y-123084761D01*
X144116666Y-123037142D01*
%TO.C,R4*%
X137883333Y-98772380D02*
X137550000Y-98296190D01*
X137311904Y-98772380D02*
X137311904Y-97772380D01*
X137692857Y-97772380D01*
X137788095Y-97820000D01*
X137835714Y-97867619D01*
X137883333Y-97962857D01*
X137883333Y-98105714D01*
X137835714Y-98200952D01*
X137788095Y-98248571D01*
X137692857Y-98296190D01*
X137311904Y-98296190D01*
X138740476Y-98105714D02*
X138740476Y-98772380D01*
X138502380Y-97724761D02*
X138264285Y-98439047D01*
X138883333Y-98439047D01*
%TO.C,F1*%
X133341666Y-85728571D02*
X133008333Y-85728571D01*
X133008333Y-86252380D02*
X133008333Y-85252380D01*
X133484523Y-85252380D01*
X134389285Y-86252380D02*
X133817857Y-86252380D01*
X134103571Y-86252380D02*
X134103571Y-85252380D01*
X134008333Y-85395238D01*
X133913095Y-85490476D01*
X133817857Y-85538095D01*
%TD*%
M02*
