%TF.GenerationSoftware,KiCad,Pcbnew,(5.1.9)-1*%
%TF.CreationDate,2021-07-06T12:17:59+10:00*%
%TF.ProjectId,AVRDevBoardRev1.1,41565244-6576-4426-9f61-726452657631,rev?*%
%TF.SameCoordinates,Original*%
%TF.FileFunction,Soldermask,Bot*%
%TF.FilePolarity,Negative*%
%FSLAX46Y46*%
G04 Gerber Fmt 4.6, Leading zero omitted, Abs format (unit mm)*
G04 Created by KiCad (PCBNEW (5.1.9)-1) date 2021-07-06 12:17:59*
%MOMM*%
%LPD*%
G01*
G04 APERTURE LIST*
%ADD10R,2.000000X2.000000*%
%ADD11C,2.000000*%
%ADD12C,5.600000*%
%ADD13R,1.700000X1.700000*%
%ADD14O,1.700000X1.700000*%
%ADD15O,2.000000X1.500000*%
%ADD16C,0.900000*%
%ADD17R,1.600000X1.600000*%
%ADD18O,1.600000X1.600000*%
%ADD19C,1.500000*%
G04 APERTURE END LIST*
D10*
%TO.C,C1*%
X127500000Y-94500000D03*
D11*
X127500000Y-98000000D03*
%TD*%
D12*
%TO.C,H1*%
X147000000Y-89000000D03*
%TD*%
%TO.C,H2*%
X87000000Y-89000000D03*
%TD*%
%TO.C,H3*%
X87000000Y-134000000D03*
%TD*%
%TO.C,H4*%
X147000000Y-134000000D03*
%TD*%
D13*
%TO.C,J1*%
X139150000Y-88550000D03*
D14*
X139150000Y-91090000D03*
%TD*%
D13*
%TO.C,J2*%
X133380000Y-102000000D03*
D14*
X133380000Y-104540000D03*
X135920000Y-102000000D03*
X135920000Y-104540000D03*
X138460000Y-102000000D03*
X138460000Y-104540000D03*
X141000000Y-102000000D03*
X141000000Y-104540000D03*
X143540000Y-102000000D03*
X143540000Y-104540000D03*
X146080000Y-102000000D03*
X146080000Y-104540000D03*
X148620000Y-102000000D03*
X148620000Y-104540000D03*
%TD*%
D13*
%TO.C,J3*%
X88640000Y-126500000D03*
D14*
X91180000Y-126500000D03*
X93720000Y-126500000D03*
X96260000Y-126500000D03*
X98800000Y-126500000D03*
X101340000Y-126500000D03*
X103880000Y-126500000D03*
X106420000Y-126500000D03*
X108960000Y-126500000D03*
X111500000Y-126500000D03*
X114040000Y-126500000D03*
X116580000Y-126500000D03*
%TD*%
D13*
%TO.C,J4*%
X121200000Y-103500000D03*
D14*
X118660000Y-103500000D03*
X116120000Y-103500000D03*
X113580000Y-103500000D03*
X111040000Y-103500000D03*
X108500000Y-103500000D03*
X105960000Y-103500000D03*
X103420000Y-103500000D03*
X100880000Y-103500000D03*
X98340000Y-103500000D03*
X95800000Y-103500000D03*
X93260000Y-103500000D03*
X90720000Y-103500000D03*
X88180000Y-103500000D03*
%TD*%
D15*
%TO.C,J5*%
X100000000Y-87100000D03*
D11*
X100000000Y-91500000D03*
%TD*%
D14*
%TO.C,J6*%
X128040000Y-117580000D03*
X125500000Y-117580000D03*
X128040000Y-115040000D03*
X125500000Y-115040000D03*
X128040000Y-112500000D03*
D13*
X125500000Y-112500000D03*
%TD*%
%TO.C,J7*%
X144500000Y-112500000D03*
D14*
X147040000Y-112500000D03*
X144500000Y-115040000D03*
X147040000Y-115040000D03*
X144500000Y-117580000D03*
X147040000Y-117580000D03*
%TD*%
D16*
%TO.C,SW1*%
X127000000Y-86740000D03*
X124000000Y-86740000D03*
%TD*%
D17*
%TO.C,U2*%
X132500000Y-118500000D03*
D18*
X140120000Y-110880000D03*
X135040000Y-118500000D03*
X137580000Y-110880000D03*
X137580000Y-118500000D03*
X135040000Y-110880000D03*
X140120000Y-118500000D03*
X132500000Y-110880000D03*
%TD*%
D17*
%TO.C,U3*%
X88000000Y-118500000D03*
D18*
X121020000Y-110880000D03*
X90540000Y-118500000D03*
X118480000Y-110880000D03*
X93080000Y-118500000D03*
X115940000Y-110880000D03*
X95620000Y-118500000D03*
X113400000Y-110880000D03*
X98160000Y-118500000D03*
X110860000Y-110880000D03*
X100700000Y-118500000D03*
X108320000Y-110880000D03*
X103240000Y-118500000D03*
X105780000Y-110880000D03*
X105780000Y-118500000D03*
X103240000Y-110880000D03*
X108320000Y-118500000D03*
X100700000Y-110880000D03*
X110860000Y-118500000D03*
X98160000Y-110880000D03*
X113400000Y-118500000D03*
X95620000Y-110880000D03*
X115940000Y-118500000D03*
X93080000Y-110880000D03*
X118480000Y-118500000D03*
X90540000Y-110880000D03*
X121020000Y-118500000D03*
X88000000Y-110880000D03*
%TD*%
D19*
%TO.C,Y1*%
X125500000Y-125000000D03*
X130400000Y-125000000D03*
%TD*%
M02*
