M48
; DRILL file {KiCad (5.1.7)-1} date 07/08/21 13:41:05
; FORMAT={-:-/ absolute / inch / decimal}
; #@! TF.CreationDate,2021-07-08T13:41:05+10:00
; #@! TF.GenerationSoftware,Kicad,Pcbnew,(5.1.7)-1
; #@! TF.FileFunction,Plated,1,2,PTH
FMAT,2
INCH
T1C0.0157
T2C0.0315
T3C0.0394
T4C0.1260
%
G90
G05
T1
X3.4646Y-4.4488
X3.4646Y-4.5866
X3.6102Y-3.4291
X3.6142Y-3.6614
X3.7992Y-5.3445
X4.065Y-4.3012
X4.1043Y-4.1831
X4.1634Y-4.7343
X4.2323Y-5.3445
X4.2913Y-4.7441
X4.3406Y-4.1732
X4.3571Y-4.7311
X4.4449Y-3.4016
X4.6654Y-3.4016
X4.7638Y-3.6024
X4.8425Y-4.3701
X4.8425Y-4.5472
X4.8819Y-4.9213
X4.9409Y-5.2067
X4.9803Y-4.7047
X5.0197Y-3.9567
X5.0394Y-4.2717
X5.0394Y-4.7047
X5.0394Y-4.9213
X5.0984Y-4.8228
X5.1378Y-5.2067
X5.1969Y-4.1732
X5.3543Y-4.252
X5.374Y-4.9016
X5.3937Y-3.5925
X5.5157Y-4.7307
X5.5906Y-4.2854
X5.5906Y-4.5276
X5.6299Y-4.3307
X5.6299Y-4.4291
X5.7283Y-3.7992
X5.7874Y-4.7146
X5.8661Y-4.1929
T2
X3.4646Y-4.3654
X3.4646Y-4.6654
X3.5646Y-4.3654
X3.5646Y-4.6654
X3.6646Y-4.3654
X3.6646Y-4.6654
X3.7646Y-4.3654
X3.7646Y-4.6654
X3.8646Y-4.3654
X3.8646Y-4.6654
X3.9646Y-4.3654
X3.9646Y-4.6654
X4.0646Y-4.3654
X4.0646Y-4.6654
X4.1646Y-4.3654
X4.1646Y-4.6654
X4.2646Y-4.3654
X4.2646Y-4.6654
X4.3646Y-4.3654
X4.3646Y-4.6654
X4.4646Y-4.3654
X4.4646Y-4.6654
X4.5646Y-4.3654
X4.5646Y-4.6654
X4.6646Y-4.3654
X4.6646Y-4.6654
X4.7646Y-4.3654
X4.7646Y-4.6654
X4.9409Y-4.9213
X5.1339Y-4.9213
X5.2165Y-4.3654
X5.2165Y-4.6654
X5.3165Y-4.3654
X5.3165Y-4.6654
X5.4165Y-4.3654
X5.4165Y-4.6654
X5.5165Y-4.3654
X5.5165Y-4.6654
T3
X5.689Y-4.4291
X5.689Y-4.5291
X5.689Y-4.6291
X5.789Y-4.4291
X5.789Y-4.5291
X5.789Y-4.6291
X4.9409Y-4.4291
X4.9409Y-4.5291
X4.9409Y-4.6291
X5.0409Y-4.4291
X5.0409Y-4.5291
X5.0409Y-4.6291
X3.4898Y-4.9803
X3.5898Y-4.9803
X3.6898Y-4.9803
X3.7898Y-4.9803
X3.8898Y-4.9803
X3.9898Y-4.9803
X4.0898Y-4.9803
X4.1898Y-4.9803
X4.2898Y-4.9803
X4.3898Y-4.9803
X4.4898Y-4.9803
X4.5898Y-4.9803
X5.0197Y-3.7205
X5.0197Y-3.8583
X5.4783Y-3.4862
X5.4783Y-3.5862
X5.2512Y-4.0157
X5.2512Y-4.1157
X5.3512Y-4.0157
X5.3512Y-4.1157
X5.4512Y-4.0157
X5.4512Y-4.1157
X5.5512Y-4.0157
X5.5512Y-4.1157
X5.6512Y-4.0157
X5.6512Y-4.1157
X5.7512Y-4.0157
X5.7512Y-4.1157
X5.8512Y-4.0157
X5.8512Y-4.1157
X3.4717Y-4.0748
X3.5717Y-4.0748
X3.6717Y-4.0748
X3.7717Y-4.0748
X3.8717Y-4.0748
X3.9717Y-4.0748
X4.0717Y-4.0748
X4.1717Y-4.0748
X4.2717Y-4.0748
X4.3717Y-4.0748
X4.4717Y-4.0748
X4.5717Y-4.0748
X4.6717Y-4.0748
X4.7717Y-4.0748
T4
X5.7874Y-5.2756
X3.4252Y-5.2756
X3.4252Y-3.5039
X5.7874Y-3.5039
T0
M30
