%TF.GenerationSoftware,KiCad,Pcbnew,(5.1.9)-1*%
%TF.CreationDate,2021-07-06T12:17:59+10:00*%
%TF.ProjectId,AVRDevBoardRev1.1,41565244-6576-4426-9f61-726452657631,rev?*%
%TF.SameCoordinates,Original*%
%TF.FileFunction,Soldermask,Top*%
%TF.FilePolarity,Negative*%
%FSLAX46Y46*%
G04 Gerber Fmt 4.6, Leading zero omitted, Abs format (unit mm)*
G04 Created by KiCad (PCBNEW (5.1.9)-1) date 2021-07-06 12:17:59*
%MOMM*%
%LPD*%
G01*
G04 APERTURE LIST*
%ADD10R,2.000000X2.000000*%
%ADD11C,2.000000*%
%ADD12R,0.900000X1.200000*%
%ADD13C,5.600000*%
%ADD14R,1.700000X1.700000*%
%ADD15O,1.700000X1.700000*%
%ADD16O,2.000000X1.500000*%
%ADD17R,3.000000X2.000000*%
%ADD18C,0.900000*%
%ADD19R,0.700000X1.500000*%
%ADD20R,1.000000X0.800000*%
%ADD21R,1.550000X1.300000*%
%ADD22R,3.800000X2.000000*%
%ADD23R,1.500000X2.000000*%
%ADD24R,1.600000X1.600000*%
%ADD25O,1.600000X1.600000*%
%ADD26C,1.500000*%
G04 APERTURE END LIST*
D10*
%TO.C,C1*%
X127500000Y-94500000D03*
D11*
X127500000Y-98000000D03*
%TD*%
%TO.C,C2*%
G36*
G01*
X114975000Y-89087500D02*
X114025000Y-89087500D01*
G75*
G02*
X113775000Y-88837500I0J250000D01*
G01*
X113775000Y-88162500D01*
G75*
G02*
X114025000Y-87912500I250000J0D01*
G01*
X114975000Y-87912500D01*
G75*
G02*
X115225000Y-88162500I0J-250000D01*
G01*
X115225000Y-88837500D01*
G75*
G02*
X114975000Y-89087500I-250000J0D01*
G01*
G37*
G36*
G01*
X114975000Y-87012500D02*
X114025000Y-87012500D01*
G75*
G02*
X113775000Y-86762500I0J250000D01*
G01*
X113775000Y-86087500D01*
G75*
G02*
X114025000Y-85837500I250000J0D01*
G01*
X114975000Y-85837500D01*
G75*
G02*
X115225000Y-86087500I0J-250000D01*
G01*
X115225000Y-86762500D01*
G75*
G02*
X114975000Y-87012500I-250000J0D01*
G01*
G37*
%TD*%
%TO.C,C3*%
G36*
G01*
X117475000Y-87012500D02*
X116525000Y-87012500D01*
G75*
G02*
X116275000Y-86762500I0J250000D01*
G01*
X116275000Y-86087500D01*
G75*
G02*
X116525000Y-85837500I250000J0D01*
G01*
X117475000Y-85837500D01*
G75*
G02*
X117725000Y-86087500I0J-250000D01*
G01*
X117725000Y-86762500D01*
G75*
G02*
X117475000Y-87012500I-250000J0D01*
G01*
G37*
G36*
G01*
X117475000Y-89087500D02*
X116525000Y-89087500D01*
G75*
G02*
X116275000Y-88837500I0J250000D01*
G01*
X116275000Y-88162500D01*
G75*
G02*
X116525000Y-87912500I250000J0D01*
G01*
X117475000Y-87912500D01*
G75*
G02*
X117725000Y-88162500I0J-250000D01*
G01*
X117725000Y-88837500D01*
G75*
G02*
X117475000Y-89087500I-250000J0D01*
G01*
G37*
%TD*%
%TO.C,C4*%
G36*
G01*
X125025000Y-128412500D02*
X125975000Y-128412500D01*
G75*
G02*
X126225000Y-128662500I0J-250000D01*
G01*
X126225000Y-129337500D01*
G75*
G02*
X125975000Y-129587500I-250000J0D01*
G01*
X125025000Y-129587500D01*
G75*
G02*
X124775000Y-129337500I0J250000D01*
G01*
X124775000Y-128662500D01*
G75*
G02*
X125025000Y-128412500I250000J0D01*
G01*
G37*
G36*
G01*
X125025000Y-130487500D02*
X125975000Y-130487500D01*
G75*
G02*
X126225000Y-130737500I0J-250000D01*
G01*
X126225000Y-131412500D01*
G75*
G02*
X125975000Y-131662500I-250000J0D01*
G01*
X125025000Y-131662500D01*
G75*
G02*
X124775000Y-131412500I0J250000D01*
G01*
X124775000Y-130737500D01*
G75*
G02*
X125025000Y-130487500I250000J0D01*
G01*
G37*
%TD*%
%TO.C,C5*%
G36*
G01*
X130025000Y-130487500D02*
X130975000Y-130487500D01*
G75*
G02*
X131225000Y-130737500I0J-250000D01*
G01*
X131225000Y-131412500D01*
G75*
G02*
X130975000Y-131662500I-250000J0D01*
G01*
X130025000Y-131662500D01*
G75*
G02*
X129775000Y-131412500I0J250000D01*
G01*
X129775000Y-130737500D01*
G75*
G02*
X130025000Y-130487500I250000J0D01*
G01*
G37*
G36*
G01*
X130025000Y-128412500D02*
X130975000Y-128412500D01*
G75*
G02*
X131225000Y-128662500I0J-250000D01*
G01*
X131225000Y-129337500D01*
G75*
G02*
X130975000Y-129587500I-250000J0D01*
G01*
X130025000Y-129587500D01*
G75*
G02*
X129775000Y-129337500I0J250000D01*
G01*
X129775000Y-128662500D01*
G75*
G02*
X130025000Y-128412500I250000J0D01*
G01*
G37*
%TD*%
%TO.C,C6*%
G36*
G01*
X108975000Y-109087500D02*
X108025000Y-109087500D01*
G75*
G02*
X107775000Y-108837500I0J250000D01*
G01*
X107775000Y-108162500D01*
G75*
G02*
X108025000Y-107912500I250000J0D01*
G01*
X108975000Y-107912500D01*
G75*
G02*
X109225000Y-108162500I0J-250000D01*
G01*
X109225000Y-108837500D01*
G75*
G02*
X108975000Y-109087500I-250000J0D01*
G01*
G37*
G36*
G01*
X108975000Y-107012500D02*
X108025000Y-107012500D01*
G75*
G02*
X107775000Y-106762500I0J250000D01*
G01*
X107775000Y-106087500D01*
G75*
G02*
X108025000Y-105837500I250000J0D01*
G01*
X108975000Y-105837500D01*
G75*
G02*
X109225000Y-106087500I0J-250000D01*
G01*
X109225000Y-106762500D01*
G75*
G02*
X108975000Y-107012500I-250000J0D01*
G01*
G37*
%TD*%
%TO.C,C7*%
G36*
G01*
X106475000Y-109087500D02*
X105525000Y-109087500D01*
G75*
G02*
X105275000Y-108837500I0J250000D01*
G01*
X105275000Y-108162500D01*
G75*
G02*
X105525000Y-107912500I250000J0D01*
G01*
X106475000Y-107912500D01*
G75*
G02*
X106725000Y-108162500I0J-250000D01*
G01*
X106725000Y-108837500D01*
G75*
G02*
X106475000Y-109087500I-250000J0D01*
G01*
G37*
G36*
G01*
X106475000Y-107012500D02*
X105525000Y-107012500D01*
G75*
G02*
X105275000Y-106762500I0J250000D01*
G01*
X105275000Y-106087500D01*
G75*
G02*
X105525000Y-105837500I250000J0D01*
G01*
X106475000Y-105837500D01*
G75*
G02*
X106725000Y-106087500I0J-250000D01*
G01*
X106725000Y-106762500D01*
G75*
G02*
X106475000Y-107012500I-250000J0D01*
G01*
G37*
%TD*%
%TO.C,C8*%
G36*
G01*
X133912500Y-108475000D02*
X133912500Y-107525000D01*
G75*
G02*
X134162500Y-107275000I250000J0D01*
G01*
X134837500Y-107275000D01*
G75*
G02*
X135087500Y-107525000I0J-250000D01*
G01*
X135087500Y-108475000D01*
G75*
G02*
X134837500Y-108725000I-250000J0D01*
G01*
X134162500Y-108725000D01*
G75*
G02*
X133912500Y-108475000I0J250000D01*
G01*
G37*
G36*
G01*
X131837500Y-108475000D02*
X131837500Y-107525000D01*
G75*
G02*
X132087500Y-107275000I250000J0D01*
G01*
X132762500Y-107275000D01*
G75*
G02*
X133012500Y-107525000I0J-250000D01*
G01*
X133012500Y-108475000D01*
G75*
G02*
X132762500Y-108725000I-250000J0D01*
G01*
X132087500Y-108725000D01*
G75*
G02*
X131837500Y-108475000I0J250000D01*
G01*
G37*
%TD*%
D12*
%TO.C,D1*%
X112000000Y-96000000D03*
X108700000Y-96000000D03*
%TD*%
%TO.C,D2*%
G36*
G01*
X127125000Y-108049999D02*
X127125000Y-108950001D01*
G75*
G02*
X126875001Y-109200000I-249999J0D01*
G01*
X126224999Y-109200000D01*
G75*
G02*
X125975000Y-108950001I0J249999D01*
G01*
X125975000Y-108049999D01*
G75*
G02*
X126224999Y-107800000I249999J0D01*
G01*
X126875001Y-107800000D01*
G75*
G02*
X127125000Y-108049999I0J-249999D01*
G01*
G37*
G36*
G01*
X125075000Y-108049999D02*
X125075000Y-108950001D01*
G75*
G02*
X124825001Y-109200000I-249999J0D01*
G01*
X124174999Y-109200000D01*
G75*
G02*
X123925000Y-108950001I0J249999D01*
G01*
X123925000Y-108049999D01*
G75*
G02*
X124174999Y-107800000I249999J0D01*
G01*
X124825001Y-107800000D01*
G75*
G02*
X125075000Y-108049999I0J-249999D01*
G01*
G37*
%TD*%
%TO.C,D3*%
G36*
G01*
X139425000Y-124950001D02*
X139425000Y-124049999D01*
G75*
G02*
X139674999Y-123800000I249999J0D01*
G01*
X140325001Y-123800000D01*
G75*
G02*
X140575000Y-124049999I0J-249999D01*
G01*
X140575000Y-124950001D01*
G75*
G02*
X140325001Y-125200000I-249999J0D01*
G01*
X139674999Y-125200000D01*
G75*
G02*
X139425000Y-124950001I0J249999D01*
G01*
G37*
G36*
G01*
X137375000Y-124950001D02*
X137375000Y-124049999D01*
G75*
G02*
X137624999Y-123800000I249999J0D01*
G01*
X138275001Y-123800000D01*
G75*
G02*
X138525000Y-124049999I0J-249999D01*
G01*
X138525000Y-124950001D01*
G75*
G02*
X138275001Y-125200000I-249999J0D01*
G01*
X137624999Y-125200000D01*
G75*
G02*
X137375000Y-124950001I0J249999D01*
G01*
G37*
%TD*%
%TO.C,D4*%
G36*
G01*
X144575000Y-96049999D02*
X144575000Y-96950001D01*
G75*
G02*
X144325001Y-97200000I-249999J0D01*
G01*
X143674999Y-97200000D01*
G75*
G02*
X143425000Y-96950001I0J249999D01*
G01*
X143425000Y-96049999D01*
G75*
G02*
X143674999Y-95800000I249999J0D01*
G01*
X144325001Y-95800000D01*
G75*
G02*
X144575000Y-96049999I0J-249999D01*
G01*
G37*
G36*
G01*
X142525000Y-96049999D02*
X142525000Y-96950001D01*
G75*
G02*
X142275001Y-97200000I-249999J0D01*
G01*
X141624999Y-97200000D01*
G75*
G02*
X141375000Y-96950001I0J249999D01*
G01*
X141375000Y-96049999D01*
G75*
G02*
X141624999Y-95800000I249999J0D01*
G01*
X142275001Y-95800000D01*
G75*
G02*
X142525000Y-96049999I0J-249999D01*
G01*
G37*
%TD*%
%TO.C,F2*%
G36*
G01*
X111950000Y-93875000D02*
X109050000Y-93875000D01*
G75*
G02*
X108800000Y-93625000I0J250000D01*
G01*
X108800000Y-92825000D01*
G75*
G02*
X109050000Y-92575000I250000J0D01*
G01*
X111950000Y-92575000D01*
G75*
G02*
X112200000Y-92825000I0J-250000D01*
G01*
X112200000Y-93625000D01*
G75*
G02*
X111950000Y-93875000I-250000J0D01*
G01*
G37*
G36*
G01*
X111950000Y-89425000D02*
X109050000Y-89425000D01*
G75*
G02*
X108800000Y-89175000I0J250000D01*
G01*
X108800000Y-88375000D01*
G75*
G02*
X109050000Y-88125000I250000J0D01*
G01*
X111950000Y-88125000D01*
G75*
G02*
X112200000Y-88375000I0J-250000D01*
G01*
X112200000Y-89175000D01*
G75*
G02*
X111950000Y-89425000I-250000J0D01*
G01*
G37*
%TD*%
D13*
%TO.C,H1*%
X147000000Y-89000000D03*
%TD*%
%TO.C,H2*%
X87000000Y-89000000D03*
%TD*%
%TO.C,H3*%
X87000000Y-134000000D03*
%TD*%
%TO.C,H4*%
X147000000Y-134000000D03*
%TD*%
D14*
%TO.C,J1*%
X139150000Y-88550000D03*
D15*
X139150000Y-91090000D03*
%TD*%
D14*
%TO.C,J2*%
X133380000Y-102000000D03*
D15*
X133380000Y-104540000D03*
X135920000Y-102000000D03*
X135920000Y-104540000D03*
X138460000Y-102000000D03*
X138460000Y-104540000D03*
X141000000Y-102000000D03*
X141000000Y-104540000D03*
X143540000Y-102000000D03*
X143540000Y-104540000D03*
X146080000Y-102000000D03*
X146080000Y-104540000D03*
X148620000Y-102000000D03*
X148620000Y-104540000D03*
%TD*%
D14*
%TO.C,J3*%
X88640000Y-126500000D03*
D15*
X91180000Y-126500000D03*
X93720000Y-126500000D03*
X96260000Y-126500000D03*
X98800000Y-126500000D03*
X101340000Y-126500000D03*
X103880000Y-126500000D03*
X106420000Y-126500000D03*
X108960000Y-126500000D03*
X111500000Y-126500000D03*
X114040000Y-126500000D03*
X116580000Y-126500000D03*
%TD*%
D14*
%TO.C,J4*%
X121200000Y-103500000D03*
D15*
X118660000Y-103500000D03*
X116120000Y-103500000D03*
X113580000Y-103500000D03*
X111040000Y-103500000D03*
X108500000Y-103500000D03*
X105960000Y-103500000D03*
X103420000Y-103500000D03*
X100880000Y-103500000D03*
X98340000Y-103500000D03*
X95800000Y-103500000D03*
X93260000Y-103500000D03*
X90720000Y-103500000D03*
X88180000Y-103500000D03*
%TD*%
D16*
%TO.C,J5*%
X100000000Y-87100000D03*
D11*
X100000000Y-91500000D03*
D17*
X105500000Y-87000000D03*
X105500000Y-93000000D03*
X94500000Y-93000000D03*
X94500000Y-87000000D03*
%TD*%
D15*
%TO.C,J6*%
X128040000Y-117580000D03*
X125500000Y-117580000D03*
X128040000Y-115040000D03*
X125500000Y-115040000D03*
X128040000Y-112500000D03*
D14*
X125500000Y-112500000D03*
%TD*%
%TO.C,J7*%
X144500000Y-112500000D03*
D15*
X147040000Y-112500000D03*
X144500000Y-115040000D03*
X147040000Y-115040000D03*
X144500000Y-117580000D03*
X147040000Y-117580000D03*
%TD*%
%TO.C,R1*%
G36*
G01*
X93050000Y-130875000D02*
X93050000Y-132125000D01*
G75*
G02*
X92800000Y-132375000I-250000J0D01*
G01*
X92000000Y-132375000D01*
G75*
G02*
X91750000Y-132125000I0J250000D01*
G01*
X91750000Y-130875000D01*
G75*
G02*
X92000000Y-130625000I250000J0D01*
G01*
X92800000Y-130625000D01*
G75*
G02*
X93050000Y-130875000I0J-250000D01*
G01*
G37*
G36*
G01*
X96150000Y-130875000D02*
X96150000Y-132125000D01*
G75*
G02*
X95900000Y-132375000I-250000J0D01*
G01*
X95100000Y-132375000D01*
G75*
G02*
X94850000Y-132125000I0J250000D01*
G01*
X94850000Y-130875000D01*
G75*
G02*
X95100000Y-130625000I250000J0D01*
G01*
X95900000Y-130625000D01*
G75*
G02*
X96150000Y-130875000I0J-250000D01*
G01*
G37*
%TD*%
%TO.C,R2*%
G36*
G01*
X126125000Y-106250000D02*
X124875000Y-106250000D01*
G75*
G02*
X124625000Y-106000000I0J250000D01*
G01*
X124625000Y-105200000D01*
G75*
G02*
X124875000Y-104950000I250000J0D01*
G01*
X126125000Y-104950000D01*
G75*
G02*
X126375000Y-105200000I0J-250000D01*
G01*
X126375000Y-106000000D01*
G75*
G02*
X126125000Y-106250000I-250000J0D01*
G01*
G37*
G36*
G01*
X126125000Y-103150000D02*
X124875000Y-103150000D01*
G75*
G02*
X124625000Y-102900000I0J250000D01*
G01*
X124625000Y-102100000D01*
G75*
G02*
X124875000Y-101850000I250000J0D01*
G01*
X126125000Y-101850000D01*
G75*
G02*
X126375000Y-102100000I0J-250000D01*
G01*
X126375000Y-102900000D01*
G75*
G02*
X126125000Y-103150000I-250000J0D01*
G01*
G37*
%TD*%
%TO.C,R3*%
G36*
G01*
X144850000Y-125125000D02*
X144850000Y-123875000D01*
G75*
G02*
X145100000Y-123625000I250000J0D01*
G01*
X145900000Y-123625000D01*
G75*
G02*
X146150000Y-123875000I0J-250000D01*
G01*
X146150000Y-125125000D01*
G75*
G02*
X145900000Y-125375000I-250000J0D01*
G01*
X145100000Y-125375000D01*
G75*
G02*
X144850000Y-125125000I0J250000D01*
G01*
G37*
G36*
G01*
X141750000Y-125125000D02*
X141750000Y-123875000D01*
G75*
G02*
X142000000Y-123625000I250000J0D01*
G01*
X142800000Y-123625000D01*
G75*
G02*
X143050000Y-123875000I0J-250000D01*
G01*
X143050000Y-125125000D01*
G75*
G02*
X142800000Y-125375000I-250000J0D01*
G01*
X142000000Y-125375000D01*
G75*
G02*
X141750000Y-125125000I0J250000D01*
G01*
G37*
%TD*%
%TO.C,R4*%
G36*
G01*
X140250000Y-95875000D02*
X140250000Y-97125000D01*
G75*
G02*
X140000000Y-97375000I-250000J0D01*
G01*
X139200000Y-97375000D01*
G75*
G02*
X138950000Y-97125000I0J250000D01*
G01*
X138950000Y-95875000D01*
G75*
G02*
X139200000Y-95625000I250000J0D01*
G01*
X140000000Y-95625000D01*
G75*
G02*
X140250000Y-95875000I0J-250000D01*
G01*
G37*
G36*
G01*
X137150000Y-95875000D02*
X137150000Y-97125000D01*
G75*
G02*
X136900000Y-97375000I-250000J0D01*
G01*
X136100000Y-97375000D01*
G75*
G02*
X135850000Y-97125000I0J250000D01*
G01*
X135850000Y-95875000D01*
G75*
G02*
X136100000Y-95625000I250000J0D01*
G01*
X136900000Y-95625000D01*
G75*
G02*
X137150000Y-95875000I0J-250000D01*
G01*
G37*
%TD*%
D18*
%TO.C,SW1*%
X127000000Y-86740000D03*
X124000000Y-86740000D03*
D19*
X127750000Y-88500000D03*
X124750000Y-88500000D03*
X123250000Y-88500000D03*
D20*
X129150000Y-85640000D03*
X121850000Y-85640000D03*
X121850000Y-87850000D03*
X129150000Y-87850000D03*
%TD*%
D21*
%TO.C,SW2*%
X98025000Y-135750000D03*
X98025000Y-131250000D03*
X105975000Y-131250000D03*
X105975000Y-135750000D03*
%TD*%
D22*
%TO.C,U1*%
X117000000Y-97500000D03*
D23*
X117000000Y-91200000D03*
X114700000Y-91200000D03*
X119300000Y-91200000D03*
%TD*%
D24*
%TO.C,U2*%
X132500000Y-118500000D03*
D25*
X140120000Y-110880000D03*
X135040000Y-118500000D03*
X137580000Y-110880000D03*
X137580000Y-118500000D03*
X135040000Y-110880000D03*
X140120000Y-118500000D03*
X132500000Y-110880000D03*
%TD*%
D24*
%TO.C,U3*%
X88000000Y-118500000D03*
D25*
X121020000Y-110880000D03*
X90540000Y-118500000D03*
X118480000Y-110880000D03*
X93080000Y-118500000D03*
X115940000Y-110880000D03*
X95620000Y-118500000D03*
X113400000Y-110880000D03*
X98160000Y-118500000D03*
X110860000Y-110880000D03*
X100700000Y-118500000D03*
X108320000Y-110880000D03*
X103240000Y-118500000D03*
X105780000Y-110880000D03*
X105780000Y-118500000D03*
X103240000Y-110880000D03*
X108320000Y-118500000D03*
X100700000Y-110880000D03*
X110860000Y-118500000D03*
X98160000Y-110880000D03*
X113400000Y-118500000D03*
X95620000Y-110880000D03*
X115940000Y-118500000D03*
X93080000Y-110880000D03*
X118480000Y-118500000D03*
X90540000Y-110880000D03*
X121020000Y-118500000D03*
X88000000Y-110880000D03*
%TD*%
D26*
%TO.C,Y1*%
X125500000Y-125000000D03*
X130400000Y-125000000D03*
%TD*%
%TO.C,F1*%
G36*
G01*
X130800000Y-89900000D02*
X130800000Y-87000000D01*
G75*
G02*
X131050000Y-86750000I250000J0D01*
G01*
X131850000Y-86750000D01*
G75*
G02*
X132100000Y-87000000I0J-250000D01*
G01*
X132100000Y-89900000D01*
G75*
G02*
X131850000Y-90150000I-250000J0D01*
G01*
X131050000Y-90150000D01*
G75*
G02*
X130800000Y-89900000I0J250000D01*
G01*
G37*
G36*
G01*
X135250000Y-89900000D02*
X135250000Y-87000000D01*
G75*
G02*
X135500000Y-86750000I250000J0D01*
G01*
X136300000Y-86750000D01*
G75*
G02*
X136550000Y-87000000I0J-250000D01*
G01*
X136550000Y-89900000D01*
G75*
G02*
X136300000Y-90150000I-250000J0D01*
G01*
X135500000Y-90150000D01*
G75*
G02*
X135250000Y-89900000I0J250000D01*
G01*
G37*
%TD*%
M02*
