%TF.GenerationSoftware,KiCad,Pcbnew,(5.1.7)-1*%
%TF.CreationDate,2021-07-08T13:40:54+10:00*%
%TF.ProjectId,AVRDevBoardRev1.1,41565244-6576-4426-9f61-726452657631,rev?*%
%TF.SameCoordinates,Original*%
%TF.FileFunction,Copper,L2,Bot*%
%TF.FilePolarity,Positive*%
%FSLAX46Y46*%
G04 Gerber Fmt 4.6, Leading zero omitted, Abs format (unit mm)*
G04 Created by KiCad (PCBNEW (5.1.7)-1) date 2021-07-08 13:40:54*
%MOMM*%
%LPD*%
G01*
G04 APERTURE LIST*
%TA.AperFunction,ComponentPad*%
%ADD10R,2.000000X2.000000*%
%TD*%
%TA.AperFunction,ComponentPad*%
%ADD11C,2.000000*%
%TD*%
%TA.AperFunction,ComponentPad*%
%ADD12C,5.600000*%
%TD*%
%TA.AperFunction,ComponentPad*%
%ADD13R,1.700000X1.700000*%
%TD*%
%TA.AperFunction,ComponentPad*%
%ADD14O,1.700000X1.700000*%
%TD*%
%TA.AperFunction,ComponentPad*%
%ADD15R,1.600000X1.600000*%
%TD*%
%TA.AperFunction,ComponentPad*%
%ADD16O,1.600000X1.600000*%
%TD*%
%TA.AperFunction,ComponentPad*%
%ADD17C,1.500000*%
%TD*%
%TA.AperFunction,ViaPad*%
%ADD18C,0.800000*%
%TD*%
%TA.AperFunction,Conductor*%
%ADD19C,0.300000*%
%TD*%
%TA.AperFunction,Conductor*%
%ADD20C,0.254000*%
%TD*%
%TA.AperFunction,Conductor*%
%ADD21C,0.100000*%
%TD*%
G04 APERTURE END LIST*
D10*
%TO.P,C1,1*%
%TO.N,+5V*%
X127500000Y-94500000D03*
D11*
%TO.P,C1,2*%
%TO.N,GND*%
X127500000Y-98000000D03*
%TD*%
D12*
%TO.P,H1,1*%
%TO.N,GND*%
X147000000Y-89000000D03*
%TD*%
%TO.P,H2,1*%
%TO.N,GND*%
X87000000Y-89000000D03*
%TD*%
%TO.P,H3,1*%
%TO.N,GND*%
X87000000Y-134000000D03*
%TD*%
%TO.P,H4,1*%
%TO.N,GND*%
X147000000Y-134000000D03*
%TD*%
D13*
%TO.P,J1,1*%
%TO.N,Jumper_in*%
X139150000Y-88550000D03*
D14*
%TO.P,J1,2*%
%TO.N,GND*%
X139150000Y-91090000D03*
%TD*%
D13*
%TO.P,J2,1*%
%TO.N,+5V*%
X133380000Y-102000000D03*
D14*
%TO.P,J2,2*%
%TO.N,GND*%
X133380000Y-104540000D03*
%TO.P,J2,3*%
%TO.N,+5V*%
X135920000Y-102000000D03*
%TO.P,J2,4*%
%TO.N,GND*%
X135920000Y-104540000D03*
%TO.P,J2,5*%
%TO.N,+5V*%
X138460000Y-102000000D03*
%TO.P,J2,6*%
%TO.N,GND*%
X138460000Y-104540000D03*
%TO.P,J2,7*%
%TO.N,+5V*%
X141000000Y-102000000D03*
%TO.P,J2,8*%
%TO.N,GND*%
X141000000Y-104540000D03*
%TO.P,J2,9*%
%TO.N,+5V*%
X143540000Y-102000000D03*
%TO.P,J2,10*%
%TO.N,GND*%
X143540000Y-104540000D03*
%TO.P,J2,11*%
%TO.N,+5V*%
X146080000Y-102000000D03*
%TO.P,J2,12*%
%TO.N,GND*%
X146080000Y-104540000D03*
%TO.P,J2,13*%
%TO.N,+5V*%
X148620000Y-102000000D03*
%TO.P,J2,14*%
%TO.N,GND*%
X148620000Y-104540000D03*
%TD*%
D13*
%TO.P,J3,1*%
%TO.N,PD0*%
X88640000Y-126500000D03*
D14*
%TO.P,J3,2*%
%TO.N,PD1*%
X91180000Y-126500000D03*
%TO.P,J3,3*%
%TO.N,PD2*%
X93720000Y-126500000D03*
%TO.P,J3,4*%
%TO.N,PD3*%
X96260000Y-126500000D03*
%TO.P,J3,5*%
%TO.N,PD4*%
X98800000Y-126500000D03*
%TO.P,J3,6*%
%TO.N,PD5*%
X101340000Y-126500000D03*
%TO.P,J3,7*%
%TO.N,PD6*%
X103880000Y-126500000D03*
%TO.P,J3,8*%
%TO.N,PD7*%
X106420000Y-126500000D03*
%TO.P,J3,9*%
%TO.N,PB0_tiny*%
X108960000Y-126500000D03*
%TO.P,J3,10*%
%TO.N,PB1_tiny*%
X111500000Y-126500000D03*
%TO.P,J3,11*%
%TO.N,PB2_tiny*%
X114040000Y-126500000D03*
%TO.P,J3,12*%
%TO.N,RST*%
X116580000Y-126500000D03*
%TD*%
D13*
%TO.P,J4,1*%
%TO.N,PB0*%
X121200000Y-103500000D03*
D14*
%TO.P,J4,2*%
%TO.N,PB1*%
X118660000Y-103500000D03*
%TO.P,J4,3*%
%TO.N,PB2*%
X116120000Y-103500000D03*
%TO.P,J4,4*%
%TO.N,PB3*%
X113580000Y-103500000D03*
%TO.P,J4,5*%
%TO.N,PB4*%
X111040000Y-103500000D03*
%TO.P,J4,6*%
%TO.N,PB5*%
X108500000Y-103500000D03*
%TO.P,J4,7*%
%TO.N,AREF*%
X105960000Y-103500000D03*
%TO.P,J4,8*%
%TO.N,PC0*%
X103420000Y-103500000D03*
%TO.P,J4,9*%
%TO.N,PC1*%
X100880000Y-103500000D03*
%TO.P,J4,10*%
%TO.N,PC2*%
X98340000Y-103500000D03*
%TO.P,J4,11*%
%TO.N,PC3*%
X95800000Y-103500000D03*
%TO.P,J4,12*%
%TO.N,PC4*%
X93260000Y-103500000D03*
%TO.P,J4,13*%
%TO.N,PC5*%
X90720000Y-103500000D03*
%TO.P,J4,14*%
%TO.N,RST*%
X88180000Y-103500000D03*
%TD*%
%TO.P,J6,6*%
%TO.N,GND*%
X128040000Y-117580000D03*
%TO.P,J6,5*%
%TO.N,RST*%
X125500000Y-117580000D03*
%TO.P,J6,4*%
%TO.N,PB3*%
X128040000Y-115040000D03*
%TO.P,J6,3*%
%TO.N,PB5*%
X125500000Y-115040000D03*
%TO.P,J6,2*%
%TO.N,+5V*%
X128040000Y-112500000D03*
D13*
%TO.P,J6,1*%
%TO.N,PB4*%
X125500000Y-112500000D03*
%TD*%
%TO.P,J7,1*%
%TO.N,PB1_tiny*%
X144500000Y-112500000D03*
D14*
%TO.P,J7,2*%
%TO.N,+5V*%
X147040000Y-112500000D03*
%TO.P,J7,3*%
%TO.N,PB2_tiny*%
X144500000Y-115040000D03*
%TO.P,J7,4*%
%TO.N,PB0_tiny*%
X147040000Y-115040000D03*
%TO.P,J7,5*%
%TO.N,RST*%
X144500000Y-117580000D03*
%TO.P,J7,6*%
%TO.N,GND*%
X147040000Y-117580000D03*
%TD*%
D15*
%TO.P,U2,1*%
%TO.N,RST*%
X132500000Y-118500000D03*
D16*
%TO.P,U2,5*%
%TO.N,PB0_tiny*%
X140120000Y-110880000D03*
%TO.P,U2,2*%
%TO.N,XTAL1*%
X135040000Y-118500000D03*
%TO.P,U2,6*%
%TO.N,PB1_tiny*%
X137580000Y-110880000D03*
%TO.P,U2,3*%
%TO.N,XTAL2*%
X137580000Y-118500000D03*
%TO.P,U2,7*%
%TO.N,PB2_tiny*%
X135040000Y-110880000D03*
%TO.P,U2,4*%
%TO.N,GND*%
X140120000Y-118500000D03*
%TO.P,U2,8*%
%TO.N,+5V*%
X132500000Y-110880000D03*
%TD*%
D15*
%TO.P,U3,1*%
%TO.N,RST*%
X88000000Y-118500000D03*
D16*
%TO.P,U3,15*%
%TO.N,PB1*%
X121020000Y-110880000D03*
%TO.P,U3,2*%
%TO.N,PD0*%
X90540000Y-118500000D03*
%TO.P,U3,16*%
%TO.N,PB2*%
X118480000Y-110880000D03*
%TO.P,U3,3*%
%TO.N,PD1*%
X93080000Y-118500000D03*
%TO.P,U3,17*%
%TO.N,PB3*%
X115940000Y-110880000D03*
%TO.P,U3,4*%
%TO.N,PD2*%
X95620000Y-118500000D03*
%TO.P,U3,18*%
%TO.N,PB4*%
X113400000Y-110880000D03*
%TO.P,U3,5*%
%TO.N,PD3*%
X98160000Y-118500000D03*
%TO.P,U3,19*%
%TO.N,PB5*%
X110860000Y-110880000D03*
%TO.P,U3,6*%
%TO.N,PD4*%
X100700000Y-118500000D03*
%TO.P,U3,20*%
%TO.N,+5V*%
X108320000Y-110880000D03*
%TO.P,U3,7*%
X103240000Y-118500000D03*
%TO.P,U3,21*%
%TO.N,AREF*%
X105780000Y-110880000D03*
%TO.P,U3,8*%
%TO.N,GND*%
X105780000Y-118500000D03*
%TO.P,U3,22*%
X103240000Y-110880000D03*
%TO.P,U3,9*%
%TO.N,XTAL1*%
X108320000Y-118500000D03*
%TO.P,U3,23*%
%TO.N,PC0*%
X100700000Y-110880000D03*
%TO.P,U3,10*%
%TO.N,XTAL2*%
X110860000Y-118500000D03*
%TO.P,U3,24*%
%TO.N,PC1*%
X98160000Y-110880000D03*
%TO.P,U3,11*%
%TO.N,PD5*%
X113400000Y-118500000D03*
%TO.P,U3,25*%
%TO.N,PC2*%
X95620000Y-110880000D03*
%TO.P,U3,12*%
%TO.N,PD6*%
X115940000Y-118500000D03*
%TO.P,U3,26*%
%TO.N,PC3*%
X93080000Y-110880000D03*
%TO.P,U3,13*%
%TO.N,PD7*%
X118480000Y-118500000D03*
%TO.P,U3,27*%
%TO.N,PC4*%
X90540000Y-110880000D03*
%TO.P,U3,14*%
%TO.N,PB0*%
X121020000Y-118500000D03*
%TO.P,U3,28*%
%TO.N,PC5*%
X88000000Y-110880000D03*
%TD*%
D17*
%TO.P,Y1,1*%
%TO.N,XTAL1*%
X125500000Y-125000000D03*
%TO.P,Y1,2*%
%TO.N,XTAL2*%
X130400000Y-125000000D03*
%TD*%
D18*
%TO.N,GND*%
X136000000Y-108000000D03*
X132000000Y-106000000D03*
X149000000Y-106500000D03*
X137000000Y-91250000D03*
X147000000Y-119750000D03*
X136500000Y-124500000D03*
X130500000Y-132250000D03*
X125500000Y-132250000D03*
X128000000Y-108500000D03*
X107500000Y-135750000D03*
X96500000Y-135750000D03*
X104250000Y-106250000D03*
X110250000Y-106000000D03*
X103250000Y-109250000D03*
X128000000Y-119500000D03*
X105750000Y-120250000D03*
X91700000Y-87100000D03*
X91800000Y-93000000D03*
X112900000Y-86400000D03*
X118500000Y-86400000D03*
X127500000Y-100500000D03*
X145500000Y-96500000D03*
X121000000Y-91500000D03*
X140100000Y-120160000D03*
%TO.N,XTAL1*%
X124000000Y-125000000D03*
X109000000Y-120500000D03*
%TO.N,XTAL2*%
X128000000Y-125000000D03*
X110669669Y-120169669D03*
%TO.N,PB1_tiny*%
X143000000Y-112500000D03*
X143000000Y-110000000D03*
%TO.N,PB2_tiny*%
X142000000Y-115000000D03*
X142000000Y-108850001D03*
%TO.N,RST*%
X126500000Y-119500000D03*
X129500000Y-122500000D03*
X88000000Y-116500000D03*
X88000000Y-113000000D03*
%TO.N,PB0*%
X123000000Y-111000000D03*
X123000000Y-115500000D03*
%TD*%
D19*
%TO.N,XTAL1*%
X113500000Y-125000000D02*
X109000000Y-120500000D01*
X124000000Y-125000000D02*
X113500000Y-125000000D01*
%TO.N,XTAL2*%
X128000000Y-125000000D02*
X126500000Y-123500000D01*
X114000000Y-123500000D02*
X110669669Y-120169669D01*
X126500000Y-123500000D02*
X114000000Y-123500000D01*
%TO.N,PB1_tiny*%
X143000000Y-112500000D02*
X143000000Y-110000000D01*
%TO.N,PB2_tiny*%
X142000000Y-115000000D02*
X142000000Y-108850001D01*
%TO.N,RST*%
X126500000Y-119500000D02*
X129500000Y-122500000D01*
X88000000Y-116500000D02*
X88000000Y-113000000D01*
%TO.N,PB0*%
X123000000Y-114000000D02*
X123000000Y-111000000D01*
X123000000Y-115500000D02*
X123000000Y-114000000D01*
%TD*%
D20*
%TO.N,GND*%
X85686994Y-85807870D02*
X85089470Y-86125361D01*
X85075308Y-86134823D01*
X84763124Y-86583519D01*
X87000000Y-88820395D01*
X89236876Y-86583519D01*
X88924692Y-86134823D01*
X88328741Y-85814388D01*
X87824276Y-85660000D01*
X123868000Y-85660000D01*
X123683517Y-85696696D01*
X123486060Y-85778485D01*
X123308353Y-85897225D01*
X123157225Y-86048353D01*
X123038485Y-86226060D01*
X122956696Y-86423517D01*
X122915000Y-86633137D01*
X122915000Y-86846863D01*
X122956696Y-87056483D01*
X123038485Y-87253940D01*
X123157225Y-87431647D01*
X123308353Y-87582775D01*
X123486060Y-87701515D01*
X123683517Y-87783304D01*
X123893137Y-87825000D01*
X124106863Y-87825000D01*
X124316483Y-87783304D01*
X124513940Y-87701515D01*
X124691647Y-87582775D01*
X124842775Y-87431647D01*
X124961515Y-87253940D01*
X125043304Y-87056483D01*
X125085000Y-86846863D01*
X125085000Y-86633137D01*
X125043304Y-86423517D01*
X124961515Y-86226060D01*
X124842775Y-86048353D01*
X124691647Y-85897225D01*
X124513940Y-85778485D01*
X124316483Y-85696696D01*
X124132000Y-85660000D01*
X126868000Y-85660000D01*
X126683517Y-85696696D01*
X126486060Y-85778485D01*
X126308353Y-85897225D01*
X126157225Y-86048353D01*
X126038485Y-86226060D01*
X125956696Y-86423517D01*
X125915000Y-86633137D01*
X125915000Y-86846863D01*
X125956696Y-87056483D01*
X126038485Y-87253940D01*
X126157225Y-87431647D01*
X126308353Y-87582775D01*
X126486060Y-87701515D01*
X126683517Y-87783304D01*
X126893137Y-87825000D01*
X127106863Y-87825000D01*
X127316483Y-87783304D01*
X127513940Y-87701515D01*
X127516207Y-87700000D01*
X137661928Y-87700000D01*
X137661928Y-89400000D01*
X137674188Y-89524482D01*
X137710498Y-89644180D01*
X137769463Y-89754494D01*
X137848815Y-89851185D01*
X137945506Y-89930537D01*
X138055820Y-89989502D01*
X138136466Y-90013966D01*
X138052412Y-90089731D01*
X137878359Y-90323080D01*
X137753175Y-90585901D01*
X137708524Y-90733110D01*
X137829845Y-90963000D01*
X139023000Y-90963000D01*
X139023000Y-90943000D01*
X139277000Y-90943000D01*
X139277000Y-90963000D01*
X140470155Y-90963000D01*
X140591476Y-90733110D01*
X140546825Y-90585901D01*
X140421641Y-90323080D01*
X140247588Y-90089731D01*
X140163534Y-90013966D01*
X140244180Y-89989502D01*
X140354494Y-89930537D01*
X140451185Y-89851185D01*
X140530537Y-89754494D01*
X140589502Y-89644180D01*
X140625812Y-89524482D01*
X140638072Y-89400000D01*
X140638072Y-88991484D01*
X143548390Y-88991484D01*
X143613051Y-89665023D01*
X143807870Y-90313006D01*
X144125361Y-90910530D01*
X144134823Y-90924692D01*
X144583519Y-91236876D01*
X146820395Y-89000000D01*
X144583519Y-86763124D01*
X144134823Y-87075308D01*
X143814388Y-87671259D01*
X143616374Y-88318273D01*
X143548390Y-88991484D01*
X140638072Y-88991484D01*
X140638072Y-87700000D01*
X140625812Y-87575518D01*
X140589502Y-87455820D01*
X140530537Y-87345506D01*
X140451185Y-87248815D01*
X140354494Y-87169463D01*
X140244180Y-87110498D01*
X140124482Y-87074188D01*
X140000000Y-87061928D01*
X138300000Y-87061928D01*
X138175518Y-87074188D01*
X138055820Y-87110498D01*
X137945506Y-87169463D01*
X137848815Y-87248815D01*
X137769463Y-87345506D01*
X137710498Y-87455820D01*
X137674188Y-87575518D01*
X137661928Y-87700000D01*
X127516207Y-87700000D01*
X127691647Y-87582775D01*
X127842775Y-87431647D01*
X127961515Y-87253940D01*
X128043304Y-87056483D01*
X128085000Y-86846863D01*
X128085000Y-86633137D01*
X128043304Y-86423517D01*
X127961515Y-86226060D01*
X127842775Y-86048353D01*
X127691647Y-85897225D01*
X127513940Y-85778485D01*
X127316483Y-85696696D01*
X127132000Y-85660000D01*
X146178821Y-85660000D01*
X145686994Y-85807870D01*
X145089470Y-86125361D01*
X145075308Y-86134823D01*
X144763124Y-86583519D01*
X147000000Y-88820395D01*
X149236876Y-86583519D01*
X148924692Y-86134823D01*
X148328741Y-85814388D01*
X147824276Y-85660000D01*
X148967721Y-85660000D01*
X149259659Y-85688625D01*
X149509429Y-85764035D01*
X149739792Y-85886522D01*
X149941980Y-86051422D01*
X150108286Y-86252450D01*
X150232378Y-86481954D01*
X150309531Y-86731195D01*
X150340000Y-87021088D01*
X150340000Y-88178821D01*
X150192130Y-87686994D01*
X149874639Y-87089470D01*
X149865177Y-87075308D01*
X149416481Y-86763124D01*
X147179605Y-89000000D01*
X149416481Y-91236876D01*
X149865177Y-90924692D01*
X150185612Y-90328741D01*
X150340000Y-89824275D01*
X150340001Y-133178824D01*
X150192130Y-132686994D01*
X149874639Y-132089470D01*
X149865177Y-132075308D01*
X149416481Y-131763124D01*
X147179605Y-134000000D01*
X149416481Y-136236876D01*
X149865177Y-135924692D01*
X150185612Y-135328741D01*
X150340001Y-134824272D01*
X150340001Y-135967711D01*
X150311375Y-136259660D01*
X150235965Y-136509429D01*
X150113477Y-136739794D01*
X149948579Y-136941979D01*
X149747546Y-137108288D01*
X149518046Y-137232378D01*
X149268805Y-137309531D01*
X148978911Y-137340000D01*
X147821179Y-137340000D01*
X148313006Y-137192130D01*
X148910530Y-136874639D01*
X148924692Y-136865177D01*
X149236876Y-136416481D01*
X147000000Y-134179605D01*
X144763124Y-136416481D01*
X145075308Y-136865177D01*
X145671259Y-137185612D01*
X146175724Y-137340000D01*
X87821179Y-137340000D01*
X88313006Y-137192130D01*
X88910530Y-136874639D01*
X88924692Y-136865177D01*
X89236876Y-136416481D01*
X87000000Y-134179605D01*
X84763124Y-136416481D01*
X85075308Y-136865177D01*
X85671259Y-137185612D01*
X86175724Y-137340000D01*
X85032279Y-137340000D01*
X84740340Y-137311375D01*
X84490571Y-137235965D01*
X84260206Y-137113477D01*
X84058021Y-136948579D01*
X83891712Y-136747546D01*
X83767622Y-136518046D01*
X83690469Y-136268805D01*
X83660000Y-135978911D01*
X83660000Y-134821179D01*
X83807870Y-135313006D01*
X84125361Y-135910530D01*
X84134823Y-135924692D01*
X84583519Y-136236876D01*
X86820395Y-134000000D01*
X87179605Y-134000000D01*
X89416481Y-136236876D01*
X89865177Y-135924692D01*
X90185612Y-135328741D01*
X90383626Y-134681727D01*
X90451610Y-134008516D01*
X90449975Y-133991484D01*
X143548390Y-133991484D01*
X143613051Y-134665023D01*
X143807870Y-135313006D01*
X144125361Y-135910530D01*
X144134823Y-135924692D01*
X144583519Y-136236876D01*
X146820395Y-134000000D01*
X144583519Y-131763124D01*
X144134823Y-132075308D01*
X143814388Y-132671259D01*
X143616374Y-133318273D01*
X143548390Y-133991484D01*
X90449975Y-133991484D01*
X90386949Y-133334977D01*
X90192130Y-132686994D01*
X89874639Y-132089470D01*
X89865177Y-132075308D01*
X89416481Y-131763124D01*
X87179605Y-134000000D01*
X86820395Y-134000000D01*
X84583519Y-131763124D01*
X84134823Y-132075308D01*
X83814388Y-132671259D01*
X83660000Y-133175724D01*
X83660000Y-131583519D01*
X84763124Y-131583519D01*
X87000000Y-133820395D01*
X89236876Y-131583519D01*
X144763124Y-131583519D01*
X147000000Y-133820395D01*
X149236876Y-131583519D01*
X148924692Y-131134823D01*
X148328741Y-130814388D01*
X147681727Y-130616374D01*
X147008516Y-130548390D01*
X146334977Y-130613051D01*
X145686994Y-130807870D01*
X145089470Y-131125361D01*
X145075308Y-131134823D01*
X144763124Y-131583519D01*
X89236876Y-131583519D01*
X88924692Y-131134823D01*
X88328741Y-130814388D01*
X87681727Y-130616374D01*
X87008516Y-130548390D01*
X86334977Y-130613051D01*
X85686994Y-130807870D01*
X85089470Y-131125361D01*
X85075308Y-131134823D01*
X84763124Y-131583519D01*
X83660000Y-131583519D01*
X83660000Y-125650000D01*
X87151928Y-125650000D01*
X87151928Y-127350000D01*
X87164188Y-127474482D01*
X87200498Y-127594180D01*
X87259463Y-127704494D01*
X87338815Y-127801185D01*
X87435506Y-127880537D01*
X87545820Y-127939502D01*
X87665518Y-127975812D01*
X87790000Y-127988072D01*
X89490000Y-127988072D01*
X89614482Y-127975812D01*
X89734180Y-127939502D01*
X89844494Y-127880537D01*
X89941185Y-127801185D01*
X90020537Y-127704494D01*
X90079502Y-127594180D01*
X90101513Y-127521620D01*
X90233368Y-127653475D01*
X90476589Y-127815990D01*
X90746842Y-127927932D01*
X91033740Y-127985000D01*
X91326260Y-127985000D01*
X91613158Y-127927932D01*
X91883411Y-127815990D01*
X92126632Y-127653475D01*
X92333475Y-127446632D01*
X92450000Y-127272240D01*
X92566525Y-127446632D01*
X92773368Y-127653475D01*
X93016589Y-127815990D01*
X93286842Y-127927932D01*
X93573740Y-127985000D01*
X93866260Y-127985000D01*
X94153158Y-127927932D01*
X94423411Y-127815990D01*
X94666632Y-127653475D01*
X94873475Y-127446632D01*
X94990000Y-127272240D01*
X95106525Y-127446632D01*
X95313368Y-127653475D01*
X95556589Y-127815990D01*
X95826842Y-127927932D01*
X96113740Y-127985000D01*
X96406260Y-127985000D01*
X96693158Y-127927932D01*
X96963411Y-127815990D01*
X97206632Y-127653475D01*
X97413475Y-127446632D01*
X97530000Y-127272240D01*
X97646525Y-127446632D01*
X97853368Y-127653475D01*
X98096589Y-127815990D01*
X98366842Y-127927932D01*
X98653740Y-127985000D01*
X98946260Y-127985000D01*
X99233158Y-127927932D01*
X99503411Y-127815990D01*
X99746632Y-127653475D01*
X99953475Y-127446632D01*
X100070000Y-127272240D01*
X100186525Y-127446632D01*
X100393368Y-127653475D01*
X100636589Y-127815990D01*
X100906842Y-127927932D01*
X101193740Y-127985000D01*
X101486260Y-127985000D01*
X101773158Y-127927932D01*
X102043411Y-127815990D01*
X102286632Y-127653475D01*
X102493475Y-127446632D01*
X102610000Y-127272240D01*
X102726525Y-127446632D01*
X102933368Y-127653475D01*
X103176589Y-127815990D01*
X103446842Y-127927932D01*
X103733740Y-127985000D01*
X104026260Y-127985000D01*
X104313158Y-127927932D01*
X104583411Y-127815990D01*
X104826632Y-127653475D01*
X105033475Y-127446632D01*
X105150000Y-127272240D01*
X105266525Y-127446632D01*
X105473368Y-127653475D01*
X105716589Y-127815990D01*
X105986842Y-127927932D01*
X106273740Y-127985000D01*
X106566260Y-127985000D01*
X106853158Y-127927932D01*
X107123411Y-127815990D01*
X107366632Y-127653475D01*
X107573475Y-127446632D01*
X107690000Y-127272240D01*
X107806525Y-127446632D01*
X108013368Y-127653475D01*
X108256589Y-127815990D01*
X108526842Y-127927932D01*
X108813740Y-127985000D01*
X109106260Y-127985000D01*
X109393158Y-127927932D01*
X109663411Y-127815990D01*
X109906632Y-127653475D01*
X110113475Y-127446632D01*
X110230000Y-127272240D01*
X110346525Y-127446632D01*
X110553368Y-127653475D01*
X110796589Y-127815990D01*
X111066842Y-127927932D01*
X111353740Y-127985000D01*
X111646260Y-127985000D01*
X111933158Y-127927932D01*
X112203411Y-127815990D01*
X112446632Y-127653475D01*
X112653475Y-127446632D01*
X112770000Y-127272240D01*
X112886525Y-127446632D01*
X113093368Y-127653475D01*
X113336589Y-127815990D01*
X113606842Y-127927932D01*
X113893740Y-127985000D01*
X114186260Y-127985000D01*
X114473158Y-127927932D01*
X114743411Y-127815990D01*
X114986632Y-127653475D01*
X115193475Y-127446632D01*
X115310000Y-127272240D01*
X115426525Y-127446632D01*
X115633368Y-127653475D01*
X115876589Y-127815990D01*
X116146842Y-127927932D01*
X116433740Y-127985000D01*
X116726260Y-127985000D01*
X117013158Y-127927932D01*
X117283411Y-127815990D01*
X117526632Y-127653475D01*
X117733475Y-127446632D01*
X117895990Y-127203411D01*
X118007932Y-126933158D01*
X118065000Y-126646260D01*
X118065000Y-126353740D01*
X118007932Y-126066842D01*
X117895990Y-125796589D01*
X117888246Y-125785000D01*
X123321289Y-125785000D01*
X123340226Y-125803937D01*
X123509744Y-125917205D01*
X123698102Y-125995226D01*
X123898061Y-126035000D01*
X124101939Y-126035000D01*
X124301898Y-125995226D01*
X124467815Y-125926500D01*
X124617114Y-126075799D01*
X124843957Y-126227371D01*
X125096011Y-126331775D01*
X125363589Y-126385000D01*
X125636411Y-126385000D01*
X125903989Y-126331775D01*
X126156043Y-126227371D01*
X126382886Y-126075799D01*
X126575799Y-125882886D01*
X126727371Y-125656043D01*
X126831775Y-125403989D01*
X126885000Y-125136411D01*
X126885000Y-124995158D01*
X126965000Y-125075158D01*
X126965000Y-125101939D01*
X127004774Y-125301898D01*
X127082795Y-125490256D01*
X127196063Y-125659774D01*
X127340226Y-125803937D01*
X127509744Y-125917205D01*
X127698102Y-125995226D01*
X127898061Y-126035000D01*
X128101939Y-126035000D01*
X128301898Y-125995226D01*
X128490256Y-125917205D01*
X128659774Y-125803937D01*
X128803937Y-125659774D01*
X128917205Y-125490256D01*
X128995226Y-125301898D01*
X129021572Y-125169449D01*
X129068225Y-125403989D01*
X129172629Y-125656043D01*
X129324201Y-125882886D01*
X129517114Y-126075799D01*
X129743957Y-126227371D01*
X129996011Y-126331775D01*
X130263589Y-126385000D01*
X130536411Y-126385000D01*
X130803989Y-126331775D01*
X131056043Y-126227371D01*
X131282886Y-126075799D01*
X131475799Y-125882886D01*
X131627371Y-125656043D01*
X131731775Y-125403989D01*
X131785000Y-125136411D01*
X131785000Y-124863589D01*
X131731775Y-124596011D01*
X131627371Y-124343957D01*
X131475799Y-124117114D01*
X131282886Y-123924201D01*
X131056043Y-123772629D01*
X130803989Y-123668225D01*
X130536411Y-123615000D01*
X130263589Y-123615000D01*
X129996011Y-123668225D01*
X129743957Y-123772629D01*
X129517114Y-123924201D01*
X129324201Y-124117114D01*
X129172629Y-124343957D01*
X129068225Y-124596011D01*
X129021572Y-124830551D01*
X128995226Y-124698102D01*
X128917205Y-124509744D01*
X128803937Y-124340226D01*
X128659774Y-124196063D01*
X128490256Y-124082795D01*
X128301898Y-124004774D01*
X128101939Y-123965000D01*
X128075158Y-123965000D01*
X127082347Y-122972190D01*
X127057764Y-122942236D01*
X126938233Y-122844138D01*
X126801860Y-122771246D01*
X126653887Y-122726359D01*
X126538561Y-122715000D01*
X126538553Y-122715000D01*
X126500000Y-122711203D01*
X126461447Y-122715000D01*
X114325158Y-122715000D01*
X111704669Y-120094512D01*
X111704669Y-120067730D01*
X111664895Y-119867771D01*
X111606588Y-119727005D01*
X111774759Y-119614637D01*
X111974637Y-119414759D01*
X112130000Y-119182241D01*
X112285363Y-119414759D01*
X112485241Y-119614637D01*
X112720273Y-119771680D01*
X112981426Y-119879853D01*
X113258665Y-119935000D01*
X113541335Y-119935000D01*
X113818574Y-119879853D01*
X114079727Y-119771680D01*
X114314759Y-119614637D01*
X114514637Y-119414759D01*
X114670000Y-119182241D01*
X114825363Y-119414759D01*
X115025241Y-119614637D01*
X115260273Y-119771680D01*
X115521426Y-119879853D01*
X115798665Y-119935000D01*
X116081335Y-119935000D01*
X116358574Y-119879853D01*
X116619727Y-119771680D01*
X116854759Y-119614637D01*
X117054637Y-119414759D01*
X117210000Y-119182241D01*
X117365363Y-119414759D01*
X117565241Y-119614637D01*
X117800273Y-119771680D01*
X118061426Y-119879853D01*
X118338665Y-119935000D01*
X118621335Y-119935000D01*
X118898574Y-119879853D01*
X119159727Y-119771680D01*
X119394759Y-119614637D01*
X119594637Y-119414759D01*
X119750000Y-119182241D01*
X119905363Y-119414759D01*
X120105241Y-119614637D01*
X120340273Y-119771680D01*
X120601426Y-119879853D01*
X120878665Y-119935000D01*
X121161335Y-119935000D01*
X121438574Y-119879853D01*
X121699727Y-119771680D01*
X121934759Y-119614637D01*
X122134637Y-119414759D01*
X122291680Y-119179727D01*
X122399853Y-118918574D01*
X122455000Y-118641335D01*
X122455000Y-118358665D01*
X122399853Y-118081426D01*
X122291680Y-117820273D01*
X122134637Y-117585241D01*
X121934759Y-117385363D01*
X121699727Y-117228320D01*
X121438574Y-117120147D01*
X121161335Y-117065000D01*
X120878665Y-117065000D01*
X120601426Y-117120147D01*
X120340273Y-117228320D01*
X120105241Y-117385363D01*
X119905363Y-117585241D01*
X119750000Y-117817759D01*
X119594637Y-117585241D01*
X119394759Y-117385363D01*
X119159727Y-117228320D01*
X118898574Y-117120147D01*
X118621335Y-117065000D01*
X118338665Y-117065000D01*
X118061426Y-117120147D01*
X117800273Y-117228320D01*
X117565241Y-117385363D01*
X117365363Y-117585241D01*
X117210000Y-117817759D01*
X117054637Y-117585241D01*
X116854759Y-117385363D01*
X116619727Y-117228320D01*
X116358574Y-117120147D01*
X116081335Y-117065000D01*
X115798665Y-117065000D01*
X115521426Y-117120147D01*
X115260273Y-117228320D01*
X115025241Y-117385363D01*
X114825363Y-117585241D01*
X114670000Y-117817759D01*
X114514637Y-117585241D01*
X114314759Y-117385363D01*
X114079727Y-117228320D01*
X113818574Y-117120147D01*
X113541335Y-117065000D01*
X113258665Y-117065000D01*
X112981426Y-117120147D01*
X112720273Y-117228320D01*
X112485241Y-117385363D01*
X112285363Y-117585241D01*
X112130000Y-117817759D01*
X111974637Y-117585241D01*
X111774759Y-117385363D01*
X111539727Y-117228320D01*
X111278574Y-117120147D01*
X111001335Y-117065000D01*
X110718665Y-117065000D01*
X110441426Y-117120147D01*
X110180273Y-117228320D01*
X109945241Y-117385363D01*
X109745363Y-117585241D01*
X109590000Y-117817759D01*
X109434637Y-117585241D01*
X109234759Y-117385363D01*
X108999727Y-117228320D01*
X108738574Y-117120147D01*
X108461335Y-117065000D01*
X108178665Y-117065000D01*
X107901426Y-117120147D01*
X107640273Y-117228320D01*
X107405241Y-117385363D01*
X107205363Y-117585241D01*
X107048320Y-117820273D01*
X107043933Y-117830865D01*
X106932385Y-117644869D01*
X106743414Y-117436481D01*
X106517420Y-117268963D01*
X106263087Y-117148754D01*
X106129039Y-117108096D01*
X105907000Y-117230085D01*
X105907000Y-118373000D01*
X105927000Y-118373000D01*
X105927000Y-118627000D01*
X105907000Y-118627000D01*
X105907000Y-119769915D01*
X106129039Y-119891904D01*
X106263087Y-119851246D01*
X106517420Y-119731037D01*
X106743414Y-119563519D01*
X106932385Y-119355131D01*
X107043933Y-119169135D01*
X107048320Y-119179727D01*
X107205363Y-119414759D01*
X107405241Y-119614637D01*
X107640273Y-119771680D01*
X107901426Y-119879853D01*
X108138125Y-119926936D01*
X108082795Y-120009744D01*
X108004774Y-120198102D01*
X107965000Y-120398061D01*
X107965000Y-120601939D01*
X108004774Y-120801898D01*
X108082795Y-120990256D01*
X108196063Y-121159774D01*
X108340226Y-121303937D01*
X108509744Y-121417205D01*
X108698102Y-121495226D01*
X108898061Y-121535000D01*
X108924843Y-121535000D01*
X112914868Y-125525025D01*
X112886525Y-125553368D01*
X112770000Y-125727760D01*
X112653475Y-125553368D01*
X112446632Y-125346525D01*
X112203411Y-125184010D01*
X111933158Y-125072068D01*
X111646260Y-125015000D01*
X111353740Y-125015000D01*
X111066842Y-125072068D01*
X110796589Y-125184010D01*
X110553368Y-125346525D01*
X110346525Y-125553368D01*
X110230000Y-125727760D01*
X110113475Y-125553368D01*
X109906632Y-125346525D01*
X109663411Y-125184010D01*
X109393158Y-125072068D01*
X109106260Y-125015000D01*
X108813740Y-125015000D01*
X108526842Y-125072068D01*
X108256589Y-125184010D01*
X108013368Y-125346525D01*
X107806525Y-125553368D01*
X107690000Y-125727760D01*
X107573475Y-125553368D01*
X107366632Y-125346525D01*
X107123411Y-125184010D01*
X106853158Y-125072068D01*
X106566260Y-125015000D01*
X106273740Y-125015000D01*
X105986842Y-125072068D01*
X105716589Y-125184010D01*
X105473368Y-125346525D01*
X105266525Y-125553368D01*
X105150000Y-125727760D01*
X105033475Y-125553368D01*
X104826632Y-125346525D01*
X104583411Y-125184010D01*
X104313158Y-125072068D01*
X104026260Y-125015000D01*
X103733740Y-125015000D01*
X103446842Y-125072068D01*
X103176589Y-125184010D01*
X102933368Y-125346525D01*
X102726525Y-125553368D01*
X102610000Y-125727760D01*
X102493475Y-125553368D01*
X102286632Y-125346525D01*
X102043411Y-125184010D01*
X101773158Y-125072068D01*
X101486260Y-125015000D01*
X101193740Y-125015000D01*
X100906842Y-125072068D01*
X100636589Y-125184010D01*
X100393368Y-125346525D01*
X100186525Y-125553368D01*
X100070000Y-125727760D01*
X99953475Y-125553368D01*
X99746632Y-125346525D01*
X99503411Y-125184010D01*
X99233158Y-125072068D01*
X98946260Y-125015000D01*
X98653740Y-125015000D01*
X98366842Y-125072068D01*
X98096589Y-125184010D01*
X97853368Y-125346525D01*
X97646525Y-125553368D01*
X97530000Y-125727760D01*
X97413475Y-125553368D01*
X97206632Y-125346525D01*
X96963411Y-125184010D01*
X96693158Y-125072068D01*
X96406260Y-125015000D01*
X96113740Y-125015000D01*
X95826842Y-125072068D01*
X95556589Y-125184010D01*
X95313368Y-125346525D01*
X95106525Y-125553368D01*
X94990000Y-125727760D01*
X94873475Y-125553368D01*
X94666632Y-125346525D01*
X94423411Y-125184010D01*
X94153158Y-125072068D01*
X93866260Y-125015000D01*
X93573740Y-125015000D01*
X93286842Y-125072068D01*
X93016589Y-125184010D01*
X92773368Y-125346525D01*
X92566525Y-125553368D01*
X92450000Y-125727760D01*
X92333475Y-125553368D01*
X92126632Y-125346525D01*
X91883411Y-125184010D01*
X91613158Y-125072068D01*
X91326260Y-125015000D01*
X91033740Y-125015000D01*
X90746842Y-125072068D01*
X90476589Y-125184010D01*
X90233368Y-125346525D01*
X90101513Y-125478380D01*
X90079502Y-125405820D01*
X90020537Y-125295506D01*
X89941185Y-125198815D01*
X89844494Y-125119463D01*
X89734180Y-125060498D01*
X89614482Y-125024188D01*
X89490000Y-125011928D01*
X87790000Y-125011928D01*
X87665518Y-125024188D01*
X87545820Y-125060498D01*
X87435506Y-125119463D01*
X87338815Y-125198815D01*
X87259463Y-125295506D01*
X87200498Y-125405820D01*
X87164188Y-125525518D01*
X87151928Y-125650000D01*
X83660000Y-125650000D01*
X83660000Y-117700000D01*
X86561928Y-117700000D01*
X86561928Y-119300000D01*
X86574188Y-119424482D01*
X86610498Y-119544180D01*
X86669463Y-119654494D01*
X86748815Y-119751185D01*
X86845506Y-119830537D01*
X86955820Y-119889502D01*
X87075518Y-119925812D01*
X87200000Y-119938072D01*
X88800000Y-119938072D01*
X88924482Y-119925812D01*
X89044180Y-119889502D01*
X89154494Y-119830537D01*
X89251185Y-119751185D01*
X89330537Y-119654494D01*
X89389502Y-119544180D01*
X89425812Y-119424482D01*
X89426643Y-119416039D01*
X89625241Y-119614637D01*
X89860273Y-119771680D01*
X90121426Y-119879853D01*
X90398665Y-119935000D01*
X90681335Y-119935000D01*
X90958574Y-119879853D01*
X91219727Y-119771680D01*
X91454759Y-119614637D01*
X91654637Y-119414759D01*
X91810000Y-119182241D01*
X91965363Y-119414759D01*
X92165241Y-119614637D01*
X92400273Y-119771680D01*
X92661426Y-119879853D01*
X92938665Y-119935000D01*
X93221335Y-119935000D01*
X93498574Y-119879853D01*
X93759727Y-119771680D01*
X93994759Y-119614637D01*
X94194637Y-119414759D01*
X94350000Y-119182241D01*
X94505363Y-119414759D01*
X94705241Y-119614637D01*
X94940273Y-119771680D01*
X95201426Y-119879853D01*
X95478665Y-119935000D01*
X95761335Y-119935000D01*
X96038574Y-119879853D01*
X96299727Y-119771680D01*
X96534759Y-119614637D01*
X96734637Y-119414759D01*
X96890000Y-119182241D01*
X97045363Y-119414759D01*
X97245241Y-119614637D01*
X97480273Y-119771680D01*
X97741426Y-119879853D01*
X98018665Y-119935000D01*
X98301335Y-119935000D01*
X98578574Y-119879853D01*
X98839727Y-119771680D01*
X99074759Y-119614637D01*
X99274637Y-119414759D01*
X99430000Y-119182241D01*
X99585363Y-119414759D01*
X99785241Y-119614637D01*
X100020273Y-119771680D01*
X100281426Y-119879853D01*
X100558665Y-119935000D01*
X100841335Y-119935000D01*
X101118574Y-119879853D01*
X101379727Y-119771680D01*
X101614759Y-119614637D01*
X101814637Y-119414759D01*
X101970000Y-119182241D01*
X102125363Y-119414759D01*
X102325241Y-119614637D01*
X102560273Y-119771680D01*
X102821426Y-119879853D01*
X103098665Y-119935000D01*
X103381335Y-119935000D01*
X103658574Y-119879853D01*
X103919727Y-119771680D01*
X104154759Y-119614637D01*
X104354637Y-119414759D01*
X104511680Y-119179727D01*
X104516067Y-119169135D01*
X104627615Y-119355131D01*
X104816586Y-119563519D01*
X105042580Y-119731037D01*
X105296913Y-119851246D01*
X105430961Y-119891904D01*
X105653000Y-119769915D01*
X105653000Y-118627000D01*
X105633000Y-118627000D01*
X105633000Y-118373000D01*
X105653000Y-118373000D01*
X105653000Y-117230085D01*
X105430961Y-117108096D01*
X105296913Y-117148754D01*
X105042580Y-117268963D01*
X104816586Y-117436481D01*
X104627615Y-117644869D01*
X104516067Y-117830865D01*
X104511680Y-117820273D01*
X104354637Y-117585241D01*
X104154759Y-117385363D01*
X103919727Y-117228320D01*
X103658574Y-117120147D01*
X103381335Y-117065000D01*
X103098665Y-117065000D01*
X102821426Y-117120147D01*
X102560273Y-117228320D01*
X102325241Y-117385363D01*
X102125363Y-117585241D01*
X101970000Y-117817759D01*
X101814637Y-117585241D01*
X101614759Y-117385363D01*
X101379727Y-117228320D01*
X101118574Y-117120147D01*
X100841335Y-117065000D01*
X100558665Y-117065000D01*
X100281426Y-117120147D01*
X100020273Y-117228320D01*
X99785241Y-117385363D01*
X99585363Y-117585241D01*
X99430000Y-117817759D01*
X99274637Y-117585241D01*
X99074759Y-117385363D01*
X98839727Y-117228320D01*
X98578574Y-117120147D01*
X98301335Y-117065000D01*
X98018665Y-117065000D01*
X97741426Y-117120147D01*
X97480273Y-117228320D01*
X97245241Y-117385363D01*
X97045363Y-117585241D01*
X96890000Y-117817759D01*
X96734637Y-117585241D01*
X96534759Y-117385363D01*
X96299727Y-117228320D01*
X96038574Y-117120147D01*
X95761335Y-117065000D01*
X95478665Y-117065000D01*
X95201426Y-117120147D01*
X94940273Y-117228320D01*
X94705241Y-117385363D01*
X94505363Y-117585241D01*
X94350000Y-117817759D01*
X94194637Y-117585241D01*
X93994759Y-117385363D01*
X93759727Y-117228320D01*
X93498574Y-117120147D01*
X93221335Y-117065000D01*
X92938665Y-117065000D01*
X92661426Y-117120147D01*
X92400273Y-117228320D01*
X92165241Y-117385363D01*
X91965363Y-117585241D01*
X91810000Y-117817759D01*
X91654637Y-117585241D01*
X91454759Y-117385363D01*
X91219727Y-117228320D01*
X90958574Y-117120147D01*
X90681335Y-117065000D01*
X90398665Y-117065000D01*
X90121426Y-117120147D01*
X89860273Y-117228320D01*
X89625241Y-117385363D01*
X89426643Y-117583961D01*
X89425812Y-117575518D01*
X89389502Y-117455820D01*
X89330537Y-117345506D01*
X89251185Y-117248815D01*
X89154494Y-117169463D01*
X89044180Y-117110498D01*
X88924482Y-117074188D01*
X88865036Y-117068333D01*
X88917205Y-116990256D01*
X88995226Y-116801898D01*
X89035000Y-116601939D01*
X89035000Y-116398061D01*
X88995226Y-116198102D01*
X88917205Y-116009744D01*
X88803937Y-115840226D01*
X88785000Y-115821289D01*
X88785000Y-113678711D01*
X88803937Y-113659774D01*
X88917205Y-113490256D01*
X88995226Y-113301898D01*
X89035000Y-113101939D01*
X89035000Y-112898061D01*
X88995226Y-112698102D01*
X88917205Y-112509744D01*
X88803937Y-112340226D01*
X88659774Y-112196063D01*
X88626405Y-112173767D01*
X88679727Y-112151680D01*
X88914759Y-111994637D01*
X89114637Y-111794759D01*
X89270000Y-111562241D01*
X89425363Y-111794759D01*
X89625241Y-111994637D01*
X89860273Y-112151680D01*
X90121426Y-112259853D01*
X90398665Y-112315000D01*
X90681335Y-112315000D01*
X90958574Y-112259853D01*
X91219727Y-112151680D01*
X91454759Y-111994637D01*
X91654637Y-111794759D01*
X91810000Y-111562241D01*
X91965363Y-111794759D01*
X92165241Y-111994637D01*
X92400273Y-112151680D01*
X92661426Y-112259853D01*
X92938665Y-112315000D01*
X93221335Y-112315000D01*
X93498574Y-112259853D01*
X93759727Y-112151680D01*
X93994759Y-111994637D01*
X94194637Y-111794759D01*
X94350000Y-111562241D01*
X94505363Y-111794759D01*
X94705241Y-111994637D01*
X94940273Y-112151680D01*
X95201426Y-112259853D01*
X95478665Y-112315000D01*
X95761335Y-112315000D01*
X96038574Y-112259853D01*
X96299727Y-112151680D01*
X96534759Y-111994637D01*
X96734637Y-111794759D01*
X96890000Y-111562241D01*
X97045363Y-111794759D01*
X97245241Y-111994637D01*
X97480273Y-112151680D01*
X97741426Y-112259853D01*
X98018665Y-112315000D01*
X98301335Y-112315000D01*
X98578574Y-112259853D01*
X98839727Y-112151680D01*
X99074759Y-111994637D01*
X99274637Y-111794759D01*
X99430000Y-111562241D01*
X99585363Y-111794759D01*
X99785241Y-111994637D01*
X100020273Y-112151680D01*
X100281426Y-112259853D01*
X100558665Y-112315000D01*
X100841335Y-112315000D01*
X101118574Y-112259853D01*
X101379727Y-112151680D01*
X101614759Y-111994637D01*
X101814637Y-111794759D01*
X101971680Y-111559727D01*
X101976067Y-111549135D01*
X102087615Y-111735131D01*
X102276586Y-111943519D01*
X102502580Y-112111037D01*
X102756913Y-112231246D01*
X102890961Y-112271904D01*
X103113000Y-112149915D01*
X103113000Y-111007000D01*
X103093000Y-111007000D01*
X103093000Y-110753000D01*
X103113000Y-110753000D01*
X103113000Y-109610085D01*
X103367000Y-109610085D01*
X103367000Y-110753000D01*
X103387000Y-110753000D01*
X103387000Y-111007000D01*
X103367000Y-111007000D01*
X103367000Y-112149915D01*
X103589039Y-112271904D01*
X103723087Y-112231246D01*
X103977420Y-112111037D01*
X104203414Y-111943519D01*
X104392385Y-111735131D01*
X104503933Y-111549135D01*
X104508320Y-111559727D01*
X104665363Y-111794759D01*
X104865241Y-111994637D01*
X105100273Y-112151680D01*
X105361426Y-112259853D01*
X105638665Y-112315000D01*
X105921335Y-112315000D01*
X106198574Y-112259853D01*
X106459727Y-112151680D01*
X106694759Y-111994637D01*
X106894637Y-111794759D01*
X107050000Y-111562241D01*
X107205363Y-111794759D01*
X107405241Y-111994637D01*
X107640273Y-112151680D01*
X107901426Y-112259853D01*
X108178665Y-112315000D01*
X108461335Y-112315000D01*
X108738574Y-112259853D01*
X108999727Y-112151680D01*
X109234759Y-111994637D01*
X109434637Y-111794759D01*
X109590000Y-111562241D01*
X109745363Y-111794759D01*
X109945241Y-111994637D01*
X110180273Y-112151680D01*
X110441426Y-112259853D01*
X110718665Y-112315000D01*
X111001335Y-112315000D01*
X111278574Y-112259853D01*
X111539727Y-112151680D01*
X111774759Y-111994637D01*
X111974637Y-111794759D01*
X112130000Y-111562241D01*
X112285363Y-111794759D01*
X112485241Y-111994637D01*
X112720273Y-112151680D01*
X112981426Y-112259853D01*
X113258665Y-112315000D01*
X113541335Y-112315000D01*
X113818574Y-112259853D01*
X114079727Y-112151680D01*
X114314759Y-111994637D01*
X114514637Y-111794759D01*
X114670000Y-111562241D01*
X114825363Y-111794759D01*
X115025241Y-111994637D01*
X115260273Y-112151680D01*
X115521426Y-112259853D01*
X115798665Y-112315000D01*
X116081335Y-112315000D01*
X116358574Y-112259853D01*
X116619727Y-112151680D01*
X116854759Y-111994637D01*
X117054637Y-111794759D01*
X117210000Y-111562241D01*
X117365363Y-111794759D01*
X117565241Y-111994637D01*
X117800273Y-112151680D01*
X118061426Y-112259853D01*
X118338665Y-112315000D01*
X118621335Y-112315000D01*
X118898574Y-112259853D01*
X119159727Y-112151680D01*
X119394759Y-111994637D01*
X119594637Y-111794759D01*
X119750000Y-111562241D01*
X119905363Y-111794759D01*
X120105241Y-111994637D01*
X120340273Y-112151680D01*
X120601426Y-112259853D01*
X120878665Y-112315000D01*
X121161335Y-112315000D01*
X121438574Y-112259853D01*
X121699727Y-112151680D01*
X121934759Y-111994637D01*
X122134637Y-111794759D01*
X122213308Y-111677019D01*
X122215001Y-111678712D01*
X122215000Y-114038560D01*
X122215001Y-114038570D01*
X122215000Y-114821289D01*
X122196063Y-114840226D01*
X122082795Y-115009744D01*
X122004774Y-115198102D01*
X121965000Y-115398061D01*
X121965000Y-115601939D01*
X122004774Y-115801898D01*
X122082795Y-115990256D01*
X122196063Y-116159774D01*
X122340226Y-116303937D01*
X122509744Y-116417205D01*
X122698102Y-116495226D01*
X122898061Y-116535000D01*
X123101939Y-116535000D01*
X123301898Y-116495226D01*
X123490256Y-116417205D01*
X123659774Y-116303937D01*
X123803937Y-116159774D01*
X123917205Y-115990256D01*
X123995226Y-115801898D01*
X124035000Y-115601939D01*
X124035000Y-115398061D01*
X123995226Y-115198102D01*
X123917205Y-115009744D01*
X123803937Y-114840226D01*
X123785000Y-114821289D01*
X123785000Y-111678711D01*
X123803937Y-111659774D01*
X123810467Y-111650000D01*
X124011928Y-111650000D01*
X124011928Y-113350000D01*
X124024188Y-113474482D01*
X124060498Y-113594180D01*
X124119463Y-113704494D01*
X124198815Y-113801185D01*
X124295506Y-113880537D01*
X124405820Y-113939502D01*
X124478380Y-113961513D01*
X124346525Y-114093368D01*
X124184010Y-114336589D01*
X124072068Y-114606842D01*
X124015000Y-114893740D01*
X124015000Y-115186260D01*
X124072068Y-115473158D01*
X124184010Y-115743411D01*
X124346525Y-115986632D01*
X124553368Y-116193475D01*
X124727760Y-116310000D01*
X124553368Y-116426525D01*
X124346525Y-116633368D01*
X124184010Y-116876589D01*
X124072068Y-117146842D01*
X124015000Y-117433740D01*
X124015000Y-117726260D01*
X124072068Y-118013158D01*
X124184010Y-118283411D01*
X124346525Y-118526632D01*
X124553368Y-118733475D01*
X124796589Y-118895990D01*
X125066842Y-119007932D01*
X125353740Y-119065000D01*
X125559907Y-119065000D01*
X125504774Y-119198102D01*
X125465000Y-119398061D01*
X125465000Y-119601939D01*
X125504774Y-119801898D01*
X125582795Y-119990256D01*
X125696063Y-120159774D01*
X125840226Y-120303937D01*
X126009744Y-120417205D01*
X126198102Y-120495226D01*
X126398061Y-120535000D01*
X126424843Y-120535000D01*
X128465000Y-122575157D01*
X128465000Y-122601939D01*
X128504774Y-122801898D01*
X128582795Y-122990256D01*
X128696063Y-123159774D01*
X128840226Y-123303937D01*
X129009744Y-123417205D01*
X129198102Y-123495226D01*
X129398061Y-123535000D01*
X129601939Y-123535000D01*
X129801898Y-123495226D01*
X129990256Y-123417205D01*
X130159774Y-123303937D01*
X130303937Y-123159774D01*
X130417205Y-122990256D01*
X130495226Y-122801898D01*
X130535000Y-122601939D01*
X130535000Y-122398061D01*
X130495226Y-122198102D01*
X130417205Y-122009744D01*
X130303937Y-121840226D01*
X130159774Y-121696063D01*
X129990256Y-121582795D01*
X129801898Y-121504774D01*
X129601939Y-121465000D01*
X129575157Y-121465000D01*
X127535000Y-119424843D01*
X127535000Y-119398061D01*
X127495226Y-119198102D01*
X127417205Y-119009744D01*
X127327799Y-118875938D01*
X127408748Y-118924157D01*
X127683109Y-119021481D01*
X127913000Y-118900814D01*
X127913000Y-117707000D01*
X128167000Y-117707000D01*
X128167000Y-118900814D01*
X128396891Y-119021481D01*
X128671252Y-118924157D01*
X128921355Y-118775178D01*
X129137588Y-118580269D01*
X129311641Y-118346920D01*
X129436825Y-118084099D01*
X129481476Y-117936890D01*
X129360155Y-117707000D01*
X128167000Y-117707000D01*
X127913000Y-117707000D01*
X127893000Y-117707000D01*
X127893000Y-117700000D01*
X131061928Y-117700000D01*
X131061928Y-119300000D01*
X131074188Y-119424482D01*
X131110498Y-119544180D01*
X131169463Y-119654494D01*
X131248815Y-119751185D01*
X131345506Y-119830537D01*
X131455820Y-119889502D01*
X131575518Y-119925812D01*
X131700000Y-119938072D01*
X133300000Y-119938072D01*
X133424482Y-119925812D01*
X133544180Y-119889502D01*
X133654494Y-119830537D01*
X133751185Y-119751185D01*
X133830537Y-119654494D01*
X133889502Y-119544180D01*
X133925812Y-119424482D01*
X133926643Y-119416039D01*
X134125241Y-119614637D01*
X134360273Y-119771680D01*
X134621426Y-119879853D01*
X134898665Y-119935000D01*
X135181335Y-119935000D01*
X135458574Y-119879853D01*
X135719727Y-119771680D01*
X135954759Y-119614637D01*
X136154637Y-119414759D01*
X136310000Y-119182241D01*
X136465363Y-119414759D01*
X136665241Y-119614637D01*
X136900273Y-119771680D01*
X137161426Y-119879853D01*
X137438665Y-119935000D01*
X137721335Y-119935000D01*
X137998574Y-119879853D01*
X138259727Y-119771680D01*
X138494759Y-119614637D01*
X138694637Y-119414759D01*
X138851680Y-119179727D01*
X138856067Y-119169135D01*
X138967615Y-119355131D01*
X139156586Y-119563519D01*
X139382580Y-119731037D01*
X139636913Y-119851246D01*
X139770961Y-119891904D01*
X139993000Y-119769915D01*
X139993000Y-118627000D01*
X140247000Y-118627000D01*
X140247000Y-119769915D01*
X140469039Y-119891904D01*
X140603087Y-119851246D01*
X140857420Y-119731037D01*
X141083414Y-119563519D01*
X141272385Y-119355131D01*
X141417070Y-119113881D01*
X141511909Y-118849040D01*
X141390624Y-118627000D01*
X140247000Y-118627000D01*
X139993000Y-118627000D01*
X139973000Y-118627000D01*
X139973000Y-118373000D01*
X139993000Y-118373000D01*
X139993000Y-117230085D01*
X140247000Y-117230085D01*
X140247000Y-118373000D01*
X141390624Y-118373000D01*
X141511909Y-118150960D01*
X141417070Y-117886119D01*
X141272385Y-117644869D01*
X141083414Y-117436481D01*
X140857420Y-117268963D01*
X140603087Y-117148754D01*
X140469039Y-117108096D01*
X140247000Y-117230085D01*
X139993000Y-117230085D01*
X139770961Y-117108096D01*
X139636913Y-117148754D01*
X139382580Y-117268963D01*
X139156586Y-117436481D01*
X138967615Y-117644869D01*
X138856067Y-117830865D01*
X138851680Y-117820273D01*
X138694637Y-117585241D01*
X138494759Y-117385363D01*
X138259727Y-117228320D01*
X137998574Y-117120147D01*
X137721335Y-117065000D01*
X137438665Y-117065000D01*
X137161426Y-117120147D01*
X136900273Y-117228320D01*
X136665241Y-117385363D01*
X136465363Y-117585241D01*
X136310000Y-117817759D01*
X136154637Y-117585241D01*
X135954759Y-117385363D01*
X135719727Y-117228320D01*
X135458574Y-117120147D01*
X135181335Y-117065000D01*
X134898665Y-117065000D01*
X134621426Y-117120147D01*
X134360273Y-117228320D01*
X134125241Y-117385363D01*
X133926643Y-117583961D01*
X133925812Y-117575518D01*
X133889502Y-117455820D01*
X133830537Y-117345506D01*
X133751185Y-117248815D01*
X133654494Y-117169463D01*
X133544180Y-117110498D01*
X133424482Y-117074188D01*
X133300000Y-117061928D01*
X131700000Y-117061928D01*
X131575518Y-117074188D01*
X131455820Y-117110498D01*
X131345506Y-117169463D01*
X131248815Y-117248815D01*
X131169463Y-117345506D01*
X131110498Y-117455820D01*
X131074188Y-117575518D01*
X131061928Y-117700000D01*
X127893000Y-117700000D01*
X127893000Y-117453000D01*
X127913000Y-117453000D01*
X127913000Y-117433000D01*
X128167000Y-117433000D01*
X128167000Y-117453000D01*
X129360155Y-117453000D01*
X129481476Y-117223110D01*
X129436825Y-117075901D01*
X129311641Y-116813080D01*
X129137588Y-116579731D01*
X128921355Y-116384822D01*
X128804466Y-116315195D01*
X128986632Y-116193475D01*
X129193475Y-115986632D01*
X129355990Y-115743411D01*
X129467932Y-115473158D01*
X129525000Y-115186260D01*
X129525000Y-114893740D01*
X129467932Y-114606842D01*
X129355990Y-114336589D01*
X129193475Y-114093368D01*
X128986632Y-113886525D01*
X128812240Y-113770000D01*
X128986632Y-113653475D01*
X129193475Y-113446632D01*
X129355990Y-113203411D01*
X129467932Y-112933158D01*
X129525000Y-112646260D01*
X129525000Y-112353740D01*
X129467932Y-112066842D01*
X129355990Y-111796589D01*
X129193475Y-111553368D01*
X128986632Y-111346525D01*
X128743411Y-111184010D01*
X128473158Y-111072068D01*
X128186260Y-111015000D01*
X127893740Y-111015000D01*
X127606842Y-111072068D01*
X127336589Y-111184010D01*
X127093368Y-111346525D01*
X126961513Y-111478380D01*
X126939502Y-111405820D01*
X126880537Y-111295506D01*
X126801185Y-111198815D01*
X126704494Y-111119463D01*
X126594180Y-111060498D01*
X126474482Y-111024188D01*
X126350000Y-111011928D01*
X124650000Y-111011928D01*
X124525518Y-111024188D01*
X124405820Y-111060498D01*
X124295506Y-111119463D01*
X124198815Y-111198815D01*
X124119463Y-111295506D01*
X124060498Y-111405820D01*
X124024188Y-111525518D01*
X124011928Y-111650000D01*
X123810467Y-111650000D01*
X123917205Y-111490256D01*
X123995226Y-111301898D01*
X124035000Y-111101939D01*
X124035000Y-110898061D01*
X124003295Y-110738665D01*
X131065000Y-110738665D01*
X131065000Y-111021335D01*
X131120147Y-111298574D01*
X131228320Y-111559727D01*
X131385363Y-111794759D01*
X131585241Y-111994637D01*
X131820273Y-112151680D01*
X132081426Y-112259853D01*
X132358665Y-112315000D01*
X132641335Y-112315000D01*
X132918574Y-112259853D01*
X133179727Y-112151680D01*
X133414759Y-111994637D01*
X133614637Y-111794759D01*
X133770000Y-111562241D01*
X133925363Y-111794759D01*
X134125241Y-111994637D01*
X134360273Y-112151680D01*
X134621426Y-112259853D01*
X134898665Y-112315000D01*
X135181335Y-112315000D01*
X135458574Y-112259853D01*
X135719727Y-112151680D01*
X135954759Y-111994637D01*
X136154637Y-111794759D01*
X136310000Y-111562241D01*
X136465363Y-111794759D01*
X136665241Y-111994637D01*
X136900273Y-112151680D01*
X137161426Y-112259853D01*
X137438665Y-112315000D01*
X137721335Y-112315000D01*
X137998574Y-112259853D01*
X138259727Y-112151680D01*
X138494759Y-111994637D01*
X138694637Y-111794759D01*
X138850000Y-111562241D01*
X139005363Y-111794759D01*
X139205241Y-111994637D01*
X139440273Y-112151680D01*
X139701426Y-112259853D01*
X139978665Y-112315000D01*
X140261335Y-112315000D01*
X140538574Y-112259853D01*
X140799727Y-112151680D01*
X141034759Y-111994637D01*
X141215001Y-111814395D01*
X141215000Y-114321289D01*
X141196063Y-114340226D01*
X141082795Y-114509744D01*
X141004774Y-114698102D01*
X140965000Y-114898061D01*
X140965000Y-115101939D01*
X141004774Y-115301898D01*
X141082795Y-115490256D01*
X141196063Y-115659774D01*
X141340226Y-115803937D01*
X141509744Y-115917205D01*
X141698102Y-115995226D01*
X141898061Y-116035000D01*
X142101939Y-116035000D01*
X142301898Y-115995226D01*
X142490256Y-115917205D01*
X142659774Y-115803937D01*
X142803937Y-115659774D01*
X142917205Y-115490256D01*
X142995226Y-115301898D01*
X143016614Y-115194373D01*
X143072068Y-115473158D01*
X143184010Y-115743411D01*
X143346525Y-115986632D01*
X143553368Y-116193475D01*
X143727760Y-116310000D01*
X143553368Y-116426525D01*
X143346525Y-116633368D01*
X143184010Y-116876589D01*
X143072068Y-117146842D01*
X143015000Y-117433740D01*
X143015000Y-117726260D01*
X143072068Y-118013158D01*
X143184010Y-118283411D01*
X143346525Y-118526632D01*
X143553368Y-118733475D01*
X143796589Y-118895990D01*
X144066842Y-119007932D01*
X144353740Y-119065000D01*
X144646260Y-119065000D01*
X144933158Y-119007932D01*
X145203411Y-118895990D01*
X145446632Y-118733475D01*
X145653475Y-118526632D01*
X145771100Y-118350594D01*
X145942412Y-118580269D01*
X146158645Y-118775178D01*
X146408748Y-118924157D01*
X146683109Y-119021481D01*
X146913000Y-118900814D01*
X146913000Y-117707000D01*
X147167000Y-117707000D01*
X147167000Y-118900814D01*
X147396891Y-119021481D01*
X147671252Y-118924157D01*
X147921355Y-118775178D01*
X148137588Y-118580269D01*
X148311641Y-118346920D01*
X148436825Y-118084099D01*
X148481476Y-117936890D01*
X148360155Y-117707000D01*
X147167000Y-117707000D01*
X146913000Y-117707000D01*
X146893000Y-117707000D01*
X146893000Y-117453000D01*
X146913000Y-117453000D01*
X146913000Y-117433000D01*
X147167000Y-117433000D01*
X147167000Y-117453000D01*
X148360155Y-117453000D01*
X148481476Y-117223110D01*
X148436825Y-117075901D01*
X148311641Y-116813080D01*
X148137588Y-116579731D01*
X147921355Y-116384822D01*
X147804466Y-116315195D01*
X147986632Y-116193475D01*
X148193475Y-115986632D01*
X148355990Y-115743411D01*
X148467932Y-115473158D01*
X148525000Y-115186260D01*
X148525000Y-114893740D01*
X148467932Y-114606842D01*
X148355990Y-114336589D01*
X148193475Y-114093368D01*
X147986632Y-113886525D01*
X147812240Y-113770000D01*
X147986632Y-113653475D01*
X148193475Y-113446632D01*
X148355990Y-113203411D01*
X148467932Y-112933158D01*
X148525000Y-112646260D01*
X148525000Y-112353740D01*
X148467932Y-112066842D01*
X148355990Y-111796589D01*
X148193475Y-111553368D01*
X147986632Y-111346525D01*
X147743411Y-111184010D01*
X147473158Y-111072068D01*
X147186260Y-111015000D01*
X146893740Y-111015000D01*
X146606842Y-111072068D01*
X146336589Y-111184010D01*
X146093368Y-111346525D01*
X145961513Y-111478380D01*
X145939502Y-111405820D01*
X145880537Y-111295506D01*
X145801185Y-111198815D01*
X145704494Y-111119463D01*
X145594180Y-111060498D01*
X145474482Y-111024188D01*
X145350000Y-111011928D01*
X143785000Y-111011928D01*
X143785000Y-110678711D01*
X143803937Y-110659774D01*
X143917205Y-110490256D01*
X143995226Y-110301898D01*
X144035000Y-110101939D01*
X144035000Y-109898061D01*
X143995226Y-109698102D01*
X143917205Y-109509744D01*
X143803937Y-109340226D01*
X143659774Y-109196063D01*
X143490256Y-109082795D01*
X143301898Y-109004774D01*
X143101939Y-108965000D01*
X143032402Y-108965000D01*
X143035000Y-108951940D01*
X143035000Y-108748062D01*
X142995226Y-108548103D01*
X142917205Y-108359745D01*
X142803937Y-108190227D01*
X142659774Y-108046064D01*
X142490256Y-107932796D01*
X142301898Y-107854775D01*
X142101939Y-107815001D01*
X141898061Y-107815001D01*
X141698102Y-107854775D01*
X141509744Y-107932796D01*
X141340226Y-108046064D01*
X141196063Y-108190227D01*
X141082795Y-108359745D01*
X141004774Y-108548103D01*
X140965000Y-108748062D01*
X140965000Y-108951940D01*
X141004774Y-109151899D01*
X141082795Y-109340257D01*
X141196063Y-109509775D01*
X141215001Y-109528713D01*
X141215001Y-109945605D01*
X141034759Y-109765363D01*
X140799727Y-109608320D01*
X140538574Y-109500147D01*
X140261335Y-109445000D01*
X139978665Y-109445000D01*
X139701426Y-109500147D01*
X139440273Y-109608320D01*
X139205241Y-109765363D01*
X139005363Y-109965241D01*
X138850000Y-110197759D01*
X138694637Y-109965241D01*
X138494759Y-109765363D01*
X138259727Y-109608320D01*
X137998574Y-109500147D01*
X137721335Y-109445000D01*
X137438665Y-109445000D01*
X137161426Y-109500147D01*
X136900273Y-109608320D01*
X136665241Y-109765363D01*
X136465363Y-109965241D01*
X136310000Y-110197759D01*
X136154637Y-109965241D01*
X135954759Y-109765363D01*
X135719727Y-109608320D01*
X135458574Y-109500147D01*
X135181335Y-109445000D01*
X134898665Y-109445000D01*
X134621426Y-109500147D01*
X134360273Y-109608320D01*
X134125241Y-109765363D01*
X133925363Y-109965241D01*
X133770000Y-110197759D01*
X133614637Y-109965241D01*
X133414759Y-109765363D01*
X133179727Y-109608320D01*
X132918574Y-109500147D01*
X132641335Y-109445000D01*
X132358665Y-109445000D01*
X132081426Y-109500147D01*
X131820273Y-109608320D01*
X131585241Y-109765363D01*
X131385363Y-109965241D01*
X131228320Y-110200273D01*
X131120147Y-110461426D01*
X131065000Y-110738665D01*
X124003295Y-110738665D01*
X123995226Y-110698102D01*
X123917205Y-110509744D01*
X123803937Y-110340226D01*
X123659774Y-110196063D01*
X123490256Y-110082795D01*
X123301898Y-110004774D01*
X123101939Y-109965000D01*
X122898061Y-109965000D01*
X122698102Y-110004774D01*
X122509744Y-110082795D01*
X122340226Y-110196063D01*
X122304666Y-110231623D01*
X122291680Y-110200273D01*
X122134637Y-109965241D01*
X121934759Y-109765363D01*
X121699727Y-109608320D01*
X121438574Y-109500147D01*
X121161335Y-109445000D01*
X120878665Y-109445000D01*
X120601426Y-109500147D01*
X120340273Y-109608320D01*
X120105241Y-109765363D01*
X119905363Y-109965241D01*
X119750000Y-110197759D01*
X119594637Y-109965241D01*
X119394759Y-109765363D01*
X119159727Y-109608320D01*
X118898574Y-109500147D01*
X118621335Y-109445000D01*
X118338665Y-109445000D01*
X118061426Y-109500147D01*
X117800273Y-109608320D01*
X117565241Y-109765363D01*
X117365363Y-109965241D01*
X117210000Y-110197759D01*
X117054637Y-109965241D01*
X116854759Y-109765363D01*
X116619727Y-109608320D01*
X116358574Y-109500147D01*
X116081335Y-109445000D01*
X115798665Y-109445000D01*
X115521426Y-109500147D01*
X115260273Y-109608320D01*
X115025241Y-109765363D01*
X114825363Y-109965241D01*
X114670000Y-110197759D01*
X114514637Y-109965241D01*
X114314759Y-109765363D01*
X114079727Y-109608320D01*
X113818574Y-109500147D01*
X113541335Y-109445000D01*
X113258665Y-109445000D01*
X112981426Y-109500147D01*
X112720273Y-109608320D01*
X112485241Y-109765363D01*
X112285363Y-109965241D01*
X112130000Y-110197759D01*
X111974637Y-109965241D01*
X111774759Y-109765363D01*
X111539727Y-109608320D01*
X111278574Y-109500147D01*
X111001335Y-109445000D01*
X110718665Y-109445000D01*
X110441426Y-109500147D01*
X110180273Y-109608320D01*
X109945241Y-109765363D01*
X109745363Y-109965241D01*
X109590000Y-110197759D01*
X109434637Y-109965241D01*
X109234759Y-109765363D01*
X108999727Y-109608320D01*
X108738574Y-109500147D01*
X108461335Y-109445000D01*
X108178665Y-109445000D01*
X107901426Y-109500147D01*
X107640273Y-109608320D01*
X107405241Y-109765363D01*
X107205363Y-109965241D01*
X107050000Y-110197759D01*
X106894637Y-109965241D01*
X106694759Y-109765363D01*
X106459727Y-109608320D01*
X106198574Y-109500147D01*
X105921335Y-109445000D01*
X105638665Y-109445000D01*
X105361426Y-109500147D01*
X105100273Y-109608320D01*
X104865241Y-109765363D01*
X104665363Y-109965241D01*
X104508320Y-110200273D01*
X104503933Y-110210865D01*
X104392385Y-110024869D01*
X104203414Y-109816481D01*
X103977420Y-109648963D01*
X103723087Y-109528754D01*
X103589039Y-109488096D01*
X103367000Y-109610085D01*
X103113000Y-109610085D01*
X102890961Y-109488096D01*
X102756913Y-109528754D01*
X102502580Y-109648963D01*
X102276586Y-109816481D01*
X102087615Y-110024869D01*
X101976067Y-110210865D01*
X101971680Y-110200273D01*
X101814637Y-109965241D01*
X101614759Y-109765363D01*
X101379727Y-109608320D01*
X101118574Y-109500147D01*
X100841335Y-109445000D01*
X100558665Y-109445000D01*
X100281426Y-109500147D01*
X100020273Y-109608320D01*
X99785241Y-109765363D01*
X99585363Y-109965241D01*
X99430000Y-110197759D01*
X99274637Y-109965241D01*
X99074759Y-109765363D01*
X98839727Y-109608320D01*
X98578574Y-109500147D01*
X98301335Y-109445000D01*
X98018665Y-109445000D01*
X97741426Y-109500147D01*
X97480273Y-109608320D01*
X97245241Y-109765363D01*
X97045363Y-109965241D01*
X96890000Y-110197759D01*
X96734637Y-109965241D01*
X96534759Y-109765363D01*
X96299727Y-109608320D01*
X96038574Y-109500147D01*
X95761335Y-109445000D01*
X95478665Y-109445000D01*
X95201426Y-109500147D01*
X94940273Y-109608320D01*
X94705241Y-109765363D01*
X94505363Y-109965241D01*
X94350000Y-110197759D01*
X94194637Y-109965241D01*
X93994759Y-109765363D01*
X93759727Y-109608320D01*
X93498574Y-109500147D01*
X93221335Y-109445000D01*
X92938665Y-109445000D01*
X92661426Y-109500147D01*
X92400273Y-109608320D01*
X92165241Y-109765363D01*
X91965363Y-109965241D01*
X91810000Y-110197759D01*
X91654637Y-109965241D01*
X91454759Y-109765363D01*
X91219727Y-109608320D01*
X90958574Y-109500147D01*
X90681335Y-109445000D01*
X90398665Y-109445000D01*
X90121426Y-109500147D01*
X89860273Y-109608320D01*
X89625241Y-109765363D01*
X89425363Y-109965241D01*
X89270000Y-110197759D01*
X89114637Y-109965241D01*
X88914759Y-109765363D01*
X88679727Y-109608320D01*
X88418574Y-109500147D01*
X88141335Y-109445000D01*
X87858665Y-109445000D01*
X87581426Y-109500147D01*
X87320273Y-109608320D01*
X87085241Y-109765363D01*
X86885363Y-109965241D01*
X86728320Y-110200273D01*
X86620147Y-110461426D01*
X86565000Y-110738665D01*
X86565000Y-111021335D01*
X86620147Y-111298574D01*
X86728320Y-111559727D01*
X86885363Y-111794759D01*
X87085241Y-111994637D01*
X87320273Y-112151680D01*
X87373595Y-112173767D01*
X87340226Y-112196063D01*
X87196063Y-112340226D01*
X87082795Y-112509744D01*
X87004774Y-112698102D01*
X86965000Y-112898061D01*
X86965000Y-113101939D01*
X87004774Y-113301898D01*
X87082795Y-113490256D01*
X87196063Y-113659774D01*
X87215001Y-113678712D01*
X87215000Y-115821289D01*
X87196063Y-115840226D01*
X87082795Y-116009744D01*
X87004774Y-116198102D01*
X86965000Y-116398061D01*
X86965000Y-116601939D01*
X87004774Y-116801898D01*
X87082795Y-116990256D01*
X87134964Y-117068333D01*
X87075518Y-117074188D01*
X86955820Y-117110498D01*
X86845506Y-117169463D01*
X86748815Y-117248815D01*
X86669463Y-117345506D01*
X86610498Y-117455820D01*
X86574188Y-117575518D01*
X86561928Y-117700000D01*
X83660000Y-117700000D01*
X83660000Y-103353740D01*
X86695000Y-103353740D01*
X86695000Y-103646260D01*
X86752068Y-103933158D01*
X86864010Y-104203411D01*
X87026525Y-104446632D01*
X87233368Y-104653475D01*
X87476589Y-104815990D01*
X87746842Y-104927932D01*
X88033740Y-104985000D01*
X88326260Y-104985000D01*
X88613158Y-104927932D01*
X88883411Y-104815990D01*
X89126632Y-104653475D01*
X89333475Y-104446632D01*
X89450000Y-104272240D01*
X89566525Y-104446632D01*
X89773368Y-104653475D01*
X90016589Y-104815990D01*
X90286842Y-104927932D01*
X90573740Y-104985000D01*
X90866260Y-104985000D01*
X91153158Y-104927932D01*
X91423411Y-104815990D01*
X91666632Y-104653475D01*
X91873475Y-104446632D01*
X91990000Y-104272240D01*
X92106525Y-104446632D01*
X92313368Y-104653475D01*
X92556589Y-104815990D01*
X92826842Y-104927932D01*
X93113740Y-104985000D01*
X93406260Y-104985000D01*
X93693158Y-104927932D01*
X93963411Y-104815990D01*
X94206632Y-104653475D01*
X94413475Y-104446632D01*
X94530000Y-104272240D01*
X94646525Y-104446632D01*
X94853368Y-104653475D01*
X95096589Y-104815990D01*
X95366842Y-104927932D01*
X95653740Y-104985000D01*
X95946260Y-104985000D01*
X96233158Y-104927932D01*
X96503411Y-104815990D01*
X96746632Y-104653475D01*
X96953475Y-104446632D01*
X97070000Y-104272240D01*
X97186525Y-104446632D01*
X97393368Y-104653475D01*
X97636589Y-104815990D01*
X97906842Y-104927932D01*
X98193740Y-104985000D01*
X98486260Y-104985000D01*
X98773158Y-104927932D01*
X99043411Y-104815990D01*
X99286632Y-104653475D01*
X99493475Y-104446632D01*
X99610000Y-104272240D01*
X99726525Y-104446632D01*
X99933368Y-104653475D01*
X100176589Y-104815990D01*
X100446842Y-104927932D01*
X100733740Y-104985000D01*
X101026260Y-104985000D01*
X101313158Y-104927932D01*
X101583411Y-104815990D01*
X101826632Y-104653475D01*
X102033475Y-104446632D01*
X102150000Y-104272240D01*
X102266525Y-104446632D01*
X102473368Y-104653475D01*
X102716589Y-104815990D01*
X102986842Y-104927932D01*
X103273740Y-104985000D01*
X103566260Y-104985000D01*
X103853158Y-104927932D01*
X104123411Y-104815990D01*
X104366632Y-104653475D01*
X104573475Y-104446632D01*
X104690000Y-104272240D01*
X104806525Y-104446632D01*
X105013368Y-104653475D01*
X105256589Y-104815990D01*
X105526842Y-104927932D01*
X105813740Y-104985000D01*
X106106260Y-104985000D01*
X106393158Y-104927932D01*
X106663411Y-104815990D01*
X106906632Y-104653475D01*
X107113475Y-104446632D01*
X107230000Y-104272240D01*
X107346525Y-104446632D01*
X107553368Y-104653475D01*
X107796589Y-104815990D01*
X108066842Y-104927932D01*
X108353740Y-104985000D01*
X108646260Y-104985000D01*
X108933158Y-104927932D01*
X109203411Y-104815990D01*
X109446632Y-104653475D01*
X109653475Y-104446632D01*
X109770000Y-104272240D01*
X109886525Y-104446632D01*
X110093368Y-104653475D01*
X110336589Y-104815990D01*
X110606842Y-104927932D01*
X110893740Y-104985000D01*
X111186260Y-104985000D01*
X111473158Y-104927932D01*
X111743411Y-104815990D01*
X111986632Y-104653475D01*
X112193475Y-104446632D01*
X112310000Y-104272240D01*
X112426525Y-104446632D01*
X112633368Y-104653475D01*
X112876589Y-104815990D01*
X113146842Y-104927932D01*
X113433740Y-104985000D01*
X113726260Y-104985000D01*
X114013158Y-104927932D01*
X114283411Y-104815990D01*
X114526632Y-104653475D01*
X114733475Y-104446632D01*
X114850000Y-104272240D01*
X114966525Y-104446632D01*
X115173368Y-104653475D01*
X115416589Y-104815990D01*
X115686842Y-104927932D01*
X115973740Y-104985000D01*
X116266260Y-104985000D01*
X116553158Y-104927932D01*
X116823411Y-104815990D01*
X117066632Y-104653475D01*
X117273475Y-104446632D01*
X117390000Y-104272240D01*
X117506525Y-104446632D01*
X117713368Y-104653475D01*
X117956589Y-104815990D01*
X118226842Y-104927932D01*
X118513740Y-104985000D01*
X118806260Y-104985000D01*
X119093158Y-104927932D01*
X119363411Y-104815990D01*
X119606632Y-104653475D01*
X119738487Y-104521620D01*
X119760498Y-104594180D01*
X119819463Y-104704494D01*
X119898815Y-104801185D01*
X119995506Y-104880537D01*
X120105820Y-104939502D01*
X120225518Y-104975812D01*
X120350000Y-104988072D01*
X122050000Y-104988072D01*
X122174482Y-104975812D01*
X122294180Y-104939502D01*
X122373898Y-104896891D01*
X131938519Y-104896891D01*
X132035843Y-105171252D01*
X132184822Y-105421355D01*
X132379731Y-105637588D01*
X132613080Y-105811641D01*
X132875901Y-105936825D01*
X133023110Y-105981476D01*
X133253000Y-105860155D01*
X133253000Y-104667000D01*
X133507000Y-104667000D01*
X133507000Y-105860155D01*
X133736890Y-105981476D01*
X133884099Y-105936825D01*
X134146920Y-105811641D01*
X134380269Y-105637588D01*
X134575178Y-105421355D01*
X134650000Y-105295745D01*
X134724822Y-105421355D01*
X134919731Y-105637588D01*
X135153080Y-105811641D01*
X135415901Y-105936825D01*
X135563110Y-105981476D01*
X135793000Y-105860155D01*
X135793000Y-104667000D01*
X136047000Y-104667000D01*
X136047000Y-105860155D01*
X136276890Y-105981476D01*
X136424099Y-105936825D01*
X136686920Y-105811641D01*
X136920269Y-105637588D01*
X137115178Y-105421355D01*
X137190000Y-105295745D01*
X137264822Y-105421355D01*
X137459731Y-105637588D01*
X137693080Y-105811641D01*
X137955901Y-105936825D01*
X138103110Y-105981476D01*
X138333000Y-105860155D01*
X138333000Y-104667000D01*
X138587000Y-104667000D01*
X138587000Y-105860155D01*
X138816890Y-105981476D01*
X138964099Y-105936825D01*
X139226920Y-105811641D01*
X139460269Y-105637588D01*
X139655178Y-105421355D01*
X139730000Y-105295745D01*
X139804822Y-105421355D01*
X139999731Y-105637588D01*
X140233080Y-105811641D01*
X140495901Y-105936825D01*
X140643110Y-105981476D01*
X140873000Y-105860155D01*
X140873000Y-104667000D01*
X141127000Y-104667000D01*
X141127000Y-105860155D01*
X141356890Y-105981476D01*
X141504099Y-105936825D01*
X141766920Y-105811641D01*
X142000269Y-105637588D01*
X142195178Y-105421355D01*
X142270000Y-105295745D01*
X142344822Y-105421355D01*
X142539731Y-105637588D01*
X142773080Y-105811641D01*
X143035901Y-105936825D01*
X143183110Y-105981476D01*
X143413000Y-105860155D01*
X143413000Y-104667000D01*
X143667000Y-104667000D01*
X143667000Y-105860155D01*
X143896890Y-105981476D01*
X144044099Y-105936825D01*
X144306920Y-105811641D01*
X144540269Y-105637588D01*
X144735178Y-105421355D01*
X144810000Y-105295745D01*
X144884822Y-105421355D01*
X145079731Y-105637588D01*
X145313080Y-105811641D01*
X145575901Y-105936825D01*
X145723110Y-105981476D01*
X145953000Y-105860155D01*
X145953000Y-104667000D01*
X146207000Y-104667000D01*
X146207000Y-105860155D01*
X146436890Y-105981476D01*
X146584099Y-105936825D01*
X146846920Y-105811641D01*
X147080269Y-105637588D01*
X147275178Y-105421355D01*
X147350000Y-105295745D01*
X147424822Y-105421355D01*
X147619731Y-105637588D01*
X147853080Y-105811641D01*
X148115901Y-105936825D01*
X148263110Y-105981476D01*
X148493000Y-105860155D01*
X148493000Y-104667000D01*
X148747000Y-104667000D01*
X148747000Y-105860155D01*
X148976890Y-105981476D01*
X149124099Y-105936825D01*
X149386920Y-105811641D01*
X149620269Y-105637588D01*
X149815178Y-105421355D01*
X149964157Y-105171252D01*
X150061481Y-104896891D01*
X149940814Y-104667000D01*
X148747000Y-104667000D01*
X148493000Y-104667000D01*
X146207000Y-104667000D01*
X145953000Y-104667000D01*
X143667000Y-104667000D01*
X143413000Y-104667000D01*
X141127000Y-104667000D01*
X140873000Y-104667000D01*
X138587000Y-104667000D01*
X138333000Y-104667000D01*
X136047000Y-104667000D01*
X135793000Y-104667000D01*
X133507000Y-104667000D01*
X133253000Y-104667000D01*
X132059186Y-104667000D01*
X131938519Y-104896891D01*
X122373898Y-104896891D01*
X122404494Y-104880537D01*
X122501185Y-104801185D01*
X122580537Y-104704494D01*
X122639502Y-104594180D01*
X122675812Y-104474482D01*
X122688072Y-104350000D01*
X122688072Y-102650000D01*
X122675812Y-102525518D01*
X122639502Y-102405820D01*
X122580537Y-102295506D01*
X122501185Y-102198815D01*
X122404494Y-102119463D01*
X122294180Y-102060498D01*
X122174482Y-102024188D01*
X122050000Y-102011928D01*
X120350000Y-102011928D01*
X120225518Y-102024188D01*
X120105820Y-102060498D01*
X119995506Y-102119463D01*
X119898815Y-102198815D01*
X119819463Y-102295506D01*
X119760498Y-102405820D01*
X119738487Y-102478380D01*
X119606632Y-102346525D01*
X119363411Y-102184010D01*
X119093158Y-102072068D01*
X118806260Y-102015000D01*
X118513740Y-102015000D01*
X118226842Y-102072068D01*
X117956589Y-102184010D01*
X117713368Y-102346525D01*
X117506525Y-102553368D01*
X117390000Y-102727760D01*
X117273475Y-102553368D01*
X117066632Y-102346525D01*
X116823411Y-102184010D01*
X116553158Y-102072068D01*
X116266260Y-102015000D01*
X115973740Y-102015000D01*
X115686842Y-102072068D01*
X115416589Y-102184010D01*
X115173368Y-102346525D01*
X114966525Y-102553368D01*
X114850000Y-102727760D01*
X114733475Y-102553368D01*
X114526632Y-102346525D01*
X114283411Y-102184010D01*
X114013158Y-102072068D01*
X113726260Y-102015000D01*
X113433740Y-102015000D01*
X113146842Y-102072068D01*
X112876589Y-102184010D01*
X112633368Y-102346525D01*
X112426525Y-102553368D01*
X112310000Y-102727760D01*
X112193475Y-102553368D01*
X111986632Y-102346525D01*
X111743411Y-102184010D01*
X111473158Y-102072068D01*
X111186260Y-102015000D01*
X110893740Y-102015000D01*
X110606842Y-102072068D01*
X110336589Y-102184010D01*
X110093368Y-102346525D01*
X109886525Y-102553368D01*
X109770000Y-102727760D01*
X109653475Y-102553368D01*
X109446632Y-102346525D01*
X109203411Y-102184010D01*
X108933158Y-102072068D01*
X108646260Y-102015000D01*
X108353740Y-102015000D01*
X108066842Y-102072068D01*
X107796589Y-102184010D01*
X107553368Y-102346525D01*
X107346525Y-102553368D01*
X107230000Y-102727760D01*
X107113475Y-102553368D01*
X106906632Y-102346525D01*
X106663411Y-102184010D01*
X106393158Y-102072068D01*
X106106260Y-102015000D01*
X105813740Y-102015000D01*
X105526842Y-102072068D01*
X105256589Y-102184010D01*
X105013368Y-102346525D01*
X104806525Y-102553368D01*
X104690000Y-102727760D01*
X104573475Y-102553368D01*
X104366632Y-102346525D01*
X104123411Y-102184010D01*
X103853158Y-102072068D01*
X103566260Y-102015000D01*
X103273740Y-102015000D01*
X102986842Y-102072068D01*
X102716589Y-102184010D01*
X102473368Y-102346525D01*
X102266525Y-102553368D01*
X102150000Y-102727760D01*
X102033475Y-102553368D01*
X101826632Y-102346525D01*
X101583411Y-102184010D01*
X101313158Y-102072068D01*
X101026260Y-102015000D01*
X100733740Y-102015000D01*
X100446842Y-102072068D01*
X100176589Y-102184010D01*
X99933368Y-102346525D01*
X99726525Y-102553368D01*
X99610000Y-102727760D01*
X99493475Y-102553368D01*
X99286632Y-102346525D01*
X99043411Y-102184010D01*
X98773158Y-102072068D01*
X98486260Y-102015000D01*
X98193740Y-102015000D01*
X97906842Y-102072068D01*
X97636589Y-102184010D01*
X97393368Y-102346525D01*
X97186525Y-102553368D01*
X97070000Y-102727760D01*
X96953475Y-102553368D01*
X96746632Y-102346525D01*
X96503411Y-102184010D01*
X96233158Y-102072068D01*
X95946260Y-102015000D01*
X95653740Y-102015000D01*
X95366842Y-102072068D01*
X95096589Y-102184010D01*
X94853368Y-102346525D01*
X94646525Y-102553368D01*
X94530000Y-102727760D01*
X94413475Y-102553368D01*
X94206632Y-102346525D01*
X93963411Y-102184010D01*
X93693158Y-102072068D01*
X93406260Y-102015000D01*
X93113740Y-102015000D01*
X92826842Y-102072068D01*
X92556589Y-102184010D01*
X92313368Y-102346525D01*
X92106525Y-102553368D01*
X91990000Y-102727760D01*
X91873475Y-102553368D01*
X91666632Y-102346525D01*
X91423411Y-102184010D01*
X91153158Y-102072068D01*
X90866260Y-102015000D01*
X90573740Y-102015000D01*
X90286842Y-102072068D01*
X90016589Y-102184010D01*
X89773368Y-102346525D01*
X89566525Y-102553368D01*
X89450000Y-102727760D01*
X89333475Y-102553368D01*
X89126632Y-102346525D01*
X88883411Y-102184010D01*
X88613158Y-102072068D01*
X88326260Y-102015000D01*
X88033740Y-102015000D01*
X87746842Y-102072068D01*
X87476589Y-102184010D01*
X87233368Y-102346525D01*
X87026525Y-102553368D01*
X86864010Y-102796589D01*
X86752068Y-103066842D01*
X86695000Y-103353740D01*
X83660000Y-103353740D01*
X83660000Y-101150000D01*
X131891928Y-101150000D01*
X131891928Y-102850000D01*
X131904188Y-102974482D01*
X131940498Y-103094180D01*
X131999463Y-103204494D01*
X132078815Y-103301185D01*
X132175506Y-103380537D01*
X132285820Y-103439502D01*
X132361626Y-103462498D01*
X132184822Y-103658645D01*
X132035843Y-103908748D01*
X131938519Y-104183109D01*
X132059186Y-104413000D01*
X133253000Y-104413000D01*
X133253000Y-104393000D01*
X133507000Y-104393000D01*
X133507000Y-104413000D01*
X135793000Y-104413000D01*
X135793000Y-104393000D01*
X136047000Y-104393000D01*
X136047000Y-104413000D01*
X138333000Y-104413000D01*
X138333000Y-104393000D01*
X138587000Y-104393000D01*
X138587000Y-104413000D01*
X140873000Y-104413000D01*
X140873000Y-104393000D01*
X141127000Y-104393000D01*
X141127000Y-104413000D01*
X143413000Y-104413000D01*
X143413000Y-104393000D01*
X143667000Y-104393000D01*
X143667000Y-104413000D01*
X145953000Y-104413000D01*
X145953000Y-104393000D01*
X146207000Y-104393000D01*
X146207000Y-104413000D01*
X148493000Y-104413000D01*
X148493000Y-104393000D01*
X148747000Y-104393000D01*
X148747000Y-104413000D01*
X149940814Y-104413000D01*
X150061481Y-104183109D01*
X149964157Y-103908748D01*
X149815178Y-103658645D01*
X149620269Y-103442412D01*
X149390594Y-103271100D01*
X149566632Y-103153475D01*
X149773475Y-102946632D01*
X149935990Y-102703411D01*
X150047932Y-102433158D01*
X150105000Y-102146260D01*
X150105000Y-101853740D01*
X150047932Y-101566842D01*
X149935990Y-101296589D01*
X149773475Y-101053368D01*
X149566632Y-100846525D01*
X149323411Y-100684010D01*
X149053158Y-100572068D01*
X148766260Y-100515000D01*
X148473740Y-100515000D01*
X148186842Y-100572068D01*
X147916589Y-100684010D01*
X147673368Y-100846525D01*
X147466525Y-101053368D01*
X147350000Y-101227760D01*
X147233475Y-101053368D01*
X147026632Y-100846525D01*
X146783411Y-100684010D01*
X146513158Y-100572068D01*
X146226260Y-100515000D01*
X145933740Y-100515000D01*
X145646842Y-100572068D01*
X145376589Y-100684010D01*
X145133368Y-100846525D01*
X144926525Y-101053368D01*
X144810000Y-101227760D01*
X144693475Y-101053368D01*
X144486632Y-100846525D01*
X144243411Y-100684010D01*
X143973158Y-100572068D01*
X143686260Y-100515000D01*
X143393740Y-100515000D01*
X143106842Y-100572068D01*
X142836589Y-100684010D01*
X142593368Y-100846525D01*
X142386525Y-101053368D01*
X142270000Y-101227760D01*
X142153475Y-101053368D01*
X141946632Y-100846525D01*
X141703411Y-100684010D01*
X141433158Y-100572068D01*
X141146260Y-100515000D01*
X140853740Y-100515000D01*
X140566842Y-100572068D01*
X140296589Y-100684010D01*
X140053368Y-100846525D01*
X139846525Y-101053368D01*
X139730000Y-101227760D01*
X139613475Y-101053368D01*
X139406632Y-100846525D01*
X139163411Y-100684010D01*
X138893158Y-100572068D01*
X138606260Y-100515000D01*
X138313740Y-100515000D01*
X138026842Y-100572068D01*
X137756589Y-100684010D01*
X137513368Y-100846525D01*
X137306525Y-101053368D01*
X137190000Y-101227760D01*
X137073475Y-101053368D01*
X136866632Y-100846525D01*
X136623411Y-100684010D01*
X136353158Y-100572068D01*
X136066260Y-100515000D01*
X135773740Y-100515000D01*
X135486842Y-100572068D01*
X135216589Y-100684010D01*
X134973368Y-100846525D01*
X134841513Y-100978380D01*
X134819502Y-100905820D01*
X134760537Y-100795506D01*
X134681185Y-100698815D01*
X134584494Y-100619463D01*
X134474180Y-100560498D01*
X134354482Y-100524188D01*
X134230000Y-100511928D01*
X132530000Y-100511928D01*
X132405518Y-100524188D01*
X132285820Y-100560498D01*
X132175506Y-100619463D01*
X132078815Y-100698815D01*
X131999463Y-100795506D01*
X131940498Y-100905820D01*
X131904188Y-101025518D01*
X131891928Y-101150000D01*
X83660000Y-101150000D01*
X83660000Y-99135413D01*
X126544192Y-99135413D01*
X126639956Y-99399814D01*
X126929571Y-99540704D01*
X127241108Y-99622384D01*
X127562595Y-99641718D01*
X127881675Y-99597961D01*
X128186088Y-99492795D01*
X128360044Y-99399814D01*
X128455808Y-99135413D01*
X127500000Y-98179605D01*
X126544192Y-99135413D01*
X83660000Y-99135413D01*
X83660000Y-98062595D01*
X125858282Y-98062595D01*
X125902039Y-98381675D01*
X126007205Y-98686088D01*
X126100186Y-98860044D01*
X126364587Y-98955808D01*
X127320395Y-98000000D01*
X127679605Y-98000000D01*
X128635413Y-98955808D01*
X128899814Y-98860044D01*
X129040704Y-98570429D01*
X129122384Y-98258892D01*
X129141718Y-97937405D01*
X129097961Y-97618325D01*
X128992795Y-97313912D01*
X128899814Y-97139956D01*
X128635413Y-97044192D01*
X127679605Y-98000000D01*
X127320395Y-98000000D01*
X126364587Y-97044192D01*
X126100186Y-97139956D01*
X125959296Y-97429571D01*
X125877616Y-97741108D01*
X125858282Y-98062595D01*
X83660000Y-98062595D01*
X83660000Y-96864587D01*
X126544192Y-96864587D01*
X127500000Y-97820395D01*
X128455808Y-96864587D01*
X128360044Y-96600186D01*
X128070429Y-96459296D01*
X127758892Y-96377616D01*
X127437405Y-96358282D01*
X127118325Y-96402039D01*
X126813912Y-96507205D01*
X126639956Y-96600186D01*
X126544192Y-96864587D01*
X83660000Y-96864587D01*
X83660000Y-93500000D01*
X125861928Y-93500000D01*
X125861928Y-95500000D01*
X125874188Y-95624482D01*
X125910498Y-95744180D01*
X125969463Y-95854494D01*
X126048815Y-95951185D01*
X126145506Y-96030537D01*
X126255820Y-96089502D01*
X126375518Y-96125812D01*
X126500000Y-96138072D01*
X128500000Y-96138072D01*
X128624482Y-96125812D01*
X128744180Y-96089502D01*
X128854494Y-96030537D01*
X128951185Y-95951185D01*
X129030537Y-95854494D01*
X129089502Y-95744180D01*
X129125812Y-95624482D01*
X129138072Y-95500000D01*
X129138072Y-93500000D01*
X129125812Y-93375518D01*
X129089502Y-93255820D01*
X129030537Y-93145506D01*
X128951185Y-93048815D01*
X128854494Y-92969463D01*
X128744180Y-92910498D01*
X128624482Y-92874188D01*
X128500000Y-92861928D01*
X126500000Y-92861928D01*
X126375518Y-92874188D01*
X126255820Y-92910498D01*
X126145506Y-92969463D01*
X126048815Y-93048815D01*
X125969463Y-93145506D01*
X125910498Y-93255820D01*
X125874188Y-93375518D01*
X125861928Y-93500000D01*
X83660000Y-93500000D01*
X83660000Y-91416481D01*
X84763124Y-91416481D01*
X85075308Y-91865177D01*
X85671259Y-92185612D01*
X86318273Y-92383626D01*
X86991484Y-92451610D01*
X87665023Y-92386949D01*
X88313006Y-92192130D01*
X88910530Y-91874639D01*
X88924692Y-91865177D01*
X89236876Y-91416481D01*
X89159362Y-91338967D01*
X98365000Y-91338967D01*
X98365000Y-91661033D01*
X98427832Y-91976912D01*
X98551082Y-92274463D01*
X98730013Y-92542252D01*
X98957748Y-92769987D01*
X99225537Y-92948918D01*
X99523088Y-93072168D01*
X99838967Y-93135000D01*
X100161033Y-93135000D01*
X100476912Y-93072168D01*
X100774463Y-92948918D01*
X101042252Y-92769987D01*
X101269987Y-92542252D01*
X101448918Y-92274463D01*
X101572168Y-91976912D01*
X101635000Y-91661033D01*
X101635000Y-91446890D01*
X137708524Y-91446890D01*
X137753175Y-91594099D01*
X137878359Y-91856920D01*
X138052412Y-92090269D01*
X138268645Y-92285178D01*
X138518748Y-92434157D01*
X138793109Y-92531481D01*
X139023000Y-92410814D01*
X139023000Y-91217000D01*
X139277000Y-91217000D01*
X139277000Y-92410814D01*
X139506891Y-92531481D01*
X139781252Y-92434157D01*
X140031355Y-92285178D01*
X140247588Y-92090269D01*
X140421641Y-91856920D01*
X140546825Y-91594099D01*
X140591476Y-91446890D01*
X140575429Y-91416481D01*
X144763124Y-91416481D01*
X145075308Y-91865177D01*
X145671259Y-92185612D01*
X146318273Y-92383626D01*
X146991484Y-92451610D01*
X147665023Y-92386949D01*
X148313006Y-92192130D01*
X148910530Y-91874639D01*
X148924692Y-91865177D01*
X149236876Y-91416481D01*
X147000000Y-89179605D01*
X144763124Y-91416481D01*
X140575429Y-91416481D01*
X140470155Y-91217000D01*
X139277000Y-91217000D01*
X139023000Y-91217000D01*
X137829845Y-91217000D01*
X137708524Y-91446890D01*
X101635000Y-91446890D01*
X101635000Y-91338967D01*
X101572168Y-91023088D01*
X101448918Y-90725537D01*
X101269987Y-90457748D01*
X101042252Y-90230013D01*
X100774463Y-90051082D01*
X100476912Y-89927832D01*
X100161033Y-89865000D01*
X99838967Y-89865000D01*
X99523088Y-89927832D01*
X99225537Y-90051082D01*
X98957748Y-90230013D01*
X98730013Y-90457748D01*
X98551082Y-90725537D01*
X98427832Y-91023088D01*
X98365000Y-91338967D01*
X89159362Y-91338967D01*
X87000000Y-89179605D01*
X84763124Y-91416481D01*
X83660000Y-91416481D01*
X83660000Y-89821179D01*
X83807870Y-90313006D01*
X84125361Y-90910530D01*
X84134823Y-90924692D01*
X84583519Y-91236876D01*
X86820395Y-89000000D01*
X87179605Y-89000000D01*
X89416481Y-91236876D01*
X89865177Y-90924692D01*
X90185612Y-90328741D01*
X90383626Y-89681727D01*
X90451610Y-89008516D01*
X90386949Y-88334977D01*
X90192130Y-87686994D01*
X89880235Y-87100000D01*
X98358299Y-87100000D01*
X98385040Y-87371507D01*
X98464236Y-87632581D01*
X98592843Y-87873188D01*
X98765919Y-88084081D01*
X98976812Y-88257157D01*
X99217419Y-88385764D01*
X99478493Y-88464960D01*
X99681963Y-88485000D01*
X100318037Y-88485000D01*
X100521507Y-88464960D01*
X100782581Y-88385764D01*
X101023188Y-88257157D01*
X101234081Y-88084081D01*
X101407157Y-87873188D01*
X101535764Y-87632581D01*
X101614960Y-87371507D01*
X101641701Y-87100000D01*
X101614960Y-86828493D01*
X101535764Y-86567419D01*
X101407157Y-86326812D01*
X101234081Y-86115919D01*
X101023188Y-85942843D01*
X100782581Y-85814236D01*
X100521507Y-85735040D01*
X100318037Y-85715000D01*
X99681963Y-85715000D01*
X99478493Y-85735040D01*
X99217419Y-85814236D01*
X98976812Y-85942843D01*
X98765919Y-86115919D01*
X98592843Y-86326812D01*
X98464236Y-86567419D01*
X98385040Y-86828493D01*
X98358299Y-87100000D01*
X89880235Y-87100000D01*
X89874639Y-87089470D01*
X89865177Y-87075308D01*
X89416481Y-86763124D01*
X87179605Y-89000000D01*
X86820395Y-89000000D01*
X84583519Y-86763124D01*
X84134823Y-87075308D01*
X83814388Y-87671259D01*
X83660000Y-88175724D01*
X83660000Y-87032279D01*
X83688625Y-86740341D01*
X83764035Y-86490571D01*
X83886522Y-86260208D01*
X84051422Y-86058020D01*
X84252450Y-85891714D01*
X84481954Y-85767622D01*
X84731195Y-85690469D01*
X85021088Y-85660000D01*
X86178821Y-85660000D01*
X85686994Y-85807870D01*
%TA.AperFunction,Conductor*%
D21*
G36*
X85686994Y-85807870D02*
G01*
X85089470Y-86125361D01*
X85075308Y-86134823D01*
X84763124Y-86583519D01*
X87000000Y-88820395D01*
X89236876Y-86583519D01*
X88924692Y-86134823D01*
X88328741Y-85814388D01*
X87824276Y-85660000D01*
X123868000Y-85660000D01*
X123683517Y-85696696D01*
X123486060Y-85778485D01*
X123308353Y-85897225D01*
X123157225Y-86048353D01*
X123038485Y-86226060D01*
X122956696Y-86423517D01*
X122915000Y-86633137D01*
X122915000Y-86846863D01*
X122956696Y-87056483D01*
X123038485Y-87253940D01*
X123157225Y-87431647D01*
X123308353Y-87582775D01*
X123486060Y-87701515D01*
X123683517Y-87783304D01*
X123893137Y-87825000D01*
X124106863Y-87825000D01*
X124316483Y-87783304D01*
X124513940Y-87701515D01*
X124691647Y-87582775D01*
X124842775Y-87431647D01*
X124961515Y-87253940D01*
X125043304Y-87056483D01*
X125085000Y-86846863D01*
X125085000Y-86633137D01*
X125043304Y-86423517D01*
X124961515Y-86226060D01*
X124842775Y-86048353D01*
X124691647Y-85897225D01*
X124513940Y-85778485D01*
X124316483Y-85696696D01*
X124132000Y-85660000D01*
X126868000Y-85660000D01*
X126683517Y-85696696D01*
X126486060Y-85778485D01*
X126308353Y-85897225D01*
X126157225Y-86048353D01*
X126038485Y-86226060D01*
X125956696Y-86423517D01*
X125915000Y-86633137D01*
X125915000Y-86846863D01*
X125956696Y-87056483D01*
X126038485Y-87253940D01*
X126157225Y-87431647D01*
X126308353Y-87582775D01*
X126486060Y-87701515D01*
X126683517Y-87783304D01*
X126893137Y-87825000D01*
X127106863Y-87825000D01*
X127316483Y-87783304D01*
X127513940Y-87701515D01*
X127516207Y-87700000D01*
X137661928Y-87700000D01*
X137661928Y-89400000D01*
X137674188Y-89524482D01*
X137710498Y-89644180D01*
X137769463Y-89754494D01*
X137848815Y-89851185D01*
X137945506Y-89930537D01*
X138055820Y-89989502D01*
X138136466Y-90013966D01*
X138052412Y-90089731D01*
X137878359Y-90323080D01*
X137753175Y-90585901D01*
X137708524Y-90733110D01*
X137829845Y-90963000D01*
X139023000Y-90963000D01*
X139023000Y-90943000D01*
X139277000Y-90943000D01*
X139277000Y-90963000D01*
X140470155Y-90963000D01*
X140591476Y-90733110D01*
X140546825Y-90585901D01*
X140421641Y-90323080D01*
X140247588Y-90089731D01*
X140163534Y-90013966D01*
X140244180Y-89989502D01*
X140354494Y-89930537D01*
X140451185Y-89851185D01*
X140530537Y-89754494D01*
X140589502Y-89644180D01*
X140625812Y-89524482D01*
X140638072Y-89400000D01*
X140638072Y-88991484D01*
X143548390Y-88991484D01*
X143613051Y-89665023D01*
X143807870Y-90313006D01*
X144125361Y-90910530D01*
X144134823Y-90924692D01*
X144583519Y-91236876D01*
X146820395Y-89000000D01*
X144583519Y-86763124D01*
X144134823Y-87075308D01*
X143814388Y-87671259D01*
X143616374Y-88318273D01*
X143548390Y-88991484D01*
X140638072Y-88991484D01*
X140638072Y-87700000D01*
X140625812Y-87575518D01*
X140589502Y-87455820D01*
X140530537Y-87345506D01*
X140451185Y-87248815D01*
X140354494Y-87169463D01*
X140244180Y-87110498D01*
X140124482Y-87074188D01*
X140000000Y-87061928D01*
X138300000Y-87061928D01*
X138175518Y-87074188D01*
X138055820Y-87110498D01*
X137945506Y-87169463D01*
X137848815Y-87248815D01*
X137769463Y-87345506D01*
X137710498Y-87455820D01*
X137674188Y-87575518D01*
X137661928Y-87700000D01*
X127516207Y-87700000D01*
X127691647Y-87582775D01*
X127842775Y-87431647D01*
X127961515Y-87253940D01*
X128043304Y-87056483D01*
X128085000Y-86846863D01*
X128085000Y-86633137D01*
X128043304Y-86423517D01*
X127961515Y-86226060D01*
X127842775Y-86048353D01*
X127691647Y-85897225D01*
X127513940Y-85778485D01*
X127316483Y-85696696D01*
X127132000Y-85660000D01*
X146178821Y-85660000D01*
X145686994Y-85807870D01*
X145089470Y-86125361D01*
X145075308Y-86134823D01*
X144763124Y-86583519D01*
X147000000Y-88820395D01*
X149236876Y-86583519D01*
X148924692Y-86134823D01*
X148328741Y-85814388D01*
X147824276Y-85660000D01*
X148967721Y-85660000D01*
X149259659Y-85688625D01*
X149509429Y-85764035D01*
X149739792Y-85886522D01*
X149941980Y-86051422D01*
X150108286Y-86252450D01*
X150232378Y-86481954D01*
X150309531Y-86731195D01*
X150340000Y-87021088D01*
X150340000Y-88178821D01*
X150192130Y-87686994D01*
X149874639Y-87089470D01*
X149865177Y-87075308D01*
X149416481Y-86763124D01*
X147179605Y-89000000D01*
X149416481Y-91236876D01*
X149865177Y-90924692D01*
X150185612Y-90328741D01*
X150340000Y-89824275D01*
X150340001Y-133178824D01*
X150192130Y-132686994D01*
X149874639Y-132089470D01*
X149865177Y-132075308D01*
X149416481Y-131763124D01*
X147179605Y-134000000D01*
X149416481Y-136236876D01*
X149865177Y-135924692D01*
X150185612Y-135328741D01*
X150340001Y-134824272D01*
X150340001Y-135967711D01*
X150311375Y-136259660D01*
X150235965Y-136509429D01*
X150113477Y-136739794D01*
X149948579Y-136941979D01*
X149747546Y-137108288D01*
X149518046Y-137232378D01*
X149268805Y-137309531D01*
X148978911Y-137340000D01*
X147821179Y-137340000D01*
X148313006Y-137192130D01*
X148910530Y-136874639D01*
X148924692Y-136865177D01*
X149236876Y-136416481D01*
X147000000Y-134179605D01*
X144763124Y-136416481D01*
X145075308Y-136865177D01*
X145671259Y-137185612D01*
X146175724Y-137340000D01*
X87821179Y-137340000D01*
X88313006Y-137192130D01*
X88910530Y-136874639D01*
X88924692Y-136865177D01*
X89236876Y-136416481D01*
X87000000Y-134179605D01*
X84763124Y-136416481D01*
X85075308Y-136865177D01*
X85671259Y-137185612D01*
X86175724Y-137340000D01*
X85032279Y-137340000D01*
X84740340Y-137311375D01*
X84490571Y-137235965D01*
X84260206Y-137113477D01*
X84058021Y-136948579D01*
X83891712Y-136747546D01*
X83767622Y-136518046D01*
X83690469Y-136268805D01*
X83660000Y-135978911D01*
X83660000Y-134821179D01*
X83807870Y-135313006D01*
X84125361Y-135910530D01*
X84134823Y-135924692D01*
X84583519Y-136236876D01*
X86820395Y-134000000D01*
X87179605Y-134000000D01*
X89416481Y-136236876D01*
X89865177Y-135924692D01*
X90185612Y-135328741D01*
X90383626Y-134681727D01*
X90451610Y-134008516D01*
X90449975Y-133991484D01*
X143548390Y-133991484D01*
X143613051Y-134665023D01*
X143807870Y-135313006D01*
X144125361Y-135910530D01*
X144134823Y-135924692D01*
X144583519Y-136236876D01*
X146820395Y-134000000D01*
X144583519Y-131763124D01*
X144134823Y-132075308D01*
X143814388Y-132671259D01*
X143616374Y-133318273D01*
X143548390Y-133991484D01*
X90449975Y-133991484D01*
X90386949Y-133334977D01*
X90192130Y-132686994D01*
X89874639Y-132089470D01*
X89865177Y-132075308D01*
X89416481Y-131763124D01*
X87179605Y-134000000D01*
X86820395Y-134000000D01*
X84583519Y-131763124D01*
X84134823Y-132075308D01*
X83814388Y-132671259D01*
X83660000Y-133175724D01*
X83660000Y-131583519D01*
X84763124Y-131583519D01*
X87000000Y-133820395D01*
X89236876Y-131583519D01*
X144763124Y-131583519D01*
X147000000Y-133820395D01*
X149236876Y-131583519D01*
X148924692Y-131134823D01*
X148328741Y-130814388D01*
X147681727Y-130616374D01*
X147008516Y-130548390D01*
X146334977Y-130613051D01*
X145686994Y-130807870D01*
X145089470Y-131125361D01*
X145075308Y-131134823D01*
X144763124Y-131583519D01*
X89236876Y-131583519D01*
X88924692Y-131134823D01*
X88328741Y-130814388D01*
X87681727Y-130616374D01*
X87008516Y-130548390D01*
X86334977Y-130613051D01*
X85686994Y-130807870D01*
X85089470Y-131125361D01*
X85075308Y-131134823D01*
X84763124Y-131583519D01*
X83660000Y-131583519D01*
X83660000Y-125650000D01*
X87151928Y-125650000D01*
X87151928Y-127350000D01*
X87164188Y-127474482D01*
X87200498Y-127594180D01*
X87259463Y-127704494D01*
X87338815Y-127801185D01*
X87435506Y-127880537D01*
X87545820Y-127939502D01*
X87665518Y-127975812D01*
X87790000Y-127988072D01*
X89490000Y-127988072D01*
X89614482Y-127975812D01*
X89734180Y-127939502D01*
X89844494Y-127880537D01*
X89941185Y-127801185D01*
X90020537Y-127704494D01*
X90079502Y-127594180D01*
X90101513Y-127521620D01*
X90233368Y-127653475D01*
X90476589Y-127815990D01*
X90746842Y-127927932D01*
X91033740Y-127985000D01*
X91326260Y-127985000D01*
X91613158Y-127927932D01*
X91883411Y-127815990D01*
X92126632Y-127653475D01*
X92333475Y-127446632D01*
X92450000Y-127272240D01*
X92566525Y-127446632D01*
X92773368Y-127653475D01*
X93016589Y-127815990D01*
X93286842Y-127927932D01*
X93573740Y-127985000D01*
X93866260Y-127985000D01*
X94153158Y-127927932D01*
X94423411Y-127815990D01*
X94666632Y-127653475D01*
X94873475Y-127446632D01*
X94990000Y-127272240D01*
X95106525Y-127446632D01*
X95313368Y-127653475D01*
X95556589Y-127815990D01*
X95826842Y-127927932D01*
X96113740Y-127985000D01*
X96406260Y-127985000D01*
X96693158Y-127927932D01*
X96963411Y-127815990D01*
X97206632Y-127653475D01*
X97413475Y-127446632D01*
X97530000Y-127272240D01*
X97646525Y-127446632D01*
X97853368Y-127653475D01*
X98096589Y-127815990D01*
X98366842Y-127927932D01*
X98653740Y-127985000D01*
X98946260Y-127985000D01*
X99233158Y-127927932D01*
X99503411Y-127815990D01*
X99746632Y-127653475D01*
X99953475Y-127446632D01*
X100070000Y-127272240D01*
X100186525Y-127446632D01*
X100393368Y-127653475D01*
X100636589Y-127815990D01*
X100906842Y-127927932D01*
X101193740Y-127985000D01*
X101486260Y-127985000D01*
X101773158Y-127927932D01*
X102043411Y-127815990D01*
X102286632Y-127653475D01*
X102493475Y-127446632D01*
X102610000Y-127272240D01*
X102726525Y-127446632D01*
X102933368Y-127653475D01*
X103176589Y-127815990D01*
X103446842Y-127927932D01*
X103733740Y-127985000D01*
X104026260Y-127985000D01*
X104313158Y-127927932D01*
X104583411Y-127815990D01*
X104826632Y-127653475D01*
X105033475Y-127446632D01*
X105150000Y-127272240D01*
X105266525Y-127446632D01*
X105473368Y-127653475D01*
X105716589Y-127815990D01*
X105986842Y-127927932D01*
X106273740Y-127985000D01*
X106566260Y-127985000D01*
X106853158Y-127927932D01*
X107123411Y-127815990D01*
X107366632Y-127653475D01*
X107573475Y-127446632D01*
X107690000Y-127272240D01*
X107806525Y-127446632D01*
X108013368Y-127653475D01*
X108256589Y-127815990D01*
X108526842Y-127927932D01*
X108813740Y-127985000D01*
X109106260Y-127985000D01*
X109393158Y-127927932D01*
X109663411Y-127815990D01*
X109906632Y-127653475D01*
X110113475Y-127446632D01*
X110230000Y-127272240D01*
X110346525Y-127446632D01*
X110553368Y-127653475D01*
X110796589Y-127815990D01*
X111066842Y-127927932D01*
X111353740Y-127985000D01*
X111646260Y-127985000D01*
X111933158Y-127927932D01*
X112203411Y-127815990D01*
X112446632Y-127653475D01*
X112653475Y-127446632D01*
X112770000Y-127272240D01*
X112886525Y-127446632D01*
X113093368Y-127653475D01*
X113336589Y-127815990D01*
X113606842Y-127927932D01*
X113893740Y-127985000D01*
X114186260Y-127985000D01*
X114473158Y-127927932D01*
X114743411Y-127815990D01*
X114986632Y-127653475D01*
X115193475Y-127446632D01*
X115310000Y-127272240D01*
X115426525Y-127446632D01*
X115633368Y-127653475D01*
X115876589Y-127815990D01*
X116146842Y-127927932D01*
X116433740Y-127985000D01*
X116726260Y-127985000D01*
X117013158Y-127927932D01*
X117283411Y-127815990D01*
X117526632Y-127653475D01*
X117733475Y-127446632D01*
X117895990Y-127203411D01*
X118007932Y-126933158D01*
X118065000Y-126646260D01*
X118065000Y-126353740D01*
X118007932Y-126066842D01*
X117895990Y-125796589D01*
X117888246Y-125785000D01*
X123321289Y-125785000D01*
X123340226Y-125803937D01*
X123509744Y-125917205D01*
X123698102Y-125995226D01*
X123898061Y-126035000D01*
X124101939Y-126035000D01*
X124301898Y-125995226D01*
X124467815Y-125926500D01*
X124617114Y-126075799D01*
X124843957Y-126227371D01*
X125096011Y-126331775D01*
X125363589Y-126385000D01*
X125636411Y-126385000D01*
X125903989Y-126331775D01*
X126156043Y-126227371D01*
X126382886Y-126075799D01*
X126575799Y-125882886D01*
X126727371Y-125656043D01*
X126831775Y-125403989D01*
X126885000Y-125136411D01*
X126885000Y-124995158D01*
X126965000Y-125075158D01*
X126965000Y-125101939D01*
X127004774Y-125301898D01*
X127082795Y-125490256D01*
X127196063Y-125659774D01*
X127340226Y-125803937D01*
X127509744Y-125917205D01*
X127698102Y-125995226D01*
X127898061Y-126035000D01*
X128101939Y-126035000D01*
X128301898Y-125995226D01*
X128490256Y-125917205D01*
X128659774Y-125803937D01*
X128803937Y-125659774D01*
X128917205Y-125490256D01*
X128995226Y-125301898D01*
X129021572Y-125169449D01*
X129068225Y-125403989D01*
X129172629Y-125656043D01*
X129324201Y-125882886D01*
X129517114Y-126075799D01*
X129743957Y-126227371D01*
X129996011Y-126331775D01*
X130263589Y-126385000D01*
X130536411Y-126385000D01*
X130803989Y-126331775D01*
X131056043Y-126227371D01*
X131282886Y-126075799D01*
X131475799Y-125882886D01*
X131627371Y-125656043D01*
X131731775Y-125403989D01*
X131785000Y-125136411D01*
X131785000Y-124863589D01*
X131731775Y-124596011D01*
X131627371Y-124343957D01*
X131475799Y-124117114D01*
X131282886Y-123924201D01*
X131056043Y-123772629D01*
X130803989Y-123668225D01*
X130536411Y-123615000D01*
X130263589Y-123615000D01*
X129996011Y-123668225D01*
X129743957Y-123772629D01*
X129517114Y-123924201D01*
X129324201Y-124117114D01*
X129172629Y-124343957D01*
X129068225Y-124596011D01*
X129021572Y-124830551D01*
X128995226Y-124698102D01*
X128917205Y-124509744D01*
X128803937Y-124340226D01*
X128659774Y-124196063D01*
X128490256Y-124082795D01*
X128301898Y-124004774D01*
X128101939Y-123965000D01*
X128075158Y-123965000D01*
X127082347Y-122972190D01*
X127057764Y-122942236D01*
X126938233Y-122844138D01*
X126801860Y-122771246D01*
X126653887Y-122726359D01*
X126538561Y-122715000D01*
X126538553Y-122715000D01*
X126500000Y-122711203D01*
X126461447Y-122715000D01*
X114325158Y-122715000D01*
X111704669Y-120094512D01*
X111704669Y-120067730D01*
X111664895Y-119867771D01*
X111606588Y-119727005D01*
X111774759Y-119614637D01*
X111974637Y-119414759D01*
X112130000Y-119182241D01*
X112285363Y-119414759D01*
X112485241Y-119614637D01*
X112720273Y-119771680D01*
X112981426Y-119879853D01*
X113258665Y-119935000D01*
X113541335Y-119935000D01*
X113818574Y-119879853D01*
X114079727Y-119771680D01*
X114314759Y-119614637D01*
X114514637Y-119414759D01*
X114670000Y-119182241D01*
X114825363Y-119414759D01*
X115025241Y-119614637D01*
X115260273Y-119771680D01*
X115521426Y-119879853D01*
X115798665Y-119935000D01*
X116081335Y-119935000D01*
X116358574Y-119879853D01*
X116619727Y-119771680D01*
X116854759Y-119614637D01*
X117054637Y-119414759D01*
X117210000Y-119182241D01*
X117365363Y-119414759D01*
X117565241Y-119614637D01*
X117800273Y-119771680D01*
X118061426Y-119879853D01*
X118338665Y-119935000D01*
X118621335Y-119935000D01*
X118898574Y-119879853D01*
X119159727Y-119771680D01*
X119394759Y-119614637D01*
X119594637Y-119414759D01*
X119750000Y-119182241D01*
X119905363Y-119414759D01*
X120105241Y-119614637D01*
X120340273Y-119771680D01*
X120601426Y-119879853D01*
X120878665Y-119935000D01*
X121161335Y-119935000D01*
X121438574Y-119879853D01*
X121699727Y-119771680D01*
X121934759Y-119614637D01*
X122134637Y-119414759D01*
X122291680Y-119179727D01*
X122399853Y-118918574D01*
X122455000Y-118641335D01*
X122455000Y-118358665D01*
X122399853Y-118081426D01*
X122291680Y-117820273D01*
X122134637Y-117585241D01*
X121934759Y-117385363D01*
X121699727Y-117228320D01*
X121438574Y-117120147D01*
X121161335Y-117065000D01*
X120878665Y-117065000D01*
X120601426Y-117120147D01*
X120340273Y-117228320D01*
X120105241Y-117385363D01*
X119905363Y-117585241D01*
X119750000Y-117817759D01*
X119594637Y-117585241D01*
X119394759Y-117385363D01*
X119159727Y-117228320D01*
X118898574Y-117120147D01*
X118621335Y-117065000D01*
X118338665Y-117065000D01*
X118061426Y-117120147D01*
X117800273Y-117228320D01*
X117565241Y-117385363D01*
X117365363Y-117585241D01*
X117210000Y-117817759D01*
X117054637Y-117585241D01*
X116854759Y-117385363D01*
X116619727Y-117228320D01*
X116358574Y-117120147D01*
X116081335Y-117065000D01*
X115798665Y-117065000D01*
X115521426Y-117120147D01*
X115260273Y-117228320D01*
X115025241Y-117385363D01*
X114825363Y-117585241D01*
X114670000Y-117817759D01*
X114514637Y-117585241D01*
X114314759Y-117385363D01*
X114079727Y-117228320D01*
X113818574Y-117120147D01*
X113541335Y-117065000D01*
X113258665Y-117065000D01*
X112981426Y-117120147D01*
X112720273Y-117228320D01*
X112485241Y-117385363D01*
X112285363Y-117585241D01*
X112130000Y-117817759D01*
X111974637Y-117585241D01*
X111774759Y-117385363D01*
X111539727Y-117228320D01*
X111278574Y-117120147D01*
X111001335Y-117065000D01*
X110718665Y-117065000D01*
X110441426Y-117120147D01*
X110180273Y-117228320D01*
X109945241Y-117385363D01*
X109745363Y-117585241D01*
X109590000Y-117817759D01*
X109434637Y-117585241D01*
X109234759Y-117385363D01*
X108999727Y-117228320D01*
X108738574Y-117120147D01*
X108461335Y-117065000D01*
X108178665Y-117065000D01*
X107901426Y-117120147D01*
X107640273Y-117228320D01*
X107405241Y-117385363D01*
X107205363Y-117585241D01*
X107048320Y-117820273D01*
X107043933Y-117830865D01*
X106932385Y-117644869D01*
X106743414Y-117436481D01*
X106517420Y-117268963D01*
X106263087Y-117148754D01*
X106129039Y-117108096D01*
X105907000Y-117230085D01*
X105907000Y-118373000D01*
X105927000Y-118373000D01*
X105927000Y-118627000D01*
X105907000Y-118627000D01*
X105907000Y-119769915D01*
X106129039Y-119891904D01*
X106263087Y-119851246D01*
X106517420Y-119731037D01*
X106743414Y-119563519D01*
X106932385Y-119355131D01*
X107043933Y-119169135D01*
X107048320Y-119179727D01*
X107205363Y-119414759D01*
X107405241Y-119614637D01*
X107640273Y-119771680D01*
X107901426Y-119879853D01*
X108138125Y-119926936D01*
X108082795Y-120009744D01*
X108004774Y-120198102D01*
X107965000Y-120398061D01*
X107965000Y-120601939D01*
X108004774Y-120801898D01*
X108082795Y-120990256D01*
X108196063Y-121159774D01*
X108340226Y-121303937D01*
X108509744Y-121417205D01*
X108698102Y-121495226D01*
X108898061Y-121535000D01*
X108924843Y-121535000D01*
X112914868Y-125525025D01*
X112886525Y-125553368D01*
X112770000Y-125727760D01*
X112653475Y-125553368D01*
X112446632Y-125346525D01*
X112203411Y-125184010D01*
X111933158Y-125072068D01*
X111646260Y-125015000D01*
X111353740Y-125015000D01*
X111066842Y-125072068D01*
X110796589Y-125184010D01*
X110553368Y-125346525D01*
X110346525Y-125553368D01*
X110230000Y-125727760D01*
X110113475Y-125553368D01*
X109906632Y-125346525D01*
X109663411Y-125184010D01*
X109393158Y-125072068D01*
X109106260Y-125015000D01*
X108813740Y-125015000D01*
X108526842Y-125072068D01*
X108256589Y-125184010D01*
X108013368Y-125346525D01*
X107806525Y-125553368D01*
X107690000Y-125727760D01*
X107573475Y-125553368D01*
X107366632Y-125346525D01*
X107123411Y-125184010D01*
X106853158Y-125072068D01*
X106566260Y-125015000D01*
X106273740Y-125015000D01*
X105986842Y-125072068D01*
X105716589Y-125184010D01*
X105473368Y-125346525D01*
X105266525Y-125553368D01*
X105150000Y-125727760D01*
X105033475Y-125553368D01*
X104826632Y-125346525D01*
X104583411Y-125184010D01*
X104313158Y-125072068D01*
X104026260Y-125015000D01*
X103733740Y-125015000D01*
X103446842Y-125072068D01*
X103176589Y-125184010D01*
X102933368Y-125346525D01*
X102726525Y-125553368D01*
X102610000Y-125727760D01*
X102493475Y-125553368D01*
X102286632Y-125346525D01*
X102043411Y-125184010D01*
X101773158Y-125072068D01*
X101486260Y-125015000D01*
X101193740Y-125015000D01*
X100906842Y-125072068D01*
X100636589Y-125184010D01*
X100393368Y-125346525D01*
X100186525Y-125553368D01*
X100070000Y-125727760D01*
X99953475Y-125553368D01*
X99746632Y-125346525D01*
X99503411Y-125184010D01*
X99233158Y-125072068D01*
X98946260Y-125015000D01*
X98653740Y-125015000D01*
X98366842Y-125072068D01*
X98096589Y-125184010D01*
X97853368Y-125346525D01*
X97646525Y-125553368D01*
X97530000Y-125727760D01*
X97413475Y-125553368D01*
X97206632Y-125346525D01*
X96963411Y-125184010D01*
X96693158Y-125072068D01*
X96406260Y-125015000D01*
X96113740Y-125015000D01*
X95826842Y-125072068D01*
X95556589Y-125184010D01*
X95313368Y-125346525D01*
X95106525Y-125553368D01*
X94990000Y-125727760D01*
X94873475Y-125553368D01*
X94666632Y-125346525D01*
X94423411Y-125184010D01*
X94153158Y-125072068D01*
X93866260Y-125015000D01*
X93573740Y-125015000D01*
X93286842Y-125072068D01*
X93016589Y-125184010D01*
X92773368Y-125346525D01*
X92566525Y-125553368D01*
X92450000Y-125727760D01*
X92333475Y-125553368D01*
X92126632Y-125346525D01*
X91883411Y-125184010D01*
X91613158Y-125072068D01*
X91326260Y-125015000D01*
X91033740Y-125015000D01*
X90746842Y-125072068D01*
X90476589Y-125184010D01*
X90233368Y-125346525D01*
X90101513Y-125478380D01*
X90079502Y-125405820D01*
X90020537Y-125295506D01*
X89941185Y-125198815D01*
X89844494Y-125119463D01*
X89734180Y-125060498D01*
X89614482Y-125024188D01*
X89490000Y-125011928D01*
X87790000Y-125011928D01*
X87665518Y-125024188D01*
X87545820Y-125060498D01*
X87435506Y-125119463D01*
X87338815Y-125198815D01*
X87259463Y-125295506D01*
X87200498Y-125405820D01*
X87164188Y-125525518D01*
X87151928Y-125650000D01*
X83660000Y-125650000D01*
X83660000Y-117700000D01*
X86561928Y-117700000D01*
X86561928Y-119300000D01*
X86574188Y-119424482D01*
X86610498Y-119544180D01*
X86669463Y-119654494D01*
X86748815Y-119751185D01*
X86845506Y-119830537D01*
X86955820Y-119889502D01*
X87075518Y-119925812D01*
X87200000Y-119938072D01*
X88800000Y-119938072D01*
X88924482Y-119925812D01*
X89044180Y-119889502D01*
X89154494Y-119830537D01*
X89251185Y-119751185D01*
X89330537Y-119654494D01*
X89389502Y-119544180D01*
X89425812Y-119424482D01*
X89426643Y-119416039D01*
X89625241Y-119614637D01*
X89860273Y-119771680D01*
X90121426Y-119879853D01*
X90398665Y-119935000D01*
X90681335Y-119935000D01*
X90958574Y-119879853D01*
X91219727Y-119771680D01*
X91454759Y-119614637D01*
X91654637Y-119414759D01*
X91810000Y-119182241D01*
X91965363Y-119414759D01*
X92165241Y-119614637D01*
X92400273Y-119771680D01*
X92661426Y-119879853D01*
X92938665Y-119935000D01*
X93221335Y-119935000D01*
X93498574Y-119879853D01*
X93759727Y-119771680D01*
X93994759Y-119614637D01*
X94194637Y-119414759D01*
X94350000Y-119182241D01*
X94505363Y-119414759D01*
X94705241Y-119614637D01*
X94940273Y-119771680D01*
X95201426Y-119879853D01*
X95478665Y-119935000D01*
X95761335Y-119935000D01*
X96038574Y-119879853D01*
X96299727Y-119771680D01*
X96534759Y-119614637D01*
X96734637Y-119414759D01*
X96890000Y-119182241D01*
X97045363Y-119414759D01*
X97245241Y-119614637D01*
X97480273Y-119771680D01*
X97741426Y-119879853D01*
X98018665Y-119935000D01*
X98301335Y-119935000D01*
X98578574Y-119879853D01*
X98839727Y-119771680D01*
X99074759Y-119614637D01*
X99274637Y-119414759D01*
X99430000Y-119182241D01*
X99585363Y-119414759D01*
X99785241Y-119614637D01*
X100020273Y-119771680D01*
X100281426Y-119879853D01*
X100558665Y-119935000D01*
X100841335Y-119935000D01*
X101118574Y-119879853D01*
X101379727Y-119771680D01*
X101614759Y-119614637D01*
X101814637Y-119414759D01*
X101970000Y-119182241D01*
X102125363Y-119414759D01*
X102325241Y-119614637D01*
X102560273Y-119771680D01*
X102821426Y-119879853D01*
X103098665Y-119935000D01*
X103381335Y-119935000D01*
X103658574Y-119879853D01*
X103919727Y-119771680D01*
X104154759Y-119614637D01*
X104354637Y-119414759D01*
X104511680Y-119179727D01*
X104516067Y-119169135D01*
X104627615Y-119355131D01*
X104816586Y-119563519D01*
X105042580Y-119731037D01*
X105296913Y-119851246D01*
X105430961Y-119891904D01*
X105653000Y-119769915D01*
X105653000Y-118627000D01*
X105633000Y-118627000D01*
X105633000Y-118373000D01*
X105653000Y-118373000D01*
X105653000Y-117230085D01*
X105430961Y-117108096D01*
X105296913Y-117148754D01*
X105042580Y-117268963D01*
X104816586Y-117436481D01*
X104627615Y-117644869D01*
X104516067Y-117830865D01*
X104511680Y-117820273D01*
X104354637Y-117585241D01*
X104154759Y-117385363D01*
X103919727Y-117228320D01*
X103658574Y-117120147D01*
X103381335Y-117065000D01*
X103098665Y-117065000D01*
X102821426Y-117120147D01*
X102560273Y-117228320D01*
X102325241Y-117385363D01*
X102125363Y-117585241D01*
X101970000Y-117817759D01*
X101814637Y-117585241D01*
X101614759Y-117385363D01*
X101379727Y-117228320D01*
X101118574Y-117120147D01*
X100841335Y-117065000D01*
X100558665Y-117065000D01*
X100281426Y-117120147D01*
X100020273Y-117228320D01*
X99785241Y-117385363D01*
X99585363Y-117585241D01*
X99430000Y-117817759D01*
X99274637Y-117585241D01*
X99074759Y-117385363D01*
X98839727Y-117228320D01*
X98578574Y-117120147D01*
X98301335Y-117065000D01*
X98018665Y-117065000D01*
X97741426Y-117120147D01*
X97480273Y-117228320D01*
X97245241Y-117385363D01*
X97045363Y-117585241D01*
X96890000Y-117817759D01*
X96734637Y-117585241D01*
X96534759Y-117385363D01*
X96299727Y-117228320D01*
X96038574Y-117120147D01*
X95761335Y-117065000D01*
X95478665Y-117065000D01*
X95201426Y-117120147D01*
X94940273Y-117228320D01*
X94705241Y-117385363D01*
X94505363Y-117585241D01*
X94350000Y-117817759D01*
X94194637Y-117585241D01*
X93994759Y-117385363D01*
X93759727Y-117228320D01*
X93498574Y-117120147D01*
X93221335Y-117065000D01*
X92938665Y-117065000D01*
X92661426Y-117120147D01*
X92400273Y-117228320D01*
X92165241Y-117385363D01*
X91965363Y-117585241D01*
X91810000Y-117817759D01*
X91654637Y-117585241D01*
X91454759Y-117385363D01*
X91219727Y-117228320D01*
X90958574Y-117120147D01*
X90681335Y-117065000D01*
X90398665Y-117065000D01*
X90121426Y-117120147D01*
X89860273Y-117228320D01*
X89625241Y-117385363D01*
X89426643Y-117583961D01*
X89425812Y-117575518D01*
X89389502Y-117455820D01*
X89330537Y-117345506D01*
X89251185Y-117248815D01*
X89154494Y-117169463D01*
X89044180Y-117110498D01*
X88924482Y-117074188D01*
X88865036Y-117068333D01*
X88917205Y-116990256D01*
X88995226Y-116801898D01*
X89035000Y-116601939D01*
X89035000Y-116398061D01*
X88995226Y-116198102D01*
X88917205Y-116009744D01*
X88803937Y-115840226D01*
X88785000Y-115821289D01*
X88785000Y-113678711D01*
X88803937Y-113659774D01*
X88917205Y-113490256D01*
X88995226Y-113301898D01*
X89035000Y-113101939D01*
X89035000Y-112898061D01*
X88995226Y-112698102D01*
X88917205Y-112509744D01*
X88803937Y-112340226D01*
X88659774Y-112196063D01*
X88626405Y-112173767D01*
X88679727Y-112151680D01*
X88914759Y-111994637D01*
X89114637Y-111794759D01*
X89270000Y-111562241D01*
X89425363Y-111794759D01*
X89625241Y-111994637D01*
X89860273Y-112151680D01*
X90121426Y-112259853D01*
X90398665Y-112315000D01*
X90681335Y-112315000D01*
X90958574Y-112259853D01*
X91219727Y-112151680D01*
X91454759Y-111994637D01*
X91654637Y-111794759D01*
X91810000Y-111562241D01*
X91965363Y-111794759D01*
X92165241Y-111994637D01*
X92400273Y-112151680D01*
X92661426Y-112259853D01*
X92938665Y-112315000D01*
X93221335Y-112315000D01*
X93498574Y-112259853D01*
X93759727Y-112151680D01*
X93994759Y-111994637D01*
X94194637Y-111794759D01*
X94350000Y-111562241D01*
X94505363Y-111794759D01*
X94705241Y-111994637D01*
X94940273Y-112151680D01*
X95201426Y-112259853D01*
X95478665Y-112315000D01*
X95761335Y-112315000D01*
X96038574Y-112259853D01*
X96299727Y-112151680D01*
X96534759Y-111994637D01*
X96734637Y-111794759D01*
X96890000Y-111562241D01*
X97045363Y-111794759D01*
X97245241Y-111994637D01*
X97480273Y-112151680D01*
X97741426Y-112259853D01*
X98018665Y-112315000D01*
X98301335Y-112315000D01*
X98578574Y-112259853D01*
X98839727Y-112151680D01*
X99074759Y-111994637D01*
X99274637Y-111794759D01*
X99430000Y-111562241D01*
X99585363Y-111794759D01*
X99785241Y-111994637D01*
X100020273Y-112151680D01*
X100281426Y-112259853D01*
X100558665Y-112315000D01*
X100841335Y-112315000D01*
X101118574Y-112259853D01*
X101379727Y-112151680D01*
X101614759Y-111994637D01*
X101814637Y-111794759D01*
X101971680Y-111559727D01*
X101976067Y-111549135D01*
X102087615Y-111735131D01*
X102276586Y-111943519D01*
X102502580Y-112111037D01*
X102756913Y-112231246D01*
X102890961Y-112271904D01*
X103113000Y-112149915D01*
X103113000Y-111007000D01*
X103093000Y-111007000D01*
X103093000Y-110753000D01*
X103113000Y-110753000D01*
X103113000Y-109610085D01*
X103367000Y-109610085D01*
X103367000Y-110753000D01*
X103387000Y-110753000D01*
X103387000Y-111007000D01*
X103367000Y-111007000D01*
X103367000Y-112149915D01*
X103589039Y-112271904D01*
X103723087Y-112231246D01*
X103977420Y-112111037D01*
X104203414Y-111943519D01*
X104392385Y-111735131D01*
X104503933Y-111549135D01*
X104508320Y-111559727D01*
X104665363Y-111794759D01*
X104865241Y-111994637D01*
X105100273Y-112151680D01*
X105361426Y-112259853D01*
X105638665Y-112315000D01*
X105921335Y-112315000D01*
X106198574Y-112259853D01*
X106459727Y-112151680D01*
X106694759Y-111994637D01*
X106894637Y-111794759D01*
X107050000Y-111562241D01*
X107205363Y-111794759D01*
X107405241Y-111994637D01*
X107640273Y-112151680D01*
X107901426Y-112259853D01*
X108178665Y-112315000D01*
X108461335Y-112315000D01*
X108738574Y-112259853D01*
X108999727Y-112151680D01*
X109234759Y-111994637D01*
X109434637Y-111794759D01*
X109590000Y-111562241D01*
X109745363Y-111794759D01*
X109945241Y-111994637D01*
X110180273Y-112151680D01*
X110441426Y-112259853D01*
X110718665Y-112315000D01*
X111001335Y-112315000D01*
X111278574Y-112259853D01*
X111539727Y-112151680D01*
X111774759Y-111994637D01*
X111974637Y-111794759D01*
X112130000Y-111562241D01*
X112285363Y-111794759D01*
X112485241Y-111994637D01*
X112720273Y-112151680D01*
X112981426Y-112259853D01*
X113258665Y-112315000D01*
X113541335Y-112315000D01*
X113818574Y-112259853D01*
X114079727Y-112151680D01*
X114314759Y-111994637D01*
X114514637Y-111794759D01*
X114670000Y-111562241D01*
X114825363Y-111794759D01*
X115025241Y-111994637D01*
X115260273Y-112151680D01*
X115521426Y-112259853D01*
X115798665Y-112315000D01*
X116081335Y-112315000D01*
X116358574Y-112259853D01*
X116619727Y-112151680D01*
X116854759Y-111994637D01*
X117054637Y-111794759D01*
X117210000Y-111562241D01*
X117365363Y-111794759D01*
X117565241Y-111994637D01*
X117800273Y-112151680D01*
X118061426Y-112259853D01*
X118338665Y-112315000D01*
X118621335Y-112315000D01*
X118898574Y-112259853D01*
X119159727Y-112151680D01*
X119394759Y-111994637D01*
X119594637Y-111794759D01*
X119750000Y-111562241D01*
X119905363Y-111794759D01*
X120105241Y-111994637D01*
X120340273Y-112151680D01*
X120601426Y-112259853D01*
X120878665Y-112315000D01*
X121161335Y-112315000D01*
X121438574Y-112259853D01*
X121699727Y-112151680D01*
X121934759Y-111994637D01*
X122134637Y-111794759D01*
X122213308Y-111677019D01*
X122215001Y-111678712D01*
X122215000Y-114038560D01*
X122215001Y-114038570D01*
X122215000Y-114821289D01*
X122196063Y-114840226D01*
X122082795Y-115009744D01*
X122004774Y-115198102D01*
X121965000Y-115398061D01*
X121965000Y-115601939D01*
X122004774Y-115801898D01*
X122082795Y-115990256D01*
X122196063Y-116159774D01*
X122340226Y-116303937D01*
X122509744Y-116417205D01*
X122698102Y-116495226D01*
X122898061Y-116535000D01*
X123101939Y-116535000D01*
X123301898Y-116495226D01*
X123490256Y-116417205D01*
X123659774Y-116303937D01*
X123803937Y-116159774D01*
X123917205Y-115990256D01*
X123995226Y-115801898D01*
X124035000Y-115601939D01*
X124035000Y-115398061D01*
X123995226Y-115198102D01*
X123917205Y-115009744D01*
X123803937Y-114840226D01*
X123785000Y-114821289D01*
X123785000Y-111678711D01*
X123803937Y-111659774D01*
X123810467Y-111650000D01*
X124011928Y-111650000D01*
X124011928Y-113350000D01*
X124024188Y-113474482D01*
X124060498Y-113594180D01*
X124119463Y-113704494D01*
X124198815Y-113801185D01*
X124295506Y-113880537D01*
X124405820Y-113939502D01*
X124478380Y-113961513D01*
X124346525Y-114093368D01*
X124184010Y-114336589D01*
X124072068Y-114606842D01*
X124015000Y-114893740D01*
X124015000Y-115186260D01*
X124072068Y-115473158D01*
X124184010Y-115743411D01*
X124346525Y-115986632D01*
X124553368Y-116193475D01*
X124727760Y-116310000D01*
X124553368Y-116426525D01*
X124346525Y-116633368D01*
X124184010Y-116876589D01*
X124072068Y-117146842D01*
X124015000Y-117433740D01*
X124015000Y-117726260D01*
X124072068Y-118013158D01*
X124184010Y-118283411D01*
X124346525Y-118526632D01*
X124553368Y-118733475D01*
X124796589Y-118895990D01*
X125066842Y-119007932D01*
X125353740Y-119065000D01*
X125559907Y-119065000D01*
X125504774Y-119198102D01*
X125465000Y-119398061D01*
X125465000Y-119601939D01*
X125504774Y-119801898D01*
X125582795Y-119990256D01*
X125696063Y-120159774D01*
X125840226Y-120303937D01*
X126009744Y-120417205D01*
X126198102Y-120495226D01*
X126398061Y-120535000D01*
X126424843Y-120535000D01*
X128465000Y-122575157D01*
X128465000Y-122601939D01*
X128504774Y-122801898D01*
X128582795Y-122990256D01*
X128696063Y-123159774D01*
X128840226Y-123303937D01*
X129009744Y-123417205D01*
X129198102Y-123495226D01*
X129398061Y-123535000D01*
X129601939Y-123535000D01*
X129801898Y-123495226D01*
X129990256Y-123417205D01*
X130159774Y-123303937D01*
X130303937Y-123159774D01*
X130417205Y-122990256D01*
X130495226Y-122801898D01*
X130535000Y-122601939D01*
X130535000Y-122398061D01*
X130495226Y-122198102D01*
X130417205Y-122009744D01*
X130303937Y-121840226D01*
X130159774Y-121696063D01*
X129990256Y-121582795D01*
X129801898Y-121504774D01*
X129601939Y-121465000D01*
X129575157Y-121465000D01*
X127535000Y-119424843D01*
X127535000Y-119398061D01*
X127495226Y-119198102D01*
X127417205Y-119009744D01*
X127327799Y-118875938D01*
X127408748Y-118924157D01*
X127683109Y-119021481D01*
X127913000Y-118900814D01*
X127913000Y-117707000D01*
X128167000Y-117707000D01*
X128167000Y-118900814D01*
X128396891Y-119021481D01*
X128671252Y-118924157D01*
X128921355Y-118775178D01*
X129137588Y-118580269D01*
X129311641Y-118346920D01*
X129436825Y-118084099D01*
X129481476Y-117936890D01*
X129360155Y-117707000D01*
X128167000Y-117707000D01*
X127913000Y-117707000D01*
X127893000Y-117707000D01*
X127893000Y-117700000D01*
X131061928Y-117700000D01*
X131061928Y-119300000D01*
X131074188Y-119424482D01*
X131110498Y-119544180D01*
X131169463Y-119654494D01*
X131248815Y-119751185D01*
X131345506Y-119830537D01*
X131455820Y-119889502D01*
X131575518Y-119925812D01*
X131700000Y-119938072D01*
X133300000Y-119938072D01*
X133424482Y-119925812D01*
X133544180Y-119889502D01*
X133654494Y-119830537D01*
X133751185Y-119751185D01*
X133830537Y-119654494D01*
X133889502Y-119544180D01*
X133925812Y-119424482D01*
X133926643Y-119416039D01*
X134125241Y-119614637D01*
X134360273Y-119771680D01*
X134621426Y-119879853D01*
X134898665Y-119935000D01*
X135181335Y-119935000D01*
X135458574Y-119879853D01*
X135719727Y-119771680D01*
X135954759Y-119614637D01*
X136154637Y-119414759D01*
X136310000Y-119182241D01*
X136465363Y-119414759D01*
X136665241Y-119614637D01*
X136900273Y-119771680D01*
X137161426Y-119879853D01*
X137438665Y-119935000D01*
X137721335Y-119935000D01*
X137998574Y-119879853D01*
X138259727Y-119771680D01*
X138494759Y-119614637D01*
X138694637Y-119414759D01*
X138851680Y-119179727D01*
X138856067Y-119169135D01*
X138967615Y-119355131D01*
X139156586Y-119563519D01*
X139382580Y-119731037D01*
X139636913Y-119851246D01*
X139770961Y-119891904D01*
X139993000Y-119769915D01*
X139993000Y-118627000D01*
X140247000Y-118627000D01*
X140247000Y-119769915D01*
X140469039Y-119891904D01*
X140603087Y-119851246D01*
X140857420Y-119731037D01*
X141083414Y-119563519D01*
X141272385Y-119355131D01*
X141417070Y-119113881D01*
X141511909Y-118849040D01*
X141390624Y-118627000D01*
X140247000Y-118627000D01*
X139993000Y-118627000D01*
X139973000Y-118627000D01*
X139973000Y-118373000D01*
X139993000Y-118373000D01*
X139993000Y-117230085D01*
X140247000Y-117230085D01*
X140247000Y-118373000D01*
X141390624Y-118373000D01*
X141511909Y-118150960D01*
X141417070Y-117886119D01*
X141272385Y-117644869D01*
X141083414Y-117436481D01*
X140857420Y-117268963D01*
X140603087Y-117148754D01*
X140469039Y-117108096D01*
X140247000Y-117230085D01*
X139993000Y-117230085D01*
X139770961Y-117108096D01*
X139636913Y-117148754D01*
X139382580Y-117268963D01*
X139156586Y-117436481D01*
X138967615Y-117644869D01*
X138856067Y-117830865D01*
X138851680Y-117820273D01*
X138694637Y-117585241D01*
X138494759Y-117385363D01*
X138259727Y-117228320D01*
X137998574Y-117120147D01*
X137721335Y-117065000D01*
X137438665Y-117065000D01*
X137161426Y-117120147D01*
X136900273Y-117228320D01*
X136665241Y-117385363D01*
X136465363Y-117585241D01*
X136310000Y-117817759D01*
X136154637Y-117585241D01*
X135954759Y-117385363D01*
X135719727Y-117228320D01*
X135458574Y-117120147D01*
X135181335Y-117065000D01*
X134898665Y-117065000D01*
X134621426Y-117120147D01*
X134360273Y-117228320D01*
X134125241Y-117385363D01*
X133926643Y-117583961D01*
X133925812Y-117575518D01*
X133889502Y-117455820D01*
X133830537Y-117345506D01*
X133751185Y-117248815D01*
X133654494Y-117169463D01*
X133544180Y-117110498D01*
X133424482Y-117074188D01*
X133300000Y-117061928D01*
X131700000Y-117061928D01*
X131575518Y-117074188D01*
X131455820Y-117110498D01*
X131345506Y-117169463D01*
X131248815Y-117248815D01*
X131169463Y-117345506D01*
X131110498Y-117455820D01*
X131074188Y-117575518D01*
X131061928Y-117700000D01*
X127893000Y-117700000D01*
X127893000Y-117453000D01*
X127913000Y-117453000D01*
X127913000Y-117433000D01*
X128167000Y-117433000D01*
X128167000Y-117453000D01*
X129360155Y-117453000D01*
X129481476Y-117223110D01*
X129436825Y-117075901D01*
X129311641Y-116813080D01*
X129137588Y-116579731D01*
X128921355Y-116384822D01*
X128804466Y-116315195D01*
X128986632Y-116193475D01*
X129193475Y-115986632D01*
X129355990Y-115743411D01*
X129467932Y-115473158D01*
X129525000Y-115186260D01*
X129525000Y-114893740D01*
X129467932Y-114606842D01*
X129355990Y-114336589D01*
X129193475Y-114093368D01*
X128986632Y-113886525D01*
X128812240Y-113770000D01*
X128986632Y-113653475D01*
X129193475Y-113446632D01*
X129355990Y-113203411D01*
X129467932Y-112933158D01*
X129525000Y-112646260D01*
X129525000Y-112353740D01*
X129467932Y-112066842D01*
X129355990Y-111796589D01*
X129193475Y-111553368D01*
X128986632Y-111346525D01*
X128743411Y-111184010D01*
X128473158Y-111072068D01*
X128186260Y-111015000D01*
X127893740Y-111015000D01*
X127606842Y-111072068D01*
X127336589Y-111184010D01*
X127093368Y-111346525D01*
X126961513Y-111478380D01*
X126939502Y-111405820D01*
X126880537Y-111295506D01*
X126801185Y-111198815D01*
X126704494Y-111119463D01*
X126594180Y-111060498D01*
X126474482Y-111024188D01*
X126350000Y-111011928D01*
X124650000Y-111011928D01*
X124525518Y-111024188D01*
X124405820Y-111060498D01*
X124295506Y-111119463D01*
X124198815Y-111198815D01*
X124119463Y-111295506D01*
X124060498Y-111405820D01*
X124024188Y-111525518D01*
X124011928Y-111650000D01*
X123810467Y-111650000D01*
X123917205Y-111490256D01*
X123995226Y-111301898D01*
X124035000Y-111101939D01*
X124035000Y-110898061D01*
X124003295Y-110738665D01*
X131065000Y-110738665D01*
X131065000Y-111021335D01*
X131120147Y-111298574D01*
X131228320Y-111559727D01*
X131385363Y-111794759D01*
X131585241Y-111994637D01*
X131820273Y-112151680D01*
X132081426Y-112259853D01*
X132358665Y-112315000D01*
X132641335Y-112315000D01*
X132918574Y-112259853D01*
X133179727Y-112151680D01*
X133414759Y-111994637D01*
X133614637Y-111794759D01*
X133770000Y-111562241D01*
X133925363Y-111794759D01*
X134125241Y-111994637D01*
X134360273Y-112151680D01*
X134621426Y-112259853D01*
X134898665Y-112315000D01*
X135181335Y-112315000D01*
X135458574Y-112259853D01*
X135719727Y-112151680D01*
X135954759Y-111994637D01*
X136154637Y-111794759D01*
X136310000Y-111562241D01*
X136465363Y-111794759D01*
X136665241Y-111994637D01*
X136900273Y-112151680D01*
X137161426Y-112259853D01*
X137438665Y-112315000D01*
X137721335Y-112315000D01*
X137998574Y-112259853D01*
X138259727Y-112151680D01*
X138494759Y-111994637D01*
X138694637Y-111794759D01*
X138850000Y-111562241D01*
X139005363Y-111794759D01*
X139205241Y-111994637D01*
X139440273Y-112151680D01*
X139701426Y-112259853D01*
X139978665Y-112315000D01*
X140261335Y-112315000D01*
X140538574Y-112259853D01*
X140799727Y-112151680D01*
X141034759Y-111994637D01*
X141215001Y-111814395D01*
X141215000Y-114321289D01*
X141196063Y-114340226D01*
X141082795Y-114509744D01*
X141004774Y-114698102D01*
X140965000Y-114898061D01*
X140965000Y-115101939D01*
X141004774Y-115301898D01*
X141082795Y-115490256D01*
X141196063Y-115659774D01*
X141340226Y-115803937D01*
X141509744Y-115917205D01*
X141698102Y-115995226D01*
X141898061Y-116035000D01*
X142101939Y-116035000D01*
X142301898Y-115995226D01*
X142490256Y-115917205D01*
X142659774Y-115803937D01*
X142803937Y-115659774D01*
X142917205Y-115490256D01*
X142995226Y-115301898D01*
X143016614Y-115194373D01*
X143072068Y-115473158D01*
X143184010Y-115743411D01*
X143346525Y-115986632D01*
X143553368Y-116193475D01*
X143727760Y-116310000D01*
X143553368Y-116426525D01*
X143346525Y-116633368D01*
X143184010Y-116876589D01*
X143072068Y-117146842D01*
X143015000Y-117433740D01*
X143015000Y-117726260D01*
X143072068Y-118013158D01*
X143184010Y-118283411D01*
X143346525Y-118526632D01*
X143553368Y-118733475D01*
X143796589Y-118895990D01*
X144066842Y-119007932D01*
X144353740Y-119065000D01*
X144646260Y-119065000D01*
X144933158Y-119007932D01*
X145203411Y-118895990D01*
X145446632Y-118733475D01*
X145653475Y-118526632D01*
X145771100Y-118350594D01*
X145942412Y-118580269D01*
X146158645Y-118775178D01*
X146408748Y-118924157D01*
X146683109Y-119021481D01*
X146913000Y-118900814D01*
X146913000Y-117707000D01*
X147167000Y-117707000D01*
X147167000Y-118900814D01*
X147396891Y-119021481D01*
X147671252Y-118924157D01*
X147921355Y-118775178D01*
X148137588Y-118580269D01*
X148311641Y-118346920D01*
X148436825Y-118084099D01*
X148481476Y-117936890D01*
X148360155Y-117707000D01*
X147167000Y-117707000D01*
X146913000Y-117707000D01*
X146893000Y-117707000D01*
X146893000Y-117453000D01*
X146913000Y-117453000D01*
X146913000Y-117433000D01*
X147167000Y-117433000D01*
X147167000Y-117453000D01*
X148360155Y-117453000D01*
X148481476Y-117223110D01*
X148436825Y-117075901D01*
X148311641Y-116813080D01*
X148137588Y-116579731D01*
X147921355Y-116384822D01*
X147804466Y-116315195D01*
X147986632Y-116193475D01*
X148193475Y-115986632D01*
X148355990Y-115743411D01*
X148467932Y-115473158D01*
X148525000Y-115186260D01*
X148525000Y-114893740D01*
X148467932Y-114606842D01*
X148355990Y-114336589D01*
X148193475Y-114093368D01*
X147986632Y-113886525D01*
X147812240Y-113770000D01*
X147986632Y-113653475D01*
X148193475Y-113446632D01*
X148355990Y-113203411D01*
X148467932Y-112933158D01*
X148525000Y-112646260D01*
X148525000Y-112353740D01*
X148467932Y-112066842D01*
X148355990Y-111796589D01*
X148193475Y-111553368D01*
X147986632Y-111346525D01*
X147743411Y-111184010D01*
X147473158Y-111072068D01*
X147186260Y-111015000D01*
X146893740Y-111015000D01*
X146606842Y-111072068D01*
X146336589Y-111184010D01*
X146093368Y-111346525D01*
X145961513Y-111478380D01*
X145939502Y-111405820D01*
X145880537Y-111295506D01*
X145801185Y-111198815D01*
X145704494Y-111119463D01*
X145594180Y-111060498D01*
X145474482Y-111024188D01*
X145350000Y-111011928D01*
X143785000Y-111011928D01*
X143785000Y-110678711D01*
X143803937Y-110659774D01*
X143917205Y-110490256D01*
X143995226Y-110301898D01*
X144035000Y-110101939D01*
X144035000Y-109898061D01*
X143995226Y-109698102D01*
X143917205Y-109509744D01*
X143803937Y-109340226D01*
X143659774Y-109196063D01*
X143490256Y-109082795D01*
X143301898Y-109004774D01*
X143101939Y-108965000D01*
X143032402Y-108965000D01*
X143035000Y-108951940D01*
X143035000Y-108748062D01*
X142995226Y-108548103D01*
X142917205Y-108359745D01*
X142803937Y-108190227D01*
X142659774Y-108046064D01*
X142490256Y-107932796D01*
X142301898Y-107854775D01*
X142101939Y-107815001D01*
X141898061Y-107815001D01*
X141698102Y-107854775D01*
X141509744Y-107932796D01*
X141340226Y-108046064D01*
X141196063Y-108190227D01*
X141082795Y-108359745D01*
X141004774Y-108548103D01*
X140965000Y-108748062D01*
X140965000Y-108951940D01*
X141004774Y-109151899D01*
X141082795Y-109340257D01*
X141196063Y-109509775D01*
X141215001Y-109528713D01*
X141215001Y-109945605D01*
X141034759Y-109765363D01*
X140799727Y-109608320D01*
X140538574Y-109500147D01*
X140261335Y-109445000D01*
X139978665Y-109445000D01*
X139701426Y-109500147D01*
X139440273Y-109608320D01*
X139205241Y-109765363D01*
X139005363Y-109965241D01*
X138850000Y-110197759D01*
X138694637Y-109965241D01*
X138494759Y-109765363D01*
X138259727Y-109608320D01*
X137998574Y-109500147D01*
X137721335Y-109445000D01*
X137438665Y-109445000D01*
X137161426Y-109500147D01*
X136900273Y-109608320D01*
X136665241Y-109765363D01*
X136465363Y-109965241D01*
X136310000Y-110197759D01*
X136154637Y-109965241D01*
X135954759Y-109765363D01*
X135719727Y-109608320D01*
X135458574Y-109500147D01*
X135181335Y-109445000D01*
X134898665Y-109445000D01*
X134621426Y-109500147D01*
X134360273Y-109608320D01*
X134125241Y-109765363D01*
X133925363Y-109965241D01*
X133770000Y-110197759D01*
X133614637Y-109965241D01*
X133414759Y-109765363D01*
X133179727Y-109608320D01*
X132918574Y-109500147D01*
X132641335Y-109445000D01*
X132358665Y-109445000D01*
X132081426Y-109500147D01*
X131820273Y-109608320D01*
X131585241Y-109765363D01*
X131385363Y-109965241D01*
X131228320Y-110200273D01*
X131120147Y-110461426D01*
X131065000Y-110738665D01*
X124003295Y-110738665D01*
X123995226Y-110698102D01*
X123917205Y-110509744D01*
X123803937Y-110340226D01*
X123659774Y-110196063D01*
X123490256Y-110082795D01*
X123301898Y-110004774D01*
X123101939Y-109965000D01*
X122898061Y-109965000D01*
X122698102Y-110004774D01*
X122509744Y-110082795D01*
X122340226Y-110196063D01*
X122304666Y-110231623D01*
X122291680Y-110200273D01*
X122134637Y-109965241D01*
X121934759Y-109765363D01*
X121699727Y-109608320D01*
X121438574Y-109500147D01*
X121161335Y-109445000D01*
X120878665Y-109445000D01*
X120601426Y-109500147D01*
X120340273Y-109608320D01*
X120105241Y-109765363D01*
X119905363Y-109965241D01*
X119750000Y-110197759D01*
X119594637Y-109965241D01*
X119394759Y-109765363D01*
X119159727Y-109608320D01*
X118898574Y-109500147D01*
X118621335Y-109445000D01*
X118338665Y-109445000D01*
X118061426Y-109500147D01*
X117800273Y-109608320D01*
X117565241Y-109765363D01*
X117365363Y-109965241D01*
X117210000Y-110197759D01*
X117054637Y-109965241D01*
X116854759Y-109765363D01*
X116619727Y-109608320D01*
X116358574Y-109500147D01*
X116081335Y-109445000D01*
X115798665Y-109445000D01*
X115521426Y-109500147D01*
X115260273Y-109608320D01*
X115025241Y-109765363D01*
X114825363Y-109965241D01*
X114670000Y-110197759D01*
X114514637Y-109965241D01*
X114314759Y-109765363D01*
X114079727Y-109608320D01*
X113818574Y-109500147D01*
X113541335Y-109445000D01*
X113258665Y-109445000D01*
X112981426Y-109500147D01*
X112720273Y-109608320D01*
X112485241Y-109765363D01*
X112285363Y-109965241D01*
X112130000Y-110197759D01*
X111974637Y-109965241D01*
X111774759Y-109765363D01*
X111539727Y-109608320D01*
X111278574Y-109500147D01*
X111001335Y-109445000D01*
X110718665Y-109445000D01*
X110441426Y-109500147D01*
X110180273Y-109608320D01*
X109945241Y-109765363D01*
X109745363Y-109965241D01*
X109590000Y-110197759D01*
X109434637Y-109965241D01*
X109234759Y-109765363D01*
X108999727Y-109608320D01*
X108738574Y-109500147D01*
X108461335Y-109445000D01*
X108178665Y-109445000D01*
X107901426Y-109500147D01*
X107640273Y-109608320D01*
X107405241Y-109765363D01*
X107205363Y-109965241D01*
X107050000Y-110197759D01*
X106894637Y-109965241D01*
X106694759Y-109765363D01*
X106459727Y-109608320D01*
X106198574Y-109500147D01*
X105921335Y-109445000D01*
X105638665Y-109445000D01*
X105361426Y-109500147D01*
X105100273Y-109608320D01*
X104865241Y-109765363D01*
X104665363Y-109965241D01*
X104508320Y-110200273D01*
X104503933Y-110210865D01*
X104392385Y-110024869D01*
X104203414Y-109816481D01*
X103977420Y-109648963D01*
X103723087Y-109528754D01*
X103589039Y-109488096D01*
X103367000Y-109610085D01*
X103113000Y-109610085D01*
X102890961Y-109488096D01*
X102756913Y-109528754D01*
X102502580Y-109648963D01*
X102276586Y-109816481D01*
X102087615Y-110024869D01*
X101976067Y-110210865D01*
X101971680Y-110200273D01*
X101814637Y-109965241D01*
X101614759Y-109765363D01*
X101379727Y-109608320D01*
X101118574Y-109500147D01*
X100841335Y-109445000D01*
X100558665Y-109445000D01*
X100281426Y-109500147D01*
X100020273Y-109608320D01*
X99785241Y-109765363D01*
X99585363Y-109965241D01*
X99430000Y-110197759D01*
X99274637Y-109965241D01*
X99074759Y-109765363D01*
X98839727Y-109608320D01*
X98578574Y-109500147D01*
X98301335Y-109445000D01*
X98018665Y-109445000D01*
X97741426Y-109500147D01*
X97480273Y-109608320D01*
X97245241Y-109765363D01*
X97045363Y-109965241D01*
X96890000Y-110197759D01*
X96734637Y-109965241D01*
X96534759Y-109765363D01*
X96299727Y-109608320D01*
X96038574Y-109500147D01*
X95761335Y-109445000D01*
X95478665Y-109445000D01*
X95201426Y-109500147D01*
X94940273Y-109608320D01*
X94705241Y-109765363D01*
X94505363Y-109965241D01*
X94350000Y-110197759D01*
X94194637Y-109965241D01*
X93994759Y-109765363D01*
X93759727Y-109608320D01*
X93498574Y-109500147D01*
X93221335Y-109445000D01*
X92938665Y-109445000D01*
X92661426Y-109500147D01*
X92400273Y-109608320D01*
X92165241Y-109765363D01*
X91965363Y-109965241D01*
X91810000Y-110197759D01*
X91654637Y-109965241D01*
X91454759Y-109765363D01*
X91219727Y-109608320D01*
X90958574Y-109500147D01*
X90681335Y-109445000D01*
X90398665Y-109445000D01*
X90121426Y-109500147D01*
X89860273Y-109608320D01*
X89625241Y-109765363D01*
X89425363Y-109965241D01*
X89270000Y-110197759D01*
X89114637Y-109965241D01*
X88914759Y-109765363D01*
X88679727Y-109608320D01*
X88418574Y-109500147D01*
X88141335Y-109445000D01*
X87858665Y-109445000D01*
X87581426Y-109500147D01*
X87320273Y-109608320D01*
X87085241Y-109765363D01*
X86885363Y-109965241D01*
X86728320Y-110200273D01*
X86620147Y-110461426D01*
X86565000Y-110738665D01*
X86565000Y-111021335D01*
X86620147Y-111298574D01*
X86728320Y-111559727D01*
X86885363Y-111794759D01*
X87085241Y-111994637D01*
X87320273Y-112151680D01*
X87373595Y-112173767D01*
X87340226Y-112196063D01*
X87196063Y-112340226D01*
X87082795Y-112509744D01*
X87004774Y-112698102D01*
X86965000Y-112898061D01*
X86965000Y-113101939D01*
X87004774Y-113301898D01*
X87082795Y-113490256D01*
X87196063Y-113659774D01*
X87215001Y-113678712D01*
X87215000Y-115821289D01*
X87196063Y-115840226D01*
X87082795Y-116009744D01*
X87004774Y-116198102D01*
X86965000Y-116398061D01*
X86965000Y-116601939D01*
X87004774Y-116801898D01*
X87082795Y-116990256D01*
X87134964Y-117068333D01*
X87075518Y-117074188D01*
X86955820Y-117110498D01*
X86845506Y-117169463D01*
X86748815Y-117248815D01*
X86669463Y-117345506D01*
X86610498Y-117455820D01*
X86574188Y-117575518D01*
X86561928Y-117700000D01*
X83660000Y-117700000D01*
X83660000Y-103353740D01*
X86695000Y-103353740D01*
X86695000Y-103646260D01*
X86752068Y-103933158D01*
X86864010Y-104203411D01*
X87026525Y-104446632D01*
X87233368Y-104653475D01*
X87476589Y-104815990D01*
X87746842Y-104927932D01*
X88033740Y-104985000D01*
X88326260Y-104985000D01*
X88613158Y-104927932D01*
X88883411Y-104815990D01*
X89126632Y-104653475D01*
X89333475Y-104446632D01*
X89450000Y-104272240D01*
X89566525Y-104446632D01*
X89773368Y-104653475D01*
X90016589Y-104815990D01*
X90286842Y-104927932D01*
X90573740Y-104985000D01*
X90866260Y-104985000D01*
X91153158Y-104927932D01*
X91423411Y-104815990D01*
X91666632Y-104653475D01*
X91873475Y-104446632D01*
X91990000Y-104272240D01*
X92106525Y-104446632D01*
X92313368Y-104653475D01*
X92556589Y-104815990D01*
X92826842Y-104927932D01*
X93113740Y-104985000D01*
X93406260Y-104985000D01*
X93693158Y-104927932D01*
X93963411Y-104815990D01*
X94206632Y-104653475D01*
X94413475Y-104446632D01*
X94530000Y-104272240D01*
X94646525Y-104446632D01*
X94853368Y-104653475D01*
X95096589Y-104815990D01*
X95366842Y-104927932D01*
X95653740Y-104985000D01*
X95946260Y-104985000D01*
X96233158Y-104927932D01*
X96503411Y-104815990D01*
X96746632Y-104653475D01*
X96953475Y-104446632D01*
X97070000Y-104272240D01*
X97186525Y-104446632D01*
X97393368Y-104653475D01*
X97636589Y-104815990D01*
X97906842Y-104927932D01*
X98193740Y-104985000D01*
X98486260Y-104985000D01*
X98773158Y-104927932D01*
X99043411Y-104815990D01*
X99286632Y-104653475D01*
X99493475Y-104446632D01*
X99610000Y-104272240D01*
X99726525Y-104446632D01*
X99933368Y-104653475D01*
X100176589Y-104815990D01*
X100446842Y-104927932D01*
X100733740Y-104985000D01*
X101026260Y-104985000D01*
X101313158Y-104927932D01*
X101583411Y-104815990D01*
X101826632Y-104653475D01*
X102033475Y-104446632D01*
X102150000Y-104272240D01*
X102266525Y-104446632D01*
X102473368Y-104653475D01*
X102716589Y-104815990D01*
X102986842Y-104927932D01*
X103273740Y-104985000D01*
X103566260Y-104985000D01*
X103853158Y-104927932D01*
X104123411Y-104815990D01*
X104366632Y-104653475D01*
X104573475Y-104446632D01*
X104690000Y-104272240D01*
X104806525Y-104446632D01*
X105013368Y-104653475D01*
X105256589Y-104815990D01*
X105526842Y-104927932D01*
X105813740Y-104985000D01*
X106106260Y-104985000D01*
X106393158Y-104927932D01*
X106663411Y-104815990D01*
X106906632Y-104653475D01*
X107113475Y-104446632D01*
X107230000Y-104272240D01*
X107346525Y-104446632D01*
X107553368Y-104653475D01*
X107796589Y-104815990D01*
X108066842Y-104927932D01*
X108353740Y-104985000D01*
X108646260Y-104985000D01*
X108933158Y-104927932D01*
X109203411Y-104815990D01*
X109446632Y-104653475D01*
X109653475Y-104446632D01*
X109770000Y-104272240D01*
X109886525Y-104446632D01*
X110093368Y-104653475D01*
X110336589Y-104815990D01*
X110606842Y-104927932D01*
X110893740Y-104985000D01*
X111186260Y-104985000D01*
X111473158Y-104927932D01*
X111743411Y-104815990D01*
X111986632Y-104653475D01*
X112193475Y-104446632D01*
X112310000Y-104272240D01*
X112426525Y-104446632D01*
X112633368Y-104653475D01*
X112876589Y-104815990D01*
X113146842Y-104927932D01*
X113433740Y-104985000D01*
X113726260Y-104985000D01*
X114013158Y-104927932D01*
X114283411Y-104815990D01*
X114526632Y-104653475D01*
X114733475Y-104446632D01*
X114850000Y-104272240D01*
X114966525Y-104446632D01*
X115173368Y-104653475D01*
X115416589Y-104815990D01*
X115686842Y-104927932D01*
X115973740Y-104985000D01*
X116266260Y-104985000D01*
X116553158Y-104927932D01*
X116823411Y-104815990D01*
X117066632Y-104653475D01*
X117273475Y-104446632D01*
X117390000Y-104272240D01*
X117506525Y-104446632D01*
X117713368Y-104653475D01*
X117956589Y-104815990D01*
X118226842Y-104927932D01*
X118513740Y-104985000D01*
X118806260Y-104985000D01*
X119093158Y-104927932D01*
X119363411Y-104815990D01*
X119606632Y-104653475D01*
X119738487Y-104521620D01*
X119760498Y-104594180D01*
X119819463Y-104704494D01*
X119898815Y-104801185D01*
X119995506Y-104880537D01*
X120105820Y-104939502D01*
X120225518Y-104975812D01*
X120350000Y-104988072D01*
X122050000Y-104988072D01*
X122174482Y-104975812D01*
X122294180Y-104939502D01*
X122373898Y-104896891D01*
X131938519Y-104896891D01*
X132035843Y-105171252D01*
X132184822Y-105421355D01*
X132379731Y-105637588D01*
X132613080Y-105811641D01*
X132875901Y-105936825D01*
X133023110Y-105981476D01*
X133253000Y-105860155D01*
X133253000Y-104667000D01*
X133507000Y-104667000D01*
X133507000Y-105860155D01*
X133736890Y-105981476D01*
X133884099Y-105936825D01*
X134146920Y-105811641D01*
X134380269Y-105637588D01*
X134575178Y-105421355D01*
X134650000Y-105295745D01*
X134724822Y-105421355D01*
X134919731Y-105637588D01*
X135153080Y-105811641D01*
X135415901Y-105936825D01*
X135563110Y-105981476D01*
X135793000Y-105860155D01*
X135793000Y-104667000D01*
X136047000Y-104667000D01*
X136047000Y-105860155D01*
X136276890Y-105981476D01*
X136424099Y-105936825D01*
X136686920Y-105811641D01*
X136920269Y-105637588D01*
X137115178Y-105421355D01*
X137190000Y-105295745D01*
X137264822Y-105421355D01*
X137459731Y-105637588D01*
X137693080Y-105811641D01*
X137955901Y-105936825D01*
X138103110Y-105981476D01*
X138333000Y-105860155D01*
X138333000Y-104667000D01*
X138587000Y-104667000D01*
X138587000Y-105860155D01*
X138816890Y-105981476D01*
X138964099Y-105936825D01*
X139226920Y-105811641D01*
X139460269Y-105637588D01*
X139655178Y-105421355D01*
X139730000Y-105295745D01*
X139804822Y-105421355D01*
X139999731Y-105637588D01*
X140233080Y-105811641D01*
X140495901Y-105936825D01*
X140643110Y-105981476D01*
X140873000Y-105860155D01*
X140873000Y-104667000D01*
X141127000Y-104667000D01*
X141127000Y-105860155D01*
X141356890Y-105981476D01*
X141504099Y-105936825D01*
X141766920Y-105811641D01*
X142000269Y-105637588D01*
X142195178Y-105421355D01*
X142270000Y-105295745D01*
X142344822Y-105421355D01*
X142539731Y-105637588D01*
X142773080Y-105811641D01*
X143035901Y-105936825D01*
X143183110Y-105981476D01*
X143413000Y-105860155D01*
X143413000Y-104667000D01*
X143667000Y-104667000D01*
X143667000Y-105860155D01*
X143896890Y-105981476D01*
X144044099Y-105936825D01*
X144306920Y-105811641D01*
X144540269Y-105637588D01*
X144735178Y-105421355D01*
X144810000Y-105295745D01*
X144884822Y-105421355D01*
X145079731Y-105637588D01*
X145313080Y-105811641D01*
X145575901Y-105936825D01*
X145723110Y-105981476D01*
X145953000Y-105860155D01*
X145953000Y-104667000D01*
X146207000Y-104667000D01*
X146207000Y-105860155D01*
X146436890Y-105981476D01*
X146584099Y-105936825D01*
X146846920Y-105811641D01*
X147080269Y-105637588D01*
X147275178Y-105421355D01*
X147350000Y-105295745D01*
X147424822Y-105421355D01*
X147619731Y-105637588D01*
X147853080Y-105811641D01*
X148115901Y-105936825D01*
X148263110Y-105981476D01*
X148493000Y-105860155D01*
X148493000Y-104667000D01*
X148747000Y-104667000D01*
X148747000Y-105860155D01*
X148976890Y-105981476D01*
X149124099Y-105936825D01*
X149386920Y-105811641D01*
X149620269Y-105637588D01*
X149815178Y-105421355D01*
X149964157Y-105171252D01*
X150061481Y-104896891D01*
X149940814Y-104667000D01*
X148747000Y-104667000D01*
X148493000Y-104667000D01*
X146207000Y-104667000D01*
X145953000Y-104667000D01*
X143667000Y-104667000D01*
X143413000Y-104667000D01*
X141127000Y-104667000D01*
X140873000Y-104667000D01*
X138587000Y-104667000D01*
X138333000Y-104667000D01*
X136047000Y-104667000D01*
X135793000Y-104667000D01*
X133507000Y-104667000D01*
X133253000Y-104667000D01*
X132059186Y-104667000D01*
X131938519Y-104896891D01*
X122373898Y-104896891D01*
X122404494Y-104880537D01*
X122501185Y-104801185D01*
X122580537Y-104704494D01*
X122639502Y-104594180D01*
X122675812Y-104474482D01*
X122688072Y-104350000D01*
X122688072Y-102650000D01*
X122675812Y-102525518D01*
X122639502Y-102405820D01*
X122580537Y-102295506D01*
X122501185Y-102198815D01*
X122404494Y-102119463D01*
X122294180Y-102060498D01*
X122174482Y-102024188D01*
X122050000Y-102011928D01*
X120350000Y-102011928D01*
X120225518Y-102024188D01*
X120105820Y-102060498D01*
X119995506Y-102119463D01*
X119898815Y-102198815D01*
X119819463Y-102295506D01*
X119760498Y-102405820D01*
X119738487Y-102478380D01*
X119606632Y-102346525D01*
X119363411Y-102184010D01*
X119093158Y-102072068D01*
X118806260Y-102015000D01*
X118513740Y-102015000D01*
X118226842Y-102072068D01*
X117956589Y-102184010D01*
X117713368Y-102346525D01*
X117506525Y-102553368D01*
X117390000Y-102727760D01*
X117273475Y-102553368D01*
X117066632Y-102346525D01*
X116823411Y-102184010D01*
X116553158Y-102072068D01*
X116266260Y-102015000D01*
X115973740Y-102015000D01*
X115686842Y-102072068D01*
X115416589Y-102184010D01*
X115173368Y-102346525D01*
X114966525Y-102553368D01*
X114850000Y-102727760D01*
X114733475Y-102553368D01*
X114526632Y-102346525D01*
X114283411Y-102184010D01*
X114013158Y-102072068D01*
X113726260Y-102015000D01*
X113433740Y-102015000D01*
X113146842Y-102072068D01*
X112876589Y-102184010D01*
X112633368Y-102346525D01*
X112426525Y-102553368D01*
X112310000Y-102727760D01*
X112193475Y-102553368D01*
X111986632Y-102346525D01*
X111743411Y-102184010D01*
X111473158Y-102072068D01*
X111186260Y-102015000D01*
X110893740Y-102015000D01*
X110606842Y-102072068D01*
X110336589Y-102184010D01*
X110093368Y-102346525D01*
X109886525Y-102553368D01*
X109770000Y-102727760D01*
X109653475Y-102553368D01*
X109446632Y-102346525D01*
X109203411Y-102184010D01*
X108933158Y-102072068D01*
X108646260Y-102015000D01*
X108353740Y-102015000D01*
X108066842Y-102072068D01*
X107796589Y-102184010D01*
X107553368Y-102346525D01*
X107346525Y-102553368D01*
X107230000Y-102727760D01*
X107113475Y-102553368D01*
X106906632Y-102346525D01*
X106663411Y-102184010D01*
X106393158Y-102072068D01*
X106106260Y-102015000D01*
X105813740Y-102015000D01*
X105526842Y-102072068D01*
X105256589Y-102184010D01*
X105013368Y-102346525D01*
X104806525Y-102553368D01*
X104690000Y-102727760D01*
X104573475Y-102553368D01*
X104366632Y-102346525D01*
X104123411Y-102184010D01*
X103853158Y-102072068D01*
X103566260Y-102015000D01*
X103273740Y-102015000D01*
X102986842Y-102072068D01*
X102716589Y-102184010D01*
X102473368Y-102346525D01*
X102266525Y-102553368D01*
X102150000Y-102727760D01*
X102033475Y-102553368D01*
X101826632Y-102346525D01*
X101583411Y-102184010D01*
X101313158Y-102072068D01*
X101026260Y-102015000D01*
X100733740Y-102015000D01*
X100446842Y-102072068D01*
X100176589Y-102184010D01*
X99933368Y-102346525D01*
X99726525Y-102553368D01*
X99610000Y-102727760D01*
X99493475Y-102553368D01*
X99286632Y-102346525D01*
X99043411Y-102184010D01*
X98773158Y-102072068D01*
X98486260Y-102015000D01*
X98193740Y-102015000D01*
X97906842Y-102072068D01*
X97636589Y-102184010D01*
X97393368Y-102346525D01*
X97186525Y-102553368D01*
X97070000Y-102727760D01*
X96953475Y-102553368D01*
X96746632Y-102346525D01*
X96503411Y-102184010D01*
X96233158Y-102072068D01*
X95946260Y-102015000D01*
X95653740Y-102015000D01*
X95366842Y-102072068D01*
X95096589Y-102184010D01*
X94853368Y-102346525D01*
X94646525Y-102553368D01*
X94530000Y-102727760D01*
X94413475Y-102553368D01*
X94206632Y-102346525D01*
X93963411Y-102184010D01*
X93693158Y-102072068D01*
X93406260Y-102015000D01*
X93113740Y-102015000D01*
X92826842Y-102072068D01*
X92556589Y-102184010D01*
X92313368Y-102346525D01*
X92106525Y-102553368D01*
X91990000Y-102727760D01*
X91873475Y-102553368D01*
X91666632Y-102346525D01*
X91423411Y-102184010D01*
X91153158Y-102072068D01*
X90866260Y-102015000D01*
X90573740Y-102015000D01*
X90286842Y-102072068D01*
X90016589Y-102184010D01*
X89773368Y-102346525D01*
X89566525Y-102553368D01*
X89450000Y-102727760D01*
X89333475Y-102553368D01*
X89126632Y-102346525D01*
X88883411Y-102184010D01*
X88613158Y-102072068D01*
X88326260Y-102015000D01*
X88033740Y-102015000D01*
X87746842Y-102072068D01*
X87476589Y-102184010D01*
X87233368Y-102346525D01*
X87026525Y-102553368D01*
X86864010Y-102796589D01*
X86752068Y-103066842D01*
X86695000Y-103353740D01*
X83660000Y-103353740D01*
X83660000Y-101150000D01*
X131891928Y-101150000D01*
X131891928Y-102850000D01*
X131904188Y-102974482D01*
X131940498Y-103094180D01*
X131999463Y-103204494D01*
X132078815Y-103301185D01*
X132175506Y-103380537D01*
X132285820Y-103439502D01*
X132361626Y-103462498D01*
X132184822Y-103658645D01*
X132035843Y-103908748D01*
X131938519Y-104183109D01*
X132059186Y-104413000D01*
X133253000Y-104413000D01*
X133253000Y-104393000D01*
X133507000Y-104393000D01*
X133507000Y-104413000D01*
X135793000Y-104413000D01*
X135793000Y-104393000D01*
X136047000Y-104393000D01*
X136047000Y-104413000D01*
X138333000Y-104413000D01*
X138333000Y-104393000D01*
X138587000Y-104393000D01*
X138587000Y-104413000D01*
X140873000Y-104413000D01*
X140873000Y-104393000D01*
X141127000Y-104393000D01*
X141127000Y-104413000D01*
X143413000Y-104413000D01*
X143413000Y-104393000D01*
X143667000Y-104393000D01*
X143667000Y-104413000D01*
X145953000Y-104413000D01*
X145953000Y-104393000D01*
X146207000Y-104393000D01*
X146207000Y-104413000D01*
X148493000Y-104413000D01*
X148493000Y-104393000D01*
X148747000Y-104393000D01*
X148747000Y-104413000D01*
X149940814Y-104413000D01*
X150061481Y-104183109D01*
X149964157Y-103908748D01*
X149815178Y-103658645D01*
X149620269Y-103442412D01*
X149390594Y-103271100D01*
X149566632Y-103153475D01*
X149773475Y-102946632D01*
X149935990Y-102703411D01*
X150047932Y-102433158D01*
X150105000Y-102146260D01*
X150105000Y-101853740D01*
X150047932Y-101566842D01*
X149935990Y-101296589D01*
X149773475Y-101053368D01*
X149566632Y-100846525D01*
X149323411Y-100684010D01*
X149053158Y-100572068D01*
X148766260Y-100515000D01*
X148473740Y-100515000D01*
X148186842Y-100572068D01*
X147916589Y-100684010D01*
X147673368Y-100846525D01*
X147466525Y-101053368D01*
X147350000Y-101227760D01*
X147233475Y-101053368D01*
X147026632Y-100846525D01*
X146783411Y-100684010D01*
X146513158Y-100572068D01*
X146226260Y-100515000D01*
X145933740Y-100515000D01*
X145646842Y-100572068D01*
X145376589Y-100684010D01*
X145133368Y-100846525D01*
X144926525Y-101053368D01*
X144810000Y-101227760D01*
X144693475Y-101053368D01*
X144486632Y-100846525D01*
X144243411Y-100684010D01*
X143973158Y-100572068D01*
X143686260Y-100515000D01*
X143393740Y-100515000D01*
X143106842Y-100572068D01*
X142836589Y-100684010D01*
X142593368Y-100846525D01*
X142386525Y-101053368D01*
X142270000Y-101227760D01*
X142153475Y-101053368D01*
X141946632Y-100846525D01*
X141703411Y-100684010D01*
X141433158Y-100572068D01*
X141146260Y-100515000D01*
X140853740Y-100515000D01*
X140566842Y-100572068D01*
X140296589Y-100684010D01*
X140053368Y-100846525D01*
X139846525Y-101053368D01*
X139730000Y-101227760D01*
X139613475Y-101053368D01*
X139406632Y-100846525D01*
X139163411Y-100684010D01*
X138893158Y-100572068D01*
X138606260Y-100515000D01*
X138313740Y-100515000D01*
X138026842Y-100572068D01*
X137756589Y-100684010D01*
X137513368Y-100846525D01*
X137306525Y-101053368D01*
X137190000Y-101227760D01*
X137073475Y-101053368D01*
X136866632Y-100846525D01*
X136623411Y-100684010D01*
X136353158Y-100572068D01*
X136066260Y-100515000D01*
X135773740Y-100515000D01*
X135486842Y-100572068D01*
X135216589Y-100684010D01*
X134973368Y-100846525D01*
X134841513Y-100978380D01*
X134819502Y-100905820D01*
X134760537Y-100795506D01*
X134681185Y-100698815D01*
X134584494Y-100619463D01*
X134474180Y-100560498D01*
X134354482Y-100524188D01*
X134230000Y-100511928D01*
X132530000Y-100511928D01*
X132405518Y-100524188D01*
X132285820Y-100560498D01*
X132175506Y-100619463D01*
X132078815Y-100698815D01*
X131999463Y-100795506D01*
X131940498Y-100905820D01*
X131904188Y-101025518D01*
X131891928Y-101150000D01*
X83660000Y-101150000D01*
X83660000Y-99135413D01*
X126544192Y-99135413D01*
X126639956Y-99399814D01*
X126929571Y-99540704D01*
X127241108Y-99622384D01*
X127562595Y-99641718D01*
X127881675Y-99597961D01*
X128186088Y-99492795D01*
X128360044Y-99399814D01*
X128455808Y-99135413D01*
X127500000Y-98179605D01*
X126544192Y-99135413D01*
X83660000Y-99135413D01*
X83660000Y-98062595D01*
X125858282Y-98062595D01*
X125902039Y-98381675D01*
X126007205Y-98686088D01*
X126100186Y-98860044D01*
X126364587Y-98955808D01*
X127320395Y-98000000D01*
X127679605Y-98000000D01*
X128635413Y-98955808D01*
X128899814Y-98860044D01*
X129040704Y-98570429D01*
X129122384Y-98258892D01*
X129141718Y-97937405D01*
X129097961Y-97618325D01*
X128992795Y-97313912D01*
X128899814Y-97139956D01*
X128635413Y-97044192D01*
X127679605Y-98000000D01*
X127320395Y-98000000D01*
X126364587Y-97044192D01*
X126100186Y-97139956D01*
X125959296Y-97429571D01*
X125877616Y-97741108D01*
X125858282Y-98062595D01*
X83660000Y-98062595D01*
X83660000Y-96864587D01*
X126544192Y-96864587D01*
X127500000Y-97820395D01*
X128455808Y-96864587D01*
X128360044Y-96600186D01*
X128070429Y-96459296D01*
X127758892Y-96377616D01*
X127437405Y-96358282D01*
X127118325Y-96402039D01*
X126813912Y-96507205D01*
X126639956Y-96600186D01*
X126544192Y-96864587D01*
X83660000Y-96864587D01*
X83660000Y-93500000D01*
X125861928Y-93500000D01*
X125861928Y-95500000D01*
X125874188Y-95624482D01*
X125910498Y-95744180D01*
X125969463Y-95854494D01*
X126048815Y-95951185D01*
X126145506Y-96030537D01*
X126255820Y-96089502D01*
X126375518Y-96125812D01*
X126500000Y-96138072D01*
X128500000Y-96138072D01*
X128624482Y-96125812D01*
X128744180Y-96089502D01*
X128854494Y-96030537D01*
X128951185Y-95951185D01*
X129030537Y-95854494D01*
X129089502Y-95744180D01*
X129125812Y-95624482D01*
X129138072Y-95500000D01*
X129138072Y-93500000D01*
X129125812Y-93375518D01*
X129089502Y-93255820D01*
X129030537Y-93145506D01*
X128951185Y-93048815D01*
X128854494Y-92969463D01*
X128744180Y-92910498D01*
X128624482Y-92874188D01*
X128500000Y-92861928D01*
X126500000Y-92861928D01*
X126375518Y-92874188D01*
X126255820Y-92910498D01*
X126145506Y-92969463D01*
X126048815Y-93048815D01*
X125969463Y-93145506D01*
X125910498Y-93255820D01*
X125874188Y-93375518D01*
X125861928Y-93500000D01*
X83660000Y-93500000D01*
X83660000Y-91416481D01*
X84763124Y-91416481D01*
X85075308Y-91865177D01*
X85671259Y-92185612D01*
X86318273Y-92383626D01*
X86991484Y-92451610D01*
X87665023Y-92386949D01*
X88313006Y-92192130D01*
X88910530Y-91874639D01*
X88924692Y-91865177D01*
X89236876Y-91416481D01*
X89159362Y-91338967D01*
X98365000Y-91338967D01*
X98365000Y-91661033D01*
X98427832Y-91976912D01*
X98551082Y-92274463D01*
X98730013Y-92542252D01*
X98957748Y-92769987D01*
X99225537Y-92948918D01*
X99523088Y-93072168D01*
X99838967Y-93135000D01*
X100161033Y-93135000D01*
X100476912Y-93072168D01*
X100774463Y-92948918D01*
X101042252Y-92769987D01*
X101269987Y-92542252D01*
X101448918Y-92274463D01*
X101572168Y-91976912D01*
X101635000Y-91661033D01*
X101635000Y-91446890D01*
X137708524Y-91446890D01*
X137753175Y-91594099D01*
X137878359Y-91856920D01*
X138052412Y-92090269D01*
X138268645Y-92285178D01*
X138518748Y-92434157D01*
X138793109Y-92531481D01*
X139023000Y-92410814D01*
X139023000Y-91217000D01*
X139277000Y-91217000D01*
X139277000Y-92410814D01*
X139506891Y-92531481D01*
X139781252Y-92434157D01*
X140031355Y-92285178D01*
X140247588Y-92090269D01*
X140421641Y-91856920D01*
X140546825Y-91594099D01*
X140591476Y-91446890D01*
X140575429Y-91416481D01*
X144763124Y-91416481D01*
X145075308Y-91865177D01*
X145671259Y-92185612D01*
X146318273Y-92383626D01*
X146991484Y-92451610D01*
X147665023Y-92386949D01*
X148313006Y-92192130D01*
X148910530Y-91874639D01*
X148924692Y-91865177D01*
X149236876Y-91416481D01*
X147000000Y-89179605D01*
X144763124Y-91416481D01*
X140575429Y-91416481D01*
X140470155Y-91217000D01*
X139277000Y-91217000D01*
X139023000Y-91217000D01*
X137829845Y-91217000D01*
X137708524Y-91446890D01*
X101635000Y-91446890D01*
X101635000Y-91338967D01*
X101572168Y-91023088D01*
X101448918Y-90725537D01*
X101269987Y-90457748D01*
X101042252Y-90230013D01*
X100774463Y-90051082D01*
X100476912Y-89927832D01*
X100161033Y-89865000D01*
X99838967Y-89865000D01*
X99523088Y-89927832D01*
X99225537Y-90051082D01*
X98957748Y-90230013D01*
X98730013Y-90457748D01*
X98551082Y-90725537D01*
X98427832Y-91023088D01*
X98365000Y-91338967D01*
X89159362Y-91338967D01*
X87000000Y-89179605D01*
X84763124Y-91416481D01*
X83660000Y-91416481D01*
X83660000Y-89821179D01*
X83807870Y-90313006D01*
X84125361Y-90910530D01*
X84134823Y-90924692D01*
X84583519Y-91236876D01*
X86820395Y-89000000D01*
X87179605Y-89000000D01*
X89416481Y-91236876D01*
X89865177Y-90924692D01*
X90185612Y-90328741D01*
X90383626Y-89681727D01*
X90451610Y-89008516D01*
X90386949Y-88334977D01*
X90192130Y-87686994D01*
X89880235Y-87100000D01*
X98358299Y-87100000D01*
X98385040Y-87371507D01*
X98464236Y-87632581D01*
X98592843Y-87873188D01*
X98765919Y-88084081D01*
X98976812Y-88257157D01*
X99217419Y-88385764D01*
X99478493Y-88464960D01*
X99681963Y-88485000D01*
X100318037Y-88485000D01*
X100521507Y-88464960D01*
X100782581Y-88385764D01*
X101023188Y-88257157D01*
X101234081Y-88084081D01*
X101407157Y-87873188D01*
X101535764Y-87632581D01*
X101614960Y-87371507D01*
X101641701Y-87100000D01*
X101614960Y-86828493D01*
X101535764Y-86567419D01*
X101407157Y-86326812D01*
X101234081Y-86115919D01*
X101023188Y-85942843D01*
X100782581Y-85814236D01*
X100521507Y-85735040D01*
X100318037Y-85715000D01*
X99681963Y-85715000D01*
X99478493Y-85735040D01*
X99217419Y-85814236D01*
X98976812Y-85942843D01*
X98765919Y-86115919D01*
X98592843Y-86326812D01*
X98464236Y-86567419D01*
X98385040Y-86828493D01*
X98358299Y-87100000D01*
X89880235Y-87100000D01*
X89874639Y-87089470D01*
X89865177Y-87075308D01*
X89416481Y-86763124D01*
X87179605Y-89000000D01*
X86820395Y-89000000D01*
X84583519Y-86763124D01*
X84134823Y-87075308D01*
X83814388Y-87671259D01*
X83660000Y-88175724D01*
X83660000Y-87032279D01*
X83688625Y-86740341D01*
X83764035Y-86490571D01*
X83886522Y-86260208D01*
X84051422Y-86058020D01*
X84252450Y-85891714D01*
X84481954Y-85767622D01*
X84731195Y-85690469D01*
X85021088Y-85660000D01*
X86178821Y-85660000D01*
X85686994Y-85807870D01*
G37*
%TD.AperFunction*%
%TD*%
M02*
